<?xml version="1.0" encoding="utf-8" standalone="no"?>
<!DOCTYPE svg PUBLIC "-//W3C//DTD SVG 1.1//EN"
  "http://www.w3.org/Graphics/SVG/1.1/DTD/svg11.dtd">
<!-- Created with matplotlib (https://matplotlib.org/) -->
<svg height="288pt" version="1.1" viewBox="0 0 612 288" width="612pt" xmlns="http://www.w3.org/2000/svg" xmlns:xlink="http://www.w3.org/1999/xlink">
 <metadata>
  <rdf:RDF xmlns:cc="http://creativecommons.org/ns#" xmlns:dc="http://purl.org/dc/elements/1.1/" xmlns:rdf="http://www.w3.org/1999/02/22-rdf-syntax-ns#">
   <cc:Work>
    <dc:type rdf:resource="http://purl.org/dc/dcmitype/StillImage"/>
    <dc:date>2022-03-08T10:31:14.704950</dc:date>
    <dc:format>image/svg+xml</dc:format>
    <dc:creator>
     <cc:Agent>
      <dc:title>Matplotlib v3.3.4, https://matplotlib.org/</dc:title>
     </cc:Agent>
    </dc:creator>
   </cc:Work>
  </rdf:RDF>
 </metadata>
 <defs>
  <style type="text/css">*{stroke-linecap:butt;stroke-linejoin:round;}</style>
 </defs>
 <g id="figure_1">
  <g id="patch_1">
   <path d="M 0 288 
L 612 288 
L 612 0 
L 0 0 
z
" style="fill:#ffffff;"/>
  </g>
  <g id="axes_1">
   <g id="patch_2">
    <path d="M 76.5 252 
L 292.090909 252 
L 292.090909 34.56 
L 76.5 34.56 
z
" style="fill:#ffffff;"/>
   </g>
   <g id="matplotlib.axis_1">
    <g id="xtick_1">
     <g id="line2d_1">
      <defs>
       <path d="M 0 0 
L 0 6 
" id="m0307ef51a8" style="stroke:#262626;stroke-width:1.25;"/>
      </defs>
      <g>
       <use style="fill:#262626;stroke:#262626;stroke-width:1.25;" x="78.715699" xlink:href="#m0307ef51a8" y="252"/>
      </g>
     </g>
     <g id="text_1">
      <text style="fill:#262626;font-family:DejaVu Sans;font-size:13.2px;font-stretch:normal;font-style:normal;font-weight:normal;text-anchor:middle;" transform="rotate(-0, 78.715699, 271.529938)" x="78.715699" y="271.529938">−6</text>
     </g>
    </g>
    <g id="xtick_2">
     <g id="line2d_2">
      <g>
       <use style="fill:#262626;stroke:#262626;stroke-width:1.25;" x="156.023846" xlink:href="#m0307ef51a8" y="252"/>
      </g>
     </g>
     <g id="text_2">
      <text style="fill:#262626;font-family:DejaVu Sans;font-size:13.2px;font-stretch:normal;font-style:normal;font-weight:normal;text-anchor:middle;" transform="rotate(-0, 156.023846, 271.529938)" x="156.023846" y="271.529938">−4</text>
     </g>
    </g>
    <g id="xtick_3">
     <g id="line2d_3">
      <g>
       <use style="fill:#262626;stroke:#262626;stroke-width:1.25;" x="233.331993" xlink:href="#m0307ef51a8" y="252"/>
      </g>
     </g>
     <g id="text_3">
      <text style="fill:#262626;font-family:DejaVu Sans;font-size:13.2px;font-stretch:normal;font-style:normal;font-weight:normal;text-anchor:middle;" transform="rotate(-0, 233.331993, 271.529938)" x="233.331993" y="271.529938">−2</text>
     </g>
    </g>
    <g id="text_4">
     <text style="fill:#262626;font-family:DejaVu Sans;font-size:14.4px;font-stretch:normal;font-style:normal;font-weight:normal;text-anchor:middle;" transform="rotate(-0, 184.295455, 289.216875)" x="184.295455" y="289.216875">U5 PSSM log-likelihood</text>
    </g>
   </g>
   <g id="matplotlib.axis_2">
    <g id="ytick_1">
     <g id="line2d_4">
      <defs>
       <path d="M 0 0 
L -6 0 
" id="m0ff5266780" style="stroke:#262626;stroke-width:1.25;"/>
      </defs>
      <g>
       <use style="fill:#262626;stroke:#262626;stroke-width:1.25;" x="76.5" xlink:href="#m0ff5266780" y="242.151218"/>
      </g>
     </g>
     <g id="text_5">
      <text style="fill:#262626;font-family:DejaVu Sans;font-size:13.2px;font-stretch:normal;font-style:normal;font-weight:normal;text-anchor:end;" transform="rotate(-0, 67, 247.166187)" x="67" y="247.166187">0.0</text>
     </g>
    </g>
    <g id="ytick_2">
     <g id="line2d_5">
      <g>
       <use style="fill:#262626;stroke:#262626;stroke-width:1.25;" x="76.5" xlink:href="#m0ff5266780" y="202.609702"/>
      </g>
     </g>
     <g id="text_6">
      <text style="fill:#262626;font-family:DejaVu Sans;font-size:13.2px;font-stretch:normal;font-style:normal;font-weight:normal;text-anchor:end;" transform="rotate(-0, 67, 207.624671)" x="67" y="207.624671">0.2</text>
     </g>
    </g>
    <g id="ytick_3">
     <g id="line2d_6">
      <g>
       <use style="fill:#262626;stroke:#262626;stroke-width:1.25;" x="76.5" xlink:href="#m0ff5266780" y="163.068186"/>
      </g>
     </g>
     <g id="text_7">
      <text style="fill:#262626;font-family:DejaVu Sans;font-size:13.2px;font-stretch:normal;font-style:normal;font-weight:normal;text-anchor:end;" transform="rotate(-0, 67, 168.083154)" x="67" y="168.083154">0.4</text>
     </g>
    </g>
    <g id="ytick_4">
     <g id="line2d_7">
      <g>
       <use style="fill:#262626;stroke:#262626;stroke-width:1.25;" x="76.5" xlink:href="#m0ff5266780" y="123.526669"/>
      </g>
     </g>
     <g id="text_8">
      <text style="fill:#262626;font-family:DejaVu Sans;font-size:13.2px;font-stretch:normal;font-style:normal;font-weight:normal;text-anchor:end;" transform="rotate(-0, 67, 128.541638)" x="67" y="128.541638">0.6</text>
     </g>
    </g>
    <g id="ytick_5">
     <g id="line2d_8">
      <g>
       <use style="fill:#262626;stroke:#262626;stroke-width:1.25;" x="76.5" xlink:href="#m0ff5266780" y="83.985153"/>
      </g>
     </g>
     <g id="text_9">
      <text style="fill:#262626;font-family:DejaVu Sans;font-size:13.2px;font-stretch:normal;font-style:normal;font-weight:normal;text-anchor:end;" transform="rotate(-0, 67, 89.000122)" x="67" y="89.000122">0.8</text>
     </g>
    </g>
    <g id="ytick_6">
     <g id="line2d_9">
      <g>
       <use style="fill:#262626;stroke:#262626;stroke-width:1.25;" x="76.5" xlink:href="#m0ff5266780" y="44.443636"/>
      </g>
     </g>
     <g id="text_10">
      <text style="fill:#262626;font-family:DejaVu Sans;font-size:13.2px;font-stretch:normal;font-style:normal;font-weight:normal;text-anchor:end;" transform="rotate(-0, 67, 49.458605)" x="67" y="49.458605">1.0</text>
     </g>
    </g>
   </g>
   <g id="line2d_10">
    <path clip-path="url(#p16219d619c)" d="M 86.299587 239.888267 
L 95.893774 239.888267 
L 95.893774 235.864552 
L 114.94023 235.864552 
L 114.94023 230.780661 
L 125.245333 230.780661 
L 125.245333 223.979406 
L 127.775618 223.979406 
L 127.775618 218.380925 
L 134.83952 218.380925 
L 134.83952 210.445095 
L 137.369805 210.445095 
L 137.369805 194.970225 
L 153.885976 194.970225 
L 153.885976 191.417701 
L 156.416261 191.417701 
L 156.416261 178.453777 
L 164.026039 178.453777 
L 164.026039 172.849097 
L 202.971785 172.849097 
L 202.971785 150.988363 
L 204.56487 150.988363 
L 204.56487 140.256392 
L 205.50207 140.256392 
L 205.50207 121.526592 
L 214.159058 121.526592 
L 214.159058 109.678645 
L 233.205513 109.678645 
L 233.205513 82.008635 
L 282.291322 82.008635 
L 282.291322 44.443636 
" style="fill:none;stroke:#0072b2;stroke-linecap:round;stroke-opacity:0.8;stroke-width:3;"/>
   </g>
   <g id="line2d_11">
    <path clip-path="url(#p16219d619c)" d="M 86.299587 241.692531 
L 95.893774 241.692531 
L 95.893774 240.931224 
L 114.94023 240.931224 
L 114.94023 239.873008 
L 125.245333 239.873008 
L 125.245333 237.811769 
L 127.775618 237.811769 
L 127.775618 236.488999 
L 134.83952 236.488999 
L 134.83952 234.766542 
L 137.369805 234.766542 
L 137.369805 232.564462 
L 153.885976 232.564462 
L 153.885976 231.629958 
L 156.416261 231.629958 
L 156.416261 229.317488 
L 164.026039 229.317488 
L 164.026039 227.572192 
L 202.971785 227.572192 
L 202.971785 219.323433 
L 204.56487 219.323433 
L 204.56487 209.154276 
L 205.50207 209.154276 
L 205.50207 204.186749 
L 214.159058 204.186749 
L 214.159058 192.980312 
L 233.205513 192.980312 
L 233.205513 166.660031 
L 282.291322 166.660031 
L 282.291322 44.443636 
" style="fill:none;stroke:#d55e00;stroke-linecap:round;stroke-opacity:0.8;stroke-width:3;"/>
   </g>
   <g id="patch_3">
    <path d="M 76.5 252 
L 76.5 34.56 
" style="fill:none;stroke:#262626;stroke-linecap:square;stroke-linejoin:miter;stroke-width:1.25;"/>
   </g>
   <g id="patch_4">
    <path d="M 292.090909 252 
L 292.090909 34.56 
" style="fill:none;stroke:#262626;stroke-linecap:square;stroke-linejoin:miter;stroke-width:1.25;"/>
   </g>
   <g id="patch_5">
    <path d="M 76.5 252 
L 292.090909 252 
" style="fill:none;stroke:#262626;stroke-linecap:square;stroke-linejoin:miter;stroke-width:1.25;"/>
   </g>
   <g id="patch_6">
    <path d="M 76.5 34.56 
L 292.090909 34.56 
" style="fill:none;stroke:#262626;stroke-linecap:square;stroke-linejoin:miter;stroke-width:1.25;"/>
   </g>
   <g id="legend_1">
    <g id="patch_7">
     <path d="M 85.74 104.40675 
L 184.432688 104.40675 
Q 187.072688 104.40675 187.072688 101.76675 
L 187.072688 43.8 
Q 187.072688 41.16 184.432688 41.16 
L 85.74 41.16 
Q 83.1 41.16 83.1 43.8 
L 83.1 101.76675 
Q 83.1 104.40675 85.74 104.40675 
z
" style="fill:#ffffff;opacity:0.8;stroke:#cccccc;stroke-linejoin:miter;"/>
    </g>
    <g id="text_11">
     <text style="fill:#262626;font-family:DejaVu Sans;font-size:14.4px;font-stretch:normal;font-style:normal;font-weight:normal;text-anchor:start;" transform="rotate(-0, 105.074719, 57.38175)" x="105.074719" y="57.38175">U6 class</text>
    </g>
    <g id="line2d_12">
     <path d="M 88.38 72.386437 
L 114.78 72.386437 
" style="fill:none;stroke:#0072b2;stroke-linecap:round;stroke-opacity:0.8;stroke-width:3;"/>
    </g>
    <g id="line2d_13"/>
    <g id="text_12">
     <text style="fill:#262626;font-family:DejaVu Sans;font-size:13.2px;font-stretch:normal;font-style:normal;font-weight:normal;text-anchor:start;" transform="rotate(-0, 125.34, 77.006437)" x="125.34" y="77.006437">//GURAG</text>
    </g>
    <g id="line2d_14">
     <path d="M 88.38 91.761562 
L 114.78 91.761562 
" style="fill:none;stroke:#d55e00;stroke-linecap:round;stroke-opacity:0.8;stroke-width:3;"/>
    </g>
    <g id="line2d_15"/>
    <g id="text_13">
     <text style="fill:#262626;font-family:DejaVu Sans;font-size:13.2px;font-stretch:normal;font-style:normal;font-weight:normal;text-anchor:start;" transform="rotate(-0, 125.34, 96.381562)" x="125.34" y="96.381562">Other</text>
    </g>
   </g>
  </g>
  <g id="axes_2">
   <g id="patch_8">
    <path d="M 335.209091 252 
L 550.8 252 
L 550.8 34.56 
L 335.209091 34.56 
z
" style="fill:#ffffff;"/>
   </g>
   <g id="matplotlib.axis_3">
    <g id="xtick_4">
     <g id="line2d_16">
      <g>
       <use style="fill:#262626;stroke:#262626;stroke-width:1.25;" x="350.479009" xlink:href="#m0307ef51a8" y="252"/>
      </g>
     </g>
     <g id="text_14">
      <text style="fill:#262626;font-family:DejaVu Sans;font-size:13.2px;font-stretch:normal;font-style:normal;font-weight:normal;text-anchor:middle;" transform="rotate(-0, 350.479009, 271.529938)" x="350.479009" y="271.529938">−8</text>
     </g>
    </g>
    <g id="xtick_5">
     <g id="line2d_17">
      <g>
       <use style="fill:#262626;stroke:#262626;stroke-width:1.25;" x="411.473492" xlink:href="#m0307ef51a8" y="252"/>
      </g>
     </g>
     <g id="text_15">
      <text style="fill:#262626;font-family:DejaVu Sans;font-size:13.2px;font-stretch:normal;font-style:normal;font-weight:normal;text-anchor:middle;" transform="rotate(-0, 411.473492, 271.529938)" x="411.473492" y="271.529938">−6</text>
     </g>
    </g>
    <g id="xtick_6">
     <g id="line2d_18">
      <g>
       <use style="fill:#262626;stroke:#262626;stroke-width:1.25;" x="472.467974" xlink:href="#m0307ef51a8" y="252"/>
      </g>
     </g>
     <g id="text_16">
      <text style="fill:#262626;font-family:DejaVu Sans;font-size:13.2px;font-stretch:normal;font-style:normal;font-weight:normal;text-anchor:middle;" transform="rotate(-0, 472.467974, 271.529938)" x="472.467974" y="271.529938">−4</text>
     </g>
    </g>
    <g id="xtick_7">
     <g id="line2d_19">
      <g>
       <use style="fill:#262626;stroke:#262626;stroke-width:1.25;" x="533.462456" xlink:href="#m0307ef51a8" y="252"/>
      </g>
     </g>
     <g id="text_17">
      <text style="fill:#262626;font-family:DejaVu Sans;font-size:13.2px;font-stretch:normal;font-style:normal;font-weight:normal;text-anchor:middle;" transform="rotate(-0, 533.462456, 271.529938)" x="533.462456" y="271.529938">−2</text>
     </g>
    </g>
    <g id="text_18">
     <text style="fill:#262626;font-family:DejaVu Sans;font-size:14.4px;font-stretch:normal;font-style:normal;font-weight:normal;text-anchor:middle;" transform="rotate(-0, 443.004545, 289.216875)" x="443.004545" y="289.216875">U6 PSSM log-likelihood</text>
    </g>
   </g>
   <g id="matplotlib.axis_4">
    <g id="ytick_7">
     <g id="line2d_20">
      <g>
       <use style="fill:#262626;stroke:#262626;stroke-width:1.25;" x="335.209091" xlink:href="#m0ff5266780" y="242.151218"/>
      </g>
     </g>
    </g>
    <g id="ytick_8">
     <g id="line2d_21">
      <g>
       <use style="fill:#262626;stroke:#262626;stroke-width:1.25;" x="335.209091" xlink:href="#m0ff5266780" y="202.609702"/>
      </g>
     </g>
    </g>
    <g id="ytick_9">
     <g id="line2d_22">
      <g>
       <use style="fill:#262626;stroke:#262626;stroke-width:1.25;" x="335.209091" xlink:href="#m0ff5266780" y="163.068186"/>
      </g>
     </g>
    </g>
    <g id="ytick_10">
     <g id="line2d_23">
      <g>
       <use style="fill:#262626;stroke:#262626;stroke-width:1.25;" x="335.209091" xlink:href="#m0ff5266780" y="123.526669"/>
      </g>
     </g>
    </g>
    <g id="ytick_11">
     <g id="line2d_24">
      <g>
       <use style="fill:#262626;stroke:#262626;stroke-width:1.25;" x="335.209091" xlink:href="#m0ff5266780" y="83.985153"/>
      </g>
     </g>
    </g>
    <g id="ytick_12">
     <g id="line2d_25">
      <g>
       <use style="fill:#262626;stroke:#262626;stroke-width:1.25;" x="335.209091" xlink:href="#m0ff5266780" y="44.443636"/>
      </g>
     </g>
    </g>
   </g>
   <g id="line2d_26">
    <path clip-path="url(#p577fd04ec5)" d="M 345.008678 242.080883 
L 368.223365 242.080883 
L 368.223365 241.912078 
L 368.458295 241.912078 
L 368.458295 241.777033 
L 370.939561 241.777033 
L 370.939561 241.495691 
L 372.793134 241.495691 
L 372.793134 241.310005 
L 382.920559 241.310005 
L 382.920559 240.930193 
L 390.957476 240.930193 
L 390.957476 239.658527 
L 394.154248 239.658527 
L 394.154248 239.115536 
L 394.389178 239.115536 
L 394.389178 238.713217 
L 395.317128 238.713217 
L 395.317128 238.414994 
L 396.007821 238.414994 
L 396.007821 237.998608 
L 396.242751 237.998608 
L 396.242751 237.610356 
L 398.724017 237.610356 
L 398.724017 237.247424 
L 406.135247 237.247424 
L 406.135247 236.293674 
L 406.370177 236.293674 
L 406.370177 235.458088 
L 408.851442 235.458088 
L 408.851442 234.549353 
L 411.970019 234.549353 
L 411.970019 234.110459 
L 414.172164 234.110459 
L 414.172164 232.833166 
L 414.407093 232.833166 
L 414.407093 232.2114 
L 418.741932 232.2114 
L 418.741932 231.952565 
L 421.248011 231.952565 
L 421.248011 231.418015 
L 421.938704 231.418015 
L 421.938704 230.461451 
L 422.173634 230.461451 
L 422.173634 229.682133 
L 423.101584 229.682133 
L 423.101584 228.883122 
L 423.730622 228.883122 
L 423.730622 227.757753 
L 428.869358 227.757753 
L 428.869358 225.225674 
L 432.06613 225.225674 
L 432.06613 222.36161 
L 432.30106 222.36161 
L 432.30106 220.724199 
L 433.229009 220.724199 
L 433.229009 218.138664 
L 435.184707 218.138664 
L 435.184707 217.488764 
L 435.419636 217.488764 
L 435.419636 216.644737 
L 439.754475 216.644737 
L 439.754475 215.359004 
L 441.265926 215.359004 
L 441.265926 212.942274 
L 441.95662 212.942274 
L 441.95662 212.196718 
L 442.191549 212.196718 
L 442.191549 211.912562 
L 446.945309 211.912562 
L 446.945309 209.754668 
L 447.180239 209.754668 
L 447.180239 207.453289 
L 449.032467 207.453289 
L 449.032467 206.547367 
L 449.661505 206.547367 
L 449.661505 204.006847 
L 449.881901 204.006847 
L 449.881901 202.811143 
L 452.084046 202.811143 
L 452.084046 198.304041 
L 452.318975 198.304041 
L 452.318975 195.952021 
L 459.159892 195.952021 
L 459.159892 193.020435 
L 462.278469 193.020435 
L 462.278469 189.571181 
L 462.969163 189.571181 
L 462.969163 186.085351 
L 463.204092 186.085351 
L 463.204092 182.484171 
L 469.050382 182.484171 
L 469.050382 180.165912 
L 469.67942 180.165912 
L 469.67942 176.339658 
L 472.876192 176.339658 
L 472.876192 168.253884 
L 473.096589 168.253884 
L 473.096589 166.273236 
L 473.111122 166.273236 
L 473.111122 159.349405 
L 473.331518 159.349405 
L 473.331518 157.048026 
L 474.039072 157.048026 
L 474.039072 155.140526 
L 479.177808 155.140526 
L 479.177808 143.985309 
L 490.062925 143.985309 
L 490.062925 138.150272 
L 490.691963 138.150272 
L 490.691963 129.70438 
L 492.894108 129.70438 
L 492.894108 120.951826 
L 493.129037 120.951826 
L 493.129037 111.270842 
L 499.969955 111.270842 
L 499.969955 108.015713 
L 500.190351 108.015713 
L 500.190351 99.687985 
L 513.906651 99.687985 
L 513.906651 85.812189 
L 514.14158 85.812189 
L 514.14158 67.159203 
L 519.98787 67.159203 
L 519.98787 55.655122 
L 541.000413 55.655122 
L 541.000413 44.443636 
" style="fill:none;stroke:#0072b2;stroke-linecap:round;stroke-opacity:0.8;stroke-width:3;"/>
   </g>
   <g id="line2d_27">
    <path clip-path="url(#p577fd04ec5)" d="M 345.008678 242.11545 
L 368.223365 242.11545 
L 368.223365 242.061798 
L 368.458295 242.061798 
L 368.458295 241.97834 
L 370.939561 241.97834 
L 370.939561 241.912765 
L 372.793134 241.912765 
L 372.793134 241.865074 
L 382.920559 241.865074 
L 382.920559 241.71008 
L 390.957476 241.71008 
L 390.957476 241.167599 
L 394.154248 241.167599 
L 394.154248 241.054333 
L 394.389178 241.054333 
L 394.389178 240.893377 
L 395.317128 240.893377 
L 395.317128 240.696653 
L 396.007821 240.696653 
L 396.007821 240.559543 
L 396.242751 240.559543 
L 396.242751 240.338973 
L 398.724017 240.338973 
L 398.724017 240.285321 
L 406.135247 240.285321 
L 406.135247 239.975332 
L 406.370177 239.975332 
L 406.370177 239.695149 
L 408.851442 239.695149 
L 408.851442 239.498426 
L 411.970019 239.498426 
L 411.970019 239.33747 
L 414.172164 239.33747 
L 414.172164 239.063248 
L 414.407093 239.063248 
L 414.407093 238.878447 
L 418.741932 238.878447 
L 418.741932 238.80095 
L 421.248011 238.80095 
L 421.248011 238.479038 
L 421.938704 238.479038 
L 421.938704 238.288275 
L 422.173634 238.288275 
L 422.173634 238.049822 
L 423.101584 238.049822 
L 423.101584 236.92313 
L 423.730622 236.92313 
L 423.730622 236.458146 
L 428.869358 236.458146 
L 428.869358 235.987201 
L 432.06613 235.987201 
L 432.06613 235.516256 
L 432.30106 235.516256 
L 432.30106 235.26588 
L 433.229009 235.26588 
L 433.229009 233.966309 
L 435.184707 233.966309 
L 435.184707 233.793431 
L 435.419636 233.793431 
L 435.419636 233.5669 
L 439.754475 233.5669 
L 439.754475 233.095955 
L 441.265926 233.095955 
L 441.265926 232.005031 
L 441.95662 232.005031 
L 441.95662 231.760616 
L 442.191549 231.760616 
L 442.191549 231.540047 
L 446.945309 231.540047 
L 446.945309 230.383549 
L 447.180239 230.383549 
L 447.180239 229.233012 
L 449.032467 229.233012 
L 449.032467 228.028822 
L 449.661505 228.028822 
L 449.661505 226.395417 
L 449.881901 226.395417 
L 449.881901 226.067544 
L 452.084046 226.067544 
L 452.084046 225.191228 
L 452.318975 225.191228 
L 452.318975 224.726244 
L 459.159892 224.726244 
L 459.159892 222.28806 
L 462.278469 222.28806 
L 462.278469 219.289509 
L 462.969163 219.289509 
L 462.969163 217.840906 
L 463.204092 217.840906 
L 463.204092 216.60691 
L 469.050382 216.60691 
L 469.050382 215.35503 
L 469.67942 215.35503 
L 469.67942 213.089724 
L 472.876192 213.089724 
L 472.876192 206.991281 
L 473.096589 206.991281 
L 473.096589 206.407071 
L 473.111122 206.407071 
L 473.111122 201.566469 
L 473.331518 201.566469 
L 473.331518 200.791496 
L 474.039072 200.791496 
L 474.039072 198.246007 
L 479.177808 198.246007 
L 479.177808 193.441173 
L 490.062925 193.441173 
L 490.062925 178.829948 
L 490.691963 178.829948 
L 490.691963 170.841763 
L 492.894108 170.841763 
L 492.894108 164.415447 
L 493.129037 164.415447 
L 493.129037 155.992084 
L 499.969955 155.992084 
L 499.969955 148.963674 
L 500.190351 148.963674 
L 500.190351 137.720601 
L 513.906651 137.720601 
L 513.906651 119.586229 
L 514.14158 119.586229 
L 514.14158 100.277474 
L 519.98787 100.277474 
L 519.98787 78.149009 
L 541.000413 78.149009 
L 541.000413 44.443636 
" style="fill:none;stroke:#d55e00;stroke-linecap:round;stroke-opacity:0.8;stroke-width:3;"/>
   </g>
   <g id="line2d_28">
    <path clip-path="url(#p577fd04ec5)" d="M 345.008678 242.112483 
L 368.223365 242.112483 
L 368.223365 241.983363 
L 368.458295 241.983363 
L 368.458295 241.854244 
L 370.939561 241.854244 
L 370.939561 241.738036 
L 372.793134 241.738036 
L 372.793134 241.570181 
L 382.920559 241.570181 
L 382.920559 241.42815 
L 390.957476 241.42815 
L 390.957476 240.834201 
L 394.154248 240.834201 
L 394.154248 240.614698 
L 394.389178 240.614698 
L 394.389178 240.446843 
L 395.317128 240.446843 
L 395.317128 240.240252 
L 396.007821 240.240252 
L 396.007821 240.072396 
L 396.242751 240.072396 
L 396.242751 239.82707 
L 398.724017 239.82707 
L 398.724017 239.76251 
L 406.135247 239.76251 
L 406.135247 239.271856 
L 406.370177 239.271856 
L 406.370177 238.729555 
L 408.851442 238.729555 
L 408.851442 238.471316 
L 411.970019 238.471316 
L 411.970019 238.303461 
L 414.172164 238.303461 
L 414.172164 237.993575 
L 414.407093 237.993575 
L 414.407093 237.774072 
L 418.741932 237.774072 
L 418.741932 237.670776 
L 421.248011 237.670776 
L 421.248011 237.399625 
L 421.938704 237.399625 
L 421.938704 237.154299 
L 422.173634 237.154299 
L 422.173634 236.96062 
L 423.101584 236.96062 
L 423.101584 236.043872 
L 423.730622 236.043872 
L 423.730622 235.721074 
L 428.869358 235.721074 
L 428.869358 235.23042 
L 432.06613 235.23042 
L 432.06613 234.507352 
L 432.30106 234.507352 
L 432.30106 234.158729 
L 433.229009 234.158729 
L 433.229009 233.474397 
L 435.184707 233.474397 
L 435.184707 233.16451 
L 435.419636 233.16451 
L 435.419636 232.69968 
L 439.754475 232.69968 
L 439.754475 232.415618 
L 441.265926 232.415618 
L 441.265926 231.860404 
L 441.95662 231.860404 
L 441.95662 231.356839 
L 442.191549 231.356839 
L 442.191549 231.046952 
L 446.945309 231.046952 
L 446.945309 230.272236 
L 447.180239 230.272236 
L 447.180239 229.355489 
L 449.032467 229.355489 
L 449.032467 228.400005 
L 449.661505 228.400005 
L 449.661505 227.638201 
L 449.881901 227.638201 
L 449.881901 227.250843 
L 452.084046 227.250843 
L 452.084046 226.359919 
L 452.318975 226.359919 
L 452.318975 225.791794 
L 459.159892 225.791794 
L 459.159892 224.668455 
L 462.278469 224.668455 
L 462.278469 222.602545 
L 462.969163 222.602545 
L 462.969163 221.750358 
L 463.204092 221.750358 
L 463.204092 220.730315 
L 469.050382 220.730315 
L 469.050382 219.710272 
L 469.67942 219.710272 
L 469.67942 217.941336 
L 472.876192 217.941336 
L 472.876192 215.191094 
L 473.096589 215.191094 
L 473.096589 214.571321 
L 473.111122 214.571321 
L 473.111122 212.130964 
L 473.331518 212.130964 
L 473.331518 211.317512 
L 474.039072 211.317512 
L 474.039072 208.334855 
L 479.177808 208.334855 
L 479.177808 206.268945 
L 490.062925 206.268945 
L 490.062925 184.396123 
L 490.691963 184.396123 
L 490.691963 180.148096 
L 492.894108 180.148096 
L 492.894108 177.087967 
L 493.129037 177.087967 
L 493.129037 173.395153 
L 499.969955 173.395153 
L 499.969955 167.10704 
L 500.190351 167.10704 
L 500.190351 162.213415 
L 513.906651 162.213415 
L 513.906651 149.740484 
L 514.14158 149.740484 
L 514.14158 138.58457 
L 519.98787 138.58457 
L 519.98787 118.777659 
L 541.000413 118.777659 
L 541.000413 44.443636 
" style="fill:none;stroke:#009e73;stroke-linecap:round;stroke-opacity:0.8;stroke-width:3;"/>
   </g>
   <g id="line2d_29">
    <path clip-path="url(#p577fd04ec5)" d="M 345.008678 242.116364 
L 368.458295 242.023418 
L 368.458295 241.907235 
L 372.793134 241.825908 
L 372.793134 241.709725 
L 382.920559 241.709725 
L 382.920559 241.523833 
L 390.957476 241.523833 
L 390.957476 241.291469 
L 394.154248 241.291469 
L 394.154248 241.140432 
L 394.389178 241.140432 
L 394.389178 240.95454 
L 395.317128 240.95454 
L 395.317128 240.722175 
L 396.007821 240.722175 
L 396.007821 240.362009 
L 396.242751 240.362009 
L 396.242751 240.141263 
L 406.135247 240.118026 
L 406.135247 239.757861 
L 406.370177 239.757861 
L 406.370177 239.10724 
L 408.851442 239.10724 
L 408.851442 238.898111 
L 411.970019 238.898111 
L 411.970019 238.770311 
L 414.172164 238.770311 
L 414.172164 238.270726 
L 414.407093 238.270726 
L 414.407093 238.154544 
L 421.248011 238.04998 
L 421.248011 237.817615 
L 421.938704 237.817615 
L 421.938704 237.701433 
L 422.173634 237.701433 
L 422.173634 237.376122 
L 423.101584 237.376122 
L 423.101584 236.748737 
L 423.730622 236.748737 
L 423.730622 236.562845 
L 428.869358 236.562845 
L 428.869358 235.970315 
L 432.06613 235.970315 
L 432.06613 235.493967 
L 432.30106 235.493967 
L 432.30106 234.913055 
L 433.229009 234.913055 
L 433.229009 234.48318 
L 435.184707 234.48318 
L 435.184707 234.215961 
L 435.419636 234.215961 
L 435.419636 233.855795 
L 439.754475 233.855795 
L 439.754475 233.658285 
L 441.265926 233.658285 
L 441.265926 233.112228 
L 441.95662 233.10061 
L 441.95662 232.775299 
L 442.191549 232.775299 
L 442.191549 232.461607 
L 446.945309 232.461607 
L 446.945309 232.136296 
L 447.180239 232.136296 
L 447.180239 231.485674 
L 449.032467 231.485674 
L 449.032467 230.39356 
L 449.661505 230.39356 
L 449.661505 229.975303 
L 449.881901 229.975303 
L 449.881901 229.545428 
L 452.084046 229.545428 
L 452.084046 228.511405 
L 452.318975 228.511405 
L 452.318975 228.08153 
L 459.159892 228.08153 
L 459.159892 227.29149 
L 462.278469 227.29149 
L 462.278469 226.094811 
L 462.969163 226.094811 
L 462.969163 225.537136 
L 463.204092 225.537136 
L 463.204092 224.700623 
L 469.050382 224.700623 
L 469.050382 223.875728 
L 469.67942 223.875728 
L 469.67942 220.634239 
L 472.876192 220.634239 
L 472.876192 219.50727 
L 473.096589 219.50727 
L 473.111122 217.962044 
L 473.331518 217.962044 
L 473.331518 216.440054 
L 474.039072 216.440054 
L 474.039072 214.116406 
L 479.177808 214.116406 
L 479.177808 213.001055 
L 490.062925 213.001055 
L 490.062925 188.312296 
L 490.691963 188.312296 
L 490.691963 186.081594 
L 492.894108 186.081594 
L 492.894108 184.675787 
L 493.129037 184.675787 
L 493.129037 182.54965 
L 499.969955 182.54965 
L 499.969955 174.637628 
L 500.190351 174.637628 
L 500.190351 171.059211 
L 513.906651 171.059211 
L 513.906651 163.193663 
L 514.14158 163.193663 
L 514.14158 157.303215 
L 519.98787 157.303215 
L 519.98787 139.12067 
L 541.000413 139.12067 
L 541.000413 44.443636 
L 541.000413 44.443636 
" style="fill:none;stroke:#f0e442;stroke-linecap:round;stroke-opacity:0.8;stroke-width:3;"/>
   </g>
   <g id="patch_9">
    <path d="M 335.209091 252 
L 335.209091 34.56 
" style="fill:none;stroke:#262626;stroke-linecap:square;stroke-linejoin:miter;stroke-width:1.25;"/>
   </g>
   <g id="patch_10">
    <path d="M 550.8 252 
L 550.8 34.56 
" style="fill:none;stroke:#262626;stroke-linecap:square;stroke-linejoin:miter;stroke-width:1.25;"/>
   </g>
   <g id="patch_11">
    <path d="M 335.209091 252 
L 550.8 252 
" style="fill:none;stroke:#262626;stroke-linecap:square;stroke-linejoin:miter;stroke-width:1.25;"/>
   </g>
   <g id="patch_12">
    <path d="M 335.209091 34.56 
L 550.8 34.56 
" style="fill:none;stroke:#262626;stroke-linecap:square;stroke-linejoin:miter;stroke-width:1.25;"/>
   </g>
   <g id="legend_2">
    <g id="patch_13">
     <path d="M 344.449091 143.157 
L 434.524653 143.157 
Q 437.164653 143.157 437.164653 140.517 
L 437.164653 43.8 
Q 437.164653 41.16 434.524653 41.16 
L 344.449091 41.16 
Q 341.809091 41.16 341.809091 43.8 
L 341.809091 140.517 
Q 341.809091 143.157 344.449091 143.157 
z
" style="fill:#ffffff;opacity:0.8;stroke:#cccccc;stroke-linejoin:miter;"/>
    </g>
    <g id="text_19">
     <text style="fill:#262626;font-family:DejaVu Sans;font-size:14.4px;font-stretch:normal;font-style:normal;font-weight:normal;text-anchor:start;" transform="rotate(-0, 359.475247, 57.38175)" x="359.475247" y="57.38175">U5 class</text>
    </g>
    <g id="line2d_30">
     <path d="M 347.089091 72.386437 
L 373.489091 72.386437 
" style="fill:none;stroke:#0072b2;stroke-linecap:round;stroke-opacity:0.8;stroke-width:3;"/>
    </g>
    <g id="line2d_31"/>
    <g id="text_20">
     <text style="fill:#262626;font-family:DejaVu Sans;font-size:13.2px;font-stretch:normal;font-style:normal;font-weight:normal;text-anchor:start;" transform="rotate(-0, 384.049091, 77.006438)" x="384.049091" y="77.006438">AG//GU</text>
    </g>
    <g id="line2d_32">
     <path d="M 347.089091 91.761562 
L 373.489091 91.761562 
" style="fill:none;stroke:#d55e00;stroke-linecap:round;stroke-opacity:0.8;stroke-width:3;"/>
    </g>
    <g id="line2d_33"/>
    <g id="text_21">
     <text style="fill:#262626;font-family:DejaVu Sans;font-size:13.2px;font-stretch:normal;font-style:normal;font-weight:normal;text-anchor:start;" transform="rotate(-0, 384.049091, 96.381563)" x="384.049091" y="96.381563">BG//GU</text>
    </g>
    <g id="line2d_34">
     <path d="M 347.089091 111.136687 
L 373.489091 111.136687 
" style="fill:none;stroke:#009e73;stroke-linecap:round;stroke-opacity:0.8;stroke-width:3;"/>
    </g>
    <g id="line2d_35"/>
    <g id="text_22">
     <text style="fill:#262626;font-family:DejaVu Sans;font-size:13.2px;font-stretch:normal;font-style:normal;font-weight:normal;text-anchor:start;" transform="rotate(-0, 384.049091, 115.756687)" x="384.049091" y="115.756687">AH//GU</text>
    </g>
    <g id="line2d_36">
     <path d="M 347.089091 130.511813 
L 373.489091 130.511813 
" style="fill:none;stroke:#f0e442;stroke-linecap:round;stroke-opacity:0.8;stroke-width:3;"/>
    </g>
    <g id="line2d_37"/>
    <g id="text_23">
     <text style="fill:#262626;font-family:DejaVu Sans;font-size:13.2px;font-stretch:normal;font-style:normal;font-weight:normal;text-anchor:start;" transform="rotate(-0, 384.049091, 135.131813)" x="384.049091" y="135.131813">BH//GU</text>
    </g>
   </g>
  </g>
 </g>
 <defs>
  <clipPath id="p16219d619c">
   <rect height="217.44" width="215.590909" x="76.5" y="34.56"/>
  </clipPath>
  <clipPath id="p577fd04ec5">
   <rect height="217.44" width="215.590909" x="335.209091" y="34.56"/>
  </clipPath>
 </defs>
</svg>
