<?xml version="1.0" encoding="utf-8" standalone="no"?>
<!DOCTYPE svg PUBLIC "-//W3C//DTD SVG 1.1//EN"
  "http://www.w3.org/Graphics/SVG/1.1/DTD/svg11.dtd">
<!-- Created with matplotlib (https://matplotlib.org/) -->
<svg height="360pt" version="1.1" viewBox="0 0 360 360" width="360pt" xmlns="http://www.w3.org/2000/svg" xmlns:xlink="http://www.w3.org/1999/xlink">
 <defs>
  <style type="text/css">
*{stroke-linecap:butt;stroke-linejoin:round;}
  </style>
 </defs>
 <g id="figure_1">
  <g id="patch_1">
   <path d="M 0 360 
L 360 360 
L 360 0 
L 0 0 
z
" style="fill:#ffffff;"/>
  </g>
  <g id="axes_1">
   <g id="patch_2">
    <path d="M 45 315 
L 324 315 
L 324 43.2 
L 45 43.2 
z
" style="fill:#ffffff;"/>
   </g>
   <g id="matplotlib.axis_1">
    <g id="xtick_1">
     <g id="line2d_1">
      <defs>
       <path d="M 0 0 
L 0 6 
" id="m0213435d6e" style="stroke:#262626;stroke-width:1.25;"/>
      </defs>
      <g>
       <use style="fill:#262626;stroke:#262626;stroke-width:1.25;" x="89.386364" xlink:href="#m0213435d6e" y="315"/>
      </g>
     </g>
     <g id="text_1">
      <text style="fill:#262626;font-family:DejaVu Sans;font-size:13.2px;font-style:normal;font-weight:normal;text-anchor:middle;" transform="rotate(-0, 89.386364, 334.529938)" x="89.386364" y="334.529938">4</text>
     </g>
    </g>
    <g id="xtick_2">
     <g id="line2d_2">
      <g>
       <use style="fill:#262626;stroke:#262626;stroke-width:1.25;" x="152.795455" xlink:href="#m0213435d6e" y="315"/>
      </g>
     </g>
     <g id="text_2">
      <text style="fill:#262626;font-family:DejaVu Sans;font-size:13.2px;font-style:normal;font-weight:normal;text-anchor:middle;" transform="rotate(-0, 152.795455, 334.529938)" x="152.795455" y="334.529938">12</text>
     </g>
    </g>
    <g id="xtick_3">
     <g id="line2d_3">
      <g>
       <use style="fill:#262626;stroke:#262626;stroke-width:1.25;" x="216.204545" xlink:href="#m0213435d6e" y="315"/>
      </g>
     </g>
     <g id="text_3">
      <text style="fill:#262626;font-family:DejaVu Sans;font-size:13.2px;font-style:normal;font-weight:normal;text-anchor:middle;" transform="rotate(-0, 216.204545, 334.529938)" x="216.204545" y="334.529938">20</text>
     </g>
    </g>
    <g id="xtick_4">
     <g id="line2d_4">
      <g>
       <use style="fill:#262626;stroke:#262626;stroke-width:1.25;" x="279.613636" xlink:href="#m0213435d6e" y="315"/>
      </g>
     </g>
     <g id="text_4">
      <text style="fill:#262626;font-family:DejaVu Sans;font-size:13.2px;font-style:normal;font-weight:normal;text-anchor:middle;" transform="rotate(-0, 279.613636, 334.529938)" x="279.613636" y="334.529938">28</text>
     </g>
    </g>
    <g id="text_5">
     <text style="fill:#262626;font-family:DejaVu Sans;font-size:14.4px;font-style:normal;font-weight:normal;text-anchor:middle;" transform="rotate(-0, 184.5, 352.216875)" x="184.5" y="352.216875">Temperature (°C)</text>
    </g>
   </g>
   <g id="matplotlib.axis_2">
    <g id="ytick_1">
     <g id="line2d_5">
      <defs>
       <path d="M 0 0 
L -6 0 
" id="m3985994457" style="stroke:#262626;stroke-width:1.25;"/>
      </defs>
      <g>
       <use style="fill:#262626;stroke:#262626;stroke-width:1.25;" x="45" xlink:href="#m3985994457" y="292.543112"/>
      </g>
     </g>
     <g id="text_6">
      <text style="fill:#262626;font-family:DejaVu Sans;font-size:13.2px;font-style:normal;font-weight:normal;text-anchor:end;" transform="rotate(-0, 35.5, 297.558081)" x="35.5" y="297.558081">0</text>
     </g>
    </g>
    <g id="ytick_2">
     <g id="line2d_6">
      <g>
       <use style="fill:#262626;stroke:#262626;stroke-width:1.25;" x="45" xlink:href="#m3985994457" y="233.026972"/>
      </g>
     </g>
     <g id="text_7">
      <text style="fill:#262626;font-family:DejaVu Sans;font-size:13.2px;font-style:normal;font-weight:normal;text-anchor:end;" transform="rotate(-0, 35.5, 238.041941)" x="35.5" y="238.041941">1</text>
     </g>
    </g>
    <g id="ytick_3">
     <g id="line2d_7">
      <g>
       <use style="fill:#262626;stroke:#262626;stroke-width:1.25;" x="45" xlink:href="#m3985994457" y="173.510832"/>
      </g>
     </g>
     <g id="text_8">
      <text style="fill:#262626;font-family:DejaVu Sans;font-size:13.2px;font-style:normal;font-weight:normal;text-anchor:end;" transform="rotate(-0, 35.5, 178.525801)" x="35.5" y="178.525801">2</text>
     </g>
    </g>
    <g id="ytick_4">
     <g id="line2d_8">
      <g>
       <use style="fill:#262626;stroke:#262626;stroke-width:1.25;" x="45" xlink:href="#m3985994457" y="113.994692"/>
      </g>
     </g>
     <g id="text_9">
      <text style="fill:#262626;font-family:DejaVu Sans;font-size:13.2px;font-style:normal;font-weight:normal;text-anchor:end;" transform="rotate(-0, 35.5, 119.00966)" x="35.5" y="119.00966">3</text>
     </g>
    </g>
    <g id="ytick_5">
     <g id="line2d_9">
      <g>
       <use style="fill:#262626;stroke:#262626;stroke-width:1.25;" x="45" xlink:href="#m3985994457" y="54.478551"/>
      </g>
     </g>
     <g id="text_10">
      <text style="fill:#262626;font-family:DejaVu Sans;font-size:13.2px;font-style:normal;font-weight:normal;text-anchor:end;" transform="rotate(-0, 35.5, 59.49352)" x="35.5" y="59.49352">4</text>
     </g>
    </g>
    <g id="text_11">
     <text style="fill:#262626;font-family:DejaVu Sans;font-size:14.4px;font-style:normal;font-weight:normal;text-anchor:middle;" transform="rotate(-90, 20.10675, 179.1)" x="20.10675" y="179.1">Log2 counts per million</text>
    </g>
   </g>
   <g id="patch_3">
    <path clip-path="url(#p2a9011d5f9)" d="M 64.276364 103.799498 
L 89.132727 103.799498 
L 89.132727 90.344666 
L 64.276364 90.344666 
L 64.276364 103.799498 
z
" style="fill:#f1f1f1;stroke:#8f8f8f;stroke-linejoin:miter;stroke-width:1.5;"/>
   </g>
   <g id="patch_4">
    <path clip-path="url(#p2a9011d5f9)" d="M 89.64 266.333171 
L 114.496364 266.333171 
L 114.496364 254.394339 
L 89.64 254.394339 
L 89.64 266.333171 
z
" style="fill:#eeeeee;stroke:#8f8f8f;stroke-linejoin:miter;stroke-width:1.5;"/>
   </g>
   <g id="patch_5">
    <path clip-path="url(#p2a9011d5f9)" d="M 127.685455 85.584251 
L 152.541818 85.584251 
L 152.541818 77.104831 
L 127.685455 77.104831 
L 127.685455 85.584251 
z
" style="fill:#f1f1f1;stroke:#8f8f8f;stroke-linejoin:miter;stroke-width:1.5;"/>
   </g>
   <g id="patch_6">
    <path clip-path="url(#p2a9011d5f9)" d="M 153.049091 245.651699 
L 177.905455 245.651699 
L 177.905455 239.734729 
L 153.049091 239.734729 
L 153.049091 245.651699 
z
" style="fill:#eeeeee;stroke:#8f8f8f;stroke-linejoin:miter;stroke-width:1.5;"/>
   </g>
   <g id="patch_7">
    <path clip-path="url(#p2a9011d5f9)" d="M 191.094545 82.191781 
L 215.950909 82.191781 
L 215.950909 77.792168 
L 191.094545 77.792168 
L 191.094545 82.191781 
z
" style="fill:#f1f1f1;stroke:#8f8f8f;stroke-linejoin:miter;stroke-width:1.5;"/>
   </g>
   <g id="patch_8">
    <path clip-path="url(#p2a9011d5f9)" d="M 216.458182 267.141726 
L 241.314545 267.141726 
L 241.314545 240.961482 
L 216.458182 240.961482 
L 216.458182 267.141726 
z
" style="fill:#eeeeee;stroke:#8f8f8f;stroke-linejoin:miter;stroke-width:1.5;"/>
   </g>
   <g id="patch_9">
    <path clip-path="url(#p2a9011d5f9)" d="M 254.503636 65.704689 
L 279.36 65.704689 
L 279.36 61.061252 
L 254.503636 61.061252 
L 254.503636 65.704689 
z
" style="fill:#f1f1f1;stroke:#8f8f8f;stroke-linejoin:miter;stroke-width:1.5;"/>
   </g>
   <g id="patch_10">
    <path clip-path="url(#p2a9011d5f9)" d="M 279.867273 270.660766 
L 304.723636 270.660766 
L 304.723636 250.096521 
L 279.867273 250.096521 
L 279.867273 270.660766 
z
" style="fill:#eeeeee;stroke:#8f8f8f;stroke-linejoin:miter;stroke-width:1.5;"/>
   </g>
   <g id="PathCollection_1"/>
   <g id="PathCollection_2"/>
   <g id="PathCollection_3"/>
   <g id="PathCollection_4"/>
   <g id="patch_11">
    <path clip-path="url(#p2a9011d5f9)" d="M 89.386364 292.543112 
L 89.386364 292.543112 
L 89.386364 292.543112 
L 89.386364 292.543112 
z
" style="fill:#f1f1f1;stroke:#8f8f8f;stroke-linejoin:miter;stroke-width:0.75;"/>
   </g>
   <g id="patch_12">
    <path clip-path="url(#p2a9011d5f9)" d="M 89.386364 292.543112 
L 89.386364 292.543112 
L 89.386364 292.543112 
L 89.386364 292.543112 
z
" style="fill:#eeeeee;stroke:#8f8f8f;stroke-linejoin:miter;stroke-width:0.75;"/>
   </g>
   <g id="line2d_10">
    <path clip-path="url(#p2a9011d5f9)" d="M 76.704545 103.799498 
L 76.704545 104.528933 
" style="fill:none;stroke:#8f8f8f;stroke-linecap:round;stroke-width:1.5;"/>
   </g>
   <g id="line2d_11">
    <path clip-path="url(#p2a9011d5f9)" d="M 76.704545 90.344666 
L 76.704545 87.151716 
" style="fill:none;stroke:#8f8f8f;stroke-linecap:round;stroke-width:1.5;"/>
   </g>
   <g id="line2d_12">
    <path clip-path="url(#p2a9011d5f9)" d="M 70.490455 104.528933 
L 82.918636 104.528933 
" style="fill:none;stroke:#8f8f8f;stroke-linecap:round;stroke-width:1.5;"/>
   </g>
   <g id="line2d_13">
    <path clip-path="url(#p2a9011d5f9)" d="M 70.490455 87.151716 
L 82.918636 87.151716 
" style="fill:none;stroke:#8f8f8f;stroke-linecap:round;stroke-width:1.5;"/>
   </g>
   <g id="line2d_14">
    <path clip-path="url(#p2a9011d5f9)" d="M 102.068182 266.333171 
L 102.068182 268.735008 
" style="fill:none;stroke:#8f8f8f;stroke-linecap:round;stroke-width:1.5;"/>
   </g>
   <g id="line2d_15">
    <path clip-path="url(#p2a9011d5f9)" d="M 102.068182 254.394339 
L 102.068182 239.642409 
" style="fill:none;stroke:#8f8f8f;stroke-linecap:round;stroke-width:1.5;"/>
   </g>
   <g id="line2d_16">
    <path clip-path="url(#p2a9011d5f9)" d="M 95.854091 268.735008 
L 108.282273 268.735008 
" style="fill:none;stroke:#8f8f8f;stroke-linecap:round;stroke-width:1.5;"/>
   </g>
   <g id="line2d_17">
    <path clip-path="url(#p2a9011d5f9)" d="M 95.854091 239.642409 
L 108.282273 239.642409 
" style="fill:none;stroke:#8f8f8f;stroke-linecap:round;stroke-width:1.5;"/>
   </g>
   <g id="line2d_18">
    <path clip-path="url(#p2a9011d5f9)" d="M 140.113636 85.584251 
L 140.113636 86.012497 
" style="fill:none;stroke:#8f8f8f;stroke-linecap:round;stroke-width:1.5;"/>
   </g>
   <g id="line2d_19">
    <path clip-path="url(#p2a9011d5f9)" d="M 140.113636 77.104831 
L 140.113636 65.490892 
" style="fill:none;stroke:#8f8f8f;stroke-linecap:round;stroke-width:1.5;"/>
   </g>
   <g id="line2d_20">
    <path clip-path="url(#p2a9011d5f9)" d="M 133.899545 86.012497 
L 146.327727 86.012497 
" style="fill:none;stroke:#8f8f8f;stroke-linecap:round;stroke-width:1.5;"/>
   </g>
   <g id="line2d_21">
    <path clip-path="url(#p2a9011d5f9)" d="M 133.899545 65.490892 
L 146.327727 65.490892 
" style="fill:none;stroke:#8f8f8f;stroke-linecap:round;stroke-width:1.5;"/>
   </g>
   <g id="line2d_22">
    <path clip-path="url(#p2a9011d5f9)" d="M 165.477273 245.651699 
L 165.477273 246.460817 
" style="fill:none;stroke:#8f8f8f;stroke-linecap:round;stroke-width:1.5;"/>
   </g>
   <g id="line2d_23">
    <path clip-path="url(#p2a9011d5f9)" d="M 165.477273 239.734729 
L 165.477273 239.208657 
" style="fill:none;stroke:#8f8f8f;stroke-linecap:round;stroke-width:1.5;"/>
   </g>
   <g id="line2d_24">
    <path clip-path="url(#p2a9011d5f9)" d="M 159.263182 246.460817 
L 171.691364 246.460817 
" style="fill:none;stroke:#8f8f8f;stroke-linecap:round;stroke-width:1.5;"/>
   </g>
   <g id="line2d_25">
    <path clip-path="url(#p2a9011d5f9)" d="M 159.263182 239.208657 
L 171.691364 239.208657 
" style="fill:none;stroke:#8f8f8f;stroke-linecap:round;stroke-width:1.5;"/>
   </g>
   <g id="line2d_26">
    <path clip-path="url(#p2a9011d5f9)" d="M 203.522727 82.191781 
L 203.522727 82.322082 
" style="fill:none;stroke:#8f8f8f;stroke-linecap:round;stroke-width:1.5;"/>
   </g>
   <g id="line2d_27">
    <path clip-path="url(#p2a9011d5f9)" d="M 203.522727 77.792168 
L 203.522727 74.037328 
" style="fill:none;stroke:#8f8f8f;stroke-linecap:round;stroke-width:1.5;"/>
   </g>
   <g id="line2d_28">
    <path clip-path="url(#p2a9011d5f9)" d="M 197.308636 82.322082 
L 209.736818 82.322082 
" style="fill:none;stroke:#8f8f8f;stroke-linecap:round;stroke-width:1.5;"/>
   </g>
   <g id="line2d_29">
    <path clip-path="url(#p2a9011d5f9)" d="M 197.308636 74.037328 
L 209.736818 74.037328 
" style="fill:none;stroke:#8f8f8f;stroke-linecap:round;stroke-width:1.5;"/>
   </g>
   <g id="line2d_30">
    <path clip-path="url(#p2a9011d5f9)" d="M 228.886364 267.141726 
L 228.886364 282.591111 
" style="fill:none;stroke:#8f8f8f;stroke-linecap:round;stroke-width:1.5;"/>
   </g>
   <g id="line2d_31">
    <path clip-path="url(#p2a9011d5f9)" d="M 228.886364 240.961482 
L 228.886364 231.765284 
" style="fill:none;stroke:#8f8f8f;stroke-linecap:round;stroke-width:1.5;"/>
   </g>
   <g id="line2d_32">
    <path clip-path="url(#p2a9011d5f9)" d="M 222.672273 282.591111 
L 235.100455 282.591111 
" style="fill:none;stroke:#8f8f8f;stroke-linecap:round;stroke-width:1.5;"/>
   </g>
   <g id="line2d_33">
    <path clip-path="url(#p2a9011d5f9)" d="M 222.672273 231.765284 
L 235.100455 231.765284 
" style="fill:none;stroke:#8f8f8f;stroke-linecap:round;stroke-width:1.5;"/>
   </g>
   <g id="line2d_34">
    <path clip-path="url(#p2a9011d5f9)" d="M 266.931818 65.704689 
L 266.931818 66.346545 
" style="fill:none;stroke:#8f8f8f;stroke-linecap:round;stroke-width:1.5;"/>
   </g>
   <g id="line2d_35">
    <path clip-path="url(#p2a9011d5f9)" d="M 266.931818 61.061252 
L 266.931818 57.806962 
" style="fill:none;stroke:#8f8f8f;stroke-linecap:round;stroke-width:1.5;"/>
   </g>
   <g id="line2d_36">
    <path clip-path="url(#p2a9011d5f9)" d="M 260.717727 66.346545 
L 273.145909 66.346545 
" style="fill:none;stroke:#8f8f8f;stroke-linecap:round;stroke-width:1.5;"/>
   </g>
   <g id="line2d_37">
    <path clip-path="url(#p2a9011d5f9)" d="M 260.717727 57.806962 
L 273.145909 57.806962 
" style="fill:none;stroke:#8f8f8f;stroke-linecap:round;stroke-width:1.5;"/>
   </g>
   <g id="line2d_38">
    <path clip-path="url(#p2a9011d5f9)" d="M 292.295455 270.660766 
L 292.295455 300.312926 
" style="fill:none;stroke:#8f8f8f;stroke-linecap:round;stroke-width:1.5;"/>
   </g>
   <g id="line2d_39">
    <path clip-path="url(#p2a9011d5f9)" d="M 292.295455 250.096521 
L 292.295455 238.912615 
" style="fill:none;stroke:#8f8f8f;stroke-linecap:round;stroke-width:1.5;"/>
   </g>
   <g id="line2d_40">
    <path clip-path="url(#p2a9011d5f9)" d="M 286.081364 300.312926 
L 298.509545 300.312926 
" style="fill:none;stroke:#8f8f8f;stroke-linecap:round;stroke-width:1.5;"/>
   </g>
   <g id="line2d_41">
    <path clip-path="url(#p2a9011d5f9)" d="M 286.081364 238.912615 
L 298.509545 238.912615 
" style="fill:none;stroke:#8f8f8f;stroke-linecap:round;stroke-width:1.5;"/>
   </g>
   <g id="line2d_42">
    <path clip-path="url(#p2a9011d5f9)" d="M 64.276364 96.784262 
L 89.132727 96.784262 
" style="fill:none;stroke:#8f8f8f;stroke-linecap:round;stroke-width:1.5;"/>
   </g>
   <g id="line2d_43">
    <path clip-path="url(#p2a9011d5f9)" d="M 89.64 258.562688 
L 114.496364 258.562688 
" style="fill:none;stroke:#8f8f8f;stroke-linecap:round;stroke-width:1.5;"/>
   </g>
   <g id="line2d_44">
    <path clip-path="url(#p2a9011d5f9)" d="M 127.685455 84.293049 
L 152.541818 84.293049 
" style="fill:none;stroke:#8f8f8f;stroke-linecap:round;stroke-width:1.5;"/>
   </g>
   <g id="line2d_45">
    <path clip-path="url(#p2a9011d5f9)" d="M 153.049091 242.268643 
L 177.905455 242.268643 
" style="fill:none;stroke:#8f8f8f;stroke-linecap:round;stroke-width:1.5;"/>
   </g>
   <g id="line2d_46">
    <path clip-path="url(#p2a9011d5f9)" d="M 191.094545 79.922185 
L 215.950909 79.922185 
" style="fill:none;stroke:#8f8f8f;stroke-linecap:round;stroke-width:1.5;"/>
   </g>
   <g id="line2d_47">
    <path clip-path="url(#p2a9011d5f9)" d="M 216.458182 254.207229 
L 241.314545 254.207229 
" style="fill:none;stroke:#8f8f8f;stroke-linecap:round;stroke-width:1.5;"/>
   </g>
   <g id="line2d_48">
    <path clip-path="url(#p2a9011d5f9)" d="M 254.503636 63.529443 
L 279.36 63.529443 
" style="fill:none;stroke:#8f8f8f;stroke-linecap:round;stroke-width:1.5;"/>
   </g>
   <g id="line2d_49">
    <path clip-path="url(#p2a9011d5f9)" d="M 279.867273 265.686604 
L 304.723636 265.686604 
" style="fill:none;stroke:#8f8f8f;stroke-linecap:round;stroke-width:1.5;"/>
   </g>
   <g id="patch_13">
    <path d="M 45 315 
L 45 43.2 
" style="fill:none;stroke:#262626;stroke-linecap:square;stroke-linejoin:miter;stroke-width:1.25;"/>
   </g>
   <g id="patch_14">
    <path d="M 324 315 
L 324 43.2 
" style="fill:none;stroke:#262626;stroke-linecap:square;stroke-linejoin:miter;stroke-width:1.25;"/>
   </g>
   <g id="patch_15">
    <path d="M 45 315 
L 324 315 
" style="fill:none;stroke:#262626;stroke-linecap:square;stroke-linejoin:miter;stroke-width:1.25;"/>
   </g>
   <g id="patch_16">
    <path d="M 45 43.2 
L 324 43.2 
" style="fill:none;stroke:#262626;stroke-linecap:square;stroke-linejoin:miter;stroke-width:1.25;"/>
   </g>
   <g id="PathCollection_5">
    <defs>
     <path d="M 0 2.5 
C 0.663008 2.5 1.29895 2.236584 1.767767 1.767767 
C 2.236584 1.29895 2.5 0.663008 2.5 0 
C 2.5 -0.663008 2.236584 -1.29895 1.767767 -1.767767 
C 1.29895 -2.236584 0.663008 -2.5 0 -2.5 
C -0.663008 -2.5 -1.29895 -2.236584 -1.767767 -1.767767 
C -2.236584 -1.29895 -2.5 -0.663008 -2.5 0 
C -2.5 0.663008 -2.236584 1.29895 -1.767767 1.767767 
C -1.29895 2.236584 -0.663008 2.5 0 2.5 
z
" id="C0_0_2171be9060"/>
    </defs>
    <g clip-path="url(#p2a9011d5f9)">
     <use style="fill:#0072b2;" x="79.154678" xlink:href="#C0_0_2171be9060" y="104.528933"/>
    </g>
    <g clip-path="url(#p2a9011d5f9)">
     <use style="fill:#0072b2;" x="82.4315" xlink:href="#C0_0_2171be9060" y="87.151716"/>
    </g>
    <g clip-path="url(#p2a9011d5f9)">
     <use style="fill:#0072b2;" x="73.425929" xlink:href="#C0_0_2171be9060" y="102.030787"/>
    </g>
    <g clip-path="url(#p2a9011d5f9)">
     <use style="fill:#0072b2;" x="82.059872" xlink:href="#C0_0_2171be9060" y="91.537737"/>
    </g>
    <g clip-path="url(#p2a9011d5f9)">
     <use style="fill:#0072b2;" x="75.903164" xlink:href="#C0_0_2171be9060" y="104.389068"/>
    </g>
    <g clip-path="url(#p2a9011d5f9)">
     <use style="fill:#0072b2;" x="86.142871" xlink:href="#C0_0_2171be9060" y="89.946975"/>
    </g>
   </g>
   <g id="PathCollection_6">
    <defs>
     <path d="M 0 2.5 
C 0.663008 2.5 1.29895 2.236584 1.767767 1.767767 
C 2.236584 1.29895 2.5 0.663008 2.5 0 
C 2.5 -0.663008 2.236584 -1.29895 1.767767 -1.767767 
C 1.29895 -2.236584 0.663008 -2.5 0 -2.5 
C -0.663008 -2.5 -1.29895 -2.236584 -1.767767 -1.767767 
C -2.236584 -1.29895 -2.5 -0.663008 -2.5 0 
C -2.5 0.663008 -2.236584 1.29895 -1.767767 1.767767 
C -1.29895 2.236584 -0.663008 2.5 0 2.5 
z
" id="C1_0_351d89cdf5"/>
    </defs>
    <g clip-path="url(#p2a9011d5f9)">
     <use style="fill:#d55e00;" x="100.954519" xlink:href="#C1_0_351d89cdf5" y="239.642409"/>
    </g>
    <g clip-path="url(#p2a9011d5f9)">
     <use style="fill:#d55e00;" x="108.232109" xlink:href="#C1_0_351d89cdf5" y="259.12766"/>
    </g>
    <g clip-path="url(#p2a9011d5f9)">
     <use style="fill:#d55e00;" x="104.733554" xlink:href="#C1_0_351d89cdf5" y="253.193214"/>
    </g>
    <g clip-path="url(#p2a9011d5f9)">
     <use style="fill:#d55e00;" x="110.532576" xlink:href="#C1_0_351d89cdf5" y="257.997715"/>
    </g>
    <g clip-path="url(#p2a9011d5f9)">
     <use style="fill:#d55e00;" x="92.744821" xlink:href="#C1_0_351d89cdf5" y="268.735008"/>
    </g>
    <g clip-path="url(#p2a9011d5f9)">
     <use style="fill:#d55e00;" x="98.251151" xlink:href="#C1_0_351d89cdf5" y="285.906288"/>
    </g>
   </g>
   <g id="PathCollection_7">
    <defs>
     <path d="M 0 2.5 
C 0.663008 2.5 1.29895 2.236584 1.767767 1.767767 
C 2.236584 1.29895 2.5 0.663008 2.5 0 
C 2.5 -0.663008 2.236584 -1.29895 1.767767 -1.767767 
C 1.29895 -2.236584 0.663008 -2.5 0 -2.5 
C -0.663008 -2.5 -1.29895 -2.236584 -1.767767 -1.767767 
C -2.236584 -1.29895 -2.5 -0.663008 -2.5 0 
C -2.5 0.663008 -2.236584 1.29895 -1.767767 1.767767 
C -1.29895 2.236584 -0.663008 2.5 0 2.5 
z
" id="C2_0_5a1d5f7097"/>
    </defs>
    <g clip-path="url(#p2a9011d5f9)">
     <use style="fill:#0072b2;" x="136.810737" xlink:href="#C2_0_5a1d5f7097" y="98.566343"/>
    </g>
    <g clip-path="url(#p2a9011d5f9)">
     <use style="fill:#0072b2;" x="145.098873" xlink:href="#C2_0_5a1d5f7097" y="84.299513"/>
    </g>
    <g clip-path="url(#p2a9011d5f9)">
     <use style="fill:#0072b2;" x="141.93724" xlink:href="#C2_0_5a1d5f7097" y="74.710912"/>
    </g>
    <g clip-path="url(#p2a9011d5f9)">
     <use style="fill:#0072b2;" x="139.483777" xlink:href="#C2_0_5a1d5f7097" y="86.012497"/>
    </g>
    <g clip-path="url(#p2a9011d5f9)">
     <use style="fill:#0072b2;" x="136.504781" xlink:href="#C2_0_5a1d5f7097" y="84.286585"/>
    </g>
    <g clip-path="url(#p2a9011d5f9)">
     <use style="fill:#0072b2;" x="148.842407" xlink:href="#C2_0_5a1d5f7097" y="65.490892"/>
    </g>
   </g>
   <g id="PathCollection_8">
    <defs>
     <path d="M 0 2.5 
C 0.663008 2.5 1.29895 2.236584 1.767767 1.767767 
C 2.236584 1.29895 2.5 0.663008 2.5 0 
C 2.5 -0.663008 2.236584 -1.29895 1.767767 -1.767767 
C 1.29895 -2.236584 0.663008 -2.5 0 -2.5 
C -0.663008 -2.5 -1.29895 -2.236584 -1.767767 -1.767767 
C -2.236584 -1.29895 -2.5 -0.663008 -2.5 0 
C -2.5 0.663008 -2.236584 1.29895 -1.767767 1.767767 
C -1.29895 2.236584 -0.663008 2.5 0 2.5 
z
" id="C3_0_cd576bf130"/>
    </defs>
    <g clip-path="url(#p2a9011d5f9)">
     <use style="fill:#d55e00;" x="159.655921" xlink:href="#C3_0_cd576bf130" y="246.460817"/>
    </g>
    <g clip-path="url(#p2a9011d5f9)">
     <use style="fill:#d55e00;" x="156.981818" xlink:href="#C3_0_cd576bf130" y="239.208657"/>
    </g>
    <g clip-path="url(#p2a9011d5f9)">
     <use style="fill:#d55e00;" x="172.551592" xlink:href="#C3_0_cd576bf130" y="229.027636"/>
    </g>
    <g clip-path="url(#p2a9011d5f9)">
     <use style="fill:#d55e00;" x="161.741287" xlink:href="#C3_0_cd576bf130" y="241.312944"/>
    </g>
    <g clip-path="url(#p2a9011d5f9)">
     <use style="fill:#d55e00;" x="170.63023" xlink:href="#C3_0_cd576bf130" y="264.747697"/>
    </g>
    <g clip-path="url(#p2a9011d5f9)">
     <use style="fill:#d55e00;" x="168.294943" xlink:href="#C3_0_cd576bf130" y="243.224342"/>
    </g>
   </g>
   <g id="PathCollection_9">
    <defs>
     <path d="M 0 2.5 
C 0.663008 2.5 1.29895 2.236584 1.767767 1.767767 
C 2.236584 1.29895 2.5 0.663008 2.5 0 
C 2.5 -0.663008 2.236584 -1.29895 1.767767 -1.767767 
C 1.29895 -2.236584 0.663008 -2.5 0 -2.5 
C -0.663008 -2.5 -1.29895 -2.236584 -1.767767 -1.767767 
C -2.236584 -1.29895 -2.5 -0.663008 -2.5 0 
C -2.5 0.663008 -2.236584 1.29895 -1.767767 1.767767 
C -1.29895 2.236584 -0.663008 2.5 0 2.5 
z
" id="C4_0_ea6d37ead3"/>
    </defs>
    <g clip-path="url(#p2a9011d5f9)">
     <use style="fill:#0072b2;" x="197.130519" xlink:href="#C4_0_ea6d37ead3" y="77.708393"/>
    </g>
    <g clip-path="url(#p2a9011d5f9)">
     <use style="fill:#0072b2;" x="200.854628" xlink:href="#C4_0_ea6d37ead3" y="90.318825"/>
    </g>
    <g clip-path="url(#p2a9011d5f9)">
     <use style="fill:#0072b2;" x="212.253782" xlink:href="#C4_0_ea6d37ead3" y="74.037328"/>
    </g>
    <g clip-path="url(#p2a9011d5f9)">
     <use style="fill:#0072b2;" x="199.824988" xlink:href="#C4_0_ea6d37ead3" y="81.800876"/>
    </g>
    <g clip-path="url(#p2a9011d5f9)">
     <use style="fill:#0072b2;" x="204.850629" xlink:href="#C4_0_ea6d37ead3" y="82.322082"/>
    </g>
    <g clip-path="url(#p2a9011d5f9)">
     <use style="fill:#0072b2;" x="199.057922" xlink:href="#C4_0_ea6d37ead3" y="78.043494"/>
    </g>
   </g>
   <g id="PathCollection_10">
    <defs>
     <path d="M 0 2.5 
C 0.663008 2.5 1.29895 2.236584 1.767767 1.767767 
C 2.236584 1.29895 2.5 0.663008 2.5 0 
C 2.5 -0.663008 2.236584 -1.29895 1.767767 -1.767767 
C 1.29895 -2.236584 0.663008 -2.5 0 -2.5 
C -0.663008 -2.5 -1.29895 -2.236584 -1.767767 -1.767767 
C -2.236584 -1.29895 -2.5 -0.663008 -2.5 0 
C -2.5 0.663008 -2.236584 1.29895 -1.767767 1.767767 
C -1.29895 2.236584 -0.663008 2.5 0 2.5 
z
" id="C5_0_0bb64cb689"/>
    </defs>
    <g clip-path="url(#p2a9011d5f9)">
     <use style="fill:#d55e00;" x="222.471009" xlink:href="#C5_0_0bb64cb689" y="263.89077"/>
    </g>
    <g clip-path="url(#p2a9011d5f9)">
     <use style="fill:#d55e00;" x="236.380526" xlink:href="#C5_0_0bb64cb689" y="268.225379"/>
    </g>
    <g clip-path="url(#p2a9011d5f9)">
     <use style="fill:#d55e00;" x="234.480711" xlink:href="#C5_0_0bb64cb689" y="231.765284"/>
    </g>
    <g clip-path="url(#p2a9011d5f9)">
     <use style="fill:#d55e00;" x="235.435164" xlink:href="#C5_0_0bb64cb689" y="282.591111"/>
    </g>
    <g clip-path="url(#p2a9011d5f9)">
     <use style="fill:#d55e00;" x="221.399869" xlink:href="#C5_0_0bb64cb689" y="244.523687"/>
    </g>
    <g clip-path="url(#p2a9011d5f9)">
     <use style="fill:#d55e00;" x="229.030137" xlink:href="#C5_0_0bb64cb689" y="239.77408"/>
    </g>
   </g>
   <g id="PathCollection_11">
    <defs>
     <path d="M 0 2.5 
C 0.663008 2.5 1.29895 2.236584 1.767767 1.767767 
C 2.236584 1.29895 2.5 0.663008 2.5 0 
C 2.5 -0.663008 2.236584 -1.29895 1.767767 -1.767767 
C 1.29895 -2.236584 0.663008 -2.5 0 -2.5 
C -0.663008 -2.5 -1.29895 -2.236584 -1.767767 -1.767767 
C -2.236584 -1.29895 -2.5 -0.663008 -2.5 0 
C -2.5 0.663008 -2.236584 1.29895 -1.767767 1.767767 
C -1.29895 2.236584 -0.663008 2.5 0 2.5 
z
" id="C6_0_6f4c08ba26"/>
    </defs>
    <g clip-path="url(#p2a9011d5f9)">
     <use style="fill:#0072b2;" x="268.718958" xlink:href="#C6_0_6f4c08ba26" y="57.806962"/>
    </g>
    <g clip-path="url(#p2a9011d5f9)">
     <use style="fill:#0072b2;" x="264.901274" xlink:href="#C6_0_6f4c08ba26" y="60.321747"/>
    </g>
    <g clip-path="url(#p2a9011d5f9)">
     <use style="fill:#0072b2;" x="273.81729" xlink:href="#C6_0_6f4c08ba26" y="63.279765"/>
    </g>
    <g clip-path="url(#p2a9011d5f9)">
     <use style="fill:#0072b2;" x="276.126858" xlink:href="#C6_0_6f4c08ba26" y="73.492812"/>
    </g>
    <g clip-path="url(#p2a9011d5f9)">
     <use style="fill:#0072b2;" x="265.386665" xlink:href="#C6_0_6f4c08ba26" y="66.346545"/>
    </g>
    <g clip-path="url(#p2a9011d5f9)">
     <use style="fill:#0072b2;" x="264.918786" xlink:href="#C6_0_6f4c08ba26" y="63.77912"/>
    </g>
   </g>
   <g id="PathCollection_12">
    <defs>
     <path d="M 0 2.5 
C 0.663008 2.5 1.29895 2.236584 1.767767 1.767767 
C 2.236584 1.29895 2.5 0.663008 2.5 0 
C 2.5 -0.663008 2.236584 -1.29895 1.767767 -1.767767 
C 1.29895 -2.236584 0.663008 -2.5 0 -2.5 
C -0.663008 -2.5 -1.29895 -2.236584 -1.767767 -1.767767 
C -2.236584 -1.29895 -2.5 -0.663008 -2.5 0 
C -2.5 0.663008 -2.236584 1.29895 -1.767767 1.767767 
C -1.29895 2.236584 -0.663008 2.5 0 2.5 
z
" id="C7_0_559d0cc723"/>
    </defs>
    <g clip-path="url(#p2a9011d5f9)">
     <use style="fill:#d55e00;" x="283.282975" xlink:href="#C7_0_559d0cc723" y="238.912615"/>
    </g>
    <g clip-path="url(#p2a9011d5f9)">
     <use style="fill:#d55e00;" x="294.796851" xlink:href="#C7_0_559d0cc723" y="300.312926"/>
    </g>
    <g clip-path="url(#p2a9011d5f9)">
     <use style="fill:#d55e00;" x="296.048896" xlink:href="#C7_0_559d0cc723" y="269.974548"/>
    </g>
    <g clip-path="url(#p2a9011d5f9)">
     <use style="fill:#d55e00;" x="294.057586" xlink:href="#C7_0_559d0cc723" y="246.329141"/>
    </g>
    <g clip-path="url(#p2a9011d5f9)">
     <use style="fill:#d55e00;" x="283.004822" xlink:href="#C7_0_559d0cc723" y="270.889506"/>
    </g>
    <g clip-path="url(#p2a9011d5f9)">
     <use style="fill:#d55e00;" x="289.076806" xlink:href="#C7_0_559d0cc723" y="261.39866"/>
    </g>
   </g>
   <g id="text_12">
    <text style="fill:#262626;font-family:DejaVu Sans;font-size:14.4px;font-style:normal;font-weight:normal;text-anchor:middle;" transform="rotate(-0, 184.5, 37.2)" x="184.5" y="37.2">FIO1</text>
   </g>
   <g id="legend_1">
    <g id="patch_17">
     <path d="M 234.57 200.455125 
L 314.76 200.455125 
Q 317.4 200.455125 317.4 197.815125 
L 317.4 160.384875 
Q 317.4 157.744875 314.76 157.744875 
L 234.57 157.744875 
Q 231.93 157.744875 231.93 160.384875 
L 231.93 197.815125 
Q 231.93 200.455125 234.57 200.455125 
z
" style="fill:#ffffff;opacity:0.8;stroke:#cccccc;stroke-linejoin:miter;"/>
    </g>
    <g id="PathCollection_13">
     <defs>
      <path d="M 0 3 
C 0.795609 3 1.55874 2.683901 2.12132 2.12132 
C 2.683901 1.55874 3 0.795609 3 0 
C 3 -0.795609 2.683901 -1.55874 2.12132 -2.12132 
C 1.55874 -2.683901 0.795609 -3 0 -3 
C -0.795609 -3 -1.55874 -2.683901 -2.12132 -2.12132 
C -2.683901 -1.55874 -3 -0.795609 -3 0 
C -3 0.795609 -2.683901 1.55874 -2.12132 2.12132 
C -1.55874 2.683901 -0.795609 3 0 3 
z
" id="m3ae8eb83bf" style="stroke:#0072b2;"/>
     </defs>
     <g>
      <use style="fill:#0072b2;stroke:#0072b2;" x="250.41" xlink:href="#m3ae8eb83bf" y="169.589813"/>
     </g>
    </g>
    <g id="text_13">
     <text style="fill:#262626;font-family:DejaVu Sans;font-size:13.2px;font-style:normal;font-weight:normal;text-anchor:start;" transform="rotate(-0, 274.17, 173.054813)" x="274.17" y="173.054813">Col-0</text>
    </g>
    <g id="PathCollection_14">
     <defs>
      <path d="M 0 3 
C 0.795609 3 1.55874 2.683901 2.12132 2.12132 
C 2.683901 1.55874 3 0.795609 3 0 
C 3 -0.795609 2.683901 -1.55874 2.12132 -2.12132 
C 1.55874 -2.683901 0.795609 -3 0 -3 
C -0.795609 -3 -1.55874 -2.683901 -2.12132 -2.12132 
C -2.683901 -1.55874 -3 -0.795609 -3 0 
C -3 0.795609 -2.683901 1.55874 -2.12132 2.12132 
C -1.55874 2.683901 -0.795609 3 0 3 
z
" id="m53d722b9ae" style="stroke:#d55e00;"/>
     </defs>
     <g>
      <use style="fill:#d55e00;stroke:#d55e00;" x="250.41" xlink:href="#m53d722b9ae" y="188.964938"/>
     </g>
    </g>
    <g id="text_14">
     <text style="fill:#262626;font-family:DejaVu Sans;font-size:13.2px;font-style:normal;font-weight:normal;text-anchor:start;" transform="rotate(-0, 274.17, 192.429938)" x="274.17" y="192.429938">fio1-3</text>
    </g>
   </g>
  </g>
 </g>
 <defs>
  <clipPath id="p2a9011d5f9">
   <rect height="271.8" width="279" x="45" y="43.2"/>
  </clipPath>
 </defs>
</svg>
