<?xml version="1.0" encoding="utf-8" standalone="no"?>
<!DOCTYPE svg PUBLIC "-//W3C//DTD SVG 1.1//EN"
  "http://www.w3.org/Graphics/SVG/1.1/DTD/svg11.dtd">
<!-- Created with matplotlib (https://matplotlib.org/) -->
<svg height="360pt" version="1.1" viewBox="0 0 360 360" width="360pt" xmlns="http://www.w3.org/2000/svg" xmlns:xlink="http://www.w3.org/1999/xlink">
 <defs>
  <style type="text/css">
*{stroke-linecap:butt;stroke-linejoin:round;}
  </style>
 </defs>
 <g id="figure_1">
  <g id="patch_1">
   <path d="M 0 360 
L 360 360 
L 360 0 
L 0 0 
z
" style="fill:#ffffff;"/>
  </g>
  <g id="axes_1">
   <g id="patch_2">
    <path d="M 45 315 
L 324 315 
L 324 43.2 
L 45 43.2 
z
" style="fill:#ffffff;"/>
   </g>
   <g id="matplotlib.axis_1">
    <g id="xtick_1">
     <g id="line2d_1">
      <defs>
       <path d="M 0 0 
L 0 6 
" id="m88831ec8ea" style="stroke:#262626;stroke-width:1.25;"/>
      </defs>
      <g>
       <use style="fill:#262626;stroke:#262626;stroke-width:1.25;" x="89.386364" xlink:href="#m88831ec8ea" y="315"/>
      </g>
     </g>
     <g id="text_1">
      <text style="fill:#262626;font-family:DejaVu Sans;font-size:13.2px;font-style:normal;font-weight:normal;text-anchor:middle;" transform="rotate(-0, 89.386364, 334.529938)" x="89.386364" y="334.529938">20</text>
     </g>
    </g>
    <g id="xtick_2">
     <g id="line2d_2">
      <g>
       <use style="fill:#262626;stroke:#262626;stroke-width:1.25;" x="152.795455" xlink:href="#m88831ec8ea" y="315"/>
      </g>
     </g>
     <g id="text_2">
      <text style="fill:#262626;font-family:DejaVu Sans;font-size:13.2px;font-style:normal;font-weight:normal;text-anchor:middle;" transform="rotate(-0, 152.795455, 334.529938)" x="152.795455" y="334.529938">28</text>
     </g>
    </g>
    <g id="xtick_3">
     <g id="line2d_3">
      <g>
       <use style="fill:#262626;stroke:#262626;stroke-width:1.25;" x="216.204545" xlink:href="#m88831ec8ea" y="315"/>
      </g>
     </g>
     <g id="text_3">
      <text style="fill:#262626;font-family:DejaVu Sans;font-size:13.2px;font-style:normal;font-weight:normal;text-anchor:middle;" transform="rotate(-0, 216.204545, 334.529938)" x="216.204545" y="334.529938">12</text>
     </g>
    </g>
    <g id="xtick_4">
     <g id="line2d_4">
      <g>
       <use style="fill:#262626;stroke:#262626;stroke-width:1.25;" x="279.613636" xlink:href="#m88831ec8ea" y="315"/>
      </g>
     </g>
     <g id="text_4">
      <text style="fill:#262626;font-family:DejaVu Sans;font-size:13.2px;font-style:normal;font-weight:normal;text-anchor:middle;" transform="rotate(-0, 279.613636, 334.529938)" x="279.613636" y="334.529938">04</text>
     </g>
    </g>
    <g id="text_5">
     <text style="fill:#262626;font-family:DejaVu Sans;font-size:14.4px;font-style:normal;font-weight:normal;text-anchor:middle;" transform="rotate(-0, 184.5, 352.216875)" x="184.5" y="352.216875">Temperature (°C)</text>
    </g>
   </g>
   <g id="matplotlib.axis_2">
    <g id="ytick_1">
     <g id="line2d_5">
      <defs>
       <path d="M 0 0 
L -6 0 
" id="m4c3ebabf54" style="stroke:#262626;stroke-width:1.25;"/>
      </defs>
      <g>
       <use style="fill:#262626;stroke:#262626;stroke-width:1.25;" x="45" xlink:href="#m4c3ebabf54" y="292.748775"/>
      </g>
     </g>
     <g id="text_6">
      <text style="fill:#262626;font-family:DejaVu Sans;font-size:13.2px;font-style:normal;font-weight:normal;text-anchor:end;" transform="rotate(-0, 35.5, 297.763743)" x="35.5" y="297.763743">0</text>
     </g>
    </g>
    <g id="ytick_2">
     <g id="line2d_6">
      <g>
       <use style="fill:#262626;stroke:#262626;stroke-width:1.25;" x="45" xlink:href="#m4c3ebabf54" y="233.197006"/>
      </g>
     </g>
     <g id="text_7">
      <text style="fill:#262626;font-family:DejaVu Sans;font-size:13.2px;font-style:normal;font-weight:normal;text-anchor:end;" transform="rotate(-0, 35.5, 238.211974)" x="35.5" y="238.211974">1</text>
     </g>
    </g>
    <g id="ytick_3">
     <g id="line2d_7">
      <g>
       <use style="fill:#262626;stroke:#262626;stroke-width:1.25;" x="45" xlink:href="#m4c3ebabf54" y="173.645237"/>
      </g>
     </g>
     <g id="text_8">
      <text style="fill:#262626;font-family:DejaVu Sans;font-size:13.2px;font-style:normal;font-weight:normal;text-anchor:end;" transform="rotate(-0, 35.5, 178.660206)" x="35.5" y="178.660206">2</text>
     </g>
    </g>
    <g id="ytick_4">
     <g id="line2d_8">
      <g>
       <use style="fill:#262626;stroke:#262626;stroke-width:1.25;" x="45" xlink:href="#m4c3ebabf54" y="114.093468"/>
      </g>
     </g>
     <g id="text_9">
      <text style="fill:#262626;font-family:DejaVu Sans;font-size:13.2px;font-style:normal;font-weight:normal;text-anchor:end;" transform="rotate(-0, 35.5, 119.108437)" x="35.5" y="119.108437">3</text>
     </g>
    </g>
    <g id="ytick_5">
     <g id="line2d_9">
      <g>
       <use style="fill:#262626;stroke:#262626;stroke-width:1.25;" x="45" xlink:href="#m4c3ebabf54" y="54.541699"/>
      </g>
     </g>
     <g id="text_10">
      <text style="fill:#262626;font-family:DejaVu Sans;font-size:13.2px;font-style:normal;font-weight:normal;text-anchor:end;" transform="rotate(-0, 35.5, 59.556668)" x="35.5" y="59.556668">4</text>
     </g>
    </g>
    <g id="text_11">
     <text style="fill:#262626;font-family:DejaVu Sans;font-size:14.4px;font-style:normal;font-weight:normal;text-anchor:middle;" transform="rotate(-90, 20.10675, 179.1)" x="20.10675" y="179.1">Log2 counts per million</text>
    </g>
   </g>
   <g id="patch_3">
    <path clip-path="url(#pe65baabbc5)" d="M 64.276364 267.332182 
L 89.132727 267.332182 
L 89.132727 241.136265 
L 64.276364 241.136265 
L 64.276364 267.332182 
z
" style="fill:#f1f1f1;stroke:#8f8f8f;stroke-linejoin:miter;stroke-width:1.5;"/>
   </g>
   <g id="patch_4">
    <path clip-path="url(#pe65baabbc5)" d="M 89.64 82.271519 
L 114.496364 82.271519 
L 114.496364 77.869272 
L 89.64 77.869272 
L 89.64 82.271519 
z
" style="fill:#eeeeee;stroke:#8f8f8f;stroke-linejoin:miter;stroke-width:1.5;"/>
   </g>
   <g id="patch_5">
    <path clip-path="url(#pe65baabbc5)" d="M 127.685455 270.853329 
L 152.541818 270.853329 
L 152.541818 250.276773 
L 127.685455 250.276773 
L 127.685455 270.853329 
z
" style="fill:#f1f1f1;stroke:#8f8f8f;stroke-linejoin:miter;stroke-width:1.5;"/>
   </g>
   <g id="patch_6">
    <path clip-path="url(#pe65baabbc5)" d="M 153.049091 65.774557 
L 177.905455 65.774557 
L 177.905455 61.12834 
L 153.049091 61.12834 
L 153.049091 65.774557 
z
" style="fill:#eeeeee;stroke:#8f8f8f;stroke-linejoin:miter;stroke-width:1.5;"/>
   </g>
   <g id="patch_7">
    <path clip-path="url(#pe65baabbc5)" d="M 191.094545 245.82929 
L 215.950909 245.82929 
L 215.950909 239.908778 
L 191.094545 239.908778 
L 191.094545 245.82929 
z
" style="fill:#f1f1f1;stroke:#8f8f8f;stroke-linejoin:miter;stroke-width:1.5;"/>
   </g>
   <g id="patch_8">
    <path clip-path="url(#pe65baabbc5)" d="M 216.458182 85.66602 
L 241.314545 85.66602 
L 241.314545 77.181523 
L 216.458182 77.181523 
L 216.458182 85.66602 
z
" style="fill:#eeeeee;stroke:#8f8f8f;stroke-linejoin:miter;stroke-width:1.5;"/>
   </g>
   <g id="patch_9">
    <path clip-path="url(#pe65baabbc5)" d="M 254.503636 266.523143 
L 279.36 266.523143 
L 279.36 254.577164 
L 254.503636 254.577164 
L 254.503636 266.523143 
z
" style="fill:#f1f1f1;stroke:#8f8f8f;stroke-linejoin:miter;stroke-width:1.5;"/>
   </g>
   <g id="patch_10">
    <path clip-path="url(#pe65baabbc5)" d="M 279.867273 103.892171 
L 304.723636 103.892171 
L 304.723636 90.429284 
L 279.867273 90.429284 
L 279.867273 103.892171 
z
" style="fill:#eeeeee;stroke:#8f8f8f;stroke-linejoin:miter;stroke-width:1.5;"/>
   </g>
   <g id="PathCollection_1"/>
   <g id="PathCollection_2"/>
   <g id="PathCollection_3"/>
   <g id="PathCollection_4"/>
   <g id="patch_11">
    <path clip-path="url(#pe65baabbc5)" d="M 89.386364 292.748775 
L 89.386364 292.748775 
L 89.386364 292.748775 
L 89.386364 292.748775 
z
" style="fill:#f1f1f1;stroke:#8f8f8f;stroke-linejoin:miter;stroke-width:0.75;"/>
   </g>
   <g id="patch_12">
    <path clip-path="url(#pe65baabbc5)" d="M 89.386364 292.748775 
L 89.386364 292.748775 
L 89.386364 292.748775 
L 89.386364 292.748775 
z
" style="fill:#eeeeee;stroke:#8f8f8f;stroke-linejoin:miter;stroke-width:0.75;"/>
   </g>
   <g id="line2d_10">
    <path clip-path="url(#pe65baabbc5)" d="M 76.704545 267.332182 
L 76.704545 282.790816 
" style="fill:none;stroke:#8f8f8f;stroke-linecap:round;stroke-width:1.5;"/>
   </g>
   <g id="line2d_11">
    <path clip-path="url(#pe65baabbc5)" d="M 76.704545 241.136265 
L 76.704545 231.934562 
" style="fill:none;stroke:#8f8f8f;stroke-linecap:round;stroke-width:1.5;"/>
   </g>
   <g id="line2d_12">
    <path clip-path="url(#pe65baabbc5)" d="M 70.490455 282.790816 
L 82.918636 282.790816 
" style="fill:none;stroke:#8f8f8f;stroke-linecap:round;stroke-width:1.5;"/>
   </g>
   <g id="line2d_13">
    <path clip-path="url(#pe65baabbc5)" d="M 70.490455 231.934562 
L 82.918636 231.934562 
" style="fill:none;stroke:#8f8f8f;stroke-linecap:round;stroke-width:1.5;"/>
   </g>
   <g id="line2d_14">
    <path clip-path="url(#pe65baabbc5)" d="M 102.068182 82.271519 
L 102.068182 82.401899 
" style="fill:none;stroke:#8f8f8f;stroke-linecap:round;stroke-width:1.5;"/>
   </g>
   <g id="line2d_15">
    <path clip-path="url(#pe65baabbc5)" d="M 102.068182 77.869272 
L 102.068182 74.112184 
" style="fill:none;stroke:#8f8f8f;stroke-linecap:round;stroke-width:1.5;"/>
   </g>
   <g id="line2d_16">
    <path clip-path="url(#pe65baabbc5)" d="M 95.854091 82.401899 
L 108.282273 82.401899 
" style="fill:none;stroke:#8f8f8f;stroke-linecap:round;stroke-width:1.5;"/>
   </g>
   <g id="line2d_17">
    <path clip-path="url(#pe65baabbc5)" d="M 95.854091 74.112184 
L 108.282273 74.112184 
" style="fill:none;stroke:#8f8f8f;stroke-linecap:round;stroke-width:1.5;"/>
   </g>
   <g id="line2d_18">
    <path clip-path="url(#pe65baabbc5)" d="M 140.113636 270.853329 
L 140.113636 300.523239 
" style="fill:none;stroke:#8f8f8f;stroke-linecap:round;stroke-width:1.5;"/>
   </g>
   <g id="line2d_19">
    <path clip-path="url(#pe65baabbc5)" d="M 140.113636 250.276773 
L 140.113636 239.086172 
" style="fill:none;stroke:#8f8f8f;stroke-linecap:round;stroke-width:1.5;"/>
   </g>
   <g id="line2d_20">
    <path clip-path="url(#pe65baabbc5)" d="M 133.899545 300.523239 
L 146.327727 300.523239 
" style="fill:none;stroke:#8f8f8f;stroke-linecap:round;stroke-width:1.5;"/>
   </g>
   <g id="line2d_21">
    <path clip-path="url(#pe65baabbc5)" d="M 133.899545 239.086172 
L 146.327727 239.086172 
" style="fill:none;stroke:#8f8f8f;stroke-linecap:round;stroke-width:1.5;"/>
   </g>
   <g id="line2d_22">
    <path clip-path="url(#pe65baabbc5)" d="M 165.477273 65.774557 
L 165.477273 66.416798 
" style="fill:none;stroke:#8f8f8f;stroke-linecap:round;stroke-width:1.5;"/>
   </g>
   <g id="line2d_23">
    <path clip-path="url(#pe65baabbc5)" d="M 165.477273 61.12834 
L 165.477273 57.872102 
" style="fill:none;stroke:#8f8f8f;stroke-linecap:round;stroke-width:1.5;"/>
   </g>
   <g id="line2d_24">
    <path clip-path="url(#pe65baabbc5)" d="M 159.263182 66.416798 
L 171.691364 66.416798 
" style="fill:none;stroke:#8f8f8f;stroke-linecap:round;stroke-width:1.5;"/>
   </g>
   <g id="line2d_25">
    <path clip-path="url(#pe65baabbc5)" d="M 159.263182 57.872102 
L 171.691364 57.872102 
" style="fill:none;stroke:#8f8f8f;stroke-linecap:round;stroke-width:1.5;"/>
   </g>
   <g id="line2d_26">
    <path clip-path="url(#pe65baabbc5)" d="M 203.522727 245.82929 
L 203.522727 246.638893 
" style="fill:none;stroke:#8f8f8f;stroke-linecap:round;stroke-width:1.5;"/>
   </g>
   <g id="line2d_27">
    <path clip-path="url(#pe65baabbc5)" d="M 203.522727 239.908778 
L 203.522727 239.382392 
" style="fill:none;stroke:#8f8f8f;stroke-linecap:round;stroke-width:1.5;"/>
   </g>
   <g id="line2d_28">
    <path clip-path="url(#pe65baabbc5)" d="M 197.308636 246.638893 
L 209.736818 246.638893 
" style="fill:none;stroke:#8f8f8f;stroke-linecap:round;stroke-width:1.5;"/>
   </g>
   <g id="line2d_29">
    <path clip-path="url(#pe65baabbc5)" d="M 197.308636 239.382392 
L 209.736818 239.382392 
" style="fill:none;stroke:#8f8f8f;stroke-linecap:round;stroke-width:1.5;"/>
   </g>
   <g id="line2d_30">
    <path clip-path="url(#pe65baabbc5)" d="M 228.886364 85.66602 
L 228.886364 86.094522 
" style="fill:none;stroke:#8f8f8f;stroke-linecap:round;stroke-width:1.5;"/>
   </g>
   <g id="line2d_31">
    <path clip-path="url(#pe65baabbc5)" d="M 228.886364 77.181523 
L 228.886364 65.560632 
" style="fill:none;stroke:#8f8f8f;stroke-linecap:round;stroke-width:1.5;"/>
   </g>
   <g id="line2d_32">
    <path clip-path="url(#pe65baabbc5)" d="M 222.672273 86.094522 
L 235.100455 86.094522 
" style="fill:none;stroke:#8f8f8f;stroke-linecap:round;stroke-width:1.5;"/>
   </g>
   <g id="line2d_33">
    <path clip-path="url(#pe65baabbc5)" d="M 222.672273 65.560632 
L 235.100455 65.560632 
" style="fill:none;stroke:#8f8f8f;stroke-linecap:round;stroke-width:1.5;"/>
   </g>
   <g id="line2d_34">
    <path clip-path="url(#pe65baabbc5)" d="M 266.931818 266.523143 
L 266.931818 268.926418 
" style="fill:none;stroke:#8f8f8f;stroke-linecap:round;stroke-width:1.5;"/>
   </g>
   <g id="line2d_35">
    <path clip-path="url(#pe65baabbc5)" d="M 266.931818 254.577164 
L 266.931818 239.816403 
" style="fill:none;stroke:#8f8f8f;stroke-linecap:round;stroke-width:1.5;"/>
   </g>
   <g id="line2d_36">
    <path clip-path="url(#pe65baabbc5)" d="M 260.717727 268.926418 
L 273.145909 268.926418 
" style="fill:none;stroke:#8f8f8f;stroke-linecap:round;stroke-width:1.5;"/>
   </g>
   <g id="line2d_37">
    <path clip-path="url(#pe65baabbc5)" d="M 260.717727 239.816403 
L 273.145909 239.816403 
" style="fill:none;stroke:#8f8f8f;stroke-linecap:round;stroke-width:1.5;"/>
   </g>
   <g id="line2d_38">
    <path clip-path="url(#pe65baabbc5)" d="M 292.295455 103.892171 
L 292.295455 104.622043 
" style="fill:none;stroke:#8f8f8f;stroke-linecap:round;stroke-width:1.5;"/>
   </g>
   <g id="line2d_39">
    <path clip-path="url(#pe65baabbc5)" d="M 292.295455 90.429284 
L 292.295455 87.234423 
" style="fill:none;stroke:#8f8f8f;stroke-linecap:round;stroke-width:1.5;"/>
   </g>
   <g id="line2d_40">
    <path clip-path="url(#pe65baabbc5)" d="M 286.081364 104.622043 
L 298.509545 104.622043 
" style="fill:none;stroke:#8f8f8f;stroke-linecap:round;stroke-width:1.5;"/>
   </g>
   <g id="line2d_41">
    <path clip-path="url(#pe65baabbc5)" d="M 286.081364 87.234423 
L 298.509545 87.234423 
" style="fill:none;stroke:#8f8f8f;stroke-linecap:round;stroke-width:1.5;"/>
   </g>
   <g id="line2d_42">
    <path clip-path="url(#pe65baabbc5)" d="M 64.276364 254.389942 
L 89.132727 254.389942 
" style="fill:none;stroke:#8f8f8f;stroke-linecap:round;stroke-width:1.5;"/>
   </g>
   <g id="line2d_43">
    <path clip-path="url(#pe65baabbc5)" d="M 89.64 80.000564 
L 114.496364 80.000564 
" style="fill:none;stroke:#8f8f8f;stroke-linecap:round;stroke-width:1.5;"/>
   </g>
   <g id="line2d_44">
    <path clip-path="url(#pe65baabbc5)" d="M 127.685455 265.876189 
L 152.541818 265.876189 
" style="fill:none;stroke:#8f8f8f;stroke-linecap:round;stroke-width:1.5;"/>
   </g>
   <g id="line2d_45">
    <path clip-path="url(#pe65baabbc5)" d="M 153.049091 63.598009 
L 177.905455 63.598009 
" style="fill:none;stroke:#8f8f8f;stroke-linecap:round;stroke-width:1.5;"/>
   </g>
   <g id="line2d_46">
    <path clip-path="url(#pe65baabbc5)" d="M 191.094545 242.444209 
L 215.950909 242.444209 
" style="fill:none;stroke:#8f8f8f;stroke-linecap:round;stroke-width:1.5;"/>
   </g>
   <g id="line2d_47">
    <path clip-path="url(#pe65baabbc5)" d="M 216.458182 84.374045 
L 241.314545 84.374045 
" style="fill:none;stroke:#8f8f8f;stroke-linecap:round;stroke-width:1.5;"/>
   </g>
   <g id="line2d_48">
    <path clip-path="url(#pe65baabbc5)" d="M 254.503636 258.748008 
L 279.36 258.748008 
" style="fill:none;stroke:#8f8f8f;stroke-linecap:round;stroke-width:1.5;"/>
   </g>
   <g id="line2d_49">
    <path clip-path="url(#pe65baabbc5)" d="M 279.867273 96.872736 
L 304.723636 96.872736 
" style="fill:none;stroke:#8f8f8f;stroke-linecap:round;stroke-width:1.5;"/>
   </g>
   <g id="patch_13">
    <path d="M 45 315 
L 45 43.2 
" style="fill:none;stroke:#262626;stroke-linecap:square;stroke-linejoin:miter;stroke-width:1.25;"/>
   </g>
   <g id="patch_14">
    <path d="M 324 315 
L 324 43.2 
" style="fill:none;stroke:#262626;stroke-linecap:square;stroke-linejoin:miter;stroke-width:1.25;"/>
   </g>
   <g id="patch_15">
    <path d="M 45 315 
L 324 315 
" style="fill:none;stroke:#262626;stroke-linecap:square;stroke-linejoin:miter;stroke-width:1.25;"/>
   </g>
   <g id="patch_16">
    <path d="M 45 43.2 
L 324 43.2 
" style="fill:none;stroke:#262626;stroke-linecap:square;stroke-linejoin:miter;stroke-width:1.25;"/>
   </g>
   <g id="PathCollection_5">
    <defs>
     <path d="M 0 2.5 
C 0.663008 2.5 1.29895 2.236584 1.767767 1.767767 
C 2.236584 1.29895 2.5 0.663008 2.5 0 
C 2.5 -0.663008 2.236584 -1.29895 1.767767 -1.767767 
C 1.29895 -2.236584 0.663008 -2.5 0 -2.5 
C -0.663008 -2.5 -1.29895 -2.236584 -1.767767 -1.767767 
C -2.236584 -1.29895 -2.5 -0.663008 -2.5 0 
C -2.5 0.663008 -2.236584 1.29895 -1.767767 1.767767 
C -1.29895 2.236584 -0.663008 2.5 0 2.5 
z
" id="C0_0_64dc9a3220"/>
    </defs>
    <g clip-path="url(#pe65baabbc5)">
     <use style="fill:#0072b2;" x="84.839129" xlink:href="#C0_0_64dc9a3220" y="264.07928"/>
    </g>
    <g clip-path="url(#pe65baabbc5)">
     <use style="fill:#0072b2;" x="84.234757" xlink:href="#C0_0_64dc9a3220" y="268.416483"/>
    </g>
    <g clip-path="url(#pe65baabbc5)">
     <use style="fill:#0072b2;" x="73.87898" xlink:href="#C0_0_64dc9a3220" y="231.934562"/>
    </g>
    <g clip-path="url(#pe65baabbc5)">
     <use style="fill:#0072b2;" x="76.713924" xlink:href="#C0_0_64dc9a3220" y="282.790816"/>
    </g>
    <g clip-path="url(#pe65baabbc5)">
     <use style="fill:#0072b2;" x="69.636187" xlink:href="#C0_0_64dc9a3220" y="244.700603"/>
    </g>
    <g clip-path="url(#pe65baabbc5)">
     <use style="fill:#0072b2;" x="72.114597" xlink:href="#C0_0_64dc9a3220" y="239.948153"/>
    </g>
   </g>
   <g id="PathCollection_6">
    <defs>
     <path d="M 0 2.5 
C 0.663008 2.5 1.29895 2.236584 1.767767 1.767767 
C 2.236584 1.29895 2.5 0.663008 2.5 0 
C 2.5 -0.663008 2.236584 -1.29895 1.767767 -1.767767 
C 1.29895 -2.236584 0.663008 -2.5 0 -2.5 
C -0.663008 -2.5 -1.29895 -2.236584 -1.767767 -1.767767 
C -2.236584 -1.29895 -2.5 -0.663008 -2.5 0 
C -2.5 0.663008 -2.236584 1.29895 -1.767767 1.767767 
C -1.29895 2.236584 -0.663008 2.5 0 2.5 
z
" id="C1_0_fb9f901488"/>
    </defs>
    <g clip-path="url(#pe65baabbc5)">
     <use style="fill:#d55e00;" x="93.188279" xlink:href="#C1_0_fb9f901488" y="77.785447"/>
    </g>
    <g clip-path="url(#pe65baabbc5)">
     <use style="fill:#d55e00;" x="102.441328" xlink:href="#C1_0_fb9f901488" y="90.403428"/>
    </g>
    <g clip-path="url(#pe65baabbc5)">
     <use style="fill:#d55e00;" x="101.87032" xlink:href="#C1_0_fb9f901488" y="74.112184"/>
    </g>
    <g clip-path="url(#pe65baabbc5)">
     <use style="fill:#d55e00;" x="107.24404" xlink:href="#C1_0_fb9f901488" y="81.88038"/>
    </g>
    <g clip-path="url(#pe65baabbc5)">
     <use style="fill:#d55e00;" x="100.35718" xlink:href="#C1_0_fb9f901488" y="82.401899"/>
    </g>
    <g clip-path="url(#pe65baabbc5)">
     <use style="fill:#d55e00;" x="111.227808" xlink:href="#C1_0_fb9f901488" y="78.120748"/>
    </g>
   </g>
   <g id="PathCollection_7">
    <defs>
     <path d="M 0 2.5 
C 0.663008 2.5 1.29895 2.236584 1.767767 1.767767 
C 2.236584 1.29895 2.5 0.663008 2.5 0 
C 2.5 -0.663008 2.236584 -1.29895 1.767767 -1.767767 
C 1.29895 -2.236584 0.663008 -2.5 0 -2.5 
C -0.663008 -2.5 -1.29895 -2.236584 -1.767767 -1.767767 
C -2.236584 -1.29895 -2.5 -0.663008 -2.5 0 
C -2.5 0.663008 -2.236584 1.29895 -1.767767 1.767767 
C -1.29895 2.236584 -0.663008 2.5 0 2.5 
z
" id="C2_0_87087dfaa6"/>
    </defs>
    <g clip-path="url(#pe65baabbc5)">
     <use style="fill:#0072b2;" x="138.606544" xlink:href="#C2_0_87087dfaa6" y="239.086172"/>
    </g>
    <g clip-path="url(#pe65baabbc5)">
     <use style="fill:#0072b2;" x="141.215529" xlink:href="#C2_0_87087dfaa6" y="300.523239"/>
    </g>
    <g clip-path="url(#pe65baabbc5)">
     <use style="fill:#0072b2;" x="138.095998" xlink:href="#C2_0_87087dfaa6" y="270.1667"/>
    </g>
    <g clip-path="url(#pe65baabbc5)">
     <use style="fill:#0072b2;" x="147.277383" xlink:href="#C2_0_87087dfaa6" y="246.507138"/>
    </g>
    <g clip-path="url(#pe65baabbc5)">
     <use style="fill:#0072b2;" x="145.282953" xlink:href="#C2_0_87087dfaa6" y="271.082205"/>
    </g>
    <g clip-path="url(#pe65baabbc5)">
     <use style="fill:#0072b2;" x="136.759232" xlink:href="#C2_0_87087dfaa6" y="261.585678"/>
    </g>
   </g>
   <g id="PathCollection_8">
    <defs>
     <path d="M 0 2.5 
C 0.663008 2.5 1.29895 2.236584 1.767767 1.767767 
C 2.236584 1.29895 2.5 0.663008 2.5 0 
C 2.5 -0.663008 2.236584 -1.29895 1.767767 -1.767767 
C 1.29895 -2.236584 0.663008 -2.5 0 -2.5 
C -0.663008 -2.5 -1.29895 -2.236584 -1.767767 -1.767767 
C -2.236584 -1.29895 -2.5 -0.663008 -2.5 0 
C -2.5 0.663008 -2.236584 1.29895 -1.767767 1.767767 
C -1.29895 2.236584 -0.663008 2.5 0 2.5 
z
" id="C3_0_de4cc57d1e"/>
    </defs>
    <g clip-path="url(#pe65baabbc5)">
     <use style="fill:#d55e00;" x="163.902798" xlink:href="#C3_0_de4cc57d1e" y="57.872102"/>
    </g>
    <g clip-path="url(#pe65baabbc5)">
     <use style="fill:#d55e00;" x="168.959105" xlink:href="#C3_0_de4cc57d1e" y="60.388393"/>
    </g>
    <g clip-path="url(#pe65baabbc5)">
     <use style="fill:#d55e00;" x="168.346508" xlink:href="#C3_0_de4cc57d1e" y="63.348182"/>
    </g>
    <g clip-path="url(#pe65baabbc5)">
     <use style="fill:#d55e00;" x="168.27949" xlink:href="#C3_0_de4cc57d1e" y="73.567343"/>
    </g>
    <g clip-path="url(#pe65baabbc5)">
     <use style="fill:#d55e00;" x="170.635536" xlink:href="#C3_0_de4cc57d1e" y="66.416798"/>
    </g>
    <g clip-path="url(#pe65baabbc5)">
     <use style="fill:#d55e00;" x="171.200733" xlink:href="#C3_0_de4cc57d1e" y="63.847836"/>
    </g>
   </g>
   <g id="PathCollection_9">
    <defs>
     <path d="M 0 2.5 
C 0.663008 2.5 1.29895 2.236584 1.767767 1.767767 
C 2.236584 1.29895 2.5 0.663008 2.5 0 
C 2.5 -0.663008 2.236584 -1.29895 1.767767 -1.767767 
C 1.29895 -2.236584 0.663008 -2.5 0 -2.5 
C -0.663008 -2.5 -1.29895 -2.236584 -1.767767 -1.767767 
C -2.236584 -1.29895 -2.5 -0.663008 -2.5 0 
C -2.5 0.663008 -2.236584 1.29895 -1.767767 1.767767 
C -1.29895 2.236584 -0.663008 2.5 0 2.5 
z
" id="C4_0_262c5023c5"/>
    </defs>
    <g clip-path="url(#pe65baabbc5)">
     <use style="fill:#0072b2;" x="201.386772" xlink:href="#C4_0_262c5023c5" y="246.638893"/>
    </g>
    <g clip-path="url(#pe65baabbc5)">
     <use style="fill:#0072b2;" x="212.880577" xlink:href="#C4_0_262c5023c5" y="239.382392"/>
    </g>
    <g clip-path="url(#pe65baabbc5)">
     <use style="fill:#0072b2;" x="211.000531" xlink:href="#C4_0_262c5023c5" y="229.195275"/>
    </g>
    <g clip-path="url(#pe65baabbc5)">
     <use style="fill:#0072b2;" x="206.367319" xlink:href="#C4_0_262c5023c5" y="241.487937"/>
    </g>
    <g clip-path="url(#pe65baabbc5)">
     <use style="fill:#0072b2;" x="208.568477" xlink:href="#C4_0_262c5023c5" y="264.93672"/>
    </g>
    <g clip-path="url(#pe65baabbc5)">
     <use style="fill:#0072b2;" x="202.389942" xlink:href="#C4_0_262c5023c5" y="243.40048"/>
    </g>
   </g>
   <g id="PathCollection_10">
    <defs>
     <path d="M 0 2.5 
C 0.663008 2.5 1.29895 2.236584 1.767767 1.767767 
C 2.236584 1.29895 2.5 0.663008 2.5 0 
C 2.5 -0.663008 2.236584 -1.29895 1.767767 -1.767767 
C 1.29895 -2.236584 0.663008 -2.5 0 -2.5 
C -0.663008 -2.5 -1.29895 -2.236584 -1.767767 -1.767767 
C -2.236584 -1.29895 -2.5 -0.663008 -2.5 0 
C -2.5 0.663008 -2.236584 1.29895 -1.767767 1.767767 
C -1.29895 2.236584 -0.663008 2.5 0 2.5 
z
" id="C5_0_04c4627c11"/>
    </defs>
    <g clip-path="url(#pe65baabbc5)">
     <use style="fill:#d55e00;" x="227.807033" xlink:href="#C5_0_04c4627c11" y="98.655883"/>
    </g>
    <g clip-path="url(#pe65baabbc5)">
     <use style="fill:#d55e00;" x="224.022496" xlink:href="#C5_0_04c4627c11" y="84.380513"/>
    </g>
    <g clip-path="url(#pe65baabbc5)">
     <use style="fill:#d55e00;" x="223.756965" xlink:href="#C5_0_04c4627c11" y="74.786172"/>
    </g>
    <g clip-path="url(#pe65baabbc5)">
     <use style="fill:#d55e00;" x="225.566735" xlink:href="#C5_0_04c4627c11" y="86.094522"/>
    </g>
    <g clip-path="url(#pe65baabbc5)">
     <use style="fill:#d55e00;" x="225.164048" xlink:href="#C5_0_04c4627c11" y="84.367577"/>
    </g>
    <g clip-path="url(#pe65baabbc5)">
     <use style="fill:#d55e00;" x="228.957107" xlink:href="#C5_0_04c4627c11" y="65.560632"/>
    </g>
   </g>
   <g id="PathCollection_11">
    <defs>
     <path d="M 0 2.5 
C 0.663008 2.5 1.29895 2.236584 1.767767 1.767767 
C 2.236584 1.29895 2.5 0.663008 2.5 0 
C 2.5 -0.663008 2.236584 -1.29895 1.767767 -1.767767 
C 1.29895 -2.236584 0.663008 -2.5 0 -2.5 
C -0.663008 -2.5 -1.29895 -2.236584 -1.767767 -1.767767 
C -2.236584 -1.29895 -2.5 -0.663008 -2.5 0 
C -2.5 0.663008 -2.236584 1.29895 -1.767767 1.767767 
C -1.29895 2.236584 -0.663008 2.5 0 2.5 
z
" id="C6_0_671e018316"/>
    </defs>
    <g clip-path="url(#pe65baabbc5)">
     <use style="fill:#0072b2;" x="267.181277" xlink:href="#C6_0_671e018316" y="239.816403"/>
    </g>
    <g clip-path="url(#pe65baabbc5)">
     <use style="fill:#0072b2;" x="262.503482" xlink:href="#C6_0_671e018316" y="259.313319"/>
    </g>
    <g clip-path="url(#pe65baabbc5)">
     <use style="fill:#0072b2;" x="262.069459" xlink:href="#C6_0_671e018316" y="253.37532"/>
    </g>
    <g clip-path="url(#pe65baabbc5)">
     <use style="fill:#0072b2;" x="257.471824" xlink:href="#C6_0_671e018316" y="258.182697"/>
    </g>
    <g clip-path="url(#pe65baabbc5)">
     <use style="fill:#0072b2;" x="274.044577" xlink:href="#C6_0_671e018316" y="268.926418"/>
    </g>
    <g clip-path="url(#pe65baabbc5)">
     <use style="fill:#0072b2;" x="275.25509" xlink:href="#C6_0_671e018316" y="286.107978"/>
    </g>
   </g>
   <g id="PathCollection_12">
    <defs>
     <path d="M 0 2.5 
C 0.663008 2.5 1.29895 2.236584 1.767767 1.767767 
C 2.236584 1.29895 2.5 0.663008 2.5 0 
C 2.5 -0.663008 2.236584 -1.29895 1.767767 -1.767767 
C 1.29895 -2.236584 0.663008 -2.5 0 -2.5 
C -0.663008 -2.5 -1.29895 -2.236584 -1.767767 -1.767767 
C -2.236584 -1.29895 -2.5 -0.663008 -2.5 0 
C -2.5 0.663008 -2.236584 1.29895 -1.767767 1.767767 
C -1.29895 2.236584 -0.663008 2.5 0 2.5 
z
" id="C7_0_3cdcb1133f"/>
    </defs>
    <g clip-path="url(#pe65baabbc5)">
     <use style="fill:#d55e00;" x="287.588254" xlink:href="#C7_0_3cdcb1133f" y="104.622043"/>
    </g>
    <g clip-path="url(#pe65baabbc5)">
     <use style="fill:#d55e00;" x="290.85099" xlink:href="#C7_0_3cdcb1133f" y="87.234423"/>
    </g>
    <g clip-path="url(#pe65baabbc5)">
     <use style="fill:#d55e00;" x="291.036919" xlink:href="#C7_0_3cdcb1133f" y="102.122402"/>
    </g>
    <g clip-path="url(#pe65baabbc5)">
     <use style="fill:#d55e00;" x="295.339355" xlink:href="#C7_0_3cdcb1133f" y="91.62307"/>
    </g>
    <g clip-path="url(#pe65baabbc5)">
     <use style="fill:#d55e00;" x="285.203597" xlink:href="#C7_0_3cdcb1133f" y="104.482094"/>
    </g>
    <g clip-path="url(#pe65baabbc5)">
     <use style="fill:#d55e00;" x="298.616978" xlink:href="#C7_0_3cdcb1133f" y="90.031356"/>
    </g>
   </g>
   <g id="text_12">
    <text style="fill:#262626;font-family:DejaVu Sans;font-size:14.4px;font-style:normal;font-weight:normal;text-anchor:middle;" transform="rotate(-0, 184.5, 37.2)" x="184.5" y="37.2">FIO1</text>
   </g>
   <g id="legend_1">
    <g id="patch_17">
     <path d="M 234.57 200.455125 
L 314.76 200.455125 
Q 317.4 200.455125 317.4 197.815125 
L 317.4 160.384875 
Q 317.4 157.744875 314.76 157.744875 
L 234.57 157.744875 
Q 231.93 157.744875 231.93 160.384875 
L 231.93 197.815125 
Q 231.93 200.455125 234.57 200.455125 
z
" style="fill:#ffffff;opacity:0.8;stroke:#cccccc;stroke-linejoin:miter;"/>
    </g>
    <g id="PathCollection_13">
     <defs>
      <path d="M 0 3 
C 0.795609 3 1.55874 2.683901 2.12132 2.12132 
C 2.683901 1.55874 3 0.795609 3 0 
C 3 -0.795609 2.683901 -1.55874 2.12132 -2.12132 
C 1.55874 -2.683901 0.795609 -3 0 -3 
C -0.795609 -3 -1.55874 -2.683901 -2.12132 -2.12132 
C -2.683901 -1.55874 -3 -0.795609 -3 0 
C -3 0.795609 -2.683901 1.55874 -2.12132 2.12132 
C -1.55874 2.683901 -0.795609 3 0 3 
z
" id="m198f7cdae8" style="stroke:#0072b2;"/>
     </defs>
     <g>
      <use style="fill:#0072b2;stroke:#0072b2;" x="250.41" xlink:href="#m198f7cdae8" y="169.589813"/>
     </g>
    </g>
    <g id="text_13">
     <text style="fill:#262626;font-family:DejaVu Sans;font-size:13.2px;font-style:normal;font-weight:normal;text-anchor:start;" transform="rotate(-0, 274.17, 173.054813)" x="274.17" y="173.054813">Col-0</text>
    </g>
    <g id="PathCollection_14">
     <defs>
      <path d="M 0 3 
C 0.795609 3 1.55874 2.683901 2.12132 2.12132 
C 2.683901 1.55874 3 0.795609 3 0 
C 3 -0.795609 2.683901 -1.55874 2.12132 -2.12132 
C 1.55874 -2.683901 0.795609 -3 0 -3 
C -0.795609 -3 -1.55874 -2.683901 -2.12132 -2.12132 
C -2.683901 -1.55874 -3 -0.795609 -3 0 
C -3 0.795609 -2.683901 1.55874 -2.12132 2.12132 
C -1.55874 2.683901 -0.795609 3 0 3 
z
" id="m0742a22f3a" style="stroke:#d55e00;"/>
     </defs>
     <g>
      <use style="fill:#d55e00;stroke:#d55e00;" x="250.41" xlink:href="#m0742a22f3a" y="188.964938"/>
     </g>
    </g>
    <g id="text_14">
     <text style="fill:#262626;font-family:DejaVu Sans;font-size:13.2px;font-style:normal;font-weight:normal;text-anchor:start;" transform="rotate(-0, 274.17, 192.429938)" x="274.17" y="192.429938">fio1-3</text>
    </g>
   </g>
  </g>
 </g>
 <defs>
  <clipPath id="pe65baabbc5">
   <rect height="271.8" width="279" x="45" y="43.2"/>
  </clipPath>
 </defs>
</svg>
