<?xml version="1.0" encoding="utf-8" standalone="no"?>
<!DOCTYPE svg PUBLIC "-//W3C//DTD SVG 1.1//EN"
  "http://www.w3.org/Graphics/SVG/1.1/DTD/svg11.dtd">
<!-- Created with matplotlib (https://matplotlib.org/) -->
<svg height="504pt" version="1.1" viewBox="0 0 504 504" width="504pt" xmlns="http://www.w3.org/2000/svg" xmlns:xlink="http://www.w3.org/1999/xlink">
 <defs>
  <style type="text/css">
*{stroke-linecap:butt;stroke-linejoin:round;}
  </style>
 </defs>
 <g id="figure_1">
  <g id="patch_1">
   <path d="M 0 504 
L 504 504 
L 504 0 
L 0 0 
z
" style="fill:#ffffff;"/>
  </g>
  <g id="axes_1">
   <g id="patch_2">
    <path d="M 63 441 
L 453.6 441 
L 453.6 60.48 
L 63 60.48 
z
" style="fill:#ffffff;"/>
   </g>
   <g id="matplotlib.axis_1">
    <g id="xtick_1">
     <g id="line2d_1">
      <defs>
       <path d="M 0 0 
L 0 6 
" id="m9332631220" style="stroke:#262626;stroke-width:1.25;"/>
      </defs>
      <g>
       <use style="fill:#262626;stroke:#262626;stroke-width:1.25;" x="104.776812" xlink:href="#m9332631220" y="441"/>
      </g>
     </g>
     <g id="text_1">
      <text style="fill:#262626;font-family:DejaVu Sans;font-size:13.2px;font-style:normal;font-weight:normal;text-anchor:middle;" transform="rotate(-0, 104.776812, 460.529938)" x="104.776812" y="460.529938">−75</text>
     </g>
    </g>
    <g id="xtick_2">
     <g id="line2d_2">
      <g>
       <use style="fill:#262626;stroke:#262626;stroke-width:1.25;" x="151.967827" xlink:href="#m9332631220" y="441"/>
      </g>
     </g>
     <g id="text_2">
      <text style="fill:#262626;font-family:DejaVu Sans;font-size:13.2px;font-style:normal;font-weight:normal;text-anchor:middle;" transform="rotate(-0, 151.967827, 460.529938)" x="151.967827" y="460.529938">−50</text>
     </g>
    </g>
    <g id="xtick_3">
     <g id="line2d_3">
      <g>
       <use style="fill:#262626;stroke:#262626;stroke-width:1.25;" x="199.158843" xlink:href="#m9332631220" y="441"/>
      </g>
     </g>
     <g id="text_3">
      <text style="fill:#262626;font-family:DejaVu Sans;font-size:13.2px;font-style:normal;font-weight:normal;text-anchor:middle;" transform="rotate(-0, 199.158843, 460.529938)" x="199.158843" y="460.529938">−25</text>
     </g>
    </g>
    <g id="xtick_4">
     <g id="line2d_4">
      <g>
       <use style="fill:#262626;stroke:#262626;stroke-width:1.25;" x="246.349858" xlink:href="#m9332631220" y="441"/>
      </g>
     </g>
     <g id="text_4">
      <text style="fill:#262626;font-family:DejaVu Sans;font-size:13.2px;font-style:normal;font-weight:normal;text-anchor:middle;" transform="rotate(-0, 246.349858, 460.529938)" x="246.349858" y="460.529938">0</text>
     </g>
    </g>
    <g id="xtick_5">
     <g id="line2d_5">
      <g>
       <use style="fill:#262626;stroke:#262626;stroke-width:1.25;" x="293.540873" xlink:href="#m9332631220" y="441"/>
      </g>
     </g>
     <g id="text_5">
      <text style="fill:#262626;font-family:DejaVu Sans;font-size:13.2px;font-style:normal;font-weight:normal;text-anchor:middle;" transform="rotate(-0, 293.540873, 460.529938)" x="293.540873" y="460.529938">25</text>
     </g>
    </g>
    <g id="xtick_6">
     <g id="line2d_6">
      <g>
       <use style="fill:#262626;stroke:#262626;stroke-width:1.25;" x="340.731888" xlink:href="#m9332631220" y="441"/>
      </g>
     </g>
     <g id="text_6">
      <text style="fill:#262626;font-family:DejaVu Sans;font-size:13.2px;font-style:normal;font-weight:normal;text-anchor:middle;" transform="rotate(-0, 340.731888, 460.529938)" x="340.731888" y="460.529938">50</text>
     </g>
    </g>
    <g id="xtick_7">
     <g id="line2d_7">
      <g>
       <use style="fill:#262626;stroke:#262626;stroke-width:1.25;" x="387.922904" xlink:href="#m9332631220" y="441"/>
      </g>
     </g>
     <g id="text_7">
      <text style="fill:#262626;font-family:DejaVu Sans;font-size:13.2px;font-style:normal;font-weight:normal;text-anchor:middle;" transform="rotate(-0, 387.922904, 460.529938)" x="387.922904" y="460.529938">75</text>
     </g>
    </g>
    <g id="xtick_8">
     <g id="line2d_8">
      <g>
       <use style="fill:#262626;stroke:#262626;stroke-width:1.25;" x="435.113919" xlink:href="#m9332631220" y="441"/>
      </g>
     </g>
     <g id="text_8">
      <text style="fill:#262626;font-family:DejaVu Sans;font-size:13.2px;font-style:normal;font-weight:normal;text-anchor:middle;" transform="rotate(-0, 435.113919, 460.529938)" x="435.113919" y="460.529938">100</text>
     </g>
    </g>
    <g id="text_9">
     <text style="fill:#262626;font-family:DejaVu Sans;font-size:14.4px;font-style:normal;font-weight:normal;text-anchor:middle;" transform="rotate(-0, 258.3, 478.216875)" x="258.3" y="478.216875">Component 1</text>
    </g>
   </g>
   <g id="matplotlib.axis_2">
    <g id="ytick_1">
     <g id="line2d_9">
      <defs>
       <path d="M 0 0 
L -6 0 
" id="m390f2225e7" style="stroke:#262626;stroke-width:1.25;"/>
      </defs>
      <g>
       <use style="fill:#262626;stroke:#262626;stroke-width:1.25;" x="63" xlink:href="#m390f2225e7" y="438.977032"/>
      </g>
     </g>
     <g id="text_10">
      <text style="fill:#262626;font-family:DejaVu Sans;font-size:13.2px;font-style:normal;font-weight:normal;text-anchor:end;" transform="rotate(-0, 53.5, 443.992)" x="53.5" y="443.992">−60</text>
     </g>
    </g>
    <g id="ytick_2">
     <g id="line2d_10">
      <g>
       <use style="fill:#262626;stroke:#262626;stroke-width:1.25;" x="63" xlink:href="#m390f2225e7" y="377.463977"/>
      </g>
     </g>
     <g id="text_11">
      <text style="fill:#262626;font-family:DejaVu Sans;font-size:13.2px;font-style:normal;font-weight:normal;text-anchor:end;" transform="rotate(-0, 53.5, 382.478946)" x="53.5" y="382.478946">−40</text>
     </g>
    </g>
    <g id="ytick_3">
     <g id="line2d_11">
      <g>
       <use style="fill:#262626;stroke:#262626;stroke-width:1.25;" x="63" xlink:href="#m390f2225e7" y="315.950923"/>
      </g>
     </g>
     <g id="text_12">
      <text style="fill:#262626;font-family:DejaVu Sans;font-size:13.2px;font-style:normal;font-weight:normal;text-anchor:end;" transform="rotate(-0, 53.5, 320.965892)" x="53.5" y="320.965892">−20</text>
     </g>
    </g>
    <g id="ytick_4">
     <g id="line2d_12">
      <g>
       <use style="fill:#262626;stroke:#262626;stroke-width:1.25;" x="63" xlink:href="#m390f2225e7" y="254.437869"/>
      </g>
     </g>
     <g id="text_13">
      <text style="fill:#262626;font-family:DejaVu Sans;font-size:13.2px;font-style:normal;font-weight:normal;text-anchor:end;" transform="rotate(-0, 53.5, 259.452838)" x="53.5" y="259.452838">0</text>
     </g>
    </g>
    <g id="ytick_5">
     <g id="line2d_13">
      <g>
       <use style="fill:#262626;stroke:#262626;stroke-width:1.25;" x="63" xlink:href="#m390f2225e7" y="192.924815"/>
      </g>
     </g>
     <g id="text_14">
      <text style="fill:#262626;font-family:DejaVu Sans;font-size:13.2px;font-style:normal;font-weight:normal;text-anchor:end;" transform="rotate(-0, 53.5, 197.939784)" x="53.5" y="197.939784">20</text>
     </g>
    </g>
    <g id="ytick_6">
     <g id="line2d_14">
      <g>
       <use style="fill:#262626;stroke:#262626;stroke-width:1.25;" x="63" xlink:href="#m390f2225e7" y="131.411761"/>
      </g>
     </g>
     <g id="text_15">
      <text style="fill:#262626;font-family:DejaVu Sans;font-size:13.2px;font-style:normal;font-weight:normal;text-anchor:end;" transform="rotate(-0, 53.5, 136.42673)" x="53.5" y="136.42673">40</text>
     </g>
    </g>
    <g id="ytick_7">
     <g id="line2d_15">
      <g>
       <use style="fill:#262626;stroke:#262626;stroke-width:1.25;" x="63" xlink:href="#m390f2225e7" y="69.898707"/>
      </g>
     </g>
     <g id="text_16">
      <text style="fill:#262626;font-family:DejaVu Sans;font-size:13.2px;font-style:normal;font-weight:normal;text-anchor:end;" transform="rotate(-0, 53.5, 74.913676)" x="53.5" y="74.913676">60</text>
     </g>
    </g>
    <g id="text_17">
     <text style="fill:#262626;font-family:DejaVu Sans;font-size:14.4px;font-style:normal;font-weight:normal;text-anchor:middle;" transform="rotate(-90, 18.647063, 250.74)" x="18.647063" y="250.74">Component 2</text>
    </g>
   </g>
   <g id="PathCollection_1">
    <path clip-path="url(#p338a32c9b3)" d="M 304.965274 142.11004 
C 305.760883 142.11004 306.524014 141.793941 307.086594 141.23136 
C 307.649175 140.668779 307.965274 139.905649 307.965274 139.11004 
C 307.965274 138.314431 307.649175 137.5513 307.086594 136.98872 
C 306.524014 136.426139 305.760883 136.11004 304.965274 136.11004 
C 304.169665 136.11004 303.406534 136.426139 302.843954 136.98872 
C 302.281373 137.5513 301.965274 138.314431 301.965274 139.11004 
C 301.965274 139.905649 302.281373 140.668779 302.843954 141.23136 
C 303.406534 141.793941 304.169665 142.11004 304.965274 142.11004 
z
" style="fill:#0072b2;stroke:#ffffff;stroke-width:0.48;"/>
    <path clip-path="url(#p338a32c9b3)" d="M 418.383352 360.875033 
L 419.883352 359.375033 
L 421.383352 360.875033 
L 422.883352 359.375033 
L 421.383352 357.875033 
L 422.883352 356.375033 
L 421.383352 354.875033 
L 419.883352 356.375033 
L 418.383352 354.875033 
L 416.883352 356.375033 
L 418.383352 357.875033 
L 416.883352 359.375033 
z
" style="fill:#d55e00;stroke:#ffffff;stroke-width:0.48;"/>
    <path clip-path="url(#p338a32c9b3)" d="M 311.302717 392.260521 
L 312.802717 390.760521 
L 314.302717 392.260521 
L 315.802717 390.760521 
L 314.302717 389.260521 
L 315.802717 387.760521 
L 314.302717 386.260521 
L 312.802717 387.760521 
L 311.302717 386.260521 
L 309.802717 387.760521 
L 311.302717 389.260521 
L 309.802717 390.760521 
z
" style="fill:#0072b2;stroke:#ffffff;stroke-width:0.48;"/>
    <path clip-path="url(#p338a32c9b3)" d="M 143.803728 384.015785 
L 145.303728 382.515785 
L 146.803728 384.015785 
L 148.303728 382.515785 
L 146.803728 381.015785 
L 148.303728 379.515785 
L 146.803728 378.015785 
L 145.303728 379.515785 
L 143.803728 378.015785 
L 142.303728 379.515785 
L 143.803728 381.015785 
L 142.303728 382.515785 
z
" style="fill:#009e73;stroke:#ffffff;stroke-width:0.48;"/>
    <path clip-path="url(#p338a32c9b3)" d="M 309.3628 128.603947 
C 310.15841 128.603947 310.92154 128.287848 311.484121 127.725267 
C 312.046702 127.162687 312.3628 126.399556 312.3628 125.603947 
C 312.3628 124.808338 312.046702 124.045207 311.484121 123.482627 
C 310.92154 122.920046 310.15841 122.603947 309.3628 122.603947 
C 308.567191 122.603947 307.804061 122.920046 307.24148 123.482627 
C 306.678899 124.045207 306.3628 124.808338 306.3628 125.603947 
C 306.3628 126.399556 306.678899 127.162687 307.24148 127.725267 
C 307.804061 128.287848 308.567191 128.603947 309.3628 128.603947 
z
" style="fill:#0072b2;stroke:#ffffff;stroke-width:0.48;"/>
    <path clip-path="url(#p338a32c9b3)" d="M 399.720016 147.674072 
C 400.515625 147.674072 401.278755 147.357973 401.841336 146.795393 
C 402.403917 146.232812 402.720016 145.469682 402.720016 144.674072 
C 402.720016 143.878463 402.403917 143.115333 401.841336 142.552752 
C 401.278755 141.990171 400.515625 141.674072 399.720016 141.674072 
C 398.924407 141.674072 398.161276 141.990171 397.598696 142.552752 
C 397.036115 143.115333 396.720016 143.878463 396.720016 144.674072 
C 396.720016 145.469682 397.036115 146.232812 397.598696 146.795393 
C 398.161276 147.357973 398.924407 147.674072 399.720016 147.674072 
z
" style="fill:#d55e00;stroke:#ffffff;stroke-width:0.48;"/>
    <path clip-path="url(#p338a32c9b3)" d="M 408.399768 85.733367 
C 409.195377 85.733367 409.958508 85.417268 410.521088 84.854688 
C 411.083669 84.292107 411.399768 83.528977 411.399768 82.733367 
C 411.399768 81.937758 411.083669 81.174628 410.521088 80.612047 
C 409.958508 80.049466 409.195377 79.733367 408.399768 79.733367 
C 407.604159 79.733367 406.841028 80.049466 406.278448 80.612047 
C 405.715867 81.174628 405.399768 81.937758 405.399768 82.733367 
C 405.399768 83.528977 405.715867 84.292107 406.278448 84.854688 
C 406.841028 85.417268 407.604159 85.733367 408.399768 85.733367 
z
" style="fill:#d55e00;stroke:#ffffff;stroke-width:0.48;"/>
    <path clip-path="url(#p338a32c9b3)" d="M 434.329507 365.111544 
L 435.829507 363.611544 
L 437.329507 365.111544 
L 438.829507 363.611544 
L 437.329507 362.111544 
L 438.829507 360.611544 
L 437.329507 359.111544 
L 435.829507 360.611544 
L 434.329507 359.111544 
L 432.829507 360.611544 
L 434.329507 362.111544 
L 432.829507 363.611544 
z
" style="fill:#d55e00;stroke:#ffffff;stroke-width:0.48;"/>
    <path clip-path="url(#p338a32c9b3)" d="M 90.744244 144.893206 
C 91.539854 144.893206 92.302984 144.577107 92.865565 144.014526 
C 93.428146 143.451945 93.744244 142.688815 93.744244 141.893206 
C 93.744244 141.097596 93.428146 140.334466 92.865565 139.771885 
C 92.302984 139.209305 91.539854 138.893206 90.744244 138.893206 
C 89.948635 138.893206 89.185505 139.209305 88.622924 139.771885 
C 88.060343 140.334466 87.744244 141.097596 87.744244 141.893206 
C 87.744244 142.688815 88.060343 143.451945 88.622924 144.014526 
C 89.185505 144.577107 89.948635 144.893206 90.744244 144.893206 
z
" style="fill:#f0e442;stroke:#ffffff;stroke-width:0.48;"/>
    <path clip-path="url(#p338a32c9b3)" d="M 430.815632 372.460916 
L 432.315632 370.960916 
L 433.815632 372.460916 
L 435.315632 370.960916 
L 433.815632 369.460916 
L 435.315632 367.960916 
L 433.815632 366.460916 
L 432.315632 367.960916 
L 430.815632 366.460916 
L 429.315632 367.960916 
L 430.815632 369.460916 
L 429.315632 370.960916 
z
" style="fill:#d55e00;stroke:#ffffff;stroke-width:0.48;"/>
    <path clip-path="url(#p338a32c9b3)" d="M 390.813574 112.812574 
C 391.609184 112.812574 392.372314 112.496475 392.934895 111.933894 
C 393.497475 111.371313 393.813574 110.608183 393.813574 109.812574 
C 393.813574 109.016965 393.497475 108.253834 392.934895 107.691253 
C 392.372314 107.128673 391.609184 106.812574 390.813574 106.812574 
C 390.017965 106.812574 389.254835 107.128673 388.692254 107.691253 
C 388.129673 108.253834 387.813574 109.016965 387.813574 109.812574 
C 387.813574 110.608183 388.129673 111.371313 388.692254 111.933894 
C 389.254835 112.496475 390.017965 112.812574 390.813574 112.812574 
z
" style="fill:#d55e00;stroke:#ffffff;stroke-width:0.48;"/>
    <path clip-path="url(#p338a32c9b3)" d="M 126.14439 118.946102 
C 126.939999 118.946102 127.703129 118.630004 128.26571 118.067423 
C 128.828291 117.504842 129.14439 116.741712 129.14439 115.946102 
C 129.14439 115.150493 128.828291 114.387363 128.26571 113.824782 
C 127.703129 113.262201 126.939999 112.946102 126.14439 112.946102 
C 125.34878 112.946102 124.58565 113.262201 124.023069 113.824782 
C 123.460489 114.387363 123.14439 115.150493 123.14439 115.946102 
C 123.14439 116.741712 123.460489 117.504842 124.023069 118.067423 
C 124.58565 118.630004 125.34878 118.946102 126.14439 118.946102 
z
" style="fill:#009e73;stroke:#ffffff;stroke-width:0.48;"/>
    <path clip-path="url(#p338a32c9b3)" d="M 169.341911 148.835362 
C 170.13752 148.835362 170.900651 148.519263 171.463231 147.956682 
C 172.025812 147.394102 172.341911 146.630971 172.341911 145.835362 
C 172.341911 145.039753 172.025812 144.276622 171.463231 143.714042 
C 170.900651 143.151461 170.13752 142.835362 169.341911 142.835362 
C 168.546302 142.835362 167.783171 143.151461 167.220591 143.714042 
C 166.65801 144.276622 166.341911 145.039753 166.341911 145.835362 
C 166.341911 146.630971 166.65801 147.394102 167.220591 147.956682 
C 167.783171 148.519263 168.546302 148.835362 169.341911 148.835362 
z
" style="fill:#009e73;stroke:#ffffff;stroke-width:0.48;"/>
    <path clip-path="url(#p338a32c9b3)" d="M 384.525681 168.096811 
C 385.32129 168.096811 386.084421 167.780712 386.647001 167.218131 
C 387.209582 166.65555 387.525681 165.89242 387.525681 165.096811 
C 387.525681 164.301201 387.209582 163.538071 386.647001 162.97549 
C 386.084421 162.41291 385.32129 162.096811 384.525681 162.096811 
C 383.730072 162.096811 382.966941 162.41291 382.404361 162.97549 
C 381.84178 163.538071 381.525681 164.301201 381.525681 165.096811 
C 381.525681 165.89242 381.84178 166.65555 382.404361 167.218131 
C 382.966941 167.780712 383.730072 168.096811 384.525681 168.096811 
z
" style="fill:#d55e00;stroke:#ffffff;stroke-width:0.48;"/>
    <path clip-path="url(#p338a32c9b3)" d="M 160.833382 117.119164 
C 161.628992 117.119164 162.392122 116.803065 162.954703 116.240484 
C 163.517283 115.677903 163.833382 114.914773 163.833382 114.119164 
C 163.833382 113.323554 163.517283 112.560424 162.954703 111.997843 
C 162.392122 111.435262 161.628992 111.119164 160.833382 111.119164 
C 160.037773 111.119164 159.274643 111.435262 158.712062 111.997843 
C 158.149481 112.560424 157.833382 113.323554 157.833382 114.119164 
C 157.833382 114.914773 158.149481 115.677903 158.712062 116.240484 
C 159.274643 116.803065 160.037773 117.119164 160.833382 117.119164 
z
" style="fill:#009e73;stroke:#ffffff;stroke-width:0.48;"/>
    <path clip-path="url(#p338a32c9b3)" d="M 426.737812 364.549794 
L 428.237812 363.049794 
L 429.737812 364.549794 
L 431.237812 363.049794 
L 429.737812 361.549794 
L 431.237812 360.049794 
L 429.737812 358.549794 
L 428.237812 360.049794 
L 426.737812 358.549794 
L 425.237812 360.049794 
L 426.737812 361.549794 
L 425.237812 363.049794 
z
" style="fill:#d55e00;stroke:#ffffff;stroke-width:0.48;"/>
    <path clip-path="url(#p338a32c9b3)" d="M 302.087396 110.397677 
C 302.883006 110.397677 303.646136 110.081578 304.208717 109.518997 
C 304.771298 108.956416 305.087396 108.193286 305.087396 107.397677 
C 305.087396 106.602067 304.771298 105.838937 304.208717 105.276356 
C 303.646136 104.713776 302.883006 104.397677 302.087396 104.397677 
C 301.291787 104.397677 300.528657 104.713776 299.966076 105.276356 
C 299.403495 105.838937 299.087396 106.602067 299.087396 107.397677 
C 299.087396 108.193286 299.403495 108.956416 299.966076 109.518997 
C 300.528657 110.081578 301.291787 110.397677 302.087396 110.397677 
z
" style="fill:#0072b2;stroke:#ffffff;stroke-width:0.48;"/>
    <path clip-path="url(#p338a32c9b3)" d="M 315.65985 353.327407 
L 317.15985 351.827407 
L 318.65985 353.327407 
L 320.15985 351.827407 
L 318.65985 350.327407 
L 320.15985 348.827407 
L 318.65985 347.327407 
L 317.15985 348.827407 
L 315.65985 347.327407 
L 314.15985 348.827407 
L 315.65985 350.327407 
L 314.15985 351.827407 
z
" style="fill:#0072b2;stroke:#ffffff;stroke-width:0.48;"/>
    <path clip-path="url(#p338a32c9b3)" d="M 160.412765 407.085446 
L 161.912765 405.585446 
L 163.412765 407.085446 
L 164.912765 405.585446 
L 163.412765 404.085446 
L 164.912765 402.585446 
L 163.412765 401.085446 
L 161.912765 402.585446 
L 160.412765 401.085446 
L 158.912765 402.585446 
L 160.412765 404.085446 
L 158.912765 405.585446 
z
" style="fill:#009e73;stroke:#ffffff;stroke-width:0.48;"/>
    <path clip-path="url(#p338a32c9b3)" d="M 153.446861 360.362526 
L 154.946861 358.862526 
L 156.446861 360.362526 
L 157.946861 358.862526 
L 156.446861 357.362526 
L 157.946861 355.862526 
L 156.446861 354.362526 
L 154.946861 355.862526 
L 153.446861 354.362526 
L 151.946861 355.862526 
L 153.446861 357.362526 
L 151.946861 358.862526 
z
" style="fill:#009e73;stroke:#ffffff;stroke-width:0.48;"/>
    <path clip-path="url(#p338a32c9b3)" d="M 408.147169 139.56592 
C 408.942778 139.56592 409.705908 139.249821 410.268489 138.68724 
C 410.83107 138.124659 411.147169 137.361529 411.147169 136.56592 
C 411.147169 135.770311 410.83107 135.00718 410.268489 134.444599 
C 409.705908 133.882019 408.942778 133.56592 408.147169 133.56592 
C 407.351559 133.56592 406.588429 133.882019 406.025848 134.444599 
C 405.463268 135.00718 405.147169 135.770311 405.147169 136.56592 
C 405.147169 137.361529 405.463268 138.124659 406.025848 138.68724 
C 406.588429 139.249821 407.351559 139.56592 408.147169 139.56592 
z
" style="fill:#d55e00;stroke:#ffffff;stroke-width:0.48;"/>
    <path clip-path="url(#p338a32c9b3)" d="M 329.731948 387.000749 
L 331.231948 385.500749 
L 332.731948 387.000749 
L 334.231948 385.500749 
L 332.731948 384.000749 
L 334.231948 382.500749 
L 332.731948 381.000749 
L 331.231948 382.500749 
L 329.731948 381.000749 
L 328.231948 382.500749 
L 329.731948 384.000749 
L 328.231948 385.500749 
z
" style="fill:#0072b2;stroke:#ffffff;stroke-width:0.48;"/>
    <path clip-path="url(#p338a32c9b3)" d="M 80.770493 172.633804 
C 81.566103 172.633804 82.329233 172.317705 82.891814 171.755125 
C 83.454394 171.192544 83.770493 170.429414 83.770493 169.633804 
C 83.770493 168.838195 83.454394 168.075065 82.891814 167.512484 
C 82.329233 166.949903 81.566103 166.633804 80.770493 166.633804 
C 79.974884 166.633804 79.211754 166.949903 78.649173 167.512484 
C 78.086592 168.075065 77.770493 168.838195 77.770493 169.633804 
C 77.770493 170.429414 78.086592 171.192544 78.649173 171.755125 
C 79.211754 172.317705 79.974884 172.633804 80.770493 172.633804 
z
" style="fill:#f0e442;stroke:#ffffff;stroke-width:0.48;"/>
    <path clip-path="url(#p338a32c9b3)" d="M 162.169322 130.58571 
C 162.964931 130.58571 163.728062 130.269611 164.290642 129.70703 
C 164.853223 129.14445 165.169322 128.381319 165.169322 127.58571 
C 165.169322 126.790101 164.853223 126.02697 164.290642 125.46439 
C 163.728062 124.901809 162.964931 124.58571 162.169322 124.58571 
C 161.373713 124.58571 160.610583 124.901809 160.048002 125.46439 
C 159.485421 126.02697 159.169322 126.790101 159.169322 127.58571 
C 159.169322 128.381319 159.485421 129.14445 160.048002 129.70703 
C 160.610583 130.269611 161.373713 130.58571 162.169322 130.58571 
z
" style="fill:#009e73;stroke:#ffffff;stroke-width:0.48;"/>
    <path clip-path="url(#p338a32c9b3)" d="M 84.613422 366.948003 
L 86.113422 365.448003 
L 87.613422 366.948003 
L 89.113422 365.448003 
L 87.613422 363.948003 
L 89.113422 362.448003 
L 87.613422 360.948003 
L 86.113422 362.448003 
L 84.613422 360.948003 
L 83.113422 362.448003 
L 84.613422 363.948003 
L 83.113422 365.448003 
z
" style="fill:#f0e442;stroke:#ffffff;stroke-width:0.48;"/>
    <path clip-path="url(#p338a32c9b3)" d="M 96.631718 157.265661 
C 97.427327 157.265661 98.190458 156.949562 98.753038 156.386981 
C 99.315619 155.8244 99.631718 155.06127 99.631718 154.265661 
C 99.631718 153.470052 99.315619 152.706921 98.753038 152.144341 
C 98.190458 151.58176 97.427327 151.265661 96.631718 151.265661 
C 95.836109 151.265661 95.072978 151.58176 94.510398 152.144341 
C 93.947817 152.706921 93.631718 153.470052 93.631718 154.265661 
C 93.631718 155.06127 93.947817 155.8244 94.510398 156.386981 
C 95.072978 156.949562 95.836109 157.265661 96.631718 157.265661 
z
" style="fill:#f0e442;stroke:#ffffff;stroke-width:0.48;"/>
    <path clip-path="url(#p338a32c9b3)" d="M 426.203872 371.038751 
L 427.703872 369.538751 
L 429.203872 371.038751 
L 430.703872 369.538751 
L 429.203872 368.038751 
L 430.703872 366.538751 
L 429.203872 365.038751 
L 427.703872 366.538751 
L 426.203872 365.038751 
L 424.703872 366.538751 
L 426.203872 368.038751 
L 424.703872 369.538751 
z
" style="fill:#d55e00;stroke:#ffffff;stroke-width:0.48;"/>
    <path clip-path="url(#p338a32c9b3)" d="M 164.850483 382.307796 
L 166.350483 380.807796 
L 167.850483 382.307796 
L 169.350483 380.807796 
L 167.850483 379.307796 
L 169.350483 377.807796 
L 167.850483 376.307796 
L 166.350483 377.807796 
L 164.850483 376.307796 
L 163.350483 377.807796 
L 164.850483 379.307796 
L 163.350483 380.807796 
z
" style="fill:#009e73;stroke:#ffffff;stroke-width:0.48;"/>
    <path clip-path="url(#p338a32c9b3)" d="M 119.296362 128.677032 
C 120.091971 128.677032 120.855102 128.360933 121.417682 127.798352 
C 121.980263 127.235772 122.296362 126.472641 122.296362 125.677032 
C 122.296362 124.881423 121.980263 124.118292 121.417682 123.555712 
C 120.855102 122.993131 120.091971 122.677032 119.296362 122.677032 
C 118.500753 122.677032 117.737623 122.993131 117.175042 123.555712 
C 116.612461 124.118292 116.296362 124.881423 116.296362 125.677032 
C 116.296362 126.472641 116.612461 127.235772 117.175042 127.798352 
C 117.737623 128.360933 118.500753 128.677032 119.296362 128.677032 
z
" style="fill:#f0e442;stroke:#ffffff;stroke-width:0.48;"/>
    <path clip-path="url(#p338a32c9b3)" d="M 323.581806 355.906686 
L 325.081806 354.406686 
L 326.581806 355.906686 
L 328.081806 354.406686 
L 326.581806 352.906686 
L 328.081806 351.406686 
L 326.581806 349.906686 
L 325.081806 351.406686 
L 323.581806 349.906686 
L 322.081806 351.406686 
L 323.581806 352.906686 
L 322.081806 354.406686 
z
" style="fill:#0072b2;stroke:#ffffff;stroke-width:0.48;"/>
    <path clip-path="url(#p338a32c9b3)" d="M 301.497913 128.131663 
C 302.293523 128.131663 303.056653 127.815564 303.619234 127.252983 
C 304.181814 126.690402 304.497913 125.927272 304.497913 125.131663 
C 304.497913 124.336053 304.181814 123.572923 303.619234 123.010342 
C 303.056653 122.447762 302.293523 122.131663 301.497913 122.131663 
C 300.702304 122.131663 299.939174 122.447762 299.376593 123.010342 
C 298.814012 123.572923 298.497913 124.336053 298.497913 125.131663 
C 298.497913 125.927272 298.814012 126.690402 299.376593 127.252983 
C 299.939174 127.815564 300.702304 128.131663 301.497913 128.131663 
z
" style="fill:#0072b2;stroke:#ffffff;stroke-width:0.48;"/>
    <path clip-path="url(#p338a32c9b3)" d="M 173.477326 412.213541 
L 174.977326 410.713541 
L 176.477326 412.213541 
L 177.977326 410.713541 
L 176.477326 409.213541 
L 177.977326 407.713541 
L 176.477326 406.213541 
L 174.977326 407.713541 
L 173.477326 406.213541 
L 171.977326 407.713541 
L 173.477326 409.213541 
L 171.977326 410.713541 
z
" style="fill:#009e73;stroke:#ffffff;stroke-width:0.48;"/>
    <path clip-path="url(#p338a32c9b3)" d="M 122.30058 98.688654 
C 123.09619 98.688654 123.85932 98.372555 124.421901 97.809974 
C 124.984481 97.247393 125.30058 96.484263 125.30058 95.688654 
C 125.30058 94.893044 124.984481 94.129914 124.421901 93.567333 
C 123.85932 93.004753 123.09619 92.688654 122.30058 92.688654 
C 121.504971 92.688654 120.741841 93.004753 120.17926 93.567333 
C 119.616679 94.129914 119.30058 94.893044 119.30058 95.688654 
C 119.30058 96.484263 119.616679 97.247393 120.17926 97.809974 
C 120.741841 98.372555 121.504971 98.688654 122.30058 98.688654 
z
" style="fill:#f0e442;stroke:#ffffff;stroke-width:0.48;"/>
    <path clip-path="url(#p338a32c9b3)" d="M 104.804065 391.361002 
L 106.304065 389.861002 
L 107.804065 391.361002 
L 109.304065 389.861002 
L 107.804065 388.361002 
L 109.304065 386.861002 
L 107.804065 385.361002 
L 106.304065 386.861002 
L 104.804065 385.361002 
L 103.304065 386.861002 
L 104.804065 388.361002 
L 103.304065 389.861002 
z
" style="fill:#f0e442;stroke:#ffffff;stroke-width:0.48;"/>
    <path clip-path="url(#p338a32c9b3)" d="M 147.267571 145.159753 
C 148.063181 145.159753 148.826311 144.843654 149.388892 144.281074 
C 149.951472 143.718493 150.267571 142.955362 150.267571 142.159753 
C 150.267571 141.364144 149.951472 140.601014 149.388892 140.038433 
C 148.826311 139.475852 148.063181 139.159753 147.267571 139.159753 
C 146.471962 139.159753 145.708832 139.475852 145.146251 140.038433 
C 144.58367 140.601014 144.267571 141.364144 144.267571 142.159753 
C 144.267571 142.955362 144.58367 143.718493 145.146251 144.281074 
C 145.708832 144.843654 146.471962 145.159753 147.267571 145.159753 
z
" style="fill:#009e73;stroke:#ffffff;stroke-width:0.48;"/>
    <path clip-path="url(#p338a32c9b3)" d="M 115.53014 408.492735 
L 117.03014 406.992735 
L 118.53014 408.492735 
L 120.03014 406.992735 
L 118.53014 405.492735 
L 120.03014 403.992735 
L 118.53014 402.492735 
L 117.03014 403.992735 
L 115.53014 402.492735 
L 114.03014 403.992735 
L 115.53014 405.492735 
L 114.03014 406.992735 
z
" style="fill:#f0e442;stroke:#ffffff;stroke-width:0.48;"/>
    <path clip-path="url(#p338a32c9b3)" d="M 295.680811 99.804853 
C 296.47642 99.804853 297.239551 99.488754 297.802132 98.926174 
C 298.364712 98.363593 298.680811 97.600463 298.680811 96.804853 
C 298.680811 96.009244 298.364712 95.246114 297.802132 94.683533 
C 297.239551 94.120952 296.47642 93.804853 295.680811 93.804853 
C 294.885202 93.804853 294.122072 94.120952 293.559491 94.683533 
C 292.99691 95.246114 292.680811 96.009244 292.680811 96.804853 
C 292.680811 97.600463 292.99691 98.363593 293.559491 98.926174 
C 294.122072 99.488754 294.885202 99.804853 295.680811 99.804853 
z
" style="fill:#0072b2;stroke:#ffffff;stroke-width:0.48;"/>
    <path clip-path="url(#p338a32c9b3)" d="M 111.667612 426.676963 
L 113.167612 425.176963 
L 114.667612 426.676963 
L 116.167612 425.176963 
L 114.667612 423.676963 
L 116.167612 422.176963 
L 114.667612 420.676963 
L 113.167612 422.176963 
L 111.667612 420.676963 
L 110.167612 422.176963 
L 111.667612 423.676963 
L 110.167612 425.176963 
z
" style="fill:#f0e442;stroke:#ffffff;stroke-width:0.48;"/>
    <path clip-path="url(#p338a32c9b3)" d="M 417.225962 80.803037 
C 418.021572 80.803037 418.784702 80.486938 419.347283 79.924357 
C 419.909863 79.361776 420.225962 78.598646 420.225962 77.803037 
C 420.225962 77.007427 419.909863 76.244297 419.347283 75.681716 
C 418.784702 75.119136 418.021572 74.803037 417.225962 74.803037 
C 416.430353 74.803037 415.667223 75.119136 415.104642 75.681716 
C 414.542061 76.244297 414.225962 77.007427 414.225962 77.803037 
C 414.225962 78.598646 414.542061 79.361776 415.104642 79.924357 
C 415.667223 80.486938 416.430353 80.803037 417.225962 80.803037 
z
" style="fill:#d55e00;stroke:#ffffff;stroke-width:0.48;"/>
    <path clip-path="url(#p338a32c9b3)" d="M 87.312769 153.03138 
C 88.108379 153.03138 88.871509 152.715281 89.43409 152.1527 
C 89.99667 151.59012 90.312769 150.826989 90.312769 150.03138 
C 90.312769 149.235771 89.99667 148.472641 89.43409 147.91006 
C 88.871509 147.347479 88.108379 147.03138 87.312769 147.03138 
C 86.51716 147.03138 85.75403 147.347479 85.191449 147.91006 
C 84.628868 148.472641 84.312769 149.235771 84.312769 150.03138 
C 84.312769 150.826989 84.628868 151.59012 85.191449 152.1527 
C 85.75403 152.715281 86.51716 153.03138 87.312769 153.03138 
z
" style="fill:#f0e442;stroke:#ffffff;stroke-width:0.48;"/>
    <path clip-path="url(#p338a32c9b3)" d="M 320.999335 395.62409 
L 322.499335 394.12409 
L 323.999335 395.62409 
L 325.499335 394.12409 
L 323.999335 392.62409 
L 325.499335 391.12409 
L 323.999335 389.62409 
L 322.499335 391.12409 
L 320.999335 389.62409 
L 319.499335 391.12409 
L 320.999335 392.62409 
L 319.499335 394.12409 
z
" style="fill:#0072b2;stroke:#ffffff;stroke-width:0.48;"/>
    <path clip-path="url(#p338a32c9b3)" d="M 93.059663 356.353375 
L 94.559663 354.853375 
L 96.059663 356.353375 
L 97.559663 354.853375 
L 96.059663 353.353375 
L 97.559663 351.853375 
L 96.059663 350.353375 
L 94.559663 351.853375 
L 93.059663 350.353375 
L 91.559663 351.853375 
L 93.059663 353.353375 
L 91.559663 354.853375 
z
" style="fill:#f0e442;stroke:#ffffff;stroke-width:0.48;"/>
    <path clip-path="url(#p338a32c9b3)" d="M 174.104665 401.946916 
L 175.604665 400.446916 
L 177.104665 401.946916 
L 178.604665 400.446916 
L 177.104665 398.946916 
L 178.604665 397.446916 
L 177.104665 395.946916 
L 175.604665 397.446916 
L 174.104665 395.946916 
L 172.604665 397.446916 
L 174.104665 398.946916 
L 172.604665 400.446916 
z
" style="fill:#009e73;stroke:#ffffff;stroke-width:0.48;"/>
    <path clip-path="url(#p338a32c9b3)" d="M 411.533995 372.102917 
L 413.033995 370.602917 
L 414.533995 372.102917 
L 416.033995 370.602917 
L 414.533995 369.102917 
L 416.033995 367.602917 
L 414.533995 366.102917 
L 413.033995 367.602917 
L 411.533995 366.102917 
L 410.033995 367.602917 
L 411.533995 369.102917 
L 410.033995 370.602917 
z
" style="fill:#d55e00;stroke:#ffffff;stroke-width:0.48;"/>
    <path clip-path="url(#p338a32c9b3)" d="M 297.916394 173.115262 
C 298.712004 173.115262 299.475134 172.799163 300.037715 172.236583 
C 300.600296 171.674002 300.916394 170.910872 300.916394 170.115262 
C 300.916394 169.319653 300.600296 168.556523 300.037715 167.993942 
C 299.475134 167.431361 298.712004 167.115262 297.916394 167.115262 
C 297.120785 167.115262 296.357655 167.431361 295.795074 167.993942 
C 295.232493 168.556523 294.916394 169.319653 294.916394 170.115262 
C 294.916394 170.910872 295.232493 171.674002 295.795074 172.236583 
C 296.357655 172.799163 297.120785 173.115262 297.916394 173.115262 
z
" style="fill:#0072b2;stroke:#ffffff;stroke-width:0.48;"/>
    <path clip-path="url(#p338a32c9b3)" d="M 106.929415 342.993988 
L 108.429415 341.493988 
L 109.929415 342.993988 
L 111.429415 341.493988 
L 109.929415 339.993988 
L 111.429415 338.493988 
L 109.929415 336.993988 
L 108.429415 338.493988 
L 106.929415 336.993988 
L 105.429415 338.493988 
L 106.929415 339.993988 
L 105.429415 341.493988 
z
" style="fill:#f0e442;stroke:#ffffff;stroke-width:0.48;"/>
    <path clip-path="url(#p338a32c9b3)" d="M 312.305314 422.100259 
L 313.805314 420.600259 
L 315.305314 422.100259 
L 316.805314 420.600259 
L 315.305314 419.100259 
L 316.805314 417.600259 
L 315.305314 416.100259 
L 313.805314 417.600259 
L 312.305314 416.100259 
L 310.805314 417.600259 
L 312.305314 419.100259 
L 310.805314 420.600259 
z
" style="fill:#0072b2;stroke:#ffffff;stroke-width:0.48;"/>
    <path clip-path="url(#p338a32c9b3)" d="M 157.352389 171.215933 
C 158.147998 171.215933 158.911129 170.899834 159.473709 170.337253 
C 160.03629 169.774672 160.352389 169.011542 160.352389 168.215933 
C 160.352389 167.420323 160.03629 166.657193 159.473709 166.094612 
C 158.911129 165.532032 158.147998 165.215933 157.352389 165.215933 
C 156.55678 165.215933 155.793649 165.532032 155.231069 166.094612 
C 154.668488 166.657193 154.352389 167.420323 154.352389 168.215933 
C 154.352389 169.011542 154.668488 169.774672 155.231069 170.337253 
C 155.793649 170.899834 156.55678 171.215933 157.352389 171.215933 
z
" style="fill:#009e73;stroke:#ffffff;stroke-width:0.48;"/>
   </g>
   <g id="PathCollection_2"/>
   <g id="PathCollection_3"/>
   <g id="PathCollection_4"/>
   <g id="PathCollection_5"/>
   <g id="PathCollection_6"/>
   <g id="PathCollection_7"/>
   <g id="patch_3">
    <path d="M 63 441 
L 63 60.48 
" style="fill:none;stroke:#262626;stroke-linecap:square;stroke-linejoin:miter;stroke-width:1.25;"/>
   </g>
   <g id="patch_4">
    <path d="M 453.6 441 
L 453.6 60.48 
" style="fill:none;stroke:#262626;stroke-linecap:square;stroke-linejoin:miter;stroke-width:1.25;"/>
   </g>
   <g id="patch_5">
    <path d="M 63 441 
L 453.6 441 
" style="fill:none;stroke:#262626;stroke-linecap:square;stroke-linejoin:miter;stroke-width:1.25;"/>
   </g>
   <g id="patch_6">
    <path d="M 63 60.48 
L 453.6 60.48 
" style="fill:none;stroke:#262626;stroke-linecap:square;stroke-linejoin:miter;stroke-width:1.25;"/>
   </g>
   <g id="legend_1">
    <g id="patch_7">
     <path d="M 87.058687 281.782688 
L 444.36 281.782688 
Q 447 281.782688 447 279.142688 
L 447 222.337313 
Q 447 219.697313 444.36 219.697313 
L 87.058687 219.697313 
Q 84.418687 219.697313 84.418687 222.337313 
L 84.418687 279.142688 
Q 84.418687 281.782688 87.058687 281.782688 
z
" style="fill:#ffffff;opacity:0.8;stroke:#cccccc;stroke-linejoin:miter;"/>
    </g>
    <g id="text_18">
     <text style="fill:#262626;font-family:DejaVu Sans;font-size:13.2px;font-style:normal;font-weight:normal;text-anchor:start;" transform="rotate(-0, 126.658687, 235.00725)" x="126.658687" y="235.00725">Temperature</text>
    </g>
    <g id="PathCollection_8">
     <defs>
      <path d="M 0 3 
C 0.795609 3 1.55874 2.683901 2.12132 2.12132 
C 2.683901 1.55874 3 0.795609 3 0 
C 3 -0.795609 2.683901 -1.55874 2.12132 -2.12132 
C 1.55874 -2.683901 0.795609 -3 0 -3 
C -0.795609 -3 -1.55874 -2.683901 -2.12132 -2.12132 
C -2.683901 -1.55874 -3 -0.795609 -3 0 
C -3 0.795609 -2.683901 1.55874 -2.12132 2.12132 
C -1.55874 2.683901 -0.795609 3 0 3 
z
" id="m4a38f79fd4" style="stroke:#0072b2;"/>
     </defs>
     <g>
      <use style="fill:#0072b2;stroke:#0072b2;" x="102.898687" xlink:href="#m4a38f79fd4" y="250.917375"/>
     </g>
    </g>
    <g id="text_19">
     <text style="fill:#262626;font-family:DejaVu Sans;font-size:13.2px;font-style:normal;font-weight:normal;text-anchor:start;" transform="rotate(-0, 126.658687, 254.382375)" x="126.658687" y="254.382375">20</text>
    </g>
    <g id="PathCollection_9">
     <defs>
      <path d="M 0 3 
C 0.795609 3 1.55874 2.683901 2.12132 2.12132 
C 2.683901 1.55874 3 0.795609 3 0 
C 3 -0.795609 2.683901 -1.55874 2.12132 -2.12132 
C 1.55874 -2.683901 0.795609 -3 0 -3 
C -0.795609 -3 -1.55874 -2.683901 -2.12132 -2.12132 
C -2.683901 -1.55874 -3 -0.795609 -3 0 
C -3 0.795609 -2.683901 1.55874 -2.12132 2.12132 
C -1.55874 2.683901 -0.795609 3 0 3 
z
" id="m33d17628a7" style="stroke:#d55e00;"/>
     </defs>
     <g>
      <use style="fill:#d55e00;stroke:#d55e00;" x="102.898687" xlink:href="#m33d17628a7" y="270.2925"/>
     </g>
    </g>
    <g id="text_20">
     <text style="fill:#262626;font-family:DejaVu Sans;font-size:13.2px;font-style:normal;font-weight:normal;text-anchor:start;" transform="rotate(-0, 126.658687, 273.7575)" x="126.658687" y="273.7575">28</text>
    </g>
    <g id="PathCollection_10">
     <defs>
      <path d="M 0 3 
C 0.795609 3 1.55874 2.683901 2.12132 2.12132 
C 2.683901 1.55874 3 0.795609 3 0 
C 3 -0.795609 2.683901 -1.55874 2.12132 -2.12132 
C 1.55874 -2.683901 0.795609 -3 0 -3 
C -0.795609 -3 -1.55874 -2.683901 -2.12132 -2.12132 
C -2.683901 -1.55874 -3 -0.795609 -3 0 
C -3 0.795609 -2.683901 1.55874 -2.12132 2.12132 
C -1.55874 2.683901 -0.795609 3 0 3 
z
" id="md1cc70b6e6" style="stroke:#009e73;"/>
     </defs>
     <g>
      <use style="fill:#009e73;stroke:#009e73;" x="252.368062" xlink:href="#md1cc70b6e6" y="231.54225"/>
     </g>
    </g>
    <g id="text_21">
     <text style="fill:#262626;font-family:DejaVu Sans;font-size:13.2px;font-style:normal;font-weight:normal;text-anchor:start;" transform="rotate(-0, 276.128062, 235.00725)" x="276.128062" y="235.00725">12</text>
    </g>
    <g id="PathCollection_11">
     <defs>
      <path d="M 0 3 
C 0.795609 3 1.55874 2.683901 2.12132 2.12132 
C 2.683901 1.55874 3 0.795609 3 0 
C 3 -0.795609 2.683901 -1.55874 2.12132 -2.12132 
C 1.55874 -2.683901 0.795609 -3 0 -3 
C -0.795609 -3 -1.55874 -2.683901 -2.12132 -2.12132 
C -2.683901 -1.55874 -3 -0.795609 -3 0 
C -3 0.795609 -2.683901 1.55874 -2.12132 2.12132 
C -1.55874 2.683901 -0.795609 3 0 3 
z
" id="m04123a4d5d" style="stroke:#f0e442;"/>
     </defs>
     <g>
      <use style="fill:#f0e442;stroke:#f0e442;" x="252.368062" xlink:href="#m04123a4d5d" y="250.917375"/>
     </g>
    </g>
    <g id="text_22">
     <text style="fill:#262626;font-family:DejaVu Sans;font-size:13.2px;font-style:normal;font-weight:normal;text-anchor:start;" transform="rotate(-0, 276.128062, 254.382375)" x="276.128062" y="254.382375">4</text>
    </g>
    <g id="text_23">
     <text style="fill:#262626;font-family:DejaVu Sans;font-size:13.2px;font-style:normal;font-weight:normal;text-anchor:start;" transform="rotate(-0, 276.128062, 273.7575)" x="276.128062" y="273.7575">Genotype</text>
    </g>
    <g id="PathCollection_12">
     <defs>
      <path d="M 0 3 
C 0.795609 3 1.55874 2.683901 2.12132 2.12132 
C 2.683901 1.55874 3 0.795609 3 0 
C 3 -0.795609 2.683901 -1.55874 2.12132 -2.12132 
C 1.55874 -2.683901 0.795609 -3 0 -3 
C -0.795609 -3 -1.55874 -2.683901 -2.12132 -2.12132 
C -2.683901 -1.55874 -3 -0.795609 -3 0 
C -3 0.795609 -2.683901 1.55874 -2.12132 2.12132 
C -1.55874 2.683901 -0.795609 3 0 3 
z
" id="m7dd8b810fd" style="stroke:#333333;"/>
     </defs>
     <g>
      <use style="fill:#333333;stroke:#333333;" x="380.01" xlink:href="#m7dd8b810fd" y="231.54225"/>
     </g>
    </g>
    <g id="text_24">
     <text style="fill:#262626;font-family:DejaVu Sans;font-size:13.2px;font-style:normal;font-weight:normal;text-anchor:start;" transform="rotate(-0, 403.77, 235.00725)" x="403.77" y="235.00725">fio1-3</text>
    </g>
    <g id="PathCollection_13">
     <defs>
      <path d="M -1.5 3 
L 0 1.5 
L 1.5 3 
L 3 1.5 
L 1.5 0 
L 3 -1.5 
L 1.5 -3 
L 0 -1.5 
L -1.5 -3 
L -3 -1.5 
L -1.5 0 
L -3 1.5 
z
" id="mf8a33a9d2b" style="stroke:#333333;"/>
     </defs>
     <g>
      <use style="fill:#333333;stroke:#333333;" x="380.01" xlink:href="#mf8a33a9d2b" y="250.917375"/>
     </g>
    </g>
    <g id="text_25">
     <text style="fill:#262626;font-family:DejaVu Sans;font-size:13.2px;font-style:normal;font-weight:normal;text-anchor:start;" transform="rotate(-0, 403.77, 254.382375)" x="403.77" y="254.382375">Col-0</text>
    </g>
   </g>
  </g>
 </g>
 <defs>
  <clipPath id="p338a32c9b3">
   <rect height="380.52" width="390.6" x="63" y="60.48"/>
  </clipPath>
 </defs>
</svg>
