<?xml version="1.0" encoding="utf-8" standalone="no"?>
<!DOCTYPE svg PUBLIC "-//W3C//DTD SVG 1.1//EN"
  "http://www.w3.org/Graphics/SVG/1.1/DTD/svg11.dtd">
<!-- Created with matplotlib (https://matplotlib.org/) -->
<svg height="504pt" version="1.1" viewBox="0 0 504 504" width="504pt" xmlns="http://www.w3.org/2000/svg" xmlns:xlink="http://www.w3.org/1999/xlink">
 <defs>
  <style type="text/css">
*{stroke-linecap:butt;stroke-linejoin:round;}
  </style>
 </defs>
 <g id="figure_1">
  <g id="patch_1">
   <path d="M 0 504 
L 504 504 
L 504 0 
L 0 0 
z
" style="fill:#ffffff;"/>
  </g>
  <g id="axes_1">
   <g id="patch_2">
    <path d="M 63 441 
L 453.6 441 
L 453.6 60.48 
L 63 60.48 
z
" style="fill:#ffffff;"/>
   </g>
   <g id="matplotlib.axis_1">
    <g id="xtick_1">
     <g id="line2d_1">
      <defs>
       <path d="M 0 0 
L 0 6 
" id="md77b79448d" style="stroke:#262626;stroke-width:1.25;"/>
      </defs>
      <g>
       <use style="fill:#262626;stroke:#262626;stroke-width:1.25;" x="104.776812" xlink:href="#md77b79448d" y="441"/>
      </g>
     </g>
     <g id="text_1">
      <text style="fill:#262626;font-family:DejaVu Sans;font-size:13.2px;font-style:normal;font-weight:normal;text-anchor:middle;" transform="rotate(-0, 104.776812, 460.529938)" x="104.776812" y="460.529938">−75</text>
     </g>
    </g>
    <g id="xtick_2">
     <g id="line2d_2">
      <g>
       <use style="fill:#262626;stroke:#262626;stroke-width:1.25;" x="151.967827" xlink:href="#md77b79448d" y="441"/>
      </g>
     </g>
     <g id="text_2">
      <text style="fill:#262626;font-family:DejaVu Sans;font-size:13.2px;font-style:normal;font-weight:normal;text-anchor:middle;" transform="rotate(-0, 151.967827, 460.529938)" x="151.967827" y="460.529938">−50</text>
     </g>
    </g>
    <g id="xtick_3">
     <g id="line2d_3">
      <g>
       <use style="fill:#262626;stroke:#262626;stroke-width:1.25;" x="199.158843" xlink:href="#md77b79448d" y="441"/>
      </g>
     </g>
     <g id="text_3">
      <text style="fill:#262626;font-family:DejaVu Sans;font-size:13.2px;font-style:normal;font-weight:normal;text-anchor:middle;" transform="rotate(-0, 199.158843, 460.529938)" x="199.158843" y="460.529938">−25</text>
     </g>
    </g>
    <g id="xtick_4">
     <g id="line2d_4">
      <g>
       <use style="fill:#262626;stroke:#262626;stroke-width:1.25;" x="246.349858" xlink:href="#md77b79448d" y="441"/>
      </g>
     </g>
     <g id="text_4">
      <text style="fill:#262626;font-family:DejaVu Sans;font-size:13.2px;font-style:normal;font-weight:normal;text-anchor:middle;" transform="rotate(-0, 246.349858, 460.529938)" x="246.349858" y="460.529938">0</text>
     </g>
    </g>
    <g id="xtick_5">
     <g id="line2d_5">
      <g>
       <use style="fill:#262626;stroke:#262626;stroke-width:1.25;" x="293.540873" xlink:href="#md77b79448d" y="441"/>
      </g>
     </g>
     <g id="text_5">
      <text style="fill:#262626;font-family:DejaVu Sans;font-size:13.2px;font-style:normal;font-weight:normal;text-anchor:middle;" transform="rotate(-0, 293.540873, 460.529938)" x="293.540873" y="460.529938">25</text>
     </g>
    </g>
    <g id="xtick_6">
     <g id="line2d_6">
      <g>
       <use style="fill:#262626;stroke:#262626;stroke-width:1.25;" x="340.731888" xlink:href="#md77b79448d" y="441"/>
      </g>
     </g>
     <g id="text_6">
      <text style="fill:#262626;font-family:DejaVu Sans;font-size:13.2px;font-style:normal;font-weight:normal;text-anchor:middle;" transform="rotate(-0, 340.731888, 460.529938)" x="340.731888" y="460.529938">50</text>
     </g>
    </g>
    <g id="xtick_7">
     <g id="line2d_7">
      <g>
       <use style="fill:#262626;stroke:#262626;stroke-width:1.25;" x="387.922904" xlink:href="#md77b79448d" y="441"/>
      </g>
     </g>
     <g id="text_7">
      <text style="fill:#262626;font-family:DejaVu Sans;font-size:13.2px;font-style:normal;font-weight:normal;text-anchor:middle;" transform="rotate(-0, 387.922904, 460.529938)" x="387.922904" y="460.529938">75</text>
     </g>
    </g>
    <g id="xtick_8">
     <g id="line2d_8">
      <g>
       <use style="fill:#262626;stroke:#262626;stroke-width:1.25;" x="435.113919" xlink:href="#md77b79448d" y="441"/>
      </g>
     </g>
     <g id="text_8">
      <text style="fill:#262626;font-family:DejaVu Sans;font-size:13.2px;font-style:normal;font-weight:normal;text-anchor:middle;" transform="rotate(-0, 435.113919, 460.529938)" x="435.113919" y="460.529938">100</text>
     </g>
    </g>
    <g id="text_9">
     <text style="fill:#262626;font-family:DejaVu Sans;font-size:14.4px;font-style:normal;font-weight:normal;text-anchor:middle;" transform="rotate(-0, 258.3, 478.216875)" x="258.3" y="478.216875">Component 1</text>
    </g>
   </g>
   <g id="matplotlib.axis_2">
    <g id="ytick_1">
     <g id="line2d_9">
      <defs>
       <path d="M 0 0 
L -6 0 
" id="m1d2da68ea3" style="stroke:#262626;stroke-width:1.25;"/>
      </defs>
      <g>
       <use style="fill:#262626;stroke:#262626;stroke-width:1.25;" x="63" xlink:href="#m1d2da68ea3" y="438.97703"/>
      </g>
     </g>
     <g id="text_10">
      <text style="fill:#262626;font-family:DejaVu Sans;font-size:13.2px;font-style:normal;font-weight:normal;text-anchor:end;" transform="rotate(-0, 53.5, 443.991999)" x="53.5" y="443.991999">−60</text>
     </g>
    </g>
    <g id="ytick_2">
     <g id="line2d_10">
      <g>
       <use style="fill:#262626;stroke:#262626;stroke-width:1.25;" x="63" xlink:href="#m1d2da68ea3" y="377.463976"/>
      </g>
     </g>
     <g id="text_11">
      <text style="fill:#262626;font-family:DejaVu Sans;font-size:13.2px;font-style:normal;font-weight:normal;text-anchor:end;" transform="rotate(-0, 53.5, 382.478944)" x="53.5" y="382.478944">−40</text>
     </g>
    </g>
    <g id="ytick_3">
     <g id="line2d_11">
      <g>
       <use style="fill:#262626;stroke:#262626;stroke-width:1.25;" x="63" xlink:href="#m1d2da68ea3" y="315.950921"/>
      </g>
     </g>
     <g id="text_12">
      <text style="fill:#262626;font-family:DejaVu Sans;font-size:13.2px;font-style:normal;font-weight:normal;text-anchor:end;" transform="rotate(-0, 53.5, 320.965889)" x="53.5" y="320.965889">−20</text>
     </g>
    </g>
    <g id="ytick_4">
     <g id="line2d_12">
      <g>
       <use style="fill:#262626;stroke:#262626;stroke-width:1.25;" x="63" xlink:href="#m1d2da68ea3" y="254.437866"/>
      </g>
     </g>
     <g id="text_13">
      <text style="fill:#262626;font-family:DejaVu Sans;font-size:13.2px;font-style:normal;font-weight:normal;text-anchor:end;" transform="rotate(-0, 53.5, 259.452835)" x="53.5" y="259.452835">0</text>
     </g>
    </g>
    <g id="ytick_5">
     <g id="line2d_13">
      <g>
       <use style="fill:#262626;stroke:#262626;stroke-width:1.25;" x="63" xlink:href="#m1d2da68ea3" y="192.924811"/>
      </g>
     </g>
     <g id="text_14">
      <text style="fill:#262626;font-family:DejaVu Sans;font-size:13.2px;font-style:normal;font-weight:normal;text-anchor:end;" transform="rotate(-0, 53.5, 197.93978)" x="53.5" y="197.93978">20</text>
     </g>
    </g>
    <g id="ytick_6">
     <g id="line2d_14">
      <g>
       <use style="fill:#262626;stroke:#262626;stroke-width:1.25;" x="63" xlink:href="#m1d2da68ea3" y="131.411756"/>
      </g>
     </g>
     <g id="text_15">
      <text style="fill:#262626;font-family:DejaVu Sans;font-size:13.2px;font-style:normal;font-weight:normal;text-anchor:end;" transform="rotate(-0, 53.5, 136.426725)" x="53.5" y="136.426725">40</text>
     </g>
    </g>
    <g id="ytick_7">
     <g id="line2d_15">
      <g>
       <use style="fill:#262626;stroke:#262626;stroke-width:1.25;" x="63" xlink:href="#m1d2da68ea3" y="69.898701"/>
      </g>
     </g>
     <g id="text_16">
      <text style="fill:#262626;font-family:DejaVu Sans;font-size:13.2px;font-style:normal;font-weight:normal;text-anchor:end;" transform="rotate(-0, 53.5, 74.91367)" x="53.5" y="74.91367">60</text>
     </g>
    </g>
    <g id="text_17">
     <text style="fill:#262626;font-family:DejaVu Sans;font-size:14.4px;font-style:normal;font-weight:normal;text-anchor:middle;" transform="rotate(-90, 18.647063, 250.74)" x="18.647063" y="250.74">Component 2</text>
    </g>
   </g>
   <g id="PathCollection_1">
    <path clip-path="url(#p77b21dd99b)" d="M 304.965274 142.110021 
C 305.760883 142.110021 306.524014 141.793922 307.086594 141.231341 
C 307.649175 140.668761 307.965274 139.90563 307.965274 139.110021 
C 307.965274 138.314412 307.649175 137.551281 307.086594 136.988701 
C 306.524014 136.42612 305.760883 136.110021 304.965274 136.110021 
C 304.169665 136.110021 303.406534 136.42612 302.843954 136.988701 
C 302.281373 137.551281 301.965274 138.314412 301.965274 139.110021 
C 301.965274 139.90563 302.281373 140.668761 302.843954 141.231341 
C 303.406534 141.793922 304.169665 142.110021 304.965274 142.110021 
z
" style="fill:#0072b2;stroke:#ffffff;stroke-width:0.48;"/>
    <path clip-path="url(#p77b21dd99b)" d="M 418.383352 360.875029 
L 419.883352 359.375029 
L 421.383352 360.875029 
L 422.883352 359.375029 
L 421.383352 357.875029 
L 422.883352 356.375029 
L 421.383352 354.875029 
L 419.883352 356.375029 
L 418.383352 354.875029 
L 416.883352 356.375029 
L 418.383352 357.875029 
L 416.883352 359.375029 
z
" style="fill:#d55e00;stroke:#ffffff;stroke-width:0.48;"/>
    <path clip-path="url(#p77b21dd99b)" d="M 311.302717 392.260515 
L 312.802717 390.760515 
L 314.302717 392.260515 
L 315.802717 390.760515 
L 314.302717 389.260515 
L 315.802717 387.760515 
L 314.302717 386.260515 
L 312.802717 387.760515 
L 311.302717 386.260515 
L 309.802717 387.760515 
L 311.302717 389.260515 
L 309.802717 390.760515 
z
" style="fill:#0072b2;stroke:#ffffff;stroke-width:0.48;"/>
    <path clip-path="url(#p77b21dd99b)" d="M 143.803728 384.015783 
L 145.303728 382.515783 
L 146.803728 384.015783 
L 148.303728 382.515783 
L 146.803728 381.015783 
L 148.303728 379.515783 
L 146.803728 378.015783 
L 145.303728 379.515783 
L 143.803728 378.015783 
L 142.303728 379.515783 
L 143.803728 381.015783 
L 142.303728 382.515783 
z
" style="fill:#009e73;stroke:#ffffff;stroke-width:0.48;"/>
    <path clip-path="url(#p77b21dd99b)" d="M 309.3628 128.603936 
C 310.15841 128.603936 310.92154 128.287837 311.484121 127.725256 
C 312.046702 127.162675 312.3628 126.399545 312.3628 125.603936 
C 312.3628 124.808326 312.046702 124.045196 311.484121 123.482615 
C 310.92154 122.920035 310.15841 122.603936 309.3628 122.603936 
C 308.567191 122.603936 307.804061 122.920035 307.24148 123.482615 
C 306.678899 124.045196 306.3628 124.808326 306.3628 125.603936 
C 306.3628 126.399545 306.678899 127.162675 307.24148 127.725256 
C 307.804061 128.287837 308.567191 128.603936 309.3628 128.603936 
z
" style="fill:#0072b2;stroke:#ffffff;stroke-width:0.48;"/>
    <path clip-path="url(#p77b21dd99b)" d="M 399.720016 147.674068 
C 400.515625 147.674068 401.278755 147.357969 401.841336 146.795389 
C 402.403917 146.232808 402.720016 145.469678 402.720016 144.674068 
C 402.720016 143.878459 402.403917 143.115329 401.841336 142.552748 
C 401.278755 141.990167 400.515625 141.674068 399.720016 141.674068 
C 398.924407 141.674068 398.161276 141.990167 397.598696 142.552748 
C 397.036115 143.115329 396.720016 143.878459 396.720016 144.674068 
C 396.720016 145.469678 397.036115 146.232808 397.598696 146.795389 
C 398.161276 147.357969 398.924407 147.674068 399.720016 147.674068 
z
" style="fill:#d55e00;stroke:#ffffff;stroke-width:0.48;"/>
    <path clip-path="url(#p77b21dd99b)" d="M 408.399768 85.733361 
C 409.195377 85.733361 409.958508 85.417262 410.521088 84.854681 
C 411.083669 84.292101 411.399768 83.52897 411.399768 82.733361 
C 411.399768 81.937752 411.083669 81.174621 410.521088 80.612041 
C 409.958508 80.04946 409.195377 79.733361 408.399768 79.733361 
C 407.604159 79.733361 406.841028 80.04946 406.278448 80.612041 
C 405.715867 81.174621 405.399768 81.937752 405.399768 82.733361 
C 405.399768 83.52897 405.715867 84.292101 406.278448 84.854681 
C 406.841028 85.417262 407.604159 85.733361 408.399768 85.733361 
z
" style="fill:#d55e00;stroke:#ffffff;stroke-width:0.48;"/>
    <path clip-path="url(#p77b21dd99b)" d="M 434.329507 365.111537 
L 435.829507 363.611537 
L 437.329507 365.111537 
L 438.829507 363.611537 
L 437.329507 362.111537 
L 438.829507 360.611537 
L 437.329507 359.111537 
L 435.829507 360.611537 
L 434.329507 359.111537 
L 432.829507 360.611537 
L 434.329507 362.111537 
L 432.829507 363.611537 
z
" style="fill:#d55e00;stroke:#ffffff;stroke-width:0.48;"/>
    <path clip-path="url(#p77b21dd99b)" d="M 90.744244 144.893201 
C 91.539854 144.893201 92.302984 144.577102 92.865565 144.014521 
C 93.428146 143.45194 93.744244 142.68881 93.744244 141.893201 
C 93.744244 141.097591 93.428146 140.334461 92.865565 139.77188 
C 92.302984 139.209299 91.539854 138.893201 90.744244 138.893201 
C 89.948635 138.893201 89.185505 139.209299 88.622924 139.77188 
C 88.060343 140.334461 87.744244 141.097591 87.744244 141.893201 
C 87.744244 142.68881 88.060343 143.45194 88.622924 144.014521 
C 89.185505 144.577102 89.948635 144.893201 90.744244 144.893201 
z
" style="fill:#f0e442;stroke:#ffffff;stroke-width:0.48;"/>
    <path clip-path="url(#p77b21dd99b)" d="M 430.815632 372.460913 
L 432.315632 370.960913 
L 433.815632 372.460913 
L 435.315632 370.960913 
L 433.815632 369.460913 
L 435.315632 367.960913 
L 433.815632 366.460913 
L 432.315632 367.960913 
L 430.815632 366.460913 
L 429.315632 367.960913 
L 430.815632 369.460913 
L 429.315632 370.960913 
z
" style="fill:#d55e00;stroke:#ffffff;stroke-width:0.48;"/>
    <path clip-path="url(#p77b21dd99b)" d="M 390.813574 112.812569 
C 391.609184 112.812569 392.372314 112.49647 392.934895 111.93389 
C 393.497475 111.371309 393.813574 110.608179 393.813574 109.812569 
C 393.813574 109.01696 393.497475 108.25383 392.934895 107.691249 
C 392.372314 107.128668 391.609184 106.812569 390.813574 106.812569 
C 390.017965 106.812569 389.254835 107.128668 388.692254 107.691249 
C 388.129673 108.25383 387.813574 109.01696 387.813574 109.812569 
C 387.813574 110.608179 388.129673 111.371309 388.692254 111.93389 
C 389.254835 112.49647 390.017965 112.812569 390.813574 112.812569 
z
" style="fill:#d55e00;stroke:#ffffff;stroke-width:0.48;"/>
    <path clip-path="url(#p77b21dd99b)" d="M 126.14439 118.946102 
C 126.939999 118.946102 127.703129 118.630003 128.26571 118.067422 
C 128.828291 117.504842 129.14439 116.741711 129.14439 115.946102 
C 129.14439 115.150493 128.828291 114.387362 128.26571 113.824782 
C 127.703129 113.262201 126.939999 112.946102 126.14439 112.946102 
C 125.34878 112.946102 124.58565 113.262201 124.023069 113.824782 
C 123.460489 114.387362 123.14439 115.150493 123.14439 115.946102 
C 123.14439 116.741711 123.460489 117.504842 124.023069 118.067422 
C 124.58565 118.630003 125.34878 118.946102 126.14439 118.946102 
z
" style="fill:#009e73;stroke:#ffffff;stroke-width:0.48;"/>
    <path clip-path="url(#p77b21dd99b)" d="M 169.341911 148.835359 
C 170.13752 148.835359 170.900651 148.51926 171.463231 147.95668 
C 172.025812 147.394099 172.341911 146.630969 172.341911 145.835359 
C 172.341911 145.03975 172.025812 144.27662 171.463231 143.714039 
C 170.900651 143.151458 170.13752 142.835359 169.341911 142.835359 
C 168.546302 142.835359 167.783171 143.151458 167.220591 143.714039 
C 166.65801 144.27662 166.341911 145.03975 166.341911 145.835359 
C 166.341911 146.630969 166.65801 147.394099 167.220591 147.95668 
C 167.783171 148.51926 168.546302 148.835359 169.341911 148.835359 
z
" style="fill:#009e73;stroke:#ffffff;stroke-width:0.48;"/>
    <path clip-path="url(#p77b21dd99b)" d="M 384.525681 168.096808 
C 385.32129 168.096808 386.084421 167.780709 386.647001 167.218128 
C 387.209582 166.655548 387.525681 165.892417 387.525681 165.096808 
C 387.525681 164.301199 387.209582 163.538069 386.647001 162.975488 
C 386.084421 162.412907 385.32129 162.096808 384.525681 162.096808 
C 383.730072 162.096808 382.966941 162.412907 382.404361 162.975488 
C 381.84178 163.538069 381.525681 164.301199 381.525681 165.096808 
C 381.525681 165.892417 381.84178 166.655548 382.404361 167.218128 
C 382.966941 167.780709 383.730072 168.096808 384.525681 168.096808 
z
" style="fill:#d55e00;stroke:#ffffff;stroke-width:0.48;"/>
    <path clip-path="url(#p77b21dd99b)" d="M 160.833382 117.119158 
C 161.628992 117.119158 162.392122 116.803059 162.954703 116.240479 
C 163.517283 115.677898 163.833382 114.914768 163.833382 114.119158 
C 163.833382 113.323549 163.517283 112.560419 162.954703 111.997838 
C 162.392122 111.435257 161.628992 111.119158 160.833382 111.119158 
C 160.037773 111.119158 159.274643 111.435257 158.712062 111.997838 
C 158.149481 112.560419 157.833382 113.323549 157.833382 114.119158 
C 157.833382 114.914768 158.149481 115.677898 158.712062 116.240479 
C 159.274643 116.803059 160.037773 117.119158 160.833382 117.119158 
z
" style="fill:#009e73;stroke:#ffffff;stroke-width:0.48;"/>
    <path clip-path="url(#p77b21dd99b)" d="M 426.737812 364.5498 
L 428.237812 363.0498 
L 429.737812 364.5498 
L 431.237812 363.0498 
L 429.737812 361.5498 
L 431.237812 360.0498 
L 429.737812 358.5498 
L 428.237812 360.0498 
L 426.737812 358.5498 
L 425.237812 360.0498 
L 426.737812 361.5498 
L 425.237812 363.0498 
z
" style="fill:#d55e00;stroke:#ffffff;stroke-width:0.48;"/>
    <path clip-path="url(#p77b21dd99b)" d="M 302.087396 110.39768 
C 302.883006 110.39768 303.646136 110.081581 304.208717 109.519 
C 304.771298 108.95642 305.087396 108.193289 305.087396 107.39768 
C 305.087396 106.602071 304.771298 105.83894 304.208717 105.27636 
C 303.646136 104.713779 302.883006 104.39768 302.087396 104.39768 
C 301.291787 104.39768 300.528657 104.713779 299.966076 105.27636 
C 299.403495 105.83894 299.087396 106.602071 299.087396 107.39768 
C 299.087396 108.193289 299.403495 108.95642 299.966076 109.519 
C 300.528657 110.081581 301.291787 110.39768 302.087396 110.39768 
z
" style="fill:#0072b2;stroke:#ffffff;stroke-width:0.48;"/>
    <path clip-path="url(#p77b21dd99b)" d="M 315.65985 353.327402 
L 317.15985 351.827402 
L 318.65985 353.327402 
L 320.15985 351.827402 
L 318.65985 350.327402 
L 320.15985 348.827402 
L 318.65985 347.327402 
L 317.15985 348.827402 
L 315.65985 347.327402 
L 314.15985 348.827402 
L 315.65985 350.327402 
L 314.15985 351.827402 
z
" style="fill:#0072b2;stroke:#ffffff;stroke-width:0.48;"/>
    <path clip-path="url(#p77b21dd99b)" d="M 160.412765 407.085454 
L 161.912765 405.585454 
L 163.412765 407.085454 
L 164.912765 405.585454 
L 163.412765 404.085454 
L 164.912765 402.585454 
L 163.412765 401.085454 
L 161.912765 402.585454 
L 160.412765 401.085454 
L 158.912765 402.585454 
L 160.412765 404.085454 
L 158.912765 405.585454 
z
" style="fill:#009e73;stroke:#ffffff;stroke-width:0.48;"/>
    <path clip-path="url(#p77b21dd99b)" d="M 153.446861 360.362522 
L 154.946861 358.862522 
L 156.446861 360.362522 
L 157.946861 358.862522 
L 156.446861 357.362522 
L 157.946861 355.862522 
L 156.446861 354.362522 
L 154.946861 355.862522 
L 153.446861 354.362522 
L 151.946861 355.862522 
L 153.446861 357.362522 
L 151.946861 358.862522 
z
" style="fill:#009e73;stroke:#ffffff;stroke-width:0.48;"/>
    <path clip-path="url(#p77b21dd99b)" d="M 408.147169 139.565918 
C 408.942778 139.565918 409.705908 139.249819 410.268489 138.687239 
C 410.83107 138.124658 411.147169 137.361527 411.147169 136.565918 
C 411.147169 135.770309 410.83107 135.007179 410.268489 134.444598 
C 409.705908 133.882017 408.942778 133.565918 408.147169 133.565918 
C 407.351559 133.565918 406.588429 133.882017 406.025848 134.444598 
C 405.463268 135.007179 405.147169 135.770309 405.147169 136.565918 
C 405.147169 137.361527 405.463268 138.124658 406.025848 138.687239 
C 406.588429 139.249819 407.351559 139.565918 408.147169 139.565918 
z
" style="fill:#d55e00;stroke:#ffffff;stroke-width:0.48;"/>
    <path clip-path="url(#p77b21dd99b)" d="M 329.731948 387.000745 
L 331.231948 385.500745 
L 332.731948 387.000745 
L 334.231948 385.500745 
L 332.731948 384.000745 
L 334.231948 382.500745 
L 332.731948 381.000745 
L 331.231948 382.500745 
L 329.731948 381.000745 
L 328.231948 382.500745 
L 329.731948 384.000745 
L 328.231948 385.500745 
z
" style="fill:#0072b2;stroke:#ffffff;stroke-width:0.48;"/>
    <path clip-path="url(#p77b21dd99b)" d="M 80.770493 172.633812 
C 81.566103 172.633812 82.329233 172.317714 82.891814 171.755133 
C 83.454394 171.192552 83.770493 170.429422 83.770493 169.633812 
C 83.770493 168.838203 83.454394 168.075073 82.891814 167.512492 
C 82.329233 166.949911 81.566103 166.633812 80.770493 166.633812 
C 79.974884 166.633812 79.211754 166.949911 78.649173 167.512492 
C 78.086592 168.075073 77.770493 168.838203 77.770493 169.633812 
C 77.770493 170.429422 78.086592 171.192552 78.649173 171.755133 
C 79.211754 172.317714 79.974884 172.633812 80.770493 172.633812 
z
" style="fill:#f0e442;stroke:#ffffff;stroke-width:0.48;"/>
    <path clip-path="url(#p77b21dd99b)" d="M 162.169322 130.585706 
C 162.964931 130.585706 163.728062 130.269607 164.290642 129.707026 
C 164.853223 129.144446 165.169322 128.381315 165.169322 127.585706 
C 165.169322 126.790097 164.853223 126.026966 164.290642 125.464386 
C 163.728062 124.901805 162.964931 124.585706 162.169322 124.585706 
C 161.373713 124.585706 160.610583 124.901805 160.048002 125.464386 
C 159.485421 126.026966 159.169322 126.790097 159.169322 127.585706 
C 159.169322 128.381315 159.485421 129.144446 160.048002 129.707026 
C 160.610583 130.269607 161.373713 130.585706 162.169322 130.585706 
z
" style="fill:#009e73;stroke:#ffffff;stroke-width:0.48;"/>
    <path clip-path="url(#p77b21dd99b)" d="M 84.613422 366.947997 
L 86.113422 365.447997 
L 87.613422 366.947997 
L 89.113422 365.447997 
L 87.613422 363.947997 
L 89.113422 362.447997 
L 87.613422 360.947997 
L 86.113422 362.447997 
L 84.613422 360.947997 
L 83.113422 362.447997 
L 84.613422 363.947997 
L 83.113422 365.447997 
z
" style="fill:#f0e442;stroke:#ffffff;stroke-width:0.48;"/>
    <path clip-path="url(#p77b21dd99b)" d="M 96.631718 157.265653 
C 97.427327 157.265653 98.190458 156.949554 98.753038 156.386973 
C 99.315619 155.824393 99.631718 155.061262 99.631718 154.265653 
C 99.631718 153.470044 99.315619 152.706913 98.753038 152.144333 
C 98.190458 151.581752 97.427327 151.265653 96.631718 151.265653 
C 95.836109 151.265653 95.072978 151.581752 94.510398 152.144333 
C 93.947817 152.706913 93.631718 153.470044 93.631718 154.265653 
C 93.631718 155.061262 93.947817 155.824393 94.510398 156.386973 
C 95.072978 156.949554 95.836109 157.265653 96.631718 157.265653 
z
" style="fill:#f0e442;stroke:#ffffff;stroke-width:0.48;"/>
    <path clip-path="url(#p77b21dd99b)" d="M 426.203872 371.03875 
L 427.703872 369.53875 
L 429.203872 371.03875 
L 430.703872 369.53875 
L 429.203872 368.03875 
L 430.703872 366.53875 
L 429.203872 365.03875 
L 427.703872 366.53875 
L 426.203872 365.03875 
L 424.703872 366.53875 
L 426.203872 368.03875 
L 424.703872 369.53875 
z
" style="fill:#d55e00;stroke:#ffffff;stroke-width:0.48;"/>
    <path clip-path="url(#p77b21dd99b)" d="M 164.850483 382.307796 
L 166.350483 380.807796 
L 167.850483 382.307796 
L 169.350483 380.807796 
L 167.850483 379.307796 
L 169.350483 377.807796 
L 167.850483 376.307796 
L 166.350483 377.807796 
L 164.850483 376.307796 
L 163.350483 377.807796 
L 164.850483 379.307796 
L 163.350483 380.807796 
z
" style="fill:#009e73;stroke:#ffffff;stroke-width:0.48;"/>
    <path clip-path="url(#p77b21dd99b)" d="M 119.296362 128.677025 
C 120.091971 128.677025 120.855102 128.360926 121.417682 127.798346 
C 121.980263 127.235765 122.296362 126.472635 122.296362 125.677025 
C 122.296362 124.881416 121.980263 124.118286 121.417682 123.555705 
C 120.855102 122.993124 120.091971 122.677025 119.296362 122.677025 
C 118.500753 122.677025 117.737623 122.993124 117.175042 123.555705 
C 116.612461 124.118286 116.296362 124.881416 116.296362 125.677025 
C 116.296362 126.472635 116.612461 127.235765 117.175042 127.798346 
C 117.737623 128.360926 118.500753 128.677025 119.296362 128.677025 
z
" style="fill:#f0e442;stroke:#ffffff;stroke-width:0.48;"/>
    <path clip-path="url(#p77b21dd99b)" d="M 323.581806 355.906679 
L 325.081806 354.406679 
L 326.581806 355.906679 
L 328.081806 354.406679 
L 326.581806 352.906679 
L 328.081806 351.406679 
L 326.581806 349.906679 
L 325.081806 351.406679 
L 323.581806 349.906679 
L 322.081806 351.406679 
L 323.581806 352.906679 
L 322.081806 354.406679 
z
" style="fill:#0072b2;stroke:#ffffff;stroke-width:0.48;"/>
    <path clip-path="url(#p77b21dd99b)" d="M 301.497913 128.131658 
C 302.293523 128.131658 303.056653 127.815559 303.619234 127.252978 
C 304.181814 126.690398 304.497913 125.927267 304.497913 125.131658 
C 304.497913 124.336049 304.181814 123.572918 303.619234 123.010338 
C 303.056653 122.447757 302.293523 122.131658 301.497913 122.131658 
C 300.702304 122.131658 299.939174 122.447757 299.376593 123.010338 
C 298.814012 123.572918 298.497913 124.336049 298.497913 125.131658 
C 298.497913 125.927267 298.814012 126.690398 299.376593 127.252978 
C 299.939174 127.815559 300.702304 128.131658 301.497913 128.131658 
z
" style="fill:#0072b2;stroke:#ffffff;stroke-width:0.48;"/>
    <path clip-path="url(#p77b21dd99b)" d="M 173.477326 412.213547 
L 174.977326 410.713547 
L 176.477326 412.213547 
L 177.977326 410.713547 
L 176.477326 409.213547 
L 177.977326 407.713547 
L 176.477326 406.213547 
L 174.977326 407.713547 
L 173.477326 406.213547 
L 171.977326 407.713547 
L 173.477326 409.213547 
L 171.977326 410.713547 
z
" style="fill:#009e73;stroke:#ffffff;stroke-width:0.48;"/>
    <path clip-path="url(#p77b21dd99b)" d="M 122.30058 98.688641 
C 123.09619 98.688641 123.85932 98.372542 124.421901 97.809961 
C 124.984481 97.24738 125.30058 96.48425 125.30058 95.688641 
C 125.30058 94.893031 124.984481 94.129901 124.421901 93.56732 
C 123.85932 93.00474 123.09619 92.688641 122.30058 92.688641 
C 121.504971 92.688641 120.741841 93.00474 120.17926 93.56732 
C 119.616679 94.129901 119.30058 94.893031 119.30058 95.688641 
C 119.30058 96.48425 119.616679 97.24738 120.17926 97.809961 
C 120.741841 98.372542 121.504971 98.688641 122.30058 98.688641 
z
" style="fill:#f0e442;stroke:#ffffff;stroke-width:0.48;"/>
    <path clip-path="url(#p77b21dd99b)" d="M 104.804065 391.360999 
L 106.304065 389.860999 
L 107.804065 391.360999 
L 109.304065 389.860999 
L 107.804065 388.360999 
L 109.304065 386.860999 
L 107.804065 385.360999 
L 106.304065 386.860999 
L 104.804065 385.360999 
L 103.304065 386.860999 
L 104.804065 388.360999 
L 103.304065 389.860999 
z
" style="fill:#f0e442;stroke:#ffffff;stroke-width:0.48;"/>
    <path clip-path="url(#p77b21dd99b)" d="M 147.267571 145.159749 
C 148.063181 145.159749 148.826311 144.84365 149.388892 144.281069 
C 149.951472 143.718488 150.267571 142.955358 150.267571 142.159749 
C 150.267571 141.36414 149.951472 140.601009 149.388892 140.038428 
C 148.826311 139.475848 148.063181 139.159749 147.267571 139.159749 
C 146.471962 139.159749 145.708832 139.475848 145.146251 140.038428 
C 144.58367 140.601009 144.267571 141.36414 144.267571 142.159749 
C 144.267571 142.955358 144.58367 143.718488 145.146251 144.281069 
C 145.708832 144.84365 146.471962 145.159749 147.267571 145.159749 
z
" style="fill:#009e73;stroke:#ffffff;stroke-width:0.48;"/>
    <path clip-path="url(#p77b21dd99b)" d="M 115.53014 408.492734 
L 117.03014 406.992734 
L 118.53014 408.492734 
L 120.03014 406.992734 
L 118.53014 405.492734 
L 120.03014 403.992734 
L 118.53014 402.492734 
L 117.03014 403.992734 
L 115.53014 402.492734 
L 114.03014 403.992734 
L 115.53014 405.492734 
L 114.03014 406.992734 
z
" style="fill:#f0e442;stroke:#ffffff;stroke-width:0.48;"/>
    <path clip-path="url(#p77b21dd99b)" d="M 295.680811 99.804849 
C 296.47642 99.804849 297.239551 99.48875 297.802132 98.926169 
C 298.364712 98.363588 298.680811 97.600458 298.680811 96.804849 
C 298.680811 96.00924 298.364712 95.246109 297.802132 94.683528 
C 297.239551 94.120948 296.47642 93.804849 295.680811 93.804849 
C 294.885202 93.804849 294.122072 94.120948 293.559491 94.683528 
C 292.99691 95.246109 292.680811 96.00924 292.680811 96.804849 
C 292.680811 97.600458 292.99691 98.363588 293.559491 98.926169 
C 294.122072 99.48875 294.885202 99.804849 295.680811 99.804849 
z
" style="fill:#0072b2;stroke:#ffffff;stroke-width:0.48;"/>
    <path clip-path="url(#p77b21dd99b)" d="M 111.667612 426.676963 
L 113.167612 425.176963 
L 114.667612 426.676963 
L 116.167612 425.176963 
L 114.667612 423.676963 
L 116.167612 422.176963 
L 114.667612 420.676963 
L 113.167612 422.176963 
L 111.667612 420.676963 
L 110.167612 422.176963 
L 111.667612 423.676963 
L 110.167612 425.176963 
z
" style="fill:#f0e442;stroke:#ffffff;stroke-width:0.48;"/>
    <path clip-path="url(#p77b21dd99b)" d="M 417.225962 80.803037 
C 418.021572 80.803037 418.784702 80.486938 419.347283 79.924357 
C 419.909863 79.361776 420.225962 78.598646 420.225962 77.803037 
C 420.225962 77.007427 419.909863 76.244297 419.347283 75.681716 
C 418.784702 75.119136 418.021572 74.803037 417.225962 74.803037 
C 416.430353 74.803037 415.667223 75.119136 415.104642 75.681716 
C 414.542061 76.244297 414.225962 77.007427 414.225962 77.803037 
C 414.225962 78.598646 414.542061 79.361776 415.104642 79.924357 
C 415.667223 80.486938 416.430353 80.803037 417.225962 80.803037 
z
" style="fill:#d55e00;stroke:#ffffff;stroke-width:0.48;"/>
    <path clip-path="url(#p77b21dd99b)" d="M 87.312769 153.031371 
C 88.108379 153.031371 88.871509 152.715272 89.43409 152.152692 
C 89.99667 151.590111 90.312769 150.826981 90.312769 150.031371 
C 90.312769 149.235762 89.99667 148.472632 89.43409 147.910051 
C 88.871509 147.34747 88.108379 147.031371 87.312769 147.031371 
C 86.51716 147.031371 85.75403 147.34747 85.191449 147.910051 
C 84.628868 148.472632 84.312769 149.235762 84.312769 150.031371 
C 84.312769 150.826981 84.628868 151.590111 85.191449 152.152692 
C 85.75403 152.715272 86.51716 153.031371 87.312769 153.031371 
z
" style="fill:#f0e442;stroke:#ffffff;stroke-width:0.48;"/>
    <path clip-path="url(#p77b21dd99b)" d="M 320.999335 395.624085 
L 322.499335 394.124085 
L 323.999335 395.624085 
L 325.499335 394.124085 
L 323.999335 392.624085 
L 325.499335 391.124085 
L 323.999335 389.624085 
L 322.499335 391.124085 
L 320.999335 389.624085 
L 319.499335 391.124085 
L 320.999335 392.624085 
L 319.499335 394.124085 
z
" style="fill:#0072b2;stroke:#ffffff;stroke-width:0.48;"/>
    <path clip-path="url(#p77b21dd99b)" d="M 93.059663 356.353364 
L 94.559663 354.853364 
L 96.059663 356.353364 
L 97.559663 354.853364 
L 96.059663 353.353364 
L 97.559663 351.853364 
L 96.059663 350.353364 
L 94.559663 351.853364 
L 93.059663 350.353364 
L 91.559663 351.853364 
L 93.059663 353.353364 
L 91.559663 354.853364 
z
" style="fill:#f0e442;stroke:#ffffff;stroke-width:0.48;"/>
    <path clip-path="url(#p77b21dd99b)" d="M 174.104665 401.946925 
L 175.604665 400.446925 
L 177.104665 401.946925 
L 178.604665 400.446925 
L 177.104665 398.946925 
L 178.604665 397.446925 
L 177.104665 395.946925 
L 175.604665 397.446925 
L 174.104665 395.946925 
L 172.604665 397.446925 
L 174.104665 398.946925 
L 172.604665 400.446925 
z
" style="fill:#009e73;stroke:#ffffff;stroke-width:0.48;"/>
    <path clip-path="url(#p77b21dd99b)" d="M 411.533995 372.102919 
L 413.033995 370.602919 
L 414.533995 372.102919 
L 416.033995 370.602919 
L 414.533995 369.102919 
L 416.033995 367.602919 
L 414.533995 366.102919 
L 413.033995 367.602919 
L 411.533995 366.102919 
L 410.033995 367.602919 
L 411.533995 369.102919 
L 410.033995 370.602919 
z
" style="fill:#d55e00;stroke:#ffffff;stroke-width:0.48;"/>
    <path clip-path="url(#p77b21dd99b)" d="M 297.916394 173.115252 
C 298.712004 173.115252 299.475134 172.799153 300.037715 172.236572 
C 300.600296 171.673991 300.916394 170.910861 300.916394 170.115252 
C 300.916394 169.319642 300.600296 168.556512 300.037715 167.993931 
C 299.475134 167.431351 298.712004 167.115252 297.916394 167.115252 
C 297.120785 167.115252 296.357655 167.431351 295.795074 167.993931 
C 295.232493 168.556512 294.916394 169.319642 294.916394 170.115252 
C 294.916394 170.910861 295.232493 171.673991 295.795074 172.236572 
C 296.357655 172.799153 297.120785 173.115252 297.916394 173.115252 
z
" style="fill:#0072b2;stroke:#ffffff;stroke-width:0.48;"/>
    <path clip-path="url(#p77b21dd99b)" d="M 106.929415 342.993982 
L 108.429415 341.493982 
L 109.929415 342.993982 
L 111.429415 341.493982 
L 109.929415 339.993982 
L 111.429415 338.493982 
L 109.929415 336.993982 
L 108.429415 338.493982 
L 106.929415 336.993982 
L 105.429415 338.493982 
L 106.929415 339.993982 
L 105.429415 341.493982 
z
" style="fill:#f0e442;stroke:#ffffff;stroke-width:0.48;"/>
    <path clip-path="url(#p77b21dd99b)" d="M 312.305314 422.100254 
L 313.805314 420.600254 
L 315.305314 422.100254 
L 316.805314 420.600254 
L 315.305314 419.100254 
L 316.805314 417.600254 
L 315.305314 416.100254 
L 313.805314 417.600254 
L 312.305314 416.100254 
L 310.805314 417.600254 
L 312.305314 419.100254 
L 310.805314 420.600254 
z
" style="fill:#0072b2;stroke:#ffffff;stroke-width:0.48;"/>
    <path clip-path="url(#p77b21dd99b)" d="M 157.352389 171.215928 
C 158.147998 171.215928 158.911129 170.899829 159.473709 170.337248 
C 160.03629 169.774667 160.352389 169.011537 160.352389 168.215928 
C 160.352389 167.420318 160.03629 166.657188 159.473709 166.094607 
C 158.911129 165.532026 158.147998 165.215928 157.352389 165.215928 
C 156.55678 165.215928 155.793649 165.532026 155.231069 166.094607 
C 154.668488 166.657188 154.352389 167.420318 154.352389 168.215928 
C 154.352389 169.011537 154.668488 169.774667 155.231069 170.337248 
C 155.793649 170.899829 156.55678 171.215928 157.352389 171.215928 
z
" style="fill:#009e73;stroke:#ffffff;stroke-width:0.48;"/>
   </g>
   <g id="PathCollection_2"/>
   <g id="PathCollection_3"/>
   <g id="PathCollection_4"/>
   <g id="PathCollection_5"/>
   <g id="PathCollection_6"/>
   <g id="PathCollection_7"/>
   <g id="patch_3">
    <path d="M 63 441 
L 63 60.48 
" style="fill:none;stroke:#262626;stroke-linecap:square;stroke-linejoin:miter;stroke-width:1.25;"/>
   </g>
   <g id="patch_4">
    <path d="M 453.6 441 
L 453.6 60.48 
" style="fill:none;stroke:#262626;stroke-linecap:square;stroke-linejoin:miter;stroke-width:1.25;"/>
   </g>
   <g id="patch_5">
    <path d="M 63 441 
L 453.6 441 
" style="fill:none;stroke:#262626;stroke-linecap:square;stroke-linejoin:miter;stroke-width:1.25;"/>
   </g>
   <g id="patch_6">
    <path d="M 63 60.48 
L 453.6 60.48 
" style="fill:none;stroke:#262626;stroke-linecap:square;stroke-linejoin:miter;stroke-width:1.25;"/>
   </g>
   <g id="legend_1">
    <g id="patch_7">
     <path d="M 87.058687 281.782688 
L 444.36 281.782688 
Q 447 281.782688 447 279.142688 
L 447 222.337313 
Q 447 219.697313 444.36 219.697313 
L 87.058687 219.697313 
Q 84.418687 219.697313 84.418687 222.337313 
L 84.418687 279.142688 
Q 84.418687 281.782688 87.058687 281.782688 
z
" style="fill:#ffffff;opacity:0.8;stroke:#cccccc;stroke-linejoin:miter;"/>
    </g>
    <g id="text_18">
     <text style="fill:#262626;font-family:DejaVu Sans;font-size:13.2px;font-style:normal;font-weight:normal;text-anchor:start;" transform="rotate(-0, 126.658687, 235.00725)" x="126.658687" y="235.00725">Temperature</text>
    </g>
    <g id="PathCollection_8">
     <defs>
      <path d="M 0 3 
C 0.795609 3 1.55874 2.683901 2.12132 2.12132 
C 2.683901 1.55874 3 0.795609 3 0 
C 3 -0.795609 2.683901 -1.55874 2.12132 -2.12132 
C 1.55874 -2.683901 0.795609 -3 0 -3 
C -0.795609 -3 -1.55874 -2.683901 -2.12132 -2.12132 
C -2.683901 -1.55874 -3 -0.795609 -3 0 
C -3 0.795609 -2.683901 1.55874 -2.12132 2.12132 
C -1.55874 2.683901 -0.795609 3 0 3 
z
" id="mdd9089cc13" style="stroke:#0072b2;"/>
     </defs>
     <g>
      <use style="fill:#0072b2;stroke:#0072b2;" x="102.898687" xlink:href="#mdd9089cc13" y="250.917375"/>
     </g>
    </g>
    <g id="text_19">
     <text style="fill:#262626;font-family:DejaVu Sans;font-size:13.2px;font-style:normal;font-weight:normal;text-anchor:start;" transform="rotate(-0, 126.658687, 254.382375)" x="126.658687" y="254.382375">20</text>
    </g>
    <g id="PathCollection_9">
     <defs>
      <path d="M 0 3 
C 0.795609 3 1.55874 2.683901 2.12132 2.12132 
C 2.683901 1.55874 3 0.795609 3 0 
C 3 -0.795609 2.683901 -1.55874 2.12132 -2.12132 
C 1.55874 -2.683901 0.795609 -3 0 -3 
C -0.795609 -3 -1.55874 -2.683901 -2.12132 -2.12132 
C -2.683901 -1.55874 -3 -0.795609 -3 0 
C -3 0.795609 -2.683901 1.55874 -2.12132 2.12132 
C -1.55874 2.683901 -0.795609 3 0 3 
z
" id="m284e3c1eee" style="stroke:#d55e00;"/>
     </defs>
     <g>
      <use style="fill:#d55e00;stroke:#d55e00;" x="102.898687" xlink:href="#m284e3c1eee" y="270.2925"/>
     </g>
    </g>
    <g id="text_20">
     <text style="fill:#262626;font-family:DejaVu Sans;font-size:13.2px;font-style:normal;font-weight:normal;text-anchor:start;" transform="rotate(-0, 126.658687, 273.7575)" x="126.658687" y="273.7575">28</text>
    </g>
    <g id="PathCollection_10">
     <defs>
      <path d="M 0 3 
C 0.795609 3 1.55874 2.683901 2.12132 2.12132 
C 2.683901 1.55874 3 0.795609 3 0 
C 3 -0.795609 2.683901 -1.55874 2.12132 -2.12132 
C 1.55874 -2.683901 0.795609 -3 0 -3 
C -0.795609 -3 -1.55874 -2.683901 -2.12132 -2.12132 
C -2.683901 -1.55874 -3 -0.795609 -3 0 
C -3 0.795609 -2.683901 1.55874 -2.12132 2.12132 
C -1.55874 2.683901 -0.795609 3 0 3 
z
" id="m0d39cdda7a" style="stroke:#009e73;"/>
     </defs>
     <g>
      <use style="fill:#009e73;stroke:#009e73;" x="252.368062" xlink:href="#m0d39cdda7a" y="231.54225"/>
     </g>
    </g>
    <g id="text_21">
     <text style="fill:#262626;font-family:DejaVu Sans;font-size:13.2px;font-style:normal;font-weight:normal;text-anchor:start;" transform="rotate(-0, 276.128062, 235.00725)" x="276.128062" y="235.00725">12</text>
    </g>
    <g id="PathCollection_11">
     <defs>
      <path d="M 0 3 
C 0.795609 3 1.55874 2.683901 2.12132 2.12132 
C 2.683901 1.55874 3 0.795609 3 0 
C 3 -0.795609 2.683901 -1.55874 2.12132 -2.12132 
C 1.55874 -2.683901 0.795609 -3 0 -3 
C -0.795609 -3 -1.55874 -2.683901 -2.12132 -2.12132 
C -2.683901 -1.55874 -3 -0.795609 -3 0 
C -3 0.795609 -2.683901 1.55874 -2.12132 2.12132 
C -1.55874 2.683901 -0.795609 3 0 3 
z
" id="m245723ae46" style="stroke:#f0e442;"/>
     </defs>
     <g>
      <use style="fill:#f0e442;stroke:#f0e442;" x="252.368062" xlink:href="#m245723ae46" y="250.917375"/>
     </g>
    </g>
    <g id="text_22">
     <text style="fill:#262626;font-family:DejaVu Sans;font-size:13.2px;font-style:normal;font-weight:normal;text-anchor:start;" transform="rotate(-0, 276.128062, 254.382375)" x="276.128062" y="254.382375">4</text>
    </g>
    <g id="text_23">
     <text style="fill:#262626;font-family:DejaVu Sans;font-size:13.2px;font-style:normal;font-weight:normal;text-anchor:start;" transform="rotate(-0, 276.128062, 273.7575)" x="276.128062" y="273.7575">Genotype</text>
    </g>
    <g id="PathCollection_12">
     <defs>
      <path d="M 0 3 
C 0.795609 3 1.55874 2.683901 2.12132 2.12132 
C 2.683901 1.55874 3 0.795609 3 0 
C 3 -0.795609 2.683901 -1.55874 2.12132 -2.12132 
C 1.55874 -2.683901 0.795609 -3 0 -3 
C -0.795609 -3 -1.55874 -2.683901 -2.12132 -2.12132 
C -2.683901 -1.55874 -3 -0.795609 -3 0 
C -3 0.795609 -2.683901 1.55874 -2.12132 2.12132 
C -1.55874 2.683901 -0.795609 3 0 3 
z
" id="mae014d2215" style="stroke:#333333;"/>
     </defs>
     <g>
      <use style="fill:#333333;stroke:#333333;" x="380.01" xlink:href="#mae014d2215" y="231.54225"/>
     </g>
    </g>
    <g id="text_24">
     <text style="fill:#262626;font-family:DejaVu Sans;font-size:13.2px;font-style:normal;font-weight:normal;text-anchor:start;" transform="rotate(-0, 403.77, 235.00725)" x="403.77" y="235.00725">fio1-3</text>
    </g>
    <g id="PathCollection_13">
     <defs>
      <path d="M -1.5 3 
L 0 1.5 
L 1.5 3 
L 3 1.5 
L 1.5 0 
L 3 -1.5 
L 1.5 -3 
L 0 -1.5 
L -1.5 -3 
L -3 -1.5 
L -1.5 0 
L -3 1.5 
z
" id="m28ad4b96c4" style="stroke:#333333;"/>
     </defs>
     <g>
      <use style="fill:#333333;stroke:#333333;" x="380.01" xlink:href="#m28ad4b96c4" y="250.917375"/>
     </g>
    </g>
    <g id="text_25">
     <text style="fill:#262626;font-family:DejaVu Sans;font-size:13.2px;font-style:normal;font-weight:normal;text-anchor:start;" transform="rotate(-0, 403.77, 254.382375)" x="403.77" y="254.382375">Col-0</text>
    </g>
   </g>
  </g>
 </g>
 <defs>
  <clipPath id="p77b21dd99b">
   <rect height="380.52" width="390.6" x="63" y="60.48"/>
  </clipPath>
 </defs>
</svg>
