<?xml version="1.0" encoding="utf-8" standalone="no"?>
<!DOCTYPE svg PUBLIC "-//W3C//DTD SVG 1.1//EN"
  "http://www.w3.org/Graphics/SVG/1.1/DTD/svg11.dtd">
<!-- Created with matplotlib (https://matplotlib.org/) -->
<svg height="288pt" version="1.1" viewBox="0 0 612 288" width="612pt" xmlns="http://www.w3.org/2000/svg" xmlns:xlink="http://www.w3.org/1999/xlink">
 <metadata>
  <rdf:RDF xmlns:cc="http://creativecommons.org/ns#" xmlns:dc="http://purl.org/dc/elements/1.1/" xmlns:rdf="http://www.w3.org/1999/02/22-rdf-syntax-ns#">
   <cc:Work>
    <dc:type rdf:resource="http://purl.org/dc/dcmitype/StillImage"/>
    <dc:date>2022-03-08T10:33:50.734509</dc:date>
    <dc:format>image/svg+xml</dc:format>
    <dc:creator>
     <cc:Agent>
      <dc:title>Matplotlib v3.3.4, https://matplotlib.org/</dc:title>
     </cc:Agent>
    </dc:creator>
   </cc:Work>
  </rdf:RDF>
 </metadata>
 <defs>
  <style type="text/css">*{stroke-linecap:butt;stroke-linejoin:round;}</style>
 </defs>
 <g id="figure_1">
  <g id="patch_1">
   <path d="M 0 288 
L 612 288 
L 612 0 
L 0 0 
z
" style="fill:#ffffff;"/>
  </g>
  <g id="axes_1">
   <g id="patch_2">
    <path d="M 76.5 252 
L 292.090909 252 
L 292.090909 34.56 
L 76.5 34.56 
z
" style="fill:#ffffff;"/>
   </g>
   <g id="matplotlib.axis_1">
    <g id="xtick_1">
     <g id="line2d_1">
      <defs>
       <path d="M 0 0 
L 0 6 
" id="m210e5faa7a" style="stroke:#262626;stroke-width:1.25;"/>
      </defs>
      <g>
       <use style="fill:#262626;stroke:#262626;stroke-width:1.25;" x="85.583168" xlink:href="#m210e5faa7a" y="252"/>
      </g>
     </g>
     <g id="text_1">
      <text style="fill:#262626;font-family:DejaVu Sans;font-size:13.2px;font-stretch:normal;font-style:normal;font-weight:normal;text-anchor:middle;" transform="rotate(-0, 85.583168, 271.529938)" x="85.583168" y="271.529938">−5</text>
     </g>
    </g>
    <g id="xtick_2">
     <g id="line2d_2">
      <g>
       <use style="fill:#262626;stroke:#262626;stroke-width:1.25;" x="132.082469" xlink:href="#m210e5faa7a" y="252"/>
      </g>
     </g>
     <g id="text_2">
      <text style="fill:#262626;font-family:DejaVu Sans;font-size:13.2px;font-stretch:normal;font-style:normal;font-weight:normal;text-anchor:middle;" transform="rotate(-0, 132.082469, 271.529938)" x="132.082469" y="271.529938">−4</text>
     </g>
    </g>
    <g id="xtick_3">
     <g id="line2d_3">
      <g>
       <use style="fill:#262626;stroke:#262626;stroke-width:1.25;" x="178.581771" xlink:href="#m210e5faa7a" y="252"/>
      </g>
     </g>
     <g id="text_3">
      <text style="fill:#262626;font-family:DejaVu Sans;font-size:13.2px;font-stretch:normal;font-style:normal;font-weight:normal;text-anchor:middle;" transform="rotate(-0, 178.581771, 271.529938)" x="178.581771" y="271.529938">−3</text>
     </g>
    </g>
    <g id="xtick_4">
     <g id="line2d_4">
      <g>
       <use style="fill:#262626;stroke:#262626;stroke-width:1.25;" x="225.081072" xlink:href="#m210e5faa7a" y="252"/>
      </g>
     </g>
     <g id="text_4">
      <text style="fill:#262626;font-family:DejaVu Sans;font-size:13.2px;font-stretch:normal;font-style:normal;font-weight:normal;text-anchor:middle;" transform="rotate(-0, 225.081072, 271.529938)" x="225.081072" y="271.529938">−2</text>
     </g>
    </g>
    <g id="xtick_5">
     <g id="line2d_5">
      <g>
       <use style="fill:#262626;stroke:#262626;stroke-width:1.25;" x="271.580374" xlink:href="#m210e5faa7a" y="252"/>
      </g>
     </g>
     <g id="text_5">
      <text style="fill:#262626;font-family:DejaVu Sans;font-size:13.2px;font-stretch:normal;font-style:normal;font-weight:normal;text-anchor:middle;" transform="rotate(-0, 271.580374, 271.529938)" x="271.580374" y="271.529938">−1</text>
     </g>
    </g>
    <g id="text_6">
     <text style="fill:#262626;font-family:DejaVu Sans;font-size:14.4px;font-stretch:normal;font-style:normal;font-weight:normal;text-anchor:middle;" transform="rotate(-0, 184.295455, 289.216875)" x="184.295455" y="289.216875">U5 PSSM log-likelihood</text>
    </g>
   </g>
   <g id="matplotlib.axis_2">
    <g id="ytick_1">
     <g id="line2d_6">
      <defs>
       <path d="M 0 0 
L -6 0 
" id="mb3f1519ead" style="stroke:#262626;stroke-width:1.25;"/>
      </defs>
      <g>
       <use style="fill:#262626;stroke:#262626;stroke-width:1.25;" x="76.5" xlink:href="#mb3f1519ead" y="242.216681"/>
      </g>
     </g>
     <g id="text_7">
      <text style="fill:#262626;font-family:DejaVu Sans;font-size:13.2px;font-stretch:normal;font-style:normal;font-weight:normal;text-anchor:end;" transform="rotate(-0, 67, 247.23165)" x="67" y="247.23165">0.0</text>
     </g>
    </g>
    <g id="ytick_2">
     <g id="line2d_7">
      <g>
       <use style="fill:#262626;stroke:#262626;stroke-width:1.25;" x="76.5" xlink:href="#mb3f1519ead" y="202.662072"/>
      </g>
     </g>
     <g id="text_8">
      <text style="fill:#262626;font-family:DejaVu Sans;font-size:13.2px;font-stretch:normal;font-style:normal;font-weight:normal;text-anchor:end;" transform="rotate(-0, 67, 207.677041)" x="67" y="207.677041">0.2</text>
     </g>
    </g>
    <g id="ytick_3">
     <g id="line2d_8">
      <g>
       <use style="fill:#262626;stroke:#262626;stroke-width:1.25;" x="76.5" xlink:href="#mb3f1519ead" y="163.107463"/>
      </g>
     </g>
     <g id="text_9">
      <text style="fill:#262626;font-family:DejaVu Sans;font-size:13.2px;font-stretch:normal;font-style:normal;font-weight:normal;text-anchor:end;" transform="rotate(-0, 67, 168.122432)" x="67" y="168.122432">0.4</text>
     </g>
    </g>
    <g id="ytick_4">
     <g id="line2d_9">
      <g>
       <use style="fill:#262626;stroke:#262626;stroke-width:1.25;" x="76.5" xlink:href="#mb3f1519ead" y="123.552854"/>
      </g>
     </g>
     <g id="text_10">
      <text style="fill:#262626;font-family:DejaVu Sans;font-size:13.2px;font-stretch:normal;font-style:normal;font-weight:normal;text-anchor:end;" transform="rotate(-0, 67, 128.567823)" x="67" y="128.567823">0.6</text>
     </g>
    </g>
    <g id="ytick_5">
     <g id="line2d_10">
      <g>
       <use style="fill:#262626;stroke:#262626;stroke-width:1.25;" x="76.5" xlink:href="#mb3f1519ead" y="83.998245"/>
      </g>
     </g>
     <g id="text_11">
      <text style="fill:#262626;font-family:DejaVu Sans;font-size:13.2px;font-stretch:normal;font-style:normal;font-weight:normal;text-anchor:end;" transform="rotate(-0, 67, 89.013214)" x="67" y="89.013214">0.8</text>
     </g>
    </g>
    <g id="ytick_6">
     <g id="line2d_11">
      <g>
       <use style="fill:#262626;stroke:#262626;stroke-width:1.25;" x="76.5" xlink:href="#mb3f1519ead" y="44.443636"/>
      </g>
     </g>
     <g id="text_12">
      <text style="fill:#262626;font-family:DejaVu Sans;font-size:13.2px;font-stretch:normal;font-style:normal;font-weight:normal;text-anchor:end;" transform="rotate(-0, 67, 49.458605)" x="67" y="49.458605">1.0</text>
     </g>
    </g>
   </g>
   <g id="line2d_12">
    <path clip-path="url(#p802d7d04d8)" d="M 86.299587 240.005121 
L 91.688126 240.005121 
L 91.688126 238.487863 
L 93.684713 238.487863 
L 93.684713 230.935597 
L 99.073252 230.935597 
L 99.073252 227.720328 
L 106.354677 227.720328 
L 106.354677 219.813999 
L 106.927234 219.813999 
L 106.927234 218.467925 
L 111.743216 218.467925 
L 111.743216 213.540823 
L 114.31236 213.540823 
L 114.31236 209.655707 
L 126.982324 209.655707 
L 126.982324 207.509005 
L 167.39373 207.509005 
L 167.39373 204.234194 
L 174.778856 204.234194 
L 174.778856 196.159872 
L 187.44882 196.159872 
L 187.44882 183.004277 
L 201.197179 183.004277 
L 201.197179 170.886414 
L 206.585718 170.886414 
L 206.585718 149.006852 
L 221.824826 149.006852 
L 221.824826 119.583529 
L 282.291322 119.583529 
L 282.291322 44.443636 
" style="fill:none;stroke:#0072b2;stroke-linecap:round;stroke-opacity:0.8;stroke-width:3;"/>
   </g>
   <g id="line2d_13">
    <path clip-path="url(#p802d7d04d8)" d="M 86.299587 240.171876 
L 91.688126 240.171876 
L 91.688126 239.094182 
L 93.684713 239.094182 
L 93.684713 237.319806 
L 99.073252 237.319806 
L 99.073252 235.841997 
L 106.354677 235.841997 
L 106.354677 233.714757 
L 106.927234 233.714757 
L 106.927234 223.123793 
L 111.743216 223.123793 
L 111.743216 220.622577 
L 114.31236 220.622577 
L 114.31236 218.888413 
L 126.982324 218.888413 
L 126.982324 217.523199 
L 167.39373 217.523199 
L 167.39373 214.379588 
L 174.778856 214.379588 
L 174.778856 211.842181 
L 187.44882 211.842181 
L 187.44882 206.339102 
L 201.197179 206.339102 
L 201.197179 199.523086 
L 206.585718 199.523086 
L 206.585718 188.444546 
L 221.824826 188.444546 
L 221.824826 173.152743 
L 282.291322 173.152743 
L 282.291322 44.443636 
" style="fill:none;stroke:#d55e00;stroke-linecap:round;stroke-opacity:0.8;stroke-width:3;"/>
   </g>
   <g id="patch_3">
    <path d="M 76.5 252 
L 76.5 34.56 
" style="fill:none;stroke:#262626;stroke-linecap:square;stroke-linejoin:miter;stroke-width:1.25;"/>
   </g>
   <g id="patch_4">
    <path d="M 292.090909 252 
L 292.090909 34.56 
" style="fill:none;stroke:#262626;stroke-linecap:square;stroke-linejoin:miter;stroke-width:1.25;"/>
   </g>
   <g id="patch_5">
    <path d="M 76.5 252 
L 292.090909 252 
" style="fill:none;stroke:#262626;stroke-linecap:square;stroke-linejoin:miter;stroke-width:1.25;"/>
   </g>
   <g id="patch_6">
    <path d="M 76.5 34.56 
L 292.090909 34.56 
" style="fill:none;stroke:#262626;stroke-linecap:square;stroke-linejoin:miter;stroke-width:1.25;"/>
   </g>
   <g id="legend_1">
    <g id="patch_7">
     <path d="M 85.74 104.40675 
L 184.432688 104.40675 
Q 187.072688 104.40675 187.072688 101.76675 
L 187.072688 43.8 
Q 187.072688 41.16 184.432688 41.16 
L 85.74 41.16 
Q 83.1 41.16 83.1 43.8 
L 83.1 101.76675 
Q 83.1 104.40675 85.74 104.40675 
z
" style="fill:#ffffff;opacity:0.8;stroke:#cccccc;stroke-linejoin:miter;"/>
    </g>
    <g id="text_13">
     <text style="fill:#262626;font-family:DejaVu Sans;font-size:14.4px;font-stretch:normal;font-style:normal;font-weight:normal;text-anchor:start;" transform="rotate(-0, 105.074719, 57.38175)" x="105.074719" y="57.38175">U6 class</text>
    </g>
    <g id="line2d_14">
     <path d="M 88.38 72.386437 
L 114.78 72.386437 
" style="fill:none;stroke:#0072b2;stroke-linecap:round;stroke-opacity:0.8;stroke-width:3;"/>
    </g>
    <g id="line2d_15"/>
    <g id="text_14">
     <text style="fill:#262626;font-family:DejaVu Sans;font-size:13.2px;font-stretch:normal;font-style:normal;font-weight:normal;text-anchor:start;" transform="rotate(-0, 125.34, 77.006437)" x="125.34" y="77.006437">//GURAG</text>
    </g>
    <g id="line2d_16">
     <path d="M 88.38 91.761562 
L 114.78 91.761562 
" style="fill:none;stroke:#d55e00;stroke-linecap:round;stroke-opacity:0.8;stroke-width:3;"/>
    </g>
    <g id="line2d_17"/>
    <g id="text_15">
     <text style="fill:#262626;font-family:DejaVu Sans;font-size:13.2px;font-stretch:normal;font-style:normal;font-weight:normal;text-anchor:start;" transform="rotate(-0, 125.34, 96.381562)" x="125.34" y="96.381562">Other</text>
    </g>
   </g>
  </g>
  <g id="axes_2">
   <g id="patch_8">
    <path d="M 335.209091 252 
L 550.8 252 
L 550.8 34.56 
L 335.209091 34.56 
z
" style="fill:#ffffff;"/>
   </g>
   <g id="matplotlib.axis_3">
    <g id="xtick_6">
     <g id="line2d_18">
      <g>
       <use style="fill:#262626;stroke:#262626;stroke-width:1.25;" x="342.700211" xlink:href="#m210e5faa7a" y="252"/>
      </g>
     </g>
     <g id="text_16">
      <text style="fill:#262626;font-family:DejaVu Sans;font-size:13.2px;font-stretch:normal;font-style:normal;font-weight:normal;text-anchor:middle;" transform="rotate(-0, 342.700211, 271.529938)" x="342.700211" y="271.529938">−8</text>
     </g>
    </g>
    <g id="xtick_7">
     <g id="line2d_19">
      <g>
       <use style="fill:#262626;stroke:#262626;stroke-width:1.25;" x="402.223658" xlink:href="#m210e5faa7a" y="252"/>
      </g>
     </g>
     <g id="text_17">
      <text style="fill:#262626;font-family:DejaVu Sans;font-size:13.2px;font-stretch:normal;font-style:normal;font-weight:normal;text-anchor:middle;" transform="rotate(-0, 402.223658, 271.529938)" x="402.223658" y="271.529938">−6</text>
     </g>
    </g>
    <g id="xtick_8">
     <g id="line2d_20">
      <g>
       <use style="fill:#262626;stroke:#262626;stroke-width:1.25;" x="461.747105" xlink:href="#m210e5faa7a" y="252"/>
      </g>
     </g>
     <g id="text_18">
      <text style="fill:#262626;font-family:DejaVu Sans;font-size:13.2px;font-stretch:normal;font-style:normal;font-weight:normal;text-anchor:middle;" transform="rotate(-0, 461.747105, 271.529938)" x="461.747105" y="271.529938">−4</text>
     </g>
    </g>
    <g id="xtick_9">
     <g id="line2d_21">
      <g>
       <use style="fill:#262626;stroke:#262626;stroke-width:1.25;" x="521.270552" xlink:href="#m210e5faa7a" y="252"/>
      </g>
     </g>
     <g id="text_19">
      <text style="fill:#262626;font-family:DejaVu Sans;font-size:13.2px;font-stretch:normal;font-style:normal;font-weight:normal;text-anchor:middle;" transform="rotate(-0, 521.270552, 271.529938)" x="521.270552" y="271.529938">−2</text>
     </g>
    </g>
    <g id="text_20">
     <text style="fill:#262626;font-family:DejaVu Sans;font-size:14.4px;font-stretch:normal;font-style:normal;font-weight:normal;text-anchor:middle;" transform="rotate(-0, 443.004545, 289.216875)" x="443.004545" y="289.216875">U6 PSSM log-likelihood</text>
    </g>
   </g>
   <g id="matplotlib.axis_4">
    <g id="ytick_7">
     <g id="line2d_22">
      <g>
       <use style="fill:#262626;stroke:#262626;stroke-width:1.25;" x="335.209091" xlink:href="#mb3f1519ead" y="242.216681"/>
      </g>
     </g>
    </g>
    <g id="ytick_8">
     <g id="line2d_23">
      <g>
       <use style="fill:#262626;stroke:#262626;stroke-width:1.25;" x="335.209091" xlink:href="#mb3f1519ead" y="202.662072"/>
      </g>
     </g>
    </g>
    <g id="ytick_9">
     <g id="line2d_24">
      <g>
       <use style="fill:#262626;stroke:#262626;stroke-width:1.25;" x="335.209091" xlink:href="#mb3f1519ead" y="163.107463"/>
      </g>
     </g>
    </g>
    <g id="ytick_10">
     <g id="line2d_25">
      <g>
       <use style="fill:#262626;stroke:#262626;stroke-width:1.25;" x="335.209091" xlink:href="#mb3f1519ead" y="123.552854"/>
      </g>
     </g>
    </g>
    <g id="ytick_11">
     <g id="line2d_26">
      <g>
       <use style="fill:#262626;stroke:#262626;stroke-width:1.25;" x="335.209091" xlink:href="#mb3f1519ead" y="83.998245"/>
      </g>
     </g>
    </g>
    <g id="ytick_12">
     <g id="line2d_27">
      <g>
       <use style="fill:#262626;stroke:#262626;stroke-width:1.25;" x="335.209091" xlink:href="#mb3f1519ead" y="44.443636"/>
      </g>
     </g>
    </g>
   </g>
   <g id="line2d_28">
    <path clip-path="url(#pc483d33201)" d="M 345.008678 242.006665 
L 348.20021 242.006665 
L 348.20021 241.894191 
L 349.101562 241.894191 
L 349.101562 241.730955 
L 352.060091 241.730955 
L 352.060091 241.553785 
L 355.251624 241.553785 
L 355.251624 241.34775 
L 356.152975 241.34775 
L 356.152975 241.23229 
L 357.638641 241.23229 
L 357.638641 241.188495 
L 360.830173 241.188495 
L 360.830173 241.139724 
L 361.207355 241.139724 
L 361.207355 240.950609 
L 361.731525 240.950609 
L 361.731525 240.890889 
L 364.398887 240.890889 
L 364.398887 240.809271 
L 364.690054 240.809271 
L 364.690054 240.539534 
L 365.300239 240.539534 
L 365.300239 240.201118 
L 367.881587 240.201118 
L 367.881587 240.015985 
L 368.258768 240.015985 
L 368.258768 239.683541 
L 368.782938 239.683541 
L 368.782938 239.551161 
L 371.450301 239.551161 
L 371.450301 239.420771 
L 372.351652 239.420771 
L 372.351652 239.237629 
L 399.687936 239.237629 
L 399.687936 238.322912 
L 402.879468 238.322912 
L 402.879468 237.532612 
L 403.78082 237.532612 
L 403.78082 236.454659 
L 405.944866 236.454659 
L 405.944866 236.270521 
L 408.699282 236.270521 
L 408.699282 235.983863 
L 409.136399 235.983863 
L 409.136399 235.787781 
L 410.03775 235.787781 
L 410.03775 235.615587 
L 412.317899 235.615587 
L 412.317899 235.25826 
L 412.99628 235.25826 
L 412.99628 235.036299 
L 415.509431 235.036299 
L 415.509431 234.62821 
L 415.750696 234.62821 
L 415.750696 234.241023 
L 415.886613 234.241023 
L 415.886613 234.038969 
L 416.187812 234.038969 
L 416.187812 233.762264 
L 416.373621 233.762264 
L 416.373621 229.705259 
L 416.410783 229.705259 
L 416.410783 229.333997 
L 417.089164 229.333997 
L 417.089164 229.209579 
L 419.078145 229.209579 
L 419.078145 229.101087 
L 419.565153 229.101087 
L 419.565153 225.022184 
L 419.979497 225.022184 
L 419.979497 224.779321 
L 420.466505 224.779321 
L 420.466505 221.468821 
L 421.329245 221.468821 
L 421.329245 220.957216 
L 424.897959 220.957216 
L 424.897959 219.498048 
L 428.380658 219.498048 
L 428.380658 217.392904 
L 429.003583 217.392904 
L 429.003583 215.9626 
L 431.949373 215.9626 
L 431.949373 213.463302 
L 432.195116 213.463302 
L 432.195116 211.241703 
L 432.572298 211.241703 
L 432.572298 207.115024 
L 433.096468 207.115024 
L 433.096468 205.583196 
L 435.76383 205.583196 
L 435.76383 203.104799 
L 436.665182 203.104799 
L 436.665182 201.27636 
L 460.624124 201.27636 
L 460.624124 199.547455 
L 463.37854 199.547455 
L 463.37854 196.986445 
L 463.815657 196.986445 
L 463.815657 194.640429 
L 464.717008 194.640429 
L 464.717008 192.713451 
L 469.63547 192.713451 
L 469.63547 187.268942 
L 476.008503 187.268942 
L 476.008503 178.079963 
L 476.686884 178.079963 
L 476.686884 175.495066 
L 477.309809 175.495066 
L 477.309809 166.032369 
L 479.577217 166.032369 
L 479.577217 162.556642 
L 480.064225 162.556642 
L 480.064225 159.626362 
L 480.501342 159.626362 
L 480.501342 146.877053 
L 481.402693 146.877053 
L 481.402693 140.140592 
L 492.694188 140.140592 
L 492.694188 126.277498 
L 496.262902 126.277498 
L 496.262902 114.784308 
L 524.314728 114.784308 
L 524.314728 79.74038 
L 541.000413 79.74038 
L 541.000413 44.443636 
" style="fill:none;stroke:#0072b2;stroke-linecap:round;stroke-opacity:0.8;stroke-width:3;"/>
   </g>
   <g id="line2d_29">
    <path clip-path="url(#pc483d33201)" d="M 345.008678 242.116364 
L 348.20021 242.116364 
L 348.20021 242.045928 
L 349.101562 242.045928 
L 349.101562 241.934938 
L 352.060091 241.934938 
L 352.060091 241.870906 
L 355.251624 241.870906 
L 355.251624 241.779126 
L 356.152975 241.779126 
L 356.152975 241.680942 
L 357.638641 241.680942 
L 357.638641 241.642523 
L 360.830173 241.642523 
L 360.830173 241.621179 
L 361.207355 241.621179 
L 361.207355 241.591297 
L 361.731525 241.591297 
L 361.731525 241.546474 
L 364.398887 241.546474 
L 364.398887 241.52513 
L 364.690054 241.52513 
L 364.690054 241.407737 
L 365.300239 241.407737 
L 365.300239 240.987256 
L 367.881587 240.987256 
L 367.881587 240.880536 
L 368.258768 240.880536 
L 368.258768 240.741798 
L 368.782938 240.741798 
L 368.782938 240.658556 
L 371.450301 240.658556 
L 371.450301 240.611599 
L 372.351652 240.611599 
L 372.351652 240.334125 
L 399.687936 240.334125 
L 399.687936 240.16764 
L 402.879468 240.16764 
L 402.879468 239.979811 
L 403.78082 239.979811 
L 403.78082 239.779176 
L 405.944866 239.779176 
L 405.944866 239.715143 
L 408.699282 239.715143 
L 408.699282 239.47182 
L 409.136399 239.47182 
L 409.136399 239.41419 
L 410.03775 239.41419 
L 410.03775 239.320276 
L 412.317899 239.320276 
L 412.317899 239.190076 
L 412.99628 239.190076 
L 412.99628 239.136716 
L 415.509431 239.136716 
L 415.509431 239.004382 
L 415.750696 239.004382 
L 415.750696 238.729042 
L 415.886613 238.729042 
L 415.886613 238.679951 
L 416.187812 238.679951 
L 416.187812 238.517735 
L 416.373621 238.517735 
L 416.373621 237.313923 
L 416.410783 237.313923 
L 416.410783 237.162379 
L 417.089164 237.162379 
L 417.089164 237.089809 
L 419.078145 237.089809 
L 419.078145 237.023642 
L 419.565153 237.023642 
L 419.565153 235.851847 
L 419.979497 235.851847 
L 419.979497 235.762201 
L 420.466505 235.762201 
L 420.466505 235.004483 
L 421.329245 235.004483 
L 421.329245 234.761159 
L 424.897959 234.761159 
L 424.897959 234.199807 
L 428.380658 234.199807 
L 428.380658 233.407938 
L 429.003583 233.407938 
L 429.003583 232.865796 
L 431.949373 232.865796 
L 431.949373 231.962937 
L 432.195116 231.962937 
L 432.195116 231.43787 
L 432.572298 231.43787 
L 432.572298 230.304494 
L 433.096468 230.304494 
L 433.096468 229.905358 
L 435.76383 229.905358 
L 435.76383 229.107085 
L 436.665182 229.107085 
L 436.665182 228.347233 
L 460.624124 228.347233 
L 460.624124 227.909677 
L 463.37854 227.909677 
L 463.37854 225.487112 
L 463.815657 225.487112 
L 463.815657 224.76141 
L 464.717008 224.76141 
L 464.717008 224.351602 
L 469.63547 224.351602 
L 469.63547 221.228948 
L 476.008503 221.228948 
L 476.008503 216.460658 
L 476.686884 216.460658 
L 476.686884 214.676285 
L 477.309809 214.676285 
L 477.309809 209.611311 
L 479.577217 209.611311 
L 479.577217 207.826937 
L 480.064225 207.826937 
L 480.064225 204.471632 
L 480.501342 204.471632 
L 480.501342 197.886952 
L 481.402693 197.886952 
L 481.402693 195.007622 
L 492.694188 195.007622 
L 492.694188 182.482857 
L 496.262902 182.482857 
L 496.262902 171.757406 
L 524.314728 171.757406 
L 524.314728 105.793215 
L 541.000413 105.793215 
L 541.000413 44.443636 
" style="fill:none;stroke:#d55e00;stroke-linecap:round;stroke-opacity:0.8;stroke-width:3;"/>
   </g>
   <g id="line2d_30">
    <path clip-path="url(#pc483d33201)" d="M 345.008678 241.927302 
L 348.20021 241.927302 
L 348.20021 241.724737 
L 349.101562 241.724737 
L 349.101562 241.325395 
L 352.060091 241.325395 
L 352.060091 241.128617 
L 355.251624 241.128617 
L 355.251624 240.862389 
L 356.152975 240.862389 
L 356.152975 239.930589 
L 357.638641 239.930589 
L 357.638641 239.878501 
L 360.830173 239.878501 
L 360.830173 239.849563 
L 361.207355 239.849563 
L 361.207355 239.369194 
L 361.731525 239.369194 
L 361.731525 239.265018 
L 364.398887 239.265018 
L 364.398887 239.189779 
L 364.690054 239.189779 
L 364.690054 238.87725 
L 365.300239 238.87725 
L 365.300239 234.756496 
L 367.881587 234.756496 
L 367.881587 234.334003 
L 368.258768 234.334003 
L 368.258768 233.442716 
L 368.782938 233.442716 
L 368.782938 233.153337 
L 371.450301 233.153337 
L 371.450301 232.551429 
L 372.351652 232.551429 
L 372.351652 226.115645 
L 399.687936 226.115645 
L 399.687936 225.872567 
L 402.879468 225.872567 
L 402.879468 225.687364 
L 403.78082 225.687364 
L 403.78082 225.438499 
L 405.944866 225.438499 
L 405.944866 225.264871 
L 408.699282 225.264871 
L 408.699282 225.016006 
L 409.136399 225.016006 
L 409.136399 224.836591 
L 410.03775 224.836591 
L 410.03775 224.483549 
L 412.317899 224.483549 
L 412.317899 224.211533 
L 412.99628 224.211533 
L 412.99628 223.956879 
L 415.509431 223.956879 
L 415.509431 223.684863 
L 415.750696 223.684863 
L 415.750696 223.563324 
L 415.886613 223.563324 
L 415.886613 223.407059 
L 416.187812 223.407059 
L 416.187812 222.619949 
L 416.373621 222.619949 
L 416.373621 222.110642 
L 416.410783 222.110642 
L 416.410783 221.94859 
L 417.089164 221.94859 
L 417.089164 221.097817 
L 419.078145 221.097817 
L 419.078145 220.901039 
L 419.565153 220.901039 
L 419.565153 220.119716 
L 419.979497 220.119716 
L 419.979497 219.928726 
L 420.466505 219.928726 
L 420.466505 219.523596 
L 421.329245 219.523596 
L 421.329245 219.402057 
L 424.897959 219.402057 
L 424.897959 219.089528 
L 428.380658 219.089528 
L 428.380658 218.603371 
L 429.003583 218.603371 
L 429.003583 218.366081 
L 431.949373 218.366081 
L 431.949373 217.926225 
L 432.195116 217.926225 
L 432.195116 217.590546 
L 432.572298 217.590546 
L 432.572298 216.843948 
L 433.096468 216.843948 
L 433.096468 216.537207 
L 435.76383 216.537207 
L 435.76383 215.9816 
L 436.665182 215.9816 
L 436.665182 214.413166 
L 460.624124 214.413166 
L 460.624124 214.083275 
L 463.37854 214.083275 
L 463.37854 212.885246 
L 463.815657 212.885246 
L 463.815657 212.312276 
L 464.717008 212.312276 
L 464.717008 212.01711 
L 469.63547 212.01711 
L 469.63547 210.720693 
L 476.008503 210.720693 
L 476.008503 208.752917 
L 476.686884 208.752917 
L 476.686884 207.282873 
L 477.309809 207.282873 
L 477.309809 204.6148 
L 479.577217 204.6148 
L 479.577217 203.439923 
L 480.064225 203.439923 
L 480.064225 200.146792 
L 480.501342 200.146792 
L 480.501342 196.506407 
L 481.402693 196.506407 
L 481.402693 195.40098 
L 492.694188 195.40098 
L 492.694188 187.894494 
L 496.262902 187.894494 
L 496.262902 177.829899 
L 524.314728 177.829899 
L 524.314728 130.186574 
L 541.000413 130.186574 
L 541.000413 44.443636 
" style="fill:none;stroke:#009e73;stroke-linecap:round;stroke-opacity:0.8;stroke-width:3;"/>
   </g>
   <g id="line2d_31">
    <path clip-path="url(#pc483d33201)" d="M 345.008678 241.850217 
L 348.20021 241.850217 
L 348.20021 241.501039 
L 349.101562 241.501039 
L 349.101562 239.530431 
L 352.060091 239.530431 
L 352.060091 239.03605 
L 355.251624 239.03605 
L 355.251624 238.572784 
L 356.152975 238.572784 
L 356.152975 235.620328 
L 357.638641 235.620328 
L 357.638641 235.177806 
L 360.830173 235.177806 
L 360.830173 234.966916 
L 361.207355 234.966916 
L 361.207355 234.289303 
L 361.731525 234.289303 
L 361.731525 233.425001 
L 364.398887 233.425001 
L 364.398887 232.647129 
L 364.690054 232.647129 
L 364.690054 231.713683 
L 365.300239 231.713683 
L 365.300239 221.124255 
L 367.881587 221.124255 
L 367.881587 219.934975 
L 368.258768 219.934975 
L 368.258768 217.404299 
L 368.782938 217.404299 
L 368.782938 216.477767 
L 371.450301 216.477767 
L 371.450301 214.019692 
L 372.351652 214.019692 
L 372.351652 201.369768 
L 399.687936 201.369768 
L 399.687936 201.10702 
L 402.879468 201.10702 
L 402.879468 200.813157 
L 403.78082 200.813157 
L 403.78082 200.398292 
L 405.944866 200.398292 
L 405.944866 200.152831 
L 408.699282 200.152831 
L 408.699282 199.900454 
L 409.136399 199.900454 
L 409.136399 199.686108 
L 410.03775 199.686108 
L 410.03775 197.646355 
L 412.317899 197.646355 
L 412.317899 197.193461 
L 412.99628 197.193461 
L 412.99628 196.629936 
L 415.509431 196.629936 
L 415.509431 196.304958 
L 415.750696 196.304958 
L 415.750696 195.872807 
L 415.886613 195.872807 
L 415.886613 195.648089 
L 416.187812 195.648089 
L 416.187812 194.216804 
L 416.373621 194.216804 
L 416.373621 193.846883 
L 416.410783 193.846883 
L 416.410783 193.487334 
L 417.089164 193.487334 
L 417.089164 189.311026 
L 419.078145 189.311026 
L 419.078145 188.992963 
L 419.565153 188.992963 
L 419.565153 188.571184 
L 419.979497 188.571184 
L 419.979497 187.260902 
L 420.466505 187.260902 
L 420.466505 186.424257 
L 421.329245 186.424257 
L 421.329245 185.760473 
L 424.897959 185.760473 
L 424.897959 185.09669 
L 428.380658 185.09669 
L 428.380658 184.090642 
L 429.003583 184.090642 
L 429.003583 183.572061 
L 431.949373 183.572061 
L 431.949373 182.534898 
L 432.195116 182.534898 
L 432.195116 182.279065 
L 432.572298 182.279065 
L 432.572298 181.798513 
L 433.096468 181.798513 
L 433.096468 181.515022 
L 435.76383 181.515022 
L 435.76383 181.248817 
L 436.665182 181.248817 
L 436.665182 178.282532 
L 460.624124 178.282532 
L 460.624124 178.037071 
L 463.37854 178.037071 
L 463.37854 176.868534 
L 463.815657 176.868534 
L 463.815657 176.467498 
L 464.717008 176.467498 
L 464.717008 175.910888 
L 469.63547 175.910888 
L 469.63547 175.081158 
L 476.008503 175.081158 
L 476.008503 173.81582 
L 476.686884 173.81582 
L 476.686884 172.785572 
L 477.309809 172.785572 
L 477.309809 171.907441 
L 479.577217 171.907441 
L 479.577217 170.980909 
L 480.064225 170.980909 
L 480.064225 168.75101 
L 480.501342 168.75101 
L 480.501342 167.520244 
L 481.402693 167.520244 
L 481.402693 166.638656 
L 492.694188 166.638656 
L 492.694188 162.555693 
L 496.262902 162.555693 
L 496.262902 157.297279 
L 524.314728 157.297279 
L 524.314728 110.493597 
L 541.000413 110.493597 
L 541.000413 44.443636 
" style="fill:none;stroke:#f0e442;stroke-linecap:round;stroke-opacity:0.8;stroke-width:3;"/>
   </g>
   <g id="patch_9">
    <path d="M 335.209091 252 
L 335.209091 34.56 
" style="fill:none;stroke:#262626;stroke-linecap:square;stroke-linejoin:miter;stroke-width:1.25;"/>
   </g>
   <g id="patch_10">
    <path d="M 550.8 252 
L 550.8 34.56 
" style="fill:none;stroke:#262626;stroke-linecap:square;stroke-linejoin:miter;stroke-width:1.25;"/>
   </g>
   <g id="patch_11">
    <path d="M 335.209091 252 
L 550.8 252 
" style="fill:none;stroke:#262626;stroke-linecap:square;stroke-linejoin:miter;stroke-width:1.25;"/>
   </g>
   <g id="patch_12">
    <path d="M 335.209091 34.56 
L 550.8 34.56 
" style="fill:none;stroke:#262626;stroke-linecap:square;stroke-linejoin:miter;stroke-width:1.25;"/>
   </g>
   <g id="legend_2">
    <g id="patch_13">
     <path d="M 344.449091 143.157 
L 434.524653 143.157 
Q 437.164653 143.157 437.164653 140.517 
L 437.164653 43.8 
Q 437.164653 41.16 434.524653 41.16 
L 344.449091 41.16 
Q 341.809091 41.16 341.809091 43.8 
L 341.809091 140.517 
Q 341.809091 143.157 344.449091 143.157 
z
" style="fill:#ffffff;opacity:0.8;stroke:#cccccc;stroke-linejoin:miter;"/>
    </g>
    <g id="text_21">
     <text style="fill:#262626;font-family:DejaVu Sans;font-size:14.4px;font-stretch:normal;font-style:normal;font-weight:normal;text-anchor:start;" transform="rotate(-0, 359.475247, 57.38175)" x="359.475247" y="57.38175">U5 class</text>
    </g>
    <g id="line2d_32">
     <path d="M 347.089091 72.386437 
L 373.489091 72.386437 
" style="fill:none;stroke:#0072b2;stroke-linecap:round;stroke-opacity:0.8;stroke-width:3;"/>
    </g>
    <g id="line2d_33"/>
    <g id="text_22">
     <text style="fill:#262626;font-family:DejaVu Sans;font-size:13.2px;font-stretch:normal;font-style:normal;font-weight:normal;text-anchor:start;" transform="rotate(-0, 384.049091, 77.006438)" x="384.049091" y="77.006438">AG//GU</text>
    </g>
    <g id="line2d_34">
     <path d="M 347.089091 91.761562 
L 373.489091 91.761562 
" style="fill:none;stroke:#d55e00;stroke-linecap:round;stroke-opacity:0.8;stroke-width:3;"/>
    </g>
    <g id="line2d_35"/>
    <g id="text_23">
     <text style="fill:#262626;font-family:DejaVu Sans;font-size:13.2px;font-stretch:normal;font-style:normal;font-weight:normal;text-anchor:start;" transform="rotate(-0, 384.049091, 96.381563)" x="384.049091" y="96.381563">BG//GU</text>
    </g>
    <g id="line2d_36">
     <path d="M 347.089091 111.136687 
L 373.489091 111.136687 
" style="fill:none;stroke:#009e73;stroke-linecap:round;stroke-opacity:0.8;stroke-width:3;"/>
    </g>
    <g id="line2d_37"/>
    <g id="text_24">
     <text style="fill:#262626;font-family:DejaVu Sans;font-size:13.2px;font-stretch:normal;font-style:normal;font-weight:normal;text-anchor:start;" transform="rotate(-0, 384.049091, 115.756687)" x="384.049091" y="115.756687">AH//GU</text>
    </g>
    <g id="line2d_38">
     <path d="M 347.089091 130.511813 
L 373.489091 130.511813 
" style="fill:none;stroke:#f0e442;stroke-linecap:round;stroke-opacity:0.8;stroke-width:3;"/>
    </g>
    <g id="line2d_39"/>
    <g id="text_25">
     <text style="fill:#262626;font-family:DejaVu Sans;font-size:13.2px;font-stretch:normal;font-style:normal;font-weight:normal;text-anchor:start;" transform="rotate(-0, 384.049091, 135.131813)" x="384.049091" y="135.131813">BH//GU</text>
    </g>
   </g>
  </g>
 </g>
 <defs>
  <clipPath id="p802d7d04d8">
   <rect height="217.44" width="215.590909" x="76.5" y="34.56"/>
  </clipPath>
  <clipPath id="pc483d33201">
   <rect height="217.44" width="215.590909" x="335.209091" y="34.56"/>
  </clipPath>
 </defs>
</svg>
