<?xml version="1.0" encoding="utf-8" standalone="no"?>
<!DOCTYPE svg PUBLIC "-//W3C//DTD SVG 1.1//EN"
  "http://www.w3.org/Graphics/SVG/1.1/DTD/svg11.dtd">
<!-- Created with matplotlib (https://matplotlib.org/) -->
<svg height="288pt" version="1.1" viewBox="0 0 612 288" width="612pt" xmlns="http://www.w3.org/2000/svg" xmlns:xlink="http://www.w3.org/1999/xlink">
 <metadata>
  <rdf:RDF xmlns:cc="http://creativecommons.org/ns#" xmlns:dc="http://purl.org/dc/elements/1.1/" xmlns:rdf="http://www.w3.org/1999/02/22-rdf-syntax-ns#">
   <cc:Work>
    <dc:type rdf:resource="http://purl.org/dc/dcmitype/StillImage"/>
    <dc:date>2022-03-04T10:12:33.246852</dc:date>
    <dc:format>image/svg+xml</dc:format>
    <dc:creator>
     <cc:Agent>
      <dc:title>Matplotlib v3.3.4, https://matplotlib.org/</dc:title>
     </cc:Agent>
    </dc:creator>
   </cc:Work>
  </rdf:RDF>
 </metadata>
 <defs>
  <style type="text/css">*{stroke-linecap:butt;stroke-linejoin:round;}</style>
 </defs>
 <g id="figure_1">
  <g id="patch_1">
   <path d="M 0 288 
L 612 288 
L 612 0 
L 0 0 
z
" style="fill:#ffffff;"/>
  </g>
  <g id="axes_1">
   <g id="patch_2">
    <path d="M 76.5 252 
L 292.090909 252 
L 292.090909 34.56 
L 76.5 34.56 
z
" style="fill:#ffffff;"/>
   </g>
   <g id="matplotlib.axis_1">
    <g id="xtick_1">
     <g id="line2d_1">
      <defs>
       <path d="M 0 0 
L 0 6 
" id="m60c51150d4" style="stroke:#262626;stroke-width:1.25;"/>
      </defs>
      <g>
       <use style="fill:#262626;stroke:#262626;stroke-width:1.25;" x="85.583168" xlink:href="#m60c51150d4" y="252"/>
      </g>
     </g>
     <g id="text_1">
      <text style="fill:#262626;font-family:DejaVu Sans;font-size:13.2px;font-stretch:normal;font-style:normal;font-weight:normal;text-anchor:middle;" transform="rotate(-0, 85.583168, 271.529938)" x="85.583168" y="271.529938">−5</text>
     </g>
    </g>
    <g id="xtick_2">
     <g id="line2d_2">
      <g>
       <use style="fill:#262626;stroke:#262626;stroke-width:1.25;" x="132.082469" xlink:href="#m60c51150d4" y="252"/>
      </g>
     </g>
     <g id="text_2">
      <text style="fill:#262626;font-family:DejaVu Sans;font-size:13.2px;font-stretch:normal;font-style:normal;font-weight:normal;text-anchor:middle;" transform="rotate(-0, 132.082469, 271.529938)" x="132.082469" y="271.529938">−4</text>
     </g>
    </g>
    <g id="xtick_3">
     <g id="line2d_3">
      <g>
       <use style="fill:#262626;stroke:#262626;stroke-width:1.25;" x="178.58177" xlink:href="#m60c51150d4" y="252"/>
      </g>
     </g>
     <g id="text_3">
      <text style="fill:#262626;font-family:DejaVu Sans;font-size:13.2px;font-stretch:normal;font-style:normal;font-weight:normal;text-anchor:middle;" transform="rotate(-0, 178.58177, 271.529938)" x="178.58177" y="271.529938">−3</text>
     </g>
    </g>
    <g id="xtick_4">
     <g id="line2d_4">
      <g>
       <use style="fill:#262626;stroke:#262626;stroke-width:1.25;" x="225.081071" xlink:href="#m60c51150d4" y="252"/>
      </g>
     </g>
     <g id="text_4">
      <text style="fill:#262626;font-family:DejaVu Sans;font-size:13.2px;font-stretch:normal;font-style:normal;font-weight:normal;text-anchor:middle;" transform="rotate(-0, 225.081071, 271.529938)" x="225.081071" y="271.529938">−2</text>
     </g>
    </g>
    <g id="xtick_5">
     <g id="line2d_5">
      <g>
       <use style="fill:#262626;stroke:#262626;stroke-width:1.25;" x="271.580372" xlink:href="#m60c51150d4" y="252"/>
      </g>
     </g>
     <g id="text_5">
      <text style="fill:#262626;font-family:DejaVu Sans;font-size:13.2px;font-stretch:normal;font-style:normal;font-weight:normal;text-anchor:middle;" transform="rotate(-0, 271.580372, 271.529938)" x="271.580372" y="271.529938">−1</text>
     </g>
    </g>
    <g id="text_6">
     <text style="fill:#262626;font-family:DejaVu Sans;font-size:14.4px;font-stretch:normal;font-style:normal;font-weight:normal;text-anchor:middle;" transform="rotate(-0, 184.295455, 289.216875)" x="184.295455" y="289.216875">U5 PSSM log-likelihood</text>
    </g>
   </g>
   <g id="matplotlib.axis_2">
    <g id="ytick_1">
     <g id="line2d_6">
      <defs>
       <path d="M 0 0 
L -6 0 
" id="mc9cc121be0" style="stroke:#262626;stroke-width:1.25;"/>
      </defs>
      <g>
       <use style="fill:#262626;stroke:#262626;stroke-width:1.25;" x="76.5" xlink:href="#mc9cc121be0" y="242.216681"/>
      </g>
     </g>
     <g id="text_7">
      <text style="fill:#262626;font-family:DejaVu Sans;font-size:13.2px;font-stretch:normal;font-style:normal;font-weight:normal;text-anchor:end;" transform="rotate(-0, 67, 247.23165)" x="67" y="247.23165">0.0</text>
     </g>
    </g>
    <g id="ytick_2">
     <g id="line2d_7">
      <g>
       <use style="fill:#262626;stroke:#262626;stroke-width:1.25;" x="76.5" xlink:href="#mc9cc121be0" y="202.662072"/>
      </g>
     </g>
     <g id="text_8">
      <text style="fill:#262626;font-family:DejaVu Sans;font-size:13.2px;font-stretch:normal;font-style:normal;font-weight:normal;text-anchor:end;" transform="rotate(-0, 67, 207.677041)" x="67" y="207.677041">0.2</text>
     </g>
    </g>
    <g id="ytick_3">
     <g id="line2d_8">
      <g>
       <use style="fill:#262626;stroke:#262626;stroke-width:1.25;" x="76.5" xlink:href="#mc9cc121be0" y="163.107463"/>
      </g>
     </g>
     <g id="text_9">
      <text style="fill:#262626;font-family:DejaVu Sans;font-size:13.2px;font-stretch:normal;font-style:normal;font-weight:normal;text-anchor:end;" transform="rotate(-0, 67, 168.122432)" x="67" y="168.122432">0.4</text>
     </g>
    </g>
    <g id="ytick_4">
     <g id="line2d_9">
      <g>
       <use style="fill:#262626;stroke:#262626;stroke-width:1.25;" x="76.5" xlink:href="#mc9cc121be0" y="123.552854"/>
      </g>
     </g>
     <g id="text_10">
      <text style="fill:#262626;font-family:DejaVu Sans;font-size:13.2px;font-stretch:normal;font-style:normal;font-weight:normal;text-anchor:end;" transform="rotate(-0, 67, 128.567823)" x="67" y="128.567823">0.6</text>
     </g>
    </g>
    <g id="ytick_5">
     <g id="line2d_10">
      <g>
       <use style="fill:#262626;stroke:#262626;stroke-width:1.25;" x="76.5" xlink:href="#mc9cc121be0" y="83.998245"/>
      </g>
     </g>
     <g id="text_11">
      <text style="fill:#262626;font-family:DejaVu Sans;font-size:13.2px;font-stretch:normal;font-style:normal;font-weight:normal;text-anchor:end;" transform="rotate(-0, 67, 89.013214)" x="67" y="89.013214">0.8</text>
     </g>
    </g>
    <g id="ytick_6">
     <g id="line2d_11">
      <g>
       <use style="fill:#262626;stroke:#262626;stroke-width:1.25;" x="76.5" xlink:href="#mc9cc121be0" y="44.443636"/>
      </g>
     </g>
     <g id="text_12">
      <text style="fill:#262626;font-family:DejaVu Sans;font-size:13.2px;font-stretch:normal;font-style:normal;font-weight:normal;text-anchor:end;" transform="rotate(-0, 67, 49.458605)" x="67" y="49.458605">1.0</text>
     </g>
    </g>
   </g>
   <g id="line2d_12">
    <path clip-path="url(#pf9b7545a94)" d="M 86.299587 240.005121 
L 91.688126 240.005121 
L 91.688126 238.487863 
L 93.684713 238.487863 
L 93.684713 230.935597 
L 99.073252 230.935597 
L 99.073252 227.720328 
L 106.354676 227.720328 
L 106.354676 219.813999 
L 106.927234 219.813999 
L 106.927234 218.467925 
L 111.743216 218.467925 
L 111.743216 213.540823 
L 114.31236 213.540823 
L 114.31236 209.655707 
L 126.982323 209.655707 
L 126.982323 207.509005 
L 167.393731 207.509005 
L 167.393731 204.234194 
L 174.778857 204.234194 
L 174.778857 196.159872 
L 187.448821 196.159872 
L 187.448821 183.004277 
L 201.197178 183.004277 
L 201.197178 170.886414 
L 206.585717 170.886414 
L 206.585717 149.006852 
L 221.824825 149.006852 
L 221.824825 119.583529 
L 282.291322 119.583529 
L 282.291322 44.443636 
" style="fill:none;stroke:#0072b2;stroke-linecap:round;stroke-opacity:0.8;stroke-width:3;"/>
   </g>
   <g id="line2d_13">
    <path clip-path="url(#pf9b7545a94)" d="M 86.299587 240.171876 
L 91.688126 240.171876 
L 91.688126 239.094182 
L 93.684713 239.094182 
L 93.684713 237.319806 
L 99.073252 237.319806 
L 99.073252 235.841997 
L 106.354676 235.841997 
L 106.354676 233.714757 
L 106.927234 233.714757 
L 106.927234 223.123793 
L 111.743216 223.123793 
L 111.743216 220.622577 
L 114.31236 220.622577 
L 114.31236 218.888413 
L 126.982323 218.888413 
L 126.982323 217.523199 
L 167.393731 217.523199 
L 167.393731 214.379588 
L 174.778857 214.379588 
L 174.778857 211.842181 
L 187.448821 211.842181 
L 187.448821 206.339102 
L 201.197178 206.339102 
L 201.197178 199.523086 
L 206.585717 199.523086 
L 206.585717 188.444546 
L 221.824825 188.444546 
L 221.824825 173.152743 
L 282.291322 173.152743 
L 282.291322 44.443636 
" style="fill:none;stroke:#d55e00;stroke-linecap:round;stroke-opacity:0.8;stroke-width:3;"/>
   </g>
   <g id="patch_3">
    <path d="M 76.5 252 
L 76.5 34.56 
" style="fill:none;stroke:#262626;stroke-linecap:square;stroke-linejoin:miter;stroke-width:1.25;"/>
   </g>
   <g id="patch_4">
    <path d="M 292.090909 252 
L 292.090909 34.56 
" style="fill:none;stroke:#262626;stroke-linecap:square;stroke-linejoin:miter;stroke-width:1.25;"/>
   </g>
   <g id="patch_5">
    <path d="M 76.5 252 
L 292.090909 252 
" style="fill:none;stroke:#262626;stroke-linecap:square;stroke-linejoin:miter;stroke-width:1.25;"/>
   </g>
   <g id="patch_6">
    <path d="M 76.5 34.56 
L 292.090909 34.56 
" style="fill:none;stroke:#262626;stroke-linecap:square;stroke-linejoin:miter;stroke-width:1.25;"/>
   </g>
   <g id="legend_1">
    <g id="patch_7">
     <path d="M 85.74 104.40675 
L 184.432688 104.40675 
Q 187.072688 104.40675 187.072688 101.76675 
L 187.072688 43.8 
Q 187.072688 41.16 184.432688 41.16 
L 85.74 41.16 
Q 83.1 41.16 83.1 43.8 
L 83.1 101.76675 
Q 83.1 104.40675 85.74 104.40675 
z
" style="fill:#ffffff;opacity:0.8;stroke:#cccccc;stroke-linejoin:miter;"/>
    </g>
    <g id="text_13">
     <text style="fill:#262626;font-family:DejaVu Sans;font-size:14.4px;font-stretch:normal;font-style:normal;font-weight:normal;text-anchor:start;" transform="rotate(-0, 105.074719, 57.38175)" x="105.074719" y="57.38175">U6 class</text>
    </g>
    <g id="line2d_14">
     <path d="M 88.38 72.386437 
L 114.78 72.386437 
" style="fill:none;stroke:#0072b2;stroke-linecap:round;stroke-opacity:0.8;stroke-width:3;"/>
    </g>
    <g id="line2d_15"/>
    <g id="text_14">
     <text style="fill:#262626;font-family:DejaVu Sans;font-size:13.2px;font-stretch:normal;font-style:normal;font-weight:normal;text-anchor:start;" transform="rotate(-0, 125.34, 77.006437)" x="125.34" y="77.006437">//GURAG</text>
    </g>
    <g id="line2d_16">
     <path d="M 88.38 91.761562 
L 114.78 91.761562 
" style="fill:none;stroke:#d55e00;stroke-linecap:round;stroke-opacity:0.8;stroke-width:3;"/>
    </g>
    <g id="line2d_17"/>
    <g id="text_15">
     <text style="fill:#262626;font-family:DejaVu Sans;font-size:13.2px;font-stretch:normal;font-style:normal;font-weight:normal;text-anchor:start;" transform="rotate(-0, 125.34, 96.381562)" x="125.34" y="96.381562">Other</text>
    </g>
   </g>
  </g>
  <g id="axes_2">
   <g id="patch_8">
    <path d="M 335.209091 252 
L 550.8 252 
L 550.8 34.56 
L 335.209091 34.56 
z
" style="fill:#ffffff;"/>
   </g>
   <g id="matplotlib.axis_3">
    <g id="xtick_6">
     <g id="line2d_18">
      <g>
       <use style="fill:#262626;stroke:#262626;stroke-width:1.25;" x="342.700211" xlink:href="#m60c51150d4" y="252"/>
      </g>
     </g>
     <g id="text_16">
      <text style="fill:#262626;font-family:DejaVu Sans;font-size:13.2px;font-stretch:normal;font-style:normal;font-weight:normal;text-anchor:middle;" transform="rotate(-0, 342.700211, 271.529938)" x="342.700211" y="271.529938">−8</text>
     </g>
    </g>
    <g id="xtick_7">
     <g id="line2d_19">
      <g>
       <use style="fill:#262626;stroke:#262626;stroke-width:1.25;" x="402.223658" xlink:href="#m60c51150d4" y="252"/>
      </g>
     </g>
     <g id="text_17">
      <text style="fill:#262626;font-family:DejaVu Sans;font-size:13.2px;font-stretch:normal;font-style:normal;font-weight:normal;text-anchor:middle;" transform="rotate(-0, 402.223658, 271.529938)" x="402.223658" y="271.529938">−6</text>
     </g>
    </g>
    <g id="xtick_8">
     <g id="line2d_20">
      <g>
       <use style="fill:#262626;stroke:#262626;stroke-width:1.25;" x="461.747104" xlink:href="#m60c51150d4" y="252"/>
      </g>
     </g>
     <g id="text_18">
      <text style="fill:#262626;font-family:DejaVu Sans;font-size:13.2px;font-stretch:normal;font-style:normal;font-weight:normal;text-anchor:middle;" transform="rotate(-0, 461.747104, 271.529938)" x="461.747104" y="271.529938">−4</text>
     </g>
    </g>
    <g id="xtick_9">
     <g id="line2d_21">
      <g>
       <use style="fill:#262626;stroke:#262626;stroke-width:1.25;" x="521.270551" xlink:href="#m60c51150d4" y="252"/>
      </g>
     </g>
     <g id="text_19">
      <text style="fill:#262626;font-family:DejaVu Sans;font-size:13.2px;font-stretch:normal;font-style:normal;font-weight:normal;text-anchor:middle;" transform="rotate(-0, 521.270551, 271.529938)" x="521.270551" y="271.529938">−2</text>
     </g>
    </g>
    <g id="text_20">
     <text style="fill:#262626;font-family:DejaVu Sans;font-size:14.4px;font-stretch:normal;font-style:normal;font-weight:normal;text-anchor:middle;" transform="rotate(-0, 443.004545, 289.216875)" x="443.004545" y="289.216875">U6 PSSM log-likelihood</text>
    </g>
   </g>
   <g id="matplotlib.axis_4">
    <g id="ytick_7">
     <g id="line2d_22">
      <g>
       <use style="fill:#262626;stroke:#262626;stroke-width:1.25;" x="335.209091" xlink:href="#mc9cc121be0" y="242.216681"/>
      </g>
     </g>
    </g>
    <g id="ytick_8">
     <g id="line2d_23">
      <g>
       <use style="fill:#262626;stroke:#262626;stroke-width:1.25;" x="335.209091" xlink:href="#mc9cc121be0" y="202.662072"/>
      </g>
     </g>
    </g>
    <g id="ytick_9">
     <g id="line2d_24">
      <g>
       <use style="fill:#262626;stroke:#262626;stroke-width:1.25;" x="335.209091" xlink:href="#mc9cc121be0" y="163.107463"/>
      </g>
     </g>
    </g>
    <g id="ytick_10">
     <g id="line2d_25">
      <g>
       <use style="fill:#262626;stroke:#262626;stroke-width:1.25;" x="335.209091" xlink:href="#mc9cc121be0" y="123.552854"/>
      </g>
     </g>
    </g>
    <g id="ytick_11">
     <g id="line2d_26">
      <g>
       <use style="fill:#262626;stroke:#262626;stroke-width:1.25;" x="335.209091" xlink:href="#mc9cc121be0" y="83.998245"/>
      </g>
     </g>
    </g>
    <g id="ytick_12">
     <g id="line2d_27">
      <g>
       <use style="fill:#262626;stroke:#262626;stroke-width:1.25;" x="335.209091" xlink:href="#mc9cc121be0" y="44.443636"/>
      </g>
     </g>
    </g>
   </g>
   <g id="line2d_28">
    <path clip-path="url(#pa651243992)" d="M 345.008678 242.006665 
L 348.20021 242.006665 
L 348.20021 241.894191 
L 349.101562 241.894191 
L 349.101562 241.730955 
L 352.060084 241.730955 
L 352.060084 241.553785 
L 355.251617 241.553785 
L 355.251617 241.34775 
L 356.152968 241.34775 
L 356.152968 241.23229 
L 357.63864 241.23229 
L 357.63864 241.188495 
L 360.830173 241.188495 
L 360.830173 241.139724 
L 361.207355 241.139724 
L 361.207355 240.950609 
L 361.731525 240.950609 
L 361.731525 240.890889 
L 364.398887 240.890889 
L 364.398887 240.809271 
L 364.690047 240.809271 
L 364.690047 240.539534 
L 365.300239 240.539534 
L 365.300239 240.201118 
L 367.881579 240.201118 
L 367.881579 240.015985 
L 368.258761 240.015985 
L 368.258761 239.683541 
L 368.782931 239.683541 
L 368.782931 239.551161 
L 371.450294 239.551161 
L 371.450294 239.420771 
L 372.351645 239.420771 
L 372.351645 239.237629 
L 399.687935 239.237629 
L 399.687935 238.322912 
L 402.879468 238.322912 
L 402.879468 237.532612 
L 403.780819 237.532612 
L 403.780819 236.454659 
L 405.944866 236.454659 
L 405.944866 236.270521 
L 408.699283 236.270521 
L 408.699283 235.983863 
L 409.136398 235.983863 
L 409.136398 235.787781 
L 410.03775 235.787781 
L 410.03775 235.615587 
L 412.317898 235.615587 
L 412.317898 235.25826 
L 412.996272 235.25826 
L 412.996272 235.036299 
L 415.509431 235.036299 
L 415.509431 234.62821 
L 415.75069 234.62821 
L 415.75069 234.241023 
L 415.886612 234.241023 
L 415.886612 234.038969 
L 416.187804 234.038969 
L 416.187804 233.762264 
L 416.37362 233.762264 
L 416.37362 229.705259 
L 416.410782 229.705259 
L 416.410782 229.333997 
L 417.089156 229.333997 
L 417.089156 229.209579 
L 419.078145 229.209579 
L 419.078145 229.101087 
L 419.565152 229.101087 
L 419.565152 225.022184 
L 419.979496 225.022184 
L 419.979496 224.779321 
L 420.466504 224.779321 
L 420.466504 221.468821 
L 421.329246 221.468821 
L 421.329246 220.957216 
L 424.89796 220.957216 
L 424.89796 219.498048 
L 428.380652 219.498048 
L 428.380652 217.392904 
L 429.003583 217.392904 
L 429.003583 215.9626 
L 431.949366 215.9626 
L 431.949366 213.463302 
L 432.195115 213.463302 
L 432.195115 211.241703 
L 432.572297 211.241703 
L 432.572297 207.115024 
L 433.096467 207.115024 
L 433.096467 205.583196 
L 435.763829 205.583196 
L 435.763829 203.104799 
L 436.665181 203.104799 
L 436.665181 201.27636 
L 460.624123 201.27636 
L 460.624123 199.547455 
L 463.378541 199.547455 
L 463.378541 196.986445 
L 463.815656 196.986445 
L 463.815656 194.640429 
L 464.717007 194.640429 
L 464.717007 192.713451 
L 469.635471 192.713451 
L 469.635471 187.268942 
L 476.008504 187.268942 
L 476.008504 178.079963 
L 476.686877 178.079963 
L 476.686877 175.495066 
L 477.309808 175.495066 
L 477.309808 166.032369 
L 479.577218 166.032369 
L 479.577218 162.556642 
L 480.064225 162.556642 
L 480.064225 159.626362 
L 480.50134 159.626362 
L 480.50134 146.877053 
L 481.402692 146.877053 
L 481.402692 140.140592 
L 492.694188 140.140592 
L 492.694188 126.277498 
L 496.262902 126.277498 
L 496.262902 114.784308 
L 524.314729 114.784308 
L 524.314729 79.74038 
L 541.000413 79.74038 
L 541.000413 44.443636 
" style="fill:none;stroke:#0072b2;stroke-linecap:round;stroke-opacity:0.8;stroke-width:3;"/>
   </g>
   <g id="line2d_29">
    <path clip-path="url(#pa651243992)" d="M 345.008678 242.116364 
L 348.20021 242.116364 
L 348.20021 242.045928 
L 349.101562 242.045928 
L 349.101562 241.934938 
L 352.060084 241.934938 
L 352.060084 241.870906 
L 355.251617 241.870906 
L 355.251617 241.779126 
L 356.152968 241.779126 
L 356.152968 241.680942 
L 357.63864 241.680942 
L 357.63864 241.642523 
L 360.830173 241.642523 
L 360.830173 241.621179 
L 361.207355 241.621179 
L 361.207355 241.591297 
L 361.731525 241.591297 
L 361.731525 241.546474 
L 364.398887 241.546474 
L 364.398887 241.52513 
L 364.690047 241.52513 
L 364.690047 241.407737 
L 365.300239 241.407737 
L 365.300239 240.987256 
L 367.881579 240.987256 
L 367.881579 240.880536 
L 368.258761 240.880536 
L 368.258761 240.741798 
L 368.782931 240.741798 
L 368.782931 240.658556 
L 371.450294 240.658556 
L 371.450294 240.611599 
L 372.351645 240.611599 
L 372.351645 240.334125 
L 399.687935 240.334125 
L 399.687935 240.16764 
L 402.879468 240.16764 
L 402.879468 239.979811 
L 403.780819 239.979811 
L 403.780819 239.779176 
L 405.944866 239.779176 
L 405.944866 239.715143 
L 408.699283 239.715143 
L 408.699283 239.47182 
L 409.136398 239.47182 
L 409.136398 239.41419 
L 410.03775 239.41419 
L 410.03775 239.320276 
L 412.317898 239.320276 
L 412.317898 239.190076 
L 412.996272 239.190076 
L 412.996272 239.136716 
L 415.509431 239.136716 
L 415.509431 239.004382 
L 415.75069 239.004382 
L 415.75069 238.729042 
L 415.886612 238.729042 
L 415.886612 238.679951 
L 416.187804 238.679951 
L 416.187804 238.517735 
L 416.37362 238.517735 
L 416.37362 237.313923 
L 416.410782 237.313923 
L 416.410782 237.162379 
L 417.089156 237.162379 
L 417.089156 237.089809 
L 419.078145 237.089809 
L 419.078145 237.023642 
L 419.565152 237.023642 
L 419.565152 235.851847 
L 419.979496 235.851847 
L 419.979496 235.762201 
L 420.466504 235.762201 
L 420.466504 235.004483 
L 421.329246 235.004483 
L 421.329246 234.761159 
L 424.89796 234.761159 
L 424.89796 234.199807 
L 428.380652 234.199807 
L 428.380652 233.407938 
L 429.003583 233.407938 
L 429.003583 232.865796 
L 431.949366 232.865796 
L 431.949366 231.962937 
L 432.195115 231.962937 
L 432.195115 231.43787 
L 432.572297 231.43787 
L 432.572297 230.304494 
L 433.096467 230.304494 
L 433.096467 229.905358 
L 435.763829 229.905358 
L 435.763829 229.107085 
L 436.665181 229.107085 
L 436.665181 228.347233 
L 460.624123 228.347233 
L 460.624123 227.909677 
L 463.378541 227.909677 
L 463.378541 225.487112 
L 463.815656 225.487112 
L 463.815656 224.76141 
L 464.717007 224.76141 
L 464.717007 224.351602 
L 469.635471 224.351602 
L 469.635471 221.228948 
L 476.008504 221.228948 
L 476.008504 216.460658 
L 476.686877 216.460658 
L 476.686877 214.676285 
L 477.309808 214.676285 
L 477.309808 209.611311 
L 479.577218 209.611311 
L 479.577218 207.826937 
L 480.064225 207.826937 
L 480.064225 204.471632 
L 480.50134 204.471632 
L 480.50134 197.886952 
L 481.402692 197.886952 
L 481.402692 195.007622 
L 492.694188 195.007622 
L 492.694188 182.482857 
L 496.262902 182.482857 
L 496.262902 171.757406 
L 524.314729 171.757406 
L 524.314729 105.793215 
L 541.000413 105.793215 
L 541.000413 44.443636 
" style="fill:none;stroke:#d55e00;stroke-linecap:round;stroke-opacity:0.8;stroke-width:3;"/>
   </g>
   <g id="line2d_30">
    <path clip-path="url(#pa651243992)" d="M 345.008678 241.927302 
L 348.20021 241.927302 
L 348.20021 241.724737 
L 349.101562 241.724737 
L 349.101562 241.325395 
L 352.060084 241.325395 
L 352.060084 241.128617 
L 355.251617 241.128617 
L 355.251617 240.862389 
L 356.152968 240.862389 
L 356.152968 239.930589 
L 357.63864 239.930589 
L 357.63864 239.878501 
L 360.830173 239.878501 
L 360.830173 239.849563 
L 361.207355 239.849563 
L 361.207355 239.369194 
L 361.731525 239.369194 
L 361.731525 239.265018 
L 364.398887 239.265018 
L 364.398887 239.189779 
L 364.690047 239.189779 
L 364.690047 238.87725 
L 365.300239 238.87725 
L 365.300239 234.756496 
L 367.881579 234.756496 
L 367.881579 234.334003 
L 368.258761 234.334003 
L 368.258761 233.442716 
L 368.782931 233.442716 
L 368.782931 233.153337 
L 371.450294 233.153337 
L 371.450294 232.551429 
L 372.351645 232.551429 
L 372.351645 226.115645 
L 399.687935 226.115645 
L 399.687935 225.872567 
L 402.879468 225.872567 
L 402.879468 225.687364 
L 403.780819 225.687364 
L 403.780819 225.438499 
L 405.944866 225.438499 
L 405.944866 225.264871 
L 408.699283 225.264871 
L 408.699283 225.016006 
L 409.136398 225.016006 
L 409.136398 224.836591 
L 410.03775 224.836591 
L 410.03775 224.483549 
L 412.317898 224.483549 
L 412.317898 224.211533 
L 412.996272 224.211533 
L 412.996272 223.956879 
L 415.509431 223.956879 
L 415.509431 223.684863 
L 415.75069 223.684863 
L 415.75069 223.563324 
L 415.886612 223.563324 
L 415.886612 223.407059 
L 416.187804 223.407059 
L 416.187804 222.619949 
L 416.37362 222.619949 
L 416.37362 222.110642 
L 416.410782 222.110642 
L 416.410782 221.94859 
L 417.089156 221.94859 
L 417.089156 221.097817 
L 419.078145 221.097817 
L 419.078145 220.901039 
L 419.565152 220.901039 
L 419.565152 220.119716 
L 419.979496 220.119716 
L 419.979496 219.928726 
L 420.466504 219.928726 
L 420.466504 219.523596 
L 421.329246 219.523596 
L 421.329246 219.402057 
L 424.89796 219.402057 
L 424.89796 219.089528 
L 428.380652 219.089528 
L 428.380652 218.603371 
L 429.003583 218.603371 
L 429.003583 218.366081 
L 431.949366 218.366081 
L 431.949366 217.926225 
L 432.195115 217.926225 
L 432.195115 217.590546 
L 432.572297 217.590546 
L 432.572297 216.843948 
L 433.096467 216.843948 
L 433.096467 216.537207 
L 435.763829 216.537207 
L 435.763829 215.9816 
L 436.665181 215.9816 
L 436.665181 214.413166 
L 460.624123 214.413166 
L 460.624123 214.083275 
L 463.378541 214.083275 
L 463.378541 212.885246 
L 463.815656 212.885246 
L 463.815656 212.312276 
L 464.717007 212.312276 
L 464.717007 212.01711 
L 469.635471 212.01711 
L 469.635471 210.720693 
L 476.008504 210.720693 
L 476.008504 208.752917 
L 476.686877 208.752917 
L 476.686877 207.282873 
L 477.309808 207.282873 
L 477.309808 204.6148 
L 479.577218 204.6148 
L 479.577218 203.439923 
L 480.064225 203.439923 
L 480.064225 200.146792 
L 480.50134 200.146792 
L 480.50134 196.506407 
L 481.402692 196.506407 
L 481.402692 195.40098 
L 492.694188 195.40098 
L 492.694188 187.894494 
L 496.262902 187.894494 
L 496.262902 177.829899 
L 524.314729 177.829899 
L 524.314729 130.186574 
L 541.000413 130.186574 
L 541.000413 44.443636 
" style="fill:none;stroke:#009e73;stroke-linecap:round;stroke-opacity:0.8;stroke-width:3;"/>
   </g>
   <g id="line2d_31">
    <path clip-path="url(#pa651243992)" d="M 345.008678 241.850217 
L 348.20021 241.850217 
L 348.20021 241.501039 
L 349.101562 241.501039 
L 349.101562 239.530431 
L 352.060084 239.530431 
L 352.060084 239.03605 
L 355.251617 239.03605 
L 355.251617 238.572784 
L 356.152968 238.572784 
L 356.152968 235.620328 
L 357.63864 235.620328 
L 357.63864 235.177806 
L 360.830173 235.177806 
L 360.830173 234.966916 
L 361.207355 234.966916 
L 361.207355 234.289303 
L 361.731525 234.289303 
L 361.731525 233.425001 
L 364.398887 233.425001 
L 364.398887 232.647129 
L 364.690047 232.647129 
L 364.690047 231.713683 
L 365.300239 231.713683 
L 365.300239 221.124255 
L 367.881579 221.124255 
L 367.881579 219.934975 
L 368.258761 219.934975 
L 368.258761 217.404299 
L 368.782931 217.404299 
L 368.782931 216.477767 
L 371.450294 216.477767 
L 371.450294 214.019692 
L 372.351645 214.019692 
L 372.351645 201.369768 
L 399.687935 201.369768 
L 399.687935 201.10702 
L 402.879468 201.10702 
L 402.879468 200.813157 
L 403.780819 200.813157 
L 403.780819 200.398292 
L 405.944866 200.398292 
L 405.944866 200.152831 
L 408.699283 200.152831 
L 408.699283 199.900454 
L 409.136398 199.900454 
L 409.136398 199.686108 
L 410.03775 199.686108 
L 410.03775 197.646355 
L 412.317898 197.646355 
L 412.317898 197.193461 
L 412.996272 197.193461 
L 412.996272 196.629936 
L 415.509431 196.629936 
L 415.509431 196.304958 
L 415.75069 196.304958 
L 415.75069 195.872807 
L 415.886612 195.872807 
L 415.886612 195.648089 
L 416.187804 195.648089 
L 416.187804 194.216804 
L 416.37362 194.216804 
L 416.37362 193.846883 
L 416.410782 193.846883 
L 416.410782 193.487334 
L 417.089156 193.487334 
L 417.089156 189.311026 
L 419.078145 189.311026 
L 419.078145 188.992963 
L 419.565152 188.992963 
L 419.565152 188.571184 
L 419.979496 188.571184 
L 419.979496 187.260902 
L 420.466504 187.260902 
L 420.466504 186.424257 
L 421.329246 186.424257 
L 421.329246 185.760473 
L 424.89796 185.760473 
L 424.89796 185.09669 
L 428.380652 185.09669 
L 428.380652 184.090642 
L 429.003583 184.090642 
L 429.003583 183.572061 
L 431.949366 183.572061 
L 431.949366 182.534898 
L 432.195115 182.534898 
L 432.195115 182.279065 
L 432.572297 182.279065 
L 432.572297 181.798513 
L 433.096467 181.798513 
L 433.096467 181.515022 
L 435.763829 181.515022 
L 435.763829 181.248817 
L 436.665181 181.248817 
L 436.665181 178.282532 
L 460.624123 178.282532 
L 460.624123 178.037071 
L 463.378541 178.037071 
L 463.378541 176.868534 
L 463.815656 176.868534 
L 463.815656 176.467498 
L 464.717007 176.467498 
L 464.717007 175.910888 
L 469.635471 175.910888 
L 469.635471 175.081158 
L 476.008504 175.081158 
L 476.008504 173.81582 
L 476.686877 173.81582 
L 476.686877 172.785572 
L 477.309808 172.785572 
L 477.309808 171.907441 
L 479.577218 171.907441 
L 479.577218 170.980909 
L 480.064225 170.980909 
L 480.064225 168.75101 
L 480.50134 168.75101 
L 480.50134 167.520244 
L 481.402692 167.520244 
L 481.402692 166.638656 
L 492.694188 166.638656 
L 492.694188 162.555693 
L 496.262902 162.555693 
L 496.262902 157.297279 
L 524.314729 157.297279 
L 524.314729 110.493597 
L 541.000413 110.493597 
L 541.000413 44.443636 
" style="fill:none;stroke:#f0e442;stroke-linecap:round;stroke-opacity:0.8;stroke-width:3;"/>
   </g>
   <g id="patch_9">
    <path d="M 335.209091 252 
L 335.209091 34.56 
" style="fill:none;stroke:#262626;stroke-linecap:square;stroke-linejoin:miter;stroke-width:1.25;"/>
   </g>
   <g id="patch_10">
    <path d="M 550.8 252 
L 550.8 34.56 
" style="fill:none;stroke:#262626;stroke-linecap:square;stroke-linejoin:miter;stroke-width:1.25;"/>
   </g>
   <g id="patch_11">
    <path d="M 335.209091 252 
L 550.8 252 
" style="fill:none;stroke:#262626;stroke-linecap:square;stroke-linejoin:miter;stroke-width:1.25;"/>
   </g>
   <g id="patch_12">
    <path d="M 335.209091 34.56 
L 550.8 34.56 
" style="fill:none;stroke:#262626;stroke-linecap:square;stroke-linejoin:miter;stroke-width:1.25;"/>
   </g>
   <g id="legend_2">
    <g id="patch_13">
     <path d="M 344.449091 143.157 
L 434.524653 143.157 
Q 437.164653 143.157 437.164653 140.517 
L 437.164653 43.8 
Q 437.164653 41.16 434.524653 41.16 
L 344.449091 41.16 
Q 341.809091 41.16 341.809091 43.8 
L 341.809091 140.517 
Q 341.809091 143.157 344.449091 143.157 
z
" style="fill:#ffffff;opacity:0.8;stroke:#cccccc;stroke-linejoin:miter;"/>
    </g>
    <g id="text_21">
     <text style="fill:#262626;font-family:DejaVu Sans;font-size:14.4px;font-stretch:normal;font-style:normal;font-weight:normal;text-anchor:start;" transform="rotate(-0, 359.475247, 57.38175)" x="359.475247" y="57.38175">U5 class</text>
    </g>
    <g id="line2d_32">
     <path d="M 347.089091 72.386437 
L 373.489091 72.386437 
" style="fill:none;stroke:#0072b2;stroke-linecap:round;stroke-opacity:0.8;stroke-width:3;"/>
    </g>
    <g id="line2d_33"/>
    <g id="text_22">
     <text style="fill:#262626;font-family:DejaVu Sans;font-size:13.2px;font-stretch:normal;font-style:normal;font-weight:normal;text-anchor:start;" transform="rotate(-0, 384.049091, 77.006438)" x="384.049091" y="77.006438">AG//GU</text>
    </g>
    <g id="line2d_34">
     <path d="M 347.089091 91.761562 
L 373.489091 91.761562 
" style="fill:none;stroke:#d55e00;stroke-linecap:round;stroke-opacity:0.8;stroke-width:3;"/>
    </g>
    <g id="line2d_35"/>
    <g id="text_23">
     <text style="fill:#262626;font-family:DejaVu Sans;font-size:13.2px;font-stretch:normal;font-style:normal;font-weight:normal;text-anchor:start;" transform="rotate(-0, 384.049091, 96.381563)" x="384.049091" y="96.381563">BG//GU</text>
    </g>
    <g id="line2d_36">
     <path d="M 347.089091 111.136687 
L 373.489091 111.136687 
" style="fill:none;stroke:#009e73;stroke-linecap:round;stroke-opacity:0.8;stroke-width:3;"/>
    </g>
    <g id="line2d_37"/>
    <g id="text_24">
     <text style="fill:#262626;font-family:DejaVu Sans;font-size:13.2px;font-stretch:normal;font-style:normal;font-weight:normal;text-anchor:start;" transform="rotate(-0, 384.049091, 115.756687)" x="384.049091" y="115.756687">AH//GU</text>
    </g>
    <g id="line2d_38">
     <path d="M 347.089091 130.511813 
L 373.489091 130.511813 
" style="fill:none;stroke:#f0e442;stroke-linecap:round;stroke-opacity:0.8;stroke-width:3;"/>
    </g>
    <g id="line2d_39"/>
    <g id="text_25">
     <text style="fill:#262626;font-family:DejaVu Sans;font-size:13.2px;font-stretch:normal;font-style:normal;font-weight:normal;text-anchor:start;" transform="rotate(-0, 384.049091, 135.131813)" x="384.049091" y="135.131813">BH//GU</text>
    </g>
   </g>
  </g>
 </g>
 <defs>
  <clipPath id="pf9b7545a94">
   <rect height="217.44" width="215.590909" x="76.5" y="34.56"/>
  </clipPath>
  <clipPath id="pa651243992">
   <rect height="217.44" width="215.590909" x="335.209091" y="34.56"/>
  </clipPath>
 </defs>
</svg>
