<?xml version="1.0" encoding="utf-8" standalone="no"?>
<!DOCTYPE svg PUBLIC "-//W3C//DTD SVG 1.1//EN"
  "http://www.w3.org/Graphics/SVG/1.1/DTD/svg11.dtd">
<!-- Created with matplotlib (https://matplotlib.org/) -->
<svg height="360pt" version="1.1" viewBox="0 0 360 360" width="360pt" xmlns="http://www.w3.org/2000/svg" xmlns:xlink="http://www.w3.org/1999/xlink">
 <defs>
  <style type="text/css">
*{stroke-linecap:butt;stroke-linejoin:round;}
  </style>
 </defs>
 <g id="figure_1">
  <g id="patch_1">
   <path d="M 0 360 
L 360 360 
L 360 0 
L 0 0 
z
" style="fill:#ffffff;"/>
  </g>
  <g id="axes_1">
   <g id="patch_2">
    <path d="M 45 315 
L 324 315 
L 324 43.2 
L 45 43.2 
z
" style="fill:#ffffff;"/>
   </g>
   <g id="matplotlib.axis_1">
    <g id="xtick_1">
     <g id="line2d_1">
      <defs>
       <path d="M 0 0 
L 0 6 
" id="md2f791b2d4" style="stroke:#262626;stroke-width:1.25;"/>
      </defs>
      <g>
       <use style="fill:#262626;stroke:#262626;stroke-width:1.25;" x="89.386364" xlink:href="#md2f791b2d4" y="315"/>
      </g>
     </g>
     <g id="text_1">
      <text style="fill:#262626;font-family:DejaVu Sans;font-size:13.2px;font-style:normal;font-weight:normal;text-anchor:middle;" transform="rotate(-0, 89.386364, 334.529938)" x="89.386364" y="334.529938">20</text>
     </g>
    </g>
    <g id="xtick_2">
     <g id="line2d_2">
      <g>
       <use style="fill:#262626;stroke:#262626;stroke-width:1.25;" x="152.795455" xlink:href="#md2f791b2d4" y="315"/>
      </g>
     </g>
     <g id="text_2">
      <text style="fill:#262626;font-family:DejaVu Sans;font-size:13.2px;font-style:normal;font-weight:normal;text-anchor:middle;" transform="rotate(-0, 152.795455, 334.529938)" x="152.795455" y="334.529938">28</text>
     </g>
    </g>
    <g id="xtick_3">
     <g id="line2d_3">
      <g>
       <use style="fill:#262626;stroke:#262626;stroke-width:1.25;" x="216.204545" xlink:href="#md2f791b2d4" y="315"/>
      </g>
     </g>
     <g id="text_3">
      <text style="fill:#262626;font-family:DejaVu Sans;font-size:13.2px;font-style:normal;font-weight:normal;text-anchor:middle;" transform="rotate(-0, 216.204545, 334.529938)" x="216.204545" y="334.529938">12</text>
     </g>
    </g>
    <g id="xtick_4">
     <g id="line2d_4">
      <g>
       <use style="fill:#262626;stroke:#262626;stroke-width:1.25;" x="279.613636" xlink:href="#md2f791b2d4" y="315"/>
      </g>
     </g>
     <g id="text_4">
      <text style="fill:#262626;font-family:DejaVu Sans;font-size:13.2px;font-style:normal;font-weight:normal;text-anchor:middle;" transform="rotate(-0, 279.613636, 334.529938)" x="279.613636" y="334.529938">04</text>
     </g>
    </g>
    <g id="text_5">
     <text style="fill:#262626;font-family:DejaVu Sans;font-size:14.4px;font-style:normal;font-weight:normal;text-anchor:middle;" transform="rotate(-0, 184.5, 352.216875)" x="184.5" y="352.216875">Temperature (°C)</text>
    </g>
   </g>
   <g id="matplotlib.axis_2">
    <g id="ytick_1">
     <g id="line2d_5">
      <defs>
       <path d="M 0 0 
L -6 0 
" id="m3015c3b01b" style="stroke:#262626;stroke-width:1.25;"/>
      </defs>
      <g>
       <use style="fill:#262626;stroke:#262626;stroke-width:1.25;" x="45" xlink:href="#m3015c3b01b" y="283.530627"/>
      </g>
     </g>
     <g id="text_6">
      <text style="fill:#262626;font-family:DejaVu Sans;font-size:13.2px;font-style:normal;font-weight:normal;text-anchor:end;" transform="rotate(-0, 35.5, 288.545595)" x="35.5" y="288.545595">−1</text>
     </g>
    </g>
    <g id="ytick_2">
     <g id="line2d_6">
      <g>
       <use style="fill:#262626;stroke:#262626;stroke-width:1.25;" x="45" xlink:href="#m3015c3b01b" y="235.310024"/>
      </g>
     </g>
     <g id="text_7">
      <text style="fill:#262626;font-family:DejaVu Sans;font-size:13.2px;font-style:normal;font-weight:normal;text-anchor:end;" transform="rotate(-0, 35.5, 240.324993)" x="35.5" y="240.324993">0</text>
     </g>
    </g>
    <g id="ytick_3">
     <g id="line2d_7">
      <g>
       <use style="fill:#262626;stroke:#262626;stroke-width:1.25;" x="45" xlink:href="#m3015c3b01b" y="187.089422"/>
      </g>
     </g>
     <g id="text_8">
      <text style="fill:#262626;font-family:DejaVu Sans;font-size:13.2px;font-style:normal;font-weight:normal;text-anchor:end;" transform="rotate(-0, 35.5, 192.104391)" x="35.5" y="192.104391">1</text>
     </g>
    </g>
    <g id="ytick_4">
     <g id="line2d_8">
      <g>
       <use style="fill:#262626;stroke:#262626;stroke-width:1.25;" x="45" xlink:href="#m3015c3b01b" y="138.86882"/>
      </g>
     </g>
     <g id="text_9">
      <text style="fill:#262626;font-family:DejaVu Sans;font-size:13.2px;font-style:normal;font-weight:normal;text-anchor:end;" transform="rotate(-0, 35.5, 143.883789)" x="35.5" y="143.883789">2</text>
     </g>
    </g>
    <g id="ytick_5">
     <g id="line2d_9">
      <g>
       <use style="fill:#262626;stroke:#262626;stroke-width:1.25;" x="45" xlink:href="#m3015c3b01b" y="90.648218"/>
      </g>
     </g>
     <g id="text_10">
      <text style="fill:#262626;font-family:DejaVu Sans;font-size:13.2px;font-style:normal;font-weight:normal;text-anchor:end;" transform="rotate(-0, 35.5, 95.663187)" x="35.5" y="95.663187">3</text>
     </g>
    </g>
    <g id="text_11">
     <text style="fill:#262626;font-family:DejaVu Sans;font-size:14.4px;font-style:normal;font-weight:normal;text-anchor:middle;" transform="rotate(-90, 9.045562, 179.1)" x="9.045562" y="179.1">Log2 counts per million</text>
    </g>
   </g>
   <g id="patch_3">
    <path clip-path="url(#p446ac2d047)" d="M 64.276364 271.969 
L 89.132727 271.969 
L 89.132727 243.135954 
L 64.276364 243.135954 
L 64.276364 271.969 
z
" style="fill:#f1f1f1;stroke:#8f8f8f;stroke-linejoin:miter;stroke-width:1.5;"/>
   </g>
   <g id="patch_4">
    <path clip-path="url(#p446ac2d047)" d="M 89.64 76.41788 
L 114.496364 76.41788 
L 114.496364 72.41197 
L 89.64 72.41197 
L 89.64 76.41788 
z
" style="fill:#eeeeee;stroke:#8f8f8f;stroke-linejoin:miter;stroke-width:1.5;"/>
   </g>
   <g id="patch_5">
    <path clip-path="url(#p446ac2d047)" d="M 127.685455 270.728346 
L 152.541818 270.728346 
L 152.541818 241.234377 
L 127.685455 241.234377 
L 127.685455 270.728346 
z
" style="fill:#f1f1f1;stroke:#8f8f8f;stroke-linejoin:miter;stroke-width:1.5;"/>
   </g>
   <g id="patch_6">
    <path clip-path="url(#p446ac2d047)" d="M 153.049091 69.41376 
L 177.905455 69.41376 
L 177.905455 63.350985 
L 153.049091 63.350985 
L 153.049091 69.41376 
z
" style="fill:#eeeeee;stroke:#8f8f8f;stroke-linejoin:miter;stroke-width:1.5;"/>
   </g>
   <g id="patch_7">
    <path clip-path="url(#p446ac2d047)" d="M 191.094545 266.156294 
L 215.950909 266.156294 
L 215.950909 259.235248 
L 191.094545 259.235248 
L 191.094545 266.156294 
z
" style="fill:#f1f1f1;stroke:#8f8f8f;stroke-linejoin:miter;stroke-width:1.5;"/>
   </g>
   <g id="patch_8">
    <path clip-path="url(#p446ac2d047)" d="M 216.458182 91.81494 
L 241.314545 91.81494 
L 241.314545 88.233969 
L 216.458182 88.233969 
L 216.458182 91.81494 
z
" style="fill:#eeeeee;stroke:#8f8f8f;stroke-linejoin:miter;stroke-width:1.5;"/>
   </g>
   <g id="patch_9">
    <path clip-path="url(#p446ac2d047)" d="M 254.503636 277.433544 
L 279.36 277.433544 
L 279.36 260.383549 
L 254.503636 260.383549 
L 254.503636 277.433544 
z
" style="fill:#f1f1f1;stroke:#8f8f8f;stroke-linejoin:miter;stroke-width:1.5;"/>
   </g>
   <g id="patch_10">
    <path clip-path="url(#p446ac2d047)" d="M 279.867273 97.459357 
L 304.723636 97.459357 
L 304.723636 90.001607 
L 279.867273 90.001607 
L 279.867273 97.459357 
z
" style="fill:#eeeeee;stroke:#8f8f8f;stroke-linejoin:miter;stroke-width:1.5;"/>
   </g>
   <g id="PathCollection_1"/>
   <g id="PathCollection_2"/>
   <g id="PathCollection_3"/>
   <g id="PathCollection_4"/>
   <g id="patch_11">
    <path clip-path="url(#p446ac2d047)" d="M 89.386364 235.310024 
L 89.386364 235.310024 
L 89.386364 235.310024 
L 89.386364 235.310024 
z
" style="fill:#f1f1f1;stroke:#8f8f8f;stroke-linejoin:miter;stroke-width:0.75;"/>
   </g>
   <g id="patch_12">
    <path clip-path="url(#p446ac2d047)" d="M 89.386364 235.310024 
L 89.386364 235.310024 
L 89.386364 235.310024 
L 89.386364 235.310024 
z
" style="fill:#eeeeee;stroke:#8f8f8f;stroke-linejoin:miter;stroke-width:0.75;"/>
   </g>
   <g id="line2d_10">
    <path clip-path="url(#p446ac2d047)" d="M 76.704545 271.969 
L 76.704545 298.808714 
" style="fill:none;stroke:#8f8f8f;stroke-linecap:round;stroke-width:1.5;"/>
   </g>
   <g id="line2d_11">
    <path clip-path="url(#p446ac2d047)" d="M 76.704545 243.135954 
L 76.704545 227.90167 
" style="fill:none;stroke:#8f8f8f;stroke-linecap:round;stroke-width:1.5;"/>
   </g>
   <g id="line2d_12">
    <path clip-path="url(#p446ac2d047)" d="M 70.490455 298.808714 
L 82.918636 298.808714 
" style="fill:none;stroke:#8f8f8f;stroke-linecap:round;stroke-width:1.5;"/>
   </g>
   <g id="line2d_13">
    <path clip-path="url(#p446ac2d047)" d="M 70.490455 227.90167 
L 82.918636 227.90167 
" style="fill:none;stroke:#8f8f8f;stroke-linecap:round;stroke-width:1.5;"/>
   </g>
   <g id="line2d_14">
    <path clip-path="url(#p446ac2d047)" d="M 102.068182 76.41788 
L 102.068182 78.01331 
" style="fill:none;stroke:#8f8f8f;stroke-linecap:round;stroke-width:1.5;"/>
   </g>
   <g id="line2d_15">
    <path clip-path="url(#p446ac2d047)" d="M 102.068182 72.41197 
L 102.068182 71.185766 
" style="fill:none;stroke:#8f8f8f;stroke-linecap:round;stroke-width:1.5;"/>
   </g>
   <g id="line2d_16">
    <path clip-path="url(#p446ac2d047)" d="M 95.854091 78.01331 
L 108.282273 78.01331 
" style="fill:none;stroke:#8f8f8f;stroke-linecap:round;stroke-width:1.5;"/>
   </g>
   <g id="line2d_17">
    <path clip-path="url(#p446ac2d047)" d="M 95.854091 71.185766 
L 108.282273 71.185766 
" style="fill:none;stroke:#8f8f8f;stroke-linecap:round;stroke-width:1.5;"/>
   </g>
   <g id="line2d_18">
    <path clip-path="url(#p446ac2d047)" d="M 140.113636 270.728346 
L 140.113636 295.098382 
" style="fill:none;stroke:#8f8f8f;stroke-linecap:round;stroke-width:1.5;"/>
   </g>
   <g id="line2d_19">
    <path clip-path="url(#p446ac2d047)" d="M 140.113636 241.234377 
L 140.113636 236.010407 
" style="fill:none;stroke:#8f8f8f;stroke-linecap:round;stroke-width:1.5;"/>
   </g>
   <g id="line2d_20">
    <path clip-path="url(#p446ac2d047)" d="M 133.899545 295.098382 
L 146.327727 295.098382 
" style="fill:none;stroke:#8f8f8f;stroke-linecap:round;stroke-width:1.5;"/>
   </g>
   <g id="line2d_21">
    <path clip-path="url(#p446ac2d047)" d="M 133.899545 236.010407 
L 146.327727 236.010407 
" style="fill:none;stroke:#8f8f8f;stroke-linecap:round;stroke-width:1.5;"/>
   </g>
   <g id="line2d_22">
    <path clip-path="url(#p446ac2d047)" d="M 165.477273 69.41376 
L 165.477273 72.661273 
" style="fill:none;stroke:#8f8f8f;stroke-linecap:round;stroke-width:1.5;"/>
   </g>
   <g id="line2d_23">
    <path clip-path="url(#p446ac2d047)" d="M 165.477273 63.350985 
L 165.477273 57.869411 
" style="fill:none;stroke:#8f8f8f;stroke-linecap:round;stroke-width:1.5;"/>
   </g>
   <g id="line2d_24">
    <path clip-path="url(#p446ac2d047)" d="M 159.263182 72.661273 
L 171.691364 72.661273 
" style="fill:none;stroke:#8f8f8f;stroke-linecap:round;stroke-width:1.5;"/>
   </g>
   <g id="line2d_25">
    <path clip-path="url(#p446ac2d047)" d="M 159.263182 57.869411 
L 171.691364 57.869411 
" style="fill:none;stroke:#8f8f8f;stroke-linecap:round;stroke-width:1.5;"/>
   </g>
   <g id="line2d_26">
    <path clip-path="url(#p446ac2d047)" d="M 203.522727 266.156294 
L 203.522727 267.540314 
" style="fill:none;stroke:#8f8f8f;stroke-linecap:round;stroke-width:1.5;"/>
   </g>
   <g id="line2d_27">
    <path clip-path="url(#p446ac2d047)" d="M 203.522727 259.235248 
L 203.522727 251.247765 
" style="fill:none;stroke:#8f8f8f;stroke-linecap:round;stroke-width:1.5;"/>
   </g>
   <g id="line2d_28">
    <path clip-path="url(#p446ac2d047)" d="M 197.308636 267.540314 
L 209.736818 267.540314 
" style="fill:none;stroke:#8f8f8f;stroke-linecap:round;stroke-width:1.5;"/>
   </g>
   <g id="line2d_29">
    <path clip-path="url(#p446ac2d047)" d="M 197.308636 251.247765 
L 209.736818 251.247765 
" style="fill:none;stroke:#8f8f8f;stroke-linecap:round;stroke-width:1.5;"/>
   </g>
   <g id="line2d_30">
    <path clip-path="url(#p446ac2d047)" d="M 228.886364 91.81494 
L 228.886364 95.54572 
" style="fill:none;stroke:#8f8f8f;stroke-linecap:round;stroke-width:1.5;"/>
   </g>
   <g id="line2d_31">
    <path clip-path="url(#p446ac2d047)" d="M 228.886364 88.233969 
L 228.886364 84.820318 
" style="fill:none;stroke:#8f8f8f;stroke-linecap:round;stroke-width:1.5;"/>
   </g>
   <g id="line2d_32">
    <path clip-path="url(#p446ac2d047)" d="M 222.672273 95.54572 
L 235.100455 95.54572 
" style="fill:none;stroke:#8f8f8f;stroke-linecap:round;stroke-width:1.5;"/>
   </g>
   <g id="line2d_33">
    <path clip-path="url(#p446ac2d047)" d="M 222.672273 84.820318 
L 235.100455 84.820318 
" style="fill:none;stroke:#8f8f8f;stroke-linecap:round;stroke-width:1.5;"/>
   </g>
   <g id="line2d_34">
    <path clip-path="url(#p446ac2d047)" d="M 266.931818 277.433544 
L 266.931818 300.179786 
" style="fill:none;stroke:#8f8f8f;stroke-linecap:round;stroke-width:1.5;"/>
   </g>
   <g id="line2d_35">
    <path clip-path="url(#p446ac2d047)" d="M 266.931818 260.383549 
L 266.931818 254.171503 
" style="fill:none;stroke:#8f8f8f;stroke-linecap:round;stroke-width:1.5;"/>
   </g>
   <g id="line2d_36">
    <path clip-path="url(#p446ac2d047)" d="M 260.717727 300.179786 
L 273.145909 300.179786 
" style="fill:none;stroke:#8f8f8f;stroke-linecap:round;stroke-width:1.5;"/>
   </g>
   <g id="line2d_37">
    <path clip-path="url(#p446ac2d047)" d="M 260.717727 254.171503 
L 273.145909 254.171503 
" style="fill:none;stroke:#8f8f8f;stroke-linecap:round;stroke-width:1.5;"/>
   </g>
   <g id="line2d_38">
    <path clip-path="url(#p446ac2d047)" d="M 292.295455 97.459357 
L 292.295455 102.670887 
" style="fill:none;stroke:#8f8f8f;stroke-linecap:round;stroke-width:1.5;"/>
   </g>
   <g id="line2d_39">
    <path clip-path="url(#p446ac2d047)" d="M 292.295455 90.001607 
L 292.295455 87.385955 
" style="fill:none;stroke:#8f8f8f;stroke-linecap:round;stroke-width:1.5;"/>
   </g>
   <g id="line2d_40">
    <path clip-path="url(#p446ac2d047)" d="M 286.081364 102.670887 
L 298.509545 102.670887 
" style="fill:none;stroke:#8f8f8f;stroke-linecap:round;stroke-width:1.5;"/>
   </g>
   <g id="line2d_41">
    <path clip-path="url(#p446ac2d047)" d="M 286.081364 87.385955 
L 298.509545 87.385955 
" style="fill:none;stroke:#8f8f8f;stroke-linecap:round;stroke-width:1.5;"/>
   </g>
   <g id="line2d_42">
    <path clip-path="url(#p446ac2d047)" d="M 64.276364 257.060838 
L 89.132727 257.060838 
" style="fill:none;stroke:#8f8f8f;stroke-linecap:round;stroke-width:1.5;"/>
   </g>
   <g id="line2d_43">
    <path clip-path="url(#p446ac2d047)" d="M 89.64 74.796777 
L 114.496364 74.796777 
" style="fill:none;stroke:#8f8f8f;stroke-linecap:round;stroke-width:1.5;"/>
   </g>
   <g id="line2d_44">
    <path clip-path="url(#p446ac2d047)" d="M 127.685455 260.684161 
L 152.541818 260.684161 
" style="fill:none;stroke:#8f8f8f;stroke-linecap:round;stroke-width:1.5;"/>
   </g>
   <g id="line2d_45">
    <path clip-path="url(#p446ac2d047)" d="M 153.049091 68.573938 
L 177.905455 68.573938 
" style="fill:none;stroke:#8f8f8f;stroke-linecap:round;stroke-width:1.5;"/>
   </g>
   <g id="line2d_46">
    <path clip-path="url(#p446ac2d047)" d="M 191.094545 261.269869 
L 215.950909 261.269869 
" style="fill:none;stroke:#8f8f8f;stroke-linecap:round;stroke-width:1.5;"/>
   </g>
   <g id="line2d_47">
    <path clip-path="url(#p446ac2d047)" d="M 216.458182 90.939345 
L 241.314545 90.939345 
" style="fill:none;stroke:#8f8f8f;stroke-linecap:round;stroke-width:1.5;"/>
   </g>
   <g id="line2d_48">
    <path clip-path="url(#p446ac2d047)" d="M 254.503636 271.295475 
L 279.36 271.295475 
" style="fill:none;stroke:#8f8f8f;stroke-linecap:round;stroke-width:1.5;"/>
   </g>
   <g id="line2d_49">
    <path clip-path="url(#p446ac2d047)" d="M 279.867273 96.181151 
L 304.723636 96.181151 
" style="fill:none;stroke:#8f8f8f;stroke-linecap:round;stroke-width:1.5;"/>
   </g>
   <g id="patch_13">
    <path d="M 45 315 
L 45 43.2 
" style="fill:none;stroke:#262626;stroke-linecap:square;stroke-linejoin:miter;stroke-width:1.25;"/>
   </g>
   <g id="patch_14">
    <path d="M 324 315 
L 324 43.2 
" style="fill:none;stroke:#262626;stroke-linecap:square;stroke-linejoin:miter;stroke-width:1.25;"/>
   </g>
   <g id="patch_15">
    <path d="M 45 315 
L 324 315 
" style="fill:none;stroke:#262626;stroke-linecap:square;stroke-linejoin:miter;stroke-width:1.25;"/>
   </g>
   <g id="patch_16">
    <path d="M 45 43.2 
L 324 43.2 
" style="fill:none;stroke:#262626;stroke-linecap:square;stroke-linejoin:miter;stroke-width:1.25;"/>
   </g>
   <g id="PathCollection_5">
    <defs>
     <path d="M 0 2.5 
C 0.663008 2.5 1.29895 2.236584 1.767767 1.767767 
C 2.236584 1.29895 2.5 0.663008 2.5 0 
C 2.5 -0.663008 2.236584 -1.29895 1.767767 -1.767767 
C 1.29895 -2.236584 0.663008 -2.5 0 -2.5 
C -0.663008 -2.5 -1.29895 -2.236584 -1.767767 -1.767767 
C -2.236584 -1.29895 -2.5 -0.663008 -2.5 0 
C -2.5 0.663008 -2.236584 1.29895 -1.767767 1.767767 
C -1.29895 2.236584 -0.663008 2.5 0 2.5 
z
" id="C0_0_41fd3d2343"/>
    </defs>
    <g clip-path="url(#p446ac2d047)">
     <use style="fill:#0072b2;" x="78.098022" xlink:href="#C0_0_41fd3d2343" y="273.199977"/>
    </g>
    <g clip-path="url(#p446ac2d047)">
     <use style="fill:#0072b2;" x="75.725642" xlink:href="#C0_0_41fd3d2343" y="268.276069"/>
    </g>
    <g clip-path="url(#p446ac2d047)">
     <use style="fill:#0072b2;" x="73.840443" xlink:href="#C0_0_41fd3d2343" y="227.90167"/>
    </g>
    <g clip-path="url(#p446ac2d047)">
     <use style="fill:#0072b2;" x="77.573073" xlink:href="#C0_0_41fd3d2343" y="298.808714"/>
    </g>
    <g clip-path="url(#p446ac2d047)">
     <use style="fill:#0072b2;" x="82.138047" xlink:href="#C0_0_41fd3d2343" y="245.845607"/>
    </g>
    <g clip-path="url(#p446ac2d047)">
     <use style="fill:#0072b2;" x="73.992331" xlink:href="#C0_0_41fd3d2343" y="242.232736"/>
    </g>
   </g>
   <g id="PathCollection_6">
    <defs>
     <path d="M 0 2.5 
C 0.663008 2.5 1.29895 2.236584 1.767767 1.767767 
C 2.236584 1.29895 2.5 0.663008 2.5 0 
C 2.5 -0.663008 2.236584 -1.29895 1.767767 -1.767767 
C 1.29895 -2.236584 0.663008 -2.5 0 -2.5 
C -0.663008 -2.5 -1.29895 -2.236584 -1.767767 -1.767767 
C -2.236584 -1.29895 -2.5 -0.663008 -2.5 0 
C -2.5 0.663008 -2.236584 1.29895 -1.767767 1.767767 
C -1.29895 2.236584 -0.663008 2.5 0 2.5 
z
" id="C1_0_74f4393912"/>
    </defs>
    <g clip-path="url(#p446ac2d047)">
     <use style="fill:#d55e00;" x="97.682722" xlink:href="#C1_0_74f4393912" y="71.185766"/>
    </g>
    <g clip-path="url(#p446ac2d047)">
     <use style="fill:#d55e00;" x="94.16346" xlink:href="#C1_0_74f4393912" y="75.171366"/>
    </g>
    <g clip-path="url(#p446ac2d047)">
     <use style="fill:#d55e00;" x="104.144439" xlink:href="#C1_0_74f4393912" y="74.422188"/>
    </g>
    <g clip-path="url(#p446ac2d047)">
     <use style="fill:#d55e00;" x="110.917447" xlink:href="#C1_0_74f4393912" y="76.833384"/>
    </g>
    <g clip-path="url(#p446ac2d047)">
     <use style="fill:#d55e00;" x="106.021149" xlink:href="#C1_0_74f4393912" y="78.01331"/>
    </g>
    <g clip-path="url(#p446ac2d047)">
     <use style="fill:#d55e00;" x="95.182706" xlink:href="#C1_0_74f4393912" y="71.741897"/>
    </g>
   </g>
   <g id="PathCollection_7">
    <defs>
     <path d="M 0 2.5 
C 0.663008 2.5 1.29895 2.236584 1.767767 1.767767 
C 2.236584 1.29895 2.5 0.663008 2.5 0 
C 2.5 -0.663008 2.236584 -1.29895 1.767767 -1.767767 
C 1.29895 -2.236584 0.663008 -2.5 0 -2.5 
C -0.663008 -2.5 -1.29895 -2.236584 -1.767767 -1.767767 
C -2.236584 -1.29895 -2.5 -0.663008 -2.5 0 
C -2.5 0.663008 -2.236584 1.29895 -1.767767 1.767767 
C -1.29895 2.236584 -0.663008 2.5 0 2.5 
z
" id="C2_0_f84dcfc0e0"/>
    </defs>
    <g clip-path="url(#p446ac2d047)">
     <use style="fill:#0072b2;" x="145.737793" xlink:href="#C2_0_f84dcfc0e0" y="236.010407"/>
    </g>
    <g clip-path="url(#p446ac2d047)">
     <use style="fill:#0072b2;" x="133.177987" xlink:href="#C2_0_f84dcfc0e0" y="295.098382"/>
    </g>
    <g clip-path="url(#p446ac2d047)">
     <use style="fill:#0072b2;" x="141.311012" xlink:href="#C2_0_f84dcfc0e0" y="271.332692"/>
    </g>
    <g clip-path="url(#p446ac2d047)">
     <use style="fill:#0072b2;" x="133.204051" xlink:href="#C2_0_f84dcfc0e0" y="237.49483"/>
    </g>
    <g clip-path="url(#p446ac2d047)">
     <use style="fill:#0072b2;" x="144.524065" xlink:href="#C2_0_f84dcfc0e0" y="268.915305"/>
    </g>
    <g clip-path="url(#p446ac2d047)">
     <use style="fill:#0072b2;" x="145.177944" xlink:href="#C2_0_f84dcfc0e0" y="252.453016"/>
    </g>
   </g>
   <g id="PathCollection_8">
    <defs>
     <path d="M 0 2.5 
C 0.663008 2.5 1.29895 2.236584 1.767767 1.767767 
C 2.236584 1.29895 2.5 0.663008 2.5 0 
C 2.5 -0.663008 2.236584 -1.29895 1.767767 -1.767767 
C 1.29895 -2.236584 0.663008 -2.5 0 -2.5 
C -0.663008 -2.5 -1.29895 -2.236584 -1.767767 -1.767767 
C -2.236584 -1.29895 -2.5 -0.663008 -2.5 0 
C -2.5 0.663008 -2.236584 1.29895 -1.767767 1.767767 
C -1.29895 2.236584 -0.663008 2.5 0 2.5 
z
" id="C3_0_583f1c8fac"/>
    </defs>
    <g clip-path="url(#p446ac2d047)">
     <use style="fill:#d55e00;" x="171.853142" xlink:href="#C3_0_583f1c8fac" y="61.645608"/>
    </g>
    <g clip-path="url(#p446ac2d047)">
     <use style="fill:#d55e00;" x="158.807727" xlink:href="#C3_0_583f1c8fac" y="57.869411"/>
    </g>
    <g clip-path="url(#p446ac2d047)">
     <use style="fill:#d55e00;" x="172.84978" xlink:href="#C3_0_583f1c8fac" y="69.658093"/>
    </g>
    <g clip-path="url(#p446ac2d047)">
     <use style="fill:#d55e00;" x="157.524701" xlink:href="#C3_0_583f1c8fac" y="72.661273"/>
    </g>
    <g clip-path="url(#p446ac2d047)">
     <use style="fill:#d55e00;" x="172.925324" xlink:href="#C3_0_583f1c8fac" y="68.680763"/>
    </g>
    <g clip-path="url(#p446ac2d047)">
     <use style="fill:#d55e00;" x="173.230059" xlink:href="#C3_0_583f1c8fac" y="68.467114"/>
    </g>
   </g>
   <g id="PathCollection_9">
    <defs>
     <path d="M 0 2.5 
C 0.663008 2.5 1.29895 2.236584 1.767767 1.767767 
C 2.236584 1.29895 2.5 0.663008 2.5 0 
C 2.5 -0.663008 2.236584 -1.29895 1.767767 -1.767767 
C 1.29895 -2.236584 0.663008 -2.5 0 -2.5 
C -0.663008 -2.5 -1.29895 -2.236584 -1.767767 -1.767767 
C -2.236584 -1.29895 -2.5 -0.663008 -2.5 0 
C -2.5 0.663008 -2.236584 1.29895 -1.767767 1.767767 
C -1.29895 2.236584 -0.663008 2.5 0 2.5 
z
" id="C4_0_51638468a1"/>
    </defs>
    <g clip-path="url(#p446ac2d047)">
     <use style="fill:#0072b2;" x="212.961329" xlink:href="#C4_0_51638468a1" y="262.004233"/>
    </g>
    <g clip-path="url(#p446ac2d047)">
     <use style="fill:#0072b2;" x="204.474176" xlink:href="#C4_0_51638468a1" y="267.540314"/>
    </g>
    <g clip-path="url(#p446ac2d047)">
     <use style="fill:#0072b2;" x="197.081701" xlink:href="#C4_0_51638468a1" y="260.535506"/>
    </g>
    <g clip-path="url(#p446ac2d047)">
     <use style="fill:#0072b2;" x="197.770115" xlink:href="#C4_0_51638468a1" y="258.801829"/>
    </g>
    <g clip-path="url(#p446ac2d047)">
     <use style="fill:#0072b2;" x="211.238057" xlink:href="#C4_0_51638468a1" y="290.919813"/>
    </g>
    <g clip-path="url(#p446ac2d047)">
     <use style="fill:#0072b2;" x="213.022432" xlink:href="#C4_0_51638468a1" y="251.247765"/>
    </g>
   </g>
   <g id="PathCollection_10">
    <defs>
     <path d="M 0 2.5 
C 0.663008 2.5 1.29895 2.236584 1.767767 1.767767 
C 2.236584 1.29895 2.5 0.663008 2.5 0 
C 2.5 -0.663008 2.236584 -1.29895 1.767767 -1.767767 
C 1.29895 -2.236584 0.663008 -2.5 0 -2.5 
C -0.663008 -2.5 -1.29895 -2.236584 -1.767767 -1.767767 
C -2.236584 -1.29895 -2.5 -0.663008 -2.5 0 
C -2.5 0.663008 -2.236584 1.29895 -1.767767 1.767767 
C -1.29895 2.236584 -0.663008 2.5 0 2.5 
z
" id="C5_0_7a59b8a19b"/>
    </defs>
    <g clip-path="url(#p446ac2d047)">
     <use style="fill:#d55e00;" x="236.010172" xlink:href="#C5_0_7a59b8a19b" y="95.54572"/>
    </g>
    <g clip-path="url(#p446ac2d047)">
     <use style="fill:#d55e00;" x="221.440054" xlink:href="#C5_0_7a59b8a19b" y="91.293556"/>
    </g>
    <g clip-path="url(#p446ac2d047)">
     <use style="fill:#d55e00;" x="230.917389" xlink:href="#C5_0_7a59b8a19b" y="84.820318"/>
    </g>
    <g clip-path="url(#p446ac2d047)">
     <use style="fill:#d55e00;" x="223.72324" xlink:href="#C5_0_7a59b8a19b" y="87.450247"/>
    </g>
    <g clip-path="url(#p446ac2d047)">
     <use style="fill:#d55e00;" x="222.715888" xlink:href="#C5_0_7a59b8a19b" y="91.988734"/>
    </g>
    <g clip-path="url(#p446ac2d047)">
     <use style="fill:#d55e00;" x="220.659894" xlink:href="#C5_0_7a59b8a19b" y="90.585133"/>
    </g>
   </g>
   <g id="PathCollection_11">
    <defs>
     <path d="M 0 2.5 
C 0.663008 2.5 1.29895 2.236584 1.767767 1.767767 
C 2.236584 1.29895 2.5 0.663008 2.5 0 
C 2.5 -0.663008 2.236584 -1.29895 1.767767 -1.767767 
C 1.29895 -2.236584 0.663008 -2.5 0 -2.5 
C -0.663008 -2.5 -1.29895 -2.236584 -1.767767 -1.767767 
C -2.236584 -1.29895 -2.5 -0.663008 -2.5 0 
C -2.5 0.663008 -2.236584 1.29895 -1.767767 1.767767 
C -1.29895 2.236584 -0.663008 2.5 0 2.5 
z
" id="C6_0_0e73861e20"/>
    </defs>
    <g clip-path="url(#p446ac2d047)">
     <use style="fill:#0072b2;" x="264.318455" xlink:href="#C6_0_0e73861e20" y="254.171503"/>
    </g>
    <g clip-path="url(#p446ac2d047)">
     <use style="fill:#0072b2;" x="273.302294" xlink:href="#C6_0_0e73861e20" y="257.557808"/>
    </g>
    <g clip-path="url(#p446ac2d047)">
     <use style="fill:#0072b2;" x="269.577527" xlink:href="#C6_0_0e73861e20" y="273.730177"/>
    </g>
    <g clip-path="url(#p446ac2d047)">
     <use style="fill:#0072b2;" x="262.657809" xlink:href="#C6_0_0e73861e20" y="268.860774"/>
    </g>
    <g clip-path="url(#p446ac2d047)">
     <use style="fill:#0072b2;" x="269.484853" xlink:href="#C6_0_0e73861e20" y="278.668"/>
    </g>
    <g clip-path="url(#p446ac2d047)">
     <use style="fill:#0072b2;" x="268.685749" xlink:href="#C6_0_0e73861e20" y="300.179786"/>
    </g>
   </g>
   <g id="PathCollection_12">
    <defs>
     <path d="M 0 2.5 
C 0.663008 2.5 1.29895 2.236584 1.767767 1.767767 
C 2.236584 1.29895 2.5 0.663008 2.5 0 
C 2.5 -0.663008 2.236584 -1.29895 1.767767 -1.767767 
C 1.29895 -2.236584 0.663008 -2.5 0 -2.5 
C -0.663008 -2.5 -1.29895 -2.236584 -1.767767 -1.767767 
C -2.236584 -1.29895 -2.5 -0.663008 -2.5 0 
C -2.5 0.663008 -2.236584 1.29895 -1.767767 1.767767 
C -1.29895 2.236584 -0.663008 2.5 0 2.5 
z
" id="C7_0_3c69a4a03c"/>
    </defs>
    <g clip-path="url(#p446ac2d047)">
     <use style="fill:#d55e00;" x="293.152439" xlink:href="#C7_0_3c69a4a03c" y="102.670887"/>
    </g>
    <g clip-path="url(#p446ac2d047)">
     <use style="fill:#d55e00;" x="291.410016" xlink:href="#C7_0_3c69a4a03c" y="87.385955"/>
    </g>
    <g clip-path="url(#p446ac2d047)">
     <use style="fill:#d55e00;" x="298.356063" xlink:href="#C7_0_3c69a4a03c" y="96.786791"/>
    </g>
    <g clip-path="url(#p446ac2d047)">
     <use style="fill:#d55e00;" x="301.606682" xlink:href="#C7_0_3c69a4a03c" y="95.575511"/>
    </g>
    <g clip-path="url(#p446ac2d047)">
     <use style="fill:#d55e00;" x="289.708812" xlink:href="#C7_0_3c69a4a03c" y="97.683545"/>
    </g>
    <g clip-path="url(#p446ac2d047)">
     <use style="fill:#d55e00;" x="297.023379" xlink:href="#C7_0_3c69a4a03c" y="88.14364"/>
    </g>
   </g>
   <g id="text_12">
    <text style="fill:#262626;font-family:DejaVu Sans;font-size:14.4px;font-style:normal;font-weight:normal;text-anchor:middle;" transform="rotate(-0, 184.5, 37.2)" x="184.5" y="37.2">FIO1</text>
   </g>
   <g id="legend_1">
    <g id="patch_17">
     <path d="M 234.57 200.455125 
L 314.76 200.455125 
Q 317.4 200.455125 317.4 197.815125 
L 317.4 160.384875 
Q 317.4 157.744875 314.76 157.744875 
L 234.57 157.744875 
Q 231.93 157.744875 231.93 160.384875 
L 231.93 197.815125 
Q 231.93 200.455125 234.57 200.455125 
z
" style="fill:#ffffff;opacity:0.8;stroke:#cccccc;stroke-linejoin:miter;"/>
    </g>
    <g id="PathCollection_13">
     <defs>
      <path d="M 0 3 
C 0.795609 3 1.55874 2.683901 2.12132 2.12132 
C 2.683901 1.55874 3 0.795609 3 0 
C 3 -0.795609 2.683901 -1.55874 2.12132 -2.12132 
C 1.55874 -2.683901 0.795609 -3 0 -3 
C -0.795609 -3 -1.55874 -2.683901 -2.12132 -2.12132 
C -2.683901 -1.55874 -3 -0.795609 -3 0 
C -3 0.795609 -2.683901 1.55874 -2.12132 2.12132 
C -1.55874 2.683901 -0.795609 3 0 3 
z
" id="m2ba672a967" style="stroke:#0072b2;"/>
     </defs>
     <g>
      <use style="fill:#0072b2;stroke:#0072b2;" x="250.41" xlink:href="#m2ba672a967" y="169.589813"/>
     </g>
    </g>
    <g id="text_13">
     <text style="fill:#262626;font-family:DejaVu Sans;font-size:13.2px;font-style:normal;font-weight:normal;text-anchor:start;" transform="rotate(-0, 274.17, 173.054813)" x="274.17" y="173.054813">Col-0</text>
    </g>
    <g id="PathCollection_14">
     <defs>
      <path d="M 0 3 
C 0.795609 3 1.55874 2.683901 2.12132 2.12132 
C 2.683901 1.55874 3 0.795609 3 0 
C 3 -0.795609 2.683901 -1.55874 2.12132 -2.12132 
C 1.55874 -2.683901 0.795609 -3 0 -3 
C -0.795609 -3 -1.55874 -2.683901 -2.12132 -2.12132 
C -2.683901 -1.55874 -3 -0.795609 -3 0 
C -3 0.795609 -2.683901 1.55874 -2.12132 2.12132 
C -1.55874 2.683901 -0.795609 3 0 3 
z
" id="m891df82288" style="stroke:#d55e00;"/>
     </defs>
     <g>
      <use style="fill:#d55e00;stroke:#d55e00;" x="250.41" xlink:href="#m891df82288" y="188.964938"/>
     </g>
    </g>
    <g id="text_14">
     <text style="fill:#262626;font-family:DejaVu Sans;font-size:13.2px;font-style:normal;font-weight:normal;text-anchor:start;" transform="rotate(-0, 274.17, 192.429938)" x="274.17" y="192.429938">fio1-3</text>
    </g>
   </g>
  </g>
 </g>
 <defs>
  <clipPath id="p446ac2d047">
   <rect height="271.8" width="279" x="45" y="43.2"/>
  </clipPath>
 </defs>
</svg>
