<?xml version="1.0" encoding="utf-8" standalone="no"?>
<!DOCTYPE svg PUBLIC "-//W3C//DTD SVG 1.1//EN"
  "http://www.w3.org/Graphics/SVG/1.1/DTD/svg11.dtd">
<!-- Created with matplotlib (https://matplotlib.org/) -->
<svg height="360pt" version="1.1" viewBox="0 0 360 360" width="360pt" xmlns="http://www.w3.org/2000/svg" xmlns:xlink="http://www.w3.org/1999/xlink">
 <defs>
  <style type="text/css">
*{stroke-linecap:butt;stroke-linejoin:round;}
  </style>
 </defs>
 <g id="figure_1">
  <g id="patch_1">
   <path d="M 0 360 
L 360 360 
L 360 0 
L 0 0 
z
" style="fill:#ffffff;"/>
  </g>
  <g id="axes_1">
   <g id="patch_2">
    <path d="M 45 315 
L 324 315 
L 324 43.2 
L 45 43.2 
z
" style="fill:#ffffff;"/>
   </g>
   <g id="matplotlib.axis_1">
    <g id="xtick_1">
     <g id="line2d_1">
      <defs>
       <path d="M 0 0 
L 0 6 
" id="m2f5fe4188a" style="stroke:#262626;stroke-width:1.25;"/>
      </defs>
      <g>
       <use style="fill:#262626;stroke:#262626;stroke-width:1.25;" x="89.386364" xlink:href="#m2f5fe4188a" y="315"/>
      </g>
     </g>
     <g id="text_1">
      <text style="fill:#262626;font-family:DejaVu Sans;font-size:13.2px;font-style:normal;font-weight:normal;text-anchor:middle;" transform="rotate(-0, 89.386364, 334.529938)" x="89.386364" y="334.529938">4</text>
     </g>
    </g>
    <g id="xtick_2">
     <g id="line2d_2">
      <g>
       <use style="fill:#262626;stroke:#262626;stroke-width:1.25;" x="152.795455" xlink:href="#m2f5fe4188a" y="315"/>
      </g>
     </g>
     <g id="text_2">
      <text style="fill:#262626;font-family:DejaVu Sans;font-size:13.2px;font-style:normal;font-weight:normal;text-anchor:middle;" transform="rotate(-0, 152.795455, 334.529938)" x="152.795455" y="334.529938">12</text>
     </g>
    </g>
    <g id="xtick_3">
     <g id="line2d_3">
      <g>
       <use style="fill:#262626;stroke:#262626;stroke-width:1.25;" x="216.204545" xlink:href="#m2f5fe4188a" y="315"/>
      </g>
     </g>
     <g id="text_3">
      <text style="fill:#262626;font-family:DejaVu Sans;font-size:13.2px;font-style:normal;font-weight:normal;text-anchor:middle;" transform="rotate(-0, 216.204545, 334.529938)" x="216.204545" y="334.529938">20</text>
     </g>
    </g>
    <g id="xtick_4">
     <g id="line2d_4">
      <g>
       <use style="fill:#262626;stroke:#262626;stroke-width:1.25;" x="279.613636" xlink:href="#m2f5fe4188a" y="315"/>
      </g>
     </g>
     <g id="text_4">
      <text style="fill:#262626;font-family:DejaVu Sans;font-size:13.2px;font-style:normal;font-weight:normal;text-anchor:middle;" transform="rotate(-0, 279.613636, 334.529938)" x="279.613636" y="334.529938">28</text>
     </g>
    </g>
    <g id="text_5">
     <text style="fill:#262626;font-family:DejaVu Sans;font-size:14.4px;font-style:normal;font-weight:normal;text-anchor:middle;" transform="rotate(-0, 184.5, 352.216875)" x="184.5" y="352.216875">Temperature (°C)</text>
    </g>
   </g>
   <g id="matplotlib.axis_2">
    <g id="ytick_1">
     <g id="line2d_5">
      <defs>
       <path d="M 0 0 
L -6 0 
" id="m2f80b77849" style="stroke:#262626;stroke-width:1.25;"/>
      </defs>
      <g>
       <use style="fill:#262626;stroke:#262626;stroke-width:1.25;" x="45" xlink:href="#m2f80b77849" y="284.921675"/>
      </g>
     </g>
     <g id="text_6">
      <text style="fill:#262626;font-family:DejaVu Sans;font-size:13.2px;font-style:normal;font-weight:normal;text-anchor:end;" transform="rotate(-0, 35.5, 289.936644)" x="35.5" y="289.936644">−1</text>
     </g>
    </g>
    <g id="ytick_2">
     <g id="line2d_6">
      <g>
       <use style="fill:#262626;stroke:#262626;stroke-width:1.25;" x="45" xlink:href="#m2f80b77849" y="236.414106"/>
      </g>
     </g>
     <g id="text_7">
      <text style="fill:#262626;font-family:DejaVu Sans;font-size:13.2px;font-style:normal;font-weight:normal;text-anchor:end;" transform="rotate(-0, 35.5, 241.429075)" x="35.5" y="241.429075">0</text>
     </g>
    </g>
    <g id="ytick_3">
     <g id="line2d_7">
      <g>
       <use style="fill:#262626;stroke:#262626;stroke-width:1.25;" x="45" xlink:href="#m2f80b77849" y="187.906537"/>
      </g>
     </g>
     <g id="text_8">
      <text style="fill:#262626;font-family:DejaVu Sans;font-size:13.2px;font-style:normal;font-weight:normal;text-anchor:end;" transform="rotate(-0, 35.5, 192.921506)" x="35.5" y="192.921506">1</text>
     </g>
    </g>
    <g id="ytick_4">
     <g id="line2d_8">
      <g>
       <use style="fill:#262626;stroke:#262626;stroke-width:1.25;" x="45" xlink:href="#m2f80b77849" y="139.398968"/>
      </g>
     </g>
     <g id="text_9">
      <text style="fill:#262626;font-family:DejaVu Sans;font-size:13.2px;font-style:normal;font-weight:normal;text-anchor:end;" transform="rotate(-0, 35.5, 144.413937)" x="35.5" y="144.413937">2</text>
     </g>
    </g>
    <g id="ytick_5">
     <g id="line2d_9">
      <g>
       <use style="fill:#262626;stroke:#262626;stroke-width:1.25;" x="45" xlink:href="#m2f80b77849" y="90.891399"/>
      </g>
     </g>
     <g id="text_10">
      <text style="fill:#262626;font-family:DejaVu Sans;font-size:13.2px;font-style:normal;font-weight:normal;text-anchor:end;" transform="rotate(-0, 35.5, 95.906367)" x="35.5" y="95.906367">3</text>
     </g>
    </g>
    <g id="text_11">
     <text style="fill:#262626;font-family:DejaVu Sans;font-size:14.4px;font-style:normal;font-weight:normal;text-anchor:middle;" transform="rotate(-90, 9.045562, 179.1)" x="9.045562" y="179.1">Log2 counts per million</text>
    </g>
   </g>
   <g id="patch_3">
    <path clip-path="url(#p5eaa188bee)" d="M 64.276364 97.743071 
L 89.132727 97.743071 
L 89.132727 90.24094 
L 64.276364 90.24094 
L 64.276364 97.743071 
z
" style="fill:#f1f1f1;stroke:#8f8f8f;stroke-linejoin:miter;stroke-width:1.5;"/>
   </g>
   <g id="patch_4">
    <path clip-path="url(#p5eaa188bee)" d="M 89.64 278.788309 
L 114.496364 278.788309 
L 114.496364 261.636847 
L 89.64 261.636847 
L 89.64 278.788309 
z
" style="fill:#eeeeee;stroke:#8f8f8f;stroke-linejoin:miter;stroke-width:1.5;"/>
   </g>
   <g id="patch_5">
    <path clip-path="url(#p5eaa188bee)" d="M 127.685455 92.065064 
L 152.541818 92.065064 
L 152.541818 88.462782 
L 127.685455 88.462782 
L 127.685455 92.065064 
z
" style="fill:#f1f1f1;stroke:#8f8f8f;stroke-linejoin:miter;stroke-width:1.5;"/>
   </g>
   <g id="patch_6">
    <path clip-path="url(#p5eaa188bee)" d="M 153.049091 267.443946 
L 177.905455 267.443946 
L 177.905455 260.481712 
L 153.049091 260.481712 
L 153.049091 267.443946 
z
" style="fill:#eeeeee;stroke:#8f8f8f;stroke-linejoin:miter;stroke-width:1.5;"/>
   </g>
   <g id="patch_7">
    <path clip-path="url(#p5eaa188bee)" d="M 191.094545 76.576374 
L 215.950909 76.576374 
L 215.950909 72.546624 
L 191.094545 72.546624 
L 191.094545 76.576374 
z
" style="fill:#f1f1f1;stroke:#8f8f8f;stroke-linejoin:miter;stroke-width:1.5;"/>
   </g>
   <g id="patch_8">
    <path clip-path="url(#p5eaa188bee)" d="M 216.458182 273.291244 
L 241.314545 273.291244 
L 241.314545 244.286609 
L 216.458182 244.286609 
L 216.458182 273.291244 
z
" style="fill:#eeeeee;stroke:#8f8f8f;stroke-linejoin:miter;stroke-width:1.5;"/>
   </g>
   <g id="patch_9">
    <path clip-path="url(#p5eaa188bee)" d="M 254.503636 69.530572 
L 279.36 69.530572 
L 279.36 63.431716 
L 254.503636 63.431716 
L 254.503636 69.530572 
z
" style="fill:#f1f1f1;stroke:#8f8f8f;stroke-linejoin:miter;stroke-width:1.5;"/>
   </g>
   <g id="patch_10">
    <path clip-path="url(#p5eaa188bee)" d="M 279.867273 272.043206 
L 304.723636 272.043206 
L 304.723636 242.373715 
L 279.867273 242.373715 
L 279.867273 272.043206 
z
" style="fill:#eeeeee;stroke:#8f8f8f;stroke-linejoin:miter;stroke-width:1.5;"/>
   </g>
   <g id="PathCollection_1"/>
   <g id="PathCollection_2"/>
   <g id="PathCollection_3"/>
   <g id="PathCollection_4"/>
   <g id="patch_11">
    <path clip-path="url(#p5eaa188bee)" d="M 89.386364 236.414106 
L 89.386364 236.414106 
L 89.386364 236.414106 
L 89.386364 236.414106 
z
" style="fill:#f1f1f1;stroke:#8f8f8f;stroke-linejoin:miter;stroke-width:0.75;"/>
   </g>
   <g id="patch_12">
    <path clip-path="url(#p5eaa188bee)" d="M 89.386364 236.414106 
L 89.386364 236.414106 
L 89.386364 236.414106 
L 89.386364 236.414106 
z
" style="fill:#eeeeee;stroke:#8f8f8f;stroke-linejoin:miter;stroke-width:0.75;"/>
   </g>
   <g id="line2d_10">
    <path clip-path="url(#p5eaa188bee)" d="M 76.704545 97.743071 
L 76.704545 102.985616 
" style="fill:none;stroke:#8f8f8f;stroke-linecap:round;stroke-width:1.5;"/>
   </g>
   <g id="line2d_11">
    <path clip-path="url(#p5eaa188bee)" d="M 76.704545 90.24094 
L 76.704545 87.609722 
" style="fill:none;stroke:#8f8f8f;stroke-linecap:round;stroke-width:1.5;"/>
   </g>
   <g id="line2d_12">
    <path clip-path="url(#p5eaa188bee)" d="M 70.490455 102.985616 
L 82.918636 102.985616 
" style="fill:none;stroke:#8f8f8f;stroke-linecap:round;stroke-width:1.5;"/>
   </g>
   <g id="line2d_13">
    <path clip-path="url(#p5eaa188bee)" d="M 70.490455 87.609722 
L 82.918636 87.609722 
" style="fill:none;stroke:#8f8f8f;stroke-linecap:round;stroke-width:1.5;"/>
   </g>
   <g id="line2d_14">
    <path clip-path="url(#p5eaa188bee)" d="M 102.068182 278.788309 
L 102.068182 301.669916 
" style="fill:none;stroke:#8f8f8f;stroke-linecap:round;stroke-width:1.5;"/>
   </g>
   <g id="line2d_15">
    <path clip-path="url(#p5eaa188bee)" d="M 102.068182 261.636847 
L 102.068182 255.387831 
" style="fill:none;stroke:#8f8f8f;stroke-linecap:round;stroke-width:1.5;"/>
   </g>
   <g id="line2d_16">
    <path clip-path="url(#p5eaa188bee)" d="M 95.854091 301.669916 
L 108.282273 301.669916 
" style="fill:none;stroke:#8f8f8f;stroke-linecap:round;stroke-width:1.5;"/>
   </g>
   <g id="line2d_17">
    <path clip-path="url(#p5eaa188bee)" d="M 95.854091 255.387831 
L 108.282273 255.387831 
" style="fill:none;stroke:#8f8f8f;stroke-linecap:round;stroke-width:1.5;"/>
   </g>
   <g id="line2d_18">
    <path clip-path="url(#p5eaa188bee)" d="M 140.113636 92.065064 
L 140.113636 95.818046 
" style="fill:none;stroke:#8f8f8f;stroke-linecap:round;stroke-width:1.5;"/>
   </g>
   <g id="line2d_19">
    <path clip-path="url(#p5eaa188bee)" d="M 140.113636 88.462782 
L 140.113636 85.028816 
" style="fill:none;stroke:#8f8f8f;stroke-linecap:round;stroke-width:1.5;"/>
   </g>
   <g id="line2d_20">
    <path clip-path="url(#p5eaa188bee)" d="M 133.899545 95.818046 
L 146.327727 95.818046 
" style="fill:none;stroke:#8f8f8f;stroke-linecap:round;stroke-width:1.5;"/>
   </g>
   <g id="line2d_21">
    <path clip-path="url(#p5eaa188bee)" d="M 133.899545 85.028816 
L 146.327727 85.028816 
" style="fill:none;stroke:#8f8f8f;stroke-linecap:round;stroke-width:1.5;"/>
   </g>
   <g id="line2d_22">
    <path clip-path="url(#p5eaa188bee)" d="M 165.477273 267.443946 
L 165.477273 268.836203 
" style="fill:none;stroke:#8f8f8f;stroke-linecap:round;stroke-width:1.5;"/>
   </g>
   <g id="line2d_23">
    <path clip-path="url(#p5eaa188bee)" d="M 165.477273 260.481712 
L 165.477273 252.446694 
" style="fill:none;stroke:#8f8f8f;stroke-linecap:round;stroke-width:1.5;"/>
   </g>
   <g id="line2d_24">
    <path clip-path="url(#p5eaa188bee)" d="M 159.263182 268.836203 
L 171.691364 268.836203 
" style="fill:none;stroke:#8f8f8f;stroke-linecap:round;stroke-width:1.5;"/>
   </g>
   <g id="line2d_25">
    <path clip-path="url(#p5eaa188bee)" d="M 159.263182 252.446694 
L 171.691364 252.446694 
" style="fill:none;stroke:#8f8f8f;stroke-linecap:round;stroke-width:1.5;"/>
   </g>
   <g id="line2d_26">
    <path clip-path="url(#p5eaa188bee)" d="M 203.522727 76.576374 
L 203.522727 78.181299 
" style="fill:none;stroke:#8f8f8f;stroke-linecap:round;stroke-width:1.5;"/>
   </g>
   <g id="line2d_27">
    <path clip-path="url(#p5eaa188bee)" d="M 203.522727 72.546624 
L 203.522727 71.313123 
" style="fill:none;stroke:#8f8f8f;stroke-linecap:round;stroke-width:1.5;"/>
   </g>
   <g id="line2d_28">
    <path clip-path="url(#p5eaa188bee)" d="M 197.308636 78.181299 
L 209.736818 78.181299 
" style="fill:none;stroke:#8f8f8f;stroke-linecap:round;stroke-width:1.5;"/>
   </g>
   <g id="line2d_29">
    <path clip-path="url(#p5eaa188bee)" d="M 197.308636 71.313123 
L 209.736818 71.313123 
" style="fill:none;stroke:#8f8f8f;stroke-linecap:round;stroke-width:1.5;"/>
   </g>
   <g id="line2d_30">
    <path clip-path="url(#p5eaa188bee)" d="M 228.886364 273.291244 
L 228.886364 300.290684 
" style="fill:none;stroke:#8f8f8f;stroke-linecap:round;stroke-width:1.5;"/>
   </g>
   <g id="line2d_31">
    <path clip-path="url(#p5eaa188bee)" d="M 228.886364 244.286609 
L 228.886364 228.961663 
" style="fill:none;stroke:#8f8f8f;stroke-linecap:round;stroke-width:1.5;"/>
   </g>
   <g id="line2d_32">
    <path clip-path="url(#p5eaa188bee)" d="M 222.672273 300.290684 
L 235.100455 300.290684 
" style="fill:none;stroke:#8f8f8f;stroke-linecap:round;stroke-width:1.5;"/>
   </g>
   <g id="line2d_33">
    <path clip-path="url(#p5eaa188bee)" d="M 222.672273 228.961663 
L 235.100455 228.961663 
" style="fill:none;stroke:#8f8f8f;stroke-linecap:round;stroke-width:1.5;"/>
   </g>
   <g id="line2d_34">
    <path clip-path="url(#p5eaa188bee)" d="M 266.931818 69.530572 
L 266.931818 72.797412 
" style="fill:none;stroke:#8f8f8f;stroke-linecap:round;stroke-width:1.5;"/>
   </g>
   <g id="line2d_35">
    <path clip-path="url(#p5eaa188bee)" d="M 266.931818 63.431716 
L 266.931818 57.917521 
" style="fill:none;stroke:#8f8f8f;stroke-linecap:round;stroke-width:1.5;"/>
   </g>
   <g id="line2d_36">
    <path clip-path="url(#p5eaa188bee)" d="M 260.717727 72.797412 
L 273.145909 72.797412 
" style="fill:none;stroke:#8f8f8f;stroke-linecap:round;stroke-width:1.5;"/>
   </g>
   <g id="line2d_37">
    <path clip-path="url(#p5eaa188bee)" d="M 260.717727 57.917521 
L 273.145909 57.917521 
" style="fill:none;stroke:#8f8f8f;stroke-linecap:round;stroke-width:1.5;"/>
   </g>
   <g id="line2d_38">
    <path clip-path="url(#p5eaa188bee)" d="M 292.295455 272.043206 
L 292.295455 296.558272 
" style="fill:none;stroke:#8f8f8f;stroke-linecap:round;stroke-width:1.5;"/>
   </g>
   <g id="line2d_39">
    <path clip-path="url(#p5eaa188bee)" d="M 292.295455 242.373715 
L 292.295455 237.118657 
" style="fill:none;stroke:#8f8f8f;stroke-linecap:round;stroke-width:1.5;"/>
   </g>
   <g id="line2d_40">
    <path clip-path="url(#p5eaa188bee)" d="M 286.081364 296.558272 
L 298.509545 296.558272 
" style="fill:none;stroke:#8f8f8f;stroke-linecap:round;stroke-width:1.5;"/>
   </g>
   <g id="line2d_41">
    <path clip-path="url(#p5eaa188bee)" d="M 286.081364 237.118657 
L 298.509545 237.118657 
" style="fill:none;stroke:#8f8f8f;stroke-linecap:round;stroke-width:1.5;"/>
   </g>
   <g id="line2d_42">
    <path clip-path="url(#p5eaa188bee)" d="M 64.276364 96.457259 
L 89.132727 96.457259 
" style="fill:none;stroke:#8f8f8f;stroke-linecap:round;stroke-width:1.5;"/>
   </g>
   <g id="line2d_43">
    <path clip-path="url(#p5eaa188bee)" d="M 89.64 272.613711 
L 114.496364 272.613711 
" style="fill:none;stroke:#8f8f8f;stroke-linecap:round;stroke-width:1.5;"/>
   </g>
   <g id="line2d_44">
    <path clip-path="url(#p5eaa188bee)" d="M 127.685455 91.184258 
L 152.541818 91.184258 
" style="fill:none;stroke:#8f8f8f;stroke-linecap:round;stroke-width:1.5;"/>
   </g>
   <g id="line2d_45">
    <path clip-path="url(#p5eaa188bee)" d="M 153.049091 262.528441 
L 177.905455 262.528441 
" style="fill:none;stroke:#8f8f8f;stroke-linecap:round;stroke-width:1.5;"/>
   </g>
   <g id="line2d_46">
    <path clip-path="url(#p5eaa188bee)" d="M 191.094545 74.945624 
L 215.950909 74.945624 
" style="fill:none;stroke:#8f8f8f;stroke-linecap:round;stroke-width:1.5;"/>
   </g>
   <g id="line2d_47">
    <path clip-path="url(#p5eaa188bee)" d="M 216.458182 258.294362 
L 241.314545 258.294362 
" style="fill:none;stroke:#8f8f8f;stroke-linecap:round;stroke-width:1.5;"/>
   </g>
   <g id="line2d_48">
    <path clip-path="url(#p5eaa188bee)" d="M 254.503636 68.685752 
L 279.36 68.685752 
" style="fill:none;stroke:#8f8f8f;stroke-linecap:round;stroke-width:1.5;"/>
   </g>
   <g id="line2d_49">
    <path clip-path="url(#p5eaa188bee)" d="M 279.867273 261.939247 
L 304.723636 261.939247 
" style="fill:none;stroke:#8f8f8f;stroke-linecap:round;stroke-width:1.5;"/>
   </g>
   <g id="patch_13">
    <path d="M 45 315 
L 45 43.2 
" style="fill:none;stroke:#262626;stroke-linecap:square;stroke-linejoin:miter;stroke-width:1.25;"/>
   </g>
   <g id="patch_14">
    <path d="M 324 315 
L 324 43.2 
" style="fill:none;stroke:#262626;stroke-linecap:square;stroke-linejoin:miter;stroke-width:1.25;"/>
   </g>
   <g id="patch_15">
    <path d="M 45 315 
L 324 315 
" style="fill:none;stroke:#262626;stroke-linecap:square;stroke-linejoin:miter;stroke-width:1.25;"/>
   </g>
   <g id="patch_16">
    <path d="M 45 43.2 
L 324 43.2 
" style="fill:none;stroke:#262626;stroke-linecap:square;stroke-linejoin:miter;stroke-width:1.25;"/>
   </g>
   <g id="PathCollection_5">
    <defs>
     <path d="M 0 2.5 
C 0.663008 2.5 1.29895 2.236584 1.767767 1.767767 
C 2.236584 1.29895 2.5 0.663008 2.5 0 
C 2.5 -0.663008 2.236584 -1.29895 1.767767 -1.767767 
C 1.29895 -2.236584 0.663008 -2.5 0 -2.5 
C -0.663008 -2.5 -1.29895 -2.236584 -1.767767 -1.767767 
C -2.236584 -1.29895 -2.5 -0.663008 -2.5 0 
C -2.5 0.663008 -2.236584 1.29895 -1.767767 1.767767 
C -1.29895 2.236584 -0.663008 2.5 0 2.5 
z
" id="C0_0_70331ebaea"/>
    </defs>
    <g clip-path="url(#p5eaa188bee)">
     <use style="fill:#0072b2;" x="84.162706" xlink:href="#C0_0_70331ebaea" y="102.985616"/>
    </g>
    <g clip-path="url(#p5eaa188bee)">
     <use style="fill:#0072b2;" x="80.939019" xlink:href="#C0_0_70331ebaea" y="87.609722"/>
    </g>
    <g clip-path="url(#p5eaa188bee)">
     <use style="fill:#0072b2;" x="84.329596" xlink:href="#C0_0_70331ebaea" y="97.066503"/>
    </g>
    <g clip-path="url(#p5eaa188bee)">
     <use style="fill:#0072b2;" x="84.063452" xlink:href="#C0_0_70331ebaea" y="95.848015"/>
    </g>
    <g clip-path="url(#p5eaa188bee)">
     <use style="fill:#0072b2;" x="74.285169" xlink:href="#C0_0_70331ebaea" y="97.968594"/>
    </g>
    <g clip-path="url(#p5eaa188bee)">
     <use style="fill:#0072b2;" x="67.724034" xlink:href="#C0_0_70331ebaea" y="88.371915"/>
    </g>
   </g>
   <g id="PathCollection_6">
    <defs>
     <path d="M 0 2.5 
C 0.663008 2.5 1.29895 2.236584 1.767767 1.767767 
C 2.236584 1.29895 2.5 0.663008 2.5 0 
C 2.5 -0.663008 2.236584 -1.29895 1.767767 -1.767767 
C 1.29895 -2.236584 0.663008 -2.5 0 -2.5 
C -0.663008 -2.5 -1.29895 -2.236584 -1.767767 -1.767767 
C -2.236584 -1.29895 -2.5 -0.663008 -2.5 0 
C -2.5 0.663008 -2.236584 1.29895 -1.767767 1.767767 
C -1.29895 2.236584 -0.663008 2.5 0 2.5 
z
" id="C1_0_a2caa677ce"/>
    </defs>
    <g clip-path="url(#p5eaa188bee)">
     <use style="fill:#d55e00;" x="105.503842" xlink:href="#C1_0_a2caa677ce" y="255.387831"/>
    </g>
    <g clip-path="url(#p5eaa188bee)">
     <use style="fill:#d55e00;" x="107.665665" xlink:href="#C1_0_a2caa677ce" y="258.794289"/>
    </g>
    <g clip-path="url(#p5eaa188bee)">
     <use style="fill:#d55e00;" x="97.47875" xlink:href="#C1_0_a2caa677ce" y="275.062902"/>
    </g>
    <g clip-path="url(#p5eaa188bee)">
     <use style="fill:#d55e00;" x="92.709047" xlink:href="#C1_0_a2caa677ce" y="270.16452"/>
    </g>
    <g clip-path="url(#p5eaa188bee)">
     <use style="fill:#d55e00;" x="93.130545" xlink:href="#C1_0_a2caa677ce" y="280.030111"/>
    </g>
    <g clip-path="url(#p5eaa188bee)">
     <use style="fill:#d55e00;" x="109.594279" xlink:href="#C1_0_a2caa677ce" y="301.669916"/>
    </g>
   </g>
   <g id="PathCollection_7">
    <defs>
     <path d="M 0 2.5 
C 0.663008 2.5 1.29895 2.236584 1.767767 1.767767 
C 2.236584 1.29895 2.5 0.663008 2.5 0 
C 2.5 -0.663008 2.236584 -1.29895 1.767767 -1.767767 
C 1.29895 -2.236584 0.663008 -2.5 0 -2.5 
C -0.663008 -2.5 -1.29895 -2.236584 -1.767767 -1.767767 
C -2.236584 -1.29895 -2.5 -0.663008 -2.5 0 
C -2.5 0.663008 -2.236584 1.29895 -1.767767 1.767767 
C -1.29895 2.236584 -0.663008 2.5 0 2.5 
z
" id="C2_0_ded01f3071"/>
    </defs>
    <g clip-path="url(#p5eaa188bee)">
     <use style="fill:#0072b2;" x="130.83383" xlink:href="#C2_0_ded01f3071" y="95.818046"/>
    </g>
    <g clip-path="url(#p5eaa188bee)">
     <use style="fill:#0072b2;" x="134.712026" xlink:href="#C2_0_ded01f3071" y="91.540578"/>
    </g>
    <g clip-path="url(#p5eaa188bee)">
     <use style="fill:#0072b2;" x="131.51115" xlink:href="#C2_0_ded01f3071" y="85.028816"/>
    </g>
    <g clip-path="url(#p5eaa188bee)">
     <use style="fill:#0072b2;" x="141.984379" xlink:href="#C2_0_ded01f3071" y="87.674396"/>
    </g>
    <g clip-path="url(#p5eaa188bee)">
     <use style="fill:#0072b2;" x="136.705224" xlink:href="#C2_0_ded01f3071" y="92.239893"/>
    </g>
    <g clip-path="url(#p5eaa188bee)">
     <use style="fill:#0072b2;" x="140.351465" xlink:href="#C2_0_ded01f3071" y="90.827939"/>
    </g>
   </g>
   <g id="PathCollection_8">
    <defs>
     <path d="M 0 2.5 
C 0.663008 2.5 1.29895 2.236584 1.767767 1.767767 
C 2.236584 1.29895 2.5 0.663008 2.5 0 
C 2.5 -0.663008 2.236584 -1.29895 1.767767 -1.767767 
C 1.29895 -2.236584 0.663008 -2.5 0 -2.5 
C -0.663008 -2.5 -1.29895 -2.236584 -1.767767 -1.767767 
C -2.236584 -1.29895 -2.5 -0.663008 -2.5 0 
C -2.5 0.663008 -2.236584 1.29895 -1.767767 1.767767 
C -1.29895 2.236584 -0.663008 2.5 0 2.5 
z
" id="C3_0_b182d273c2"/>
    </defs>
    <g clip-path="url(#p5eaa188bee)">
     <use style="fill:#d55e00;" x="158.991162" xlink:href="#C3_0_b182d273c2" y="263.267175"/>
    </g>
    <g clip-path="url(#p5eaa188bee)">
     <use style="fill:#d55e00;" x="160.841767" xlink:href="#C3_0_b182d273c2" y="268.836203"/>
    </g>
    <g clip-path="url(#p5eaa188bee)">
     <use style="fill:#d55e00;" x="161.668848" xlink:href="#C3_0_b182d273c2" y="261.789708"/>
    </g>
    <g clip-path="url(#p5eaa188bee)">
     <use style="fill:#d55e00;" x="170.268929" xlink:href="#C3_0_b182d273c2" y="260.045713"/>
    </g>
    <g clip-path="url(#p5eaa188bee)">
     <use style="fill:#d55e00;" x="166.226735" xlink:href="#C3_0_b182d273c2" y="292.354836"/>
    </g>
    <g clip-path="url(#p5eaa188bee)">
     <use style="fill:#d55e00;" x="173.679413" xlink:href="#C3_0_b182d273c2" y="252.446694"/>
    </g>
   </g>
   <g id="PathCollection_9">
    <defs>
     <path d="M 0 2.5 
C 0.663008 2.5 1.29895 2.236584 1.767767 1.767767 
C 2.236584 1.29895 2.5 0.663008 2.5 0 
C 2.5 -0.663008 2.236584 -1.29895 1.767767 -1.767767 
C 1.29895 -2.236584 0.663008 -2.5 0 -2.5 
C -0.663008 -2.5 -1.29895 -2.236584 -1.767767 -1.767767 
C -2.236584 -1.29895 -2.5 -0.663008 -2.5 0 
C -2.5 0.663008 -2.236584 1.29895 -1.767767 1.767767 
C -1.29895 2.236584 -0.663008 2.5 0 2.5 
z
" id="C4_0_b54fc59002"/>
    </defs>
    <g clip-path="url(#p5eaa188bee)">
     <use style="fill:#0072b2;" x="202.619314" xlink:href="#C4_0_b54fc59002" y="71.313123"/>
    </g>
    <g clip-path="url(#p5eaa188bee)">
     <use style="fill:#0072b2;" x="209.404551" xlink:href="#C4_0_b54fc59002" y="75.322442"/>
    </g>
    <g clip-path="url(#p5eaa188bee)">
     <use style="fill:#0072b2;" x="198.162744" xlink:href="#C4_0_b54fc59002" y="74.568806"/>
    </g>
    <g clip-path="url(#p5eaa188bee)">
     <use style="fill:#0072b2;" x="199.533415" xlink:href="#C4_0_b54fc59002" y="76.994351"/>
    </g>
    <g clip-path="url(#p5eaa188bee)">
     <use style="fill:#0072b2;" x="207.912678" xlink:href="#C4_0_b54fc59002" y="78.181299"/>
    </g>
    <g clip-path="url(#p5eaa188bee)">
     <use style="fill:#0072b2;" x="198.658166" xlink:href="#C4_0_b54fc59002" y="71.872564"/>
    </g>
   </g>
   <g id="PathCollection_10">
    <defs>
     <path d="M 0 2.5 
C 0.663008 2.5 1.29895 2.236584 1.767767 1.767767 
C 2.236584 1.29895 2.5 0.663008 2.5 0 
C 2.5 -0.663008 2.236584 -1.29895 1.767767 -1.767767 
C 1.29895 -2.236584 0.663008 -2.5 0 -2.5 
C -0.663008 -2.5 -1.29895 -2.236584 -1.767767 -1.767767 
C -2.236584 -1.29895 -2.5 -0.663008 -2.5 0 
C -2.5 0.663008 -2.236584 1.29895 -1.767767 1.767767 
C -1.29895 2.236584 -0.663008 2.5 0 2.5 
z
" id="C5_0_a0d4689133"/>
    </defs>
    <g clip-path="url(#p5eaa188bee)">
     <use style="fill:#d55e00;" x="230.764778" xlink:href="#C5_0_a0d4689133" y="274.529547"/>
    </g>
    <g clip-path="url(#p5eaa188bee)">
     <use style="fill:#d55e00;" x="222.192015" xlink:href="#C5_0_a0d4689133" y="269.576336"/>
    </g>
    <g clip-path="url(#p5eaa188bee)">
     <use style="fill:#d55e00;" x="225.935481" xlink:href="#C5_0_a0d4689133" y="228.961663"/>
    </g>
    <g clip-path="url(#p5eaa188bee)">
     <use style="fill:#d55e00;" x="229.832097" xlink:href="#C5_0_a0d4689133" y="300.290684"/>
    </g>
    <g clip-path="url(#p5eaa188bee)">
     <use style="fill:#d55e00;" x="226.885874" xlink:href="#C5_0_a0d4689133" y="247.012388"/>
    </g>
    <g clip-path="url(#p5eaa188bee)">
     <use style="fill:#d55e00;" x="220.567172" xlink:href="#C5_0_a0d4689133" y="243.378016"/>
    </g>
   </g>
   <g id="PathCollection_11">
    <defs>
     <path d="M 0 2.5 
C 0.663008 2.5 1.29895 2.236584 1.767767 1.767767 
C 2.236584 1.29895 2.5 0.663008 2.5 0 
C 2.5 -0.663008 2.236584 -1.29895 1.767767 -1.767767 
C 1.29895 -2.236584 0.663008 -2.5 0 -2.5 
C -0.663008 -2.5 -1.29895 -2.236584 -1.767767 -1.767767 
C -2.236584 -1.29895 -2.5 -0.663008 -2.5 0 
C -2.5 0.663008 -2.236584 1.29895 -1.767767 1.767767 
C -1.29895 2.236584 -0.663008 2.5 0 2.5 
z
" id="C6_0_b6949cdcfc"/>
    </defs>
    <g clip-path="url(#p5eaa188bee)">
     <use style="fill:#0072b2;" x="270.144541" xlink:href="#C6_0_b6949cdcfc" y="61.716191"/>
    </g>
    <g clip-path="url(#p5eaa188bee)">
     <use style="fill:#0072b2;" x="266.550033" xlink:href="#C6_0_b6949cdcfc" y="57.917521"/>
    </g>
    <g clip-path="url(#p5eaa188bee)">
     <use style="fill:#0072b2;" x="264.182413" xlink:href="#C6_0_b6949cdcfc" y="69.776358"/>
    </g>
    <g clip-path="url(#p5eaa188bee)">
     <use style="fill:#0072b2;" x="265.326659" xlink:href="#C6_0_b6949cdcfc" y="72.797412"/>
    </g>
    <g clip-path="url(#p5eaa188bee)">
     <use style="fill:#0072b2;" x="269.783022" xlink:href="#C6_0_b6949cdcfc" y="68.793212"/>
    </g>
    <g clip-path="url(#p5eaa188bee)">
     <use style="fill:#0072b2;" x="275.154082" xlink:href="#C6_0_b6949cdcfc" y="68.578293"/>
    </g>
   </g>
   <g id="PathCollection_12">
    <defs>
     <path d="M 0 2.5 
C 0.663008 2.5 1.29895 2.236584 1.767767 1.767767 
C 2.236584 1.29895 2.5 0.663008 2.5 0 
C 2.5 -0.663008 2.236584 -1.29895 1.767767 -1.767767 
C 1.29895 -2.236584 0.663008 -2.5 0 -2.5 
C -0.663008 -2.5 -1.29895 -2.236584 -1.767767 -1.767767 
C -2.236584 -1.29895 -2.5 -0.663008 -2.5 0 
C -2.5 0.663008 -2.236584 1.29895 -1.767767 1.767767 
C -1.29895 2.236584 -0.663008 2.5 0 2.5 
z
" id="C7_0_f3a897d22c"/>
    </defs>
    <g clip-path="url(#p5eaa188bee)">
     <use style="fill:#d55e00;" x="293.456636" xlink:href="#C7_0_f3a897d22c" y="237.118657"/>
    </g>
    <g clip-path="url(#p5eaa188bee)">
     <use style="fill:#d55e00;" x="300.338194" xlink:href="#C7_0_f3a897d22c" y="296.558272"/>
    </g>
    <g clip-path="url(#p5eaa188bee)">
     <use style="fill:#d55e00;" x="291.865586" xlink:href="#C7_0_f3a897d22c" y="272.651149"/>
    </g>
    <g clip-path="url(#p5eaa188bee)">
     <use style="fill:#d55e00;" x="285.319069" xlink:href="#C7_0_f3a897d22c" y="238.611914"/>
    </g>
    <g clip-path="url(#p5eaa188bee)">
     <use style="fill:#d55e00;" x="283.563528" xlink:href="#C7_0_f3a897d22c" y="270.219376"/>
    </g>
    <g clip-path="url(#p5eaa188bee)">
     <use style="fill:#d55e00;" x="295.777819" xlink:href="#C7_0_f3a897d22c" y="253.659117"/>
    </g>
   </g>
   <g id="text_12">
    <text style="fill:#262626;font-family:DejaVu Sans;font-size:14.4px;font-style:normal;font-weight:normal;text-anchor:middle;" transform="rotate(-0, 184.5, 37.2)" x="184.5" y="37.2">FIO1</text>
   </g>
   <g id="legend_1">
    <g id="patch_17">
     <path d="M 234.57 200.455125 
L 314.76 200.455125 
Q 317.4 200.455125 317.4 197.815125 
L 317.4 160.384875 
Q 317.4 157.744875 314.76 157.744875 
L 234.57 157.744875 
Q 231.93 157.744875 231.93 160.384875 
L 231.93 197.815125 
Q 231.93 200.455125 234.57 200.455125 
z
" style="fill:#ffffff;opacity:0.8;stroke:#cccccc;stroke-linejoin:miter;"/>
    </g>
    <g id="PathCollection_13">
     <defs>
      <path d="M 0 3 
C 0.795609 3 1.55874 2.683901 2.12132 2.12132 
C 2.683901 1.55874 3 0.795609 3 0 
C 3 -0.795609 2.683901 -1.55874 2.12132 -2.12132 
C 1.55874 -2.683901 0.795609 -3 0 -3 
C -0.795609 -3 -1.55874 -2.683901 -2.12132 -2.12132 
C -2.683901 -1.55874 -3 -0.795609 -3 0 
C -3 0.795609 -2.683901 1.55874 -2.12132 2.12132 
C -1.55874 2.683901 -0.795609 3 0 3 
z
" id="m15e00d1e4f" style="stroke:#0072b2;"/>
     </defs>
     <g>
      <use style="fill:#0072b2;stroke:#0072b2;" x="250.41" xlink:href="#m15e00d1e4f" y="169.589813"/>
     </g>
    </g>
    <g id="text_13">
     <text style="fill:#262626;font-family:DejaVu Sans;font-size:13.2px;font-style:normal;font-weight:normal;text-anchor:start;" transform="rotate(-0, 274.17, 173.054813)" x="274.17" y="173.054813">Col-0</text>
    </g>
    <g id="PathCollection_14">
     <defs>
      <path d="M 0 3 
C 0.795609 3 1.55874 2.683901 2.12132 2.12132 
C 2.683901 1.55874 3 0.795609 3 0 
C 3 -0.795609 2.683901 -1.55874 2.12132 -2.12132 
C 1.55874 -2.683901 0.795609 -3 0 -3 
C -0.795609 -3 -1.55874 -2.683901 -2.12132 -2.12132 
C -2.683901 -1.55874 -3 -0.795609 -3 0 
C -3 0.795609 -2.683901 1.55874 -2.12132 2.12132 
C -1.55874 2.683901 -0.795609 3 0 3 
z
" id="ma94365fe1c" style="stroke:#d55e00;"/>
     </defs>
     <g>
      <use style="fill:#d55e00;stroke:#d55e00;" x="250.41" xlink:href="#ma94365fe1c" y="188.964938"/>
     </g>
    </g>
    <g id="text_14">
     <text style="fill:#262626;font-family:DejaVu Sans;font-size:13.2px;font-style:normal;font-weight:normal;text-anchor:start;" transform="rotate(-0, 274.17, 192.429938)" x="274.17" y="192.429938">fio1-3</text>
    </g>
   </g>
  </g>
 </g>
 <defs>
  <clipPath id="p5eaa188bee">
   <rect height="271.8" width="279" x="45" y="43.2"/>
  </clipPath>
 </defs>
</svg>
