<?xml version="1.0" encoding="utf-8" standalone="no"?>
<!DOCTYPE svg PUBLIC "-//W3C//DTD SVG 1.1//EN"
  "http://www.w3.org/Graphics/SVG/1.1/DTD/svg11.dtd">
<!-- Created with matplotlib (https://matplotlib.org/) -->
<svg height="504pt" version="1.1" viewBox="0 0 504 504" width="504pt" xmlns="http://www.w3.org/2000/svg" xmlns:xlink="http://www.w3.org/1999/xlink">
 <defs>
  <style type="text/css">
*{stroke-linecap:butt;stroke-linejoin:round;}
  </style>
 </defs>
 <g id="figure_1">
  <g id="patch_1">
   <path d="M 0 504 
L 504 504 
L 504 0 
L 0 0 
z
" style="fill:#ffffff;"/>
  </g>
  <g id="axes_1">
   <g id="patch_2">
    <path d="M 63 441 
L 453.6 441 
L 453.6 60.48 
L 63 60.48 
z
" style="fill:#ffffff;"/>
   </g>
   <g id="matplotlib.axis_1">
    <g id="xtick_1">
     <g id="line2d_1">
      <defs>
       <path d="M 0 0 
L 0 6 
" id="mbc5237f94e" style="stroke:#262626;stroke-width:1.25;"/>
      </defs>
      <g>
       <use style="fill:#262626;stroke:#262626;stroke-width:1.25;" x="80.6266" xlink:href="#mbc5237f94e" y="441"/>
      </g>
     </g>
     <g id="text_1">
      <text style="fill:#262626;font-family:DejaVu Sans;font-size:13.2px;font-style:normal;font-weight:normal;text-anchor:middle;" transform="rotate(-0, 80.6266, 460.529938)" x="80.6266" y="460.529938">−75</text>
     </g>
    </g>
    <g id="xtick_2">
     <g id="line2d_2">
      <g>
       <use style="fill:#262626;stroke:#262626;stroke-width:1.25;" x="134.645145" xlink:href="#mbc5237f94e" y="441"/>
      </g>
     </g>
     <g id="text_2">
      <text style="fill:#262626;font-family:DejaVu Sans;font-size:13.2px;font-style:normal;font-weight:normal;text-anchor:middle;" transform="rotate(-0, 134.645145, 460.529938)" x="134.645145" y="460.529938">−50</text>
     </g>
    </g>
    <g id="xtick_3">
     <g id="line2d_3">
      <g>
       <use style="fill:#262626;stroke:#262626;stroke-width:1.25;" x="188.66369" xlink:href="#mbc5237f94e" y="441"/>
      </g>
     </g>
     <g id="text_3">
      <text style="fill:#262626;font-family:DejaVu Sans;font-size:13.2px;font-style:normal;font-weight:normal;text-anchor:middle;" transform="rotate(-0, 188.66369, 460.529938)" x="188.66369" y="460.529938">−25</text>
     </g>
    </g>
    <g id="xtick_4">
     <g id="line2d_4">
      <g>
       <use style="fill:#262626;stroke:#262626;stroke-width:1.25;" x="242.682235" xlink:href="#mbc5237f94e" y="441"/>
      </g>
     </g>
     <g id="text_4">
      <text style="fill:#262626;font-family:DejaVu Sans;font-size:13.2px;font-style:normal;font-weight:normal;text-anchor:middle;" transform="rotate(-0, 242.682235, 460.529938)" x="242.682235" y="460.529938">0</text>
     </g>
    </g>
    <g id="xtick_5">
     <g id="line2d_5">
      <g>
       <use style="fill:#262626;stroke:#262626;stroke-width:1.25;" x="296.70078" xlink:href="#mbc5237f94e" y="441"/>
      </g>
     </g>
     <g id="text_5">
      <text style="fill:#262626;font-family:DejaVu Sans;font-size:13.2px;font-style:normal;font-weight:normal;text-anchor:middle;" transform="rotate(-0, 296.70078, 460.529938)" x="296.70078" y="460.529938">25</text>
     </g>
    </g>
    <g id="xtick_6">
     <g id="line2d_6">
      <g>
       <use style="fill:#262626;stroke:#262626;stroke-width:1.25;" x="350.719325" xlink:href="#mbc5237f94e" y="441"/>
      </g>
     </g>
     <g id="text_6">
      <text style="fill:#262626;font-family:DejaVu Sans;font-size:13.2px;font-style:normal;font-weight:normal;text-anchor:middle;" transform="rotate(-0, 350.719325, 460.529938)" x="350.719325" y="460.529938">50</text>
     </g>
    </g>
    <g id="xtick_7">
     <g id="line2d_7">
      <g>
       <use style="fill:#262626;stroke:#262626;stroke-width:1.25;" x="404.73787" xlink:href="#mbc5237f94e" y="441"/>
      </g>
     </g>
     <g id="text_7">
      <text style="fill:#262626;font-family:DejaVu Sans;font-size:13.2px;font-style:normal;font-weight:normal;text-anchor:middle;" transform="rotate(-0, 404.73787, 460.529938)" x="404.73787" y="460.529938">75</text>
     </g>
    </g>
    <g id="text_8">
     <text style="fill:#262626;font-family:DejaVu Sans;font-size:14.4px;font-style:normal;font-weight:normal;text-anchor:middle;" transform="rotate(-0, 258.3, 478.216875)" x="258.3" y="478.216875">Component 1</text>
    </g>
   </g>
   <g id="matplotlib.axis_2">
    <g id="ytick_1">
     <g id="line2d_8">
      <defs>
       <path d="M 0 0 
L -6 0 
" id="mb37432dcbf" style="stroke:#262626;stroke-width:1.25;"/>
      </defs>
      <g>
       <use style="fill:#262626;stroke:#262626;stroke-width:1.25;" x="63" xlink:href="#mb37432dcbf" y="390.694603"/>
      </g>
     </g>
     <g id="text_9">
      <text style="fill:#262626;font-family:DejaVu Sans;font-size:13.2px;font-style:normal;font-weight:normal;text-anchor:end;" transform="rotate(-0, 53.5, 395.709571)" x="53.5" y="395.709571">−40</text>
     </g>
    </g>
    <g id="ytick_2">
     <g id="line2d_9">
      <g>
       <use style="fill:#262626;stroke:#262626;stroke-width:1.25;" x="63" xlink:href="#mb37432dcbf" y="321.611581"/>
      </g>
     </g>
     <g id="text_10">
      <text style="fill:#262626;font-family:DejaVu Sans;font-size:13.2px;font-style:normal;font-weight:normal;text-anchor:end;" transform="rotate(-0, 53.5, 326.626549)" x="53.5" y="326.626549">−20</text>
     </g>
    </g>
    <g id="ytick_3">
     <g id="line2d_10">
      <g>
       <use style="fill:#262626;stroke:#262626;stroke-width:1.25;" x="63" xlink:href="#mb37432dcbf" y="252.528559"/>
      </g>
     </g>
     <g id="text_11">
      <text style="fill:#262626;font-family:DejaVu Sans;font-size:13.2px;font-style:normal;font-weight:normal;text-anchor:end;" transform="rotate(-0, 53.5, 257.543528)" x="53.5" y="257.543528">0</text>
     </g>
    </g>
    <g id="ytick_4">
     <g id="line2d_11">
      <g>
       <use style="fill:#262626;stroke:#262626;stroke-width:1.25;" x="63" xlink:href="#mb37432dcbf" y="183.445537"/>
      </g>
     </g>
     <g id="text_12">
      <text style="fill:#262626;font-family:DejaVu Sans;font-size:13.2px;font-style:normal;font-weight:normal;text-anchor:end;" transform="rotate(-0, 53.5, 188.460506)" x="53.5" y="188.460506">20</text>
     </g>
    </g>
    <g id="ytick_5">
     <g id="line2d_12">
      <g>
       <use style="fill:#262626;stroke:#262626;stroke-width:1.25;" x="63" xlink:href="#mb37432dcbf" y="114.362515"/>
      </g>
     </g>
     <g id="text_13">
      <text style="fill:#262626;font-family:DejaVu Sans;font-size:13.2px;font-style:normal;font-weight:normal;text-anchor:end;" transform="rotate(-0, 53.5, 119.377484)" x="53.5" y="119.377484">40</text>
     </g>
    </g>
    <g id="text_14">
     <text style="fill:#262626;font-family:DejaVu Sans;font-size:14.4px;font-style:normal;font-weight:normal;text-anchor:middle;" transform="rotate(-90, 18.647063, 250.74)" x="18.647063" y="250.74">Component 2</text>
    </g>
   </g>
   <g id="PathCollection_1">
    <path clip-path="url(#p0dc338e39c)" d="M 299.783733 155.763681 
C 300.579342 155.763681 301.342473 155.447583 301.905053 154.885002 
C 302.467634 154.322421 302.783733 153.559291 302.783733 152.763681 
C 302.783733 151.968072 302.467634 151.204942 301.905053 150.642361 
C 301.342473 150.07978 300.579342 149.763681 299.783733 149.763681 
C 298.988124 149.763681 298.224994 150.07978 297.662413 150.642361 
C 297.099832 151.204942 296.783733 151.968072 296.783733 152.763681 
C 296.783733 153.559291 297.099832 154.322421 297.662413 154.885002 
C 298.224994 155.447583 298.988124 155.763681 299.783733 155.763681 
z
" style="fill:#0072b2;stroke:#ffffff;stroke-width:0.48;"/>
    <path clip-path="url(#p0dc338e39c)" d="M 409.548432 359.012451 
L 411.048432 357.512451 
L 412.548432 359.012451 
L 414.048432 357.512451 
L 412.548432 356.012451 
L 414.048432 354.512451 
L 412.548432 353.012451 
L 411.048432 354.512451 
L 409.548432 353.012451 
L 408.048432 354.512451 
L 409.548432 356.012451 
L 408.048432 357.512451 
z
" style="fill:#d55e00;stroke:#ffffff;stroke-width:0.48;"/>
    <path clip-path="url(#p0dc338e39c)" d="M 297.682951 388.682196 
L 299.182951 387.182196 
L 300.682951 388.682196 
L 302.182951 387.182196 
L 300.682951 385.682196 
L 302.182951 384.182196 
L 300.682951 382.682196 
L 299.182951 384.182196 
L 297.682951 382.682196 
L 296.182951 384.182196 
L 297.682951 385.682196 
L 296.182951 387.182196 
z
" style="fill:#0072b2;stroke:#ffffff;stroke-width:0.48;"/>
    <path clip-path="url(#p0dc338e39c)" d="M 132.914958 380.992302 
L 134.414958 379.492302 
L 135.914958 380.992302 
L 137.414958 379.492302 
L 135.914958 377.992302 
L 137.414958 376.492302 
L 135.914958 374.992302 
L 134.414958 376.492302 
L 132.914958 374.992302 
L 131.414958 376.492302 
L 132.914958 377.992302 
L 131.414958 379.492302 
z
" style="fill:#009e73;stroke:#ffffff;stroke-width:0.48;"/>
    <path clip-path="url(#p0dc338e39c)" d="M 302.608347 138.454398 
C 303.403957 138.454398 304.167087 138.138299 304.729668 137.575719 
C 305.292248 137.013138 305.608347 136.250008 305.608347 135.454398 
C 305.608347 134.658789 305.292248 133.895659 304.729668 133.333078 
C 304.167087 132.770497 303.403957 132.454398 302.608347 132.454398 
C 301.812738 132.454398 301.049608 132.770497 300.487027 133.333078 
C 299.924446 133.895659 299.608347 134.658789 299.608347 135.454398 
C 299.608347 136.250008 299.924446 137.013138 300.487027 137.575719 
C 301.049608 138.138299 301.812738 138.454398 302.608347 138.454398 
z
" style="fill:#0072b2;stroke:#ffffff;stroke-width:0.48;"/>
    <path clip-path="url(#p0dc338e39c)" d="M 397.487824 159.30291 
C 398.283434 159.30291 399.046564 158.986811 399.609145 158.42423 
C 400.171726 157.861649 400.487824 157.098519 400.487824 156.30291 
C 400.487824 155.507301 400.171726 154.74417 399.609145 154.181589 
C 399.046564 153.619009 398.283434 153.30291 397.487824 153.30291 
C 396.692215 153.30291 395.929085 153.619009 395.366504 154.181589 
C 394.803923 154.74417 394.487824 155.507301 394.487824 156.30291 
C 394.487824 157.098519 394.803923 157.861649 395.366504 158.42423 
C 395.929085 158.986811 396.692215 159.30291 397.487824 159.30291 
z
" style="fill:#d55e00;stroke:#ffffff;stroke-width:0.48;"/>
    <path clip-path="url(#p0dc338e39c)" d="M 404.098698 96.66782 
C 404.894307 96.66782 405.657437 96.351721 406.220018 95.78914 
C 406.782599 95.226559 407.098698 94.463429 407.098698 93.66782 
C 407.098698 92.87221 406.782599 92.10908 406.220018 91.546499 
C 405.657437 90.983919 404.894307 90.66782 404.098698 90.66782 
C 403.303088 90.66782 402.539958 90.983919 401.977377 91.546499 
C 401.414796 92.10908 401.098698 92.87221 401.098698 93.66782 
C 401.098698 94.463429 401.414796 95.226559 401.977377 95.78914 
C 402.539958 96.351721 403.303088 96.66782 404.098698 96.66782 
z
" style="fill:#d55e00;stroke:#ffffff;stroke-width:0.48;"/>
    <path clip-path="url(#p0dc338e39c)" d="M 434.327199 361.831725 
L 435.827199 360.331725 
L 437.327199 361.831725 
L 438.827199 360.331725 
L 437.327199 358.831725 
L 438.827199 357.331725 
L 437.327199 355.831725 
L 435.827199 357.331725 
L 434.327199 355.831725 
L 432.827199 357.331725 
L 434.327199 358.831725 
L 432.827199 360.331725 
z
" style="fill:#d55e00;stroke:#ffffff;stroke-width:0.48;"/>
    <path clip-path="url(#p0dc338e39c)" d="M 94.761852 149.028593 
C 95.557461 149.028593 96.320591 148.712494 96.883172 148.149913 
C 97.445753 147.587333 97.761852 146.824202 97.761852 146.028593 
C 97.761852 145.232984 97.445753 144.469853 96.883172 143.907273 
C 96.320591 143.344692 95.557461 143.028593 94.761852 143.028593 
C 93.966242 143.028593 93.203112 143.344692 92.640531 143.907273 
C 92.07795 144.469853 91.761852 145.232984 91.761852 146.028593 
C 91.761852 146.824202 92.07795 147.587333 92.640531 148.149913 
C 93.203112 148.712494 93.966242 149.028593 94.761852 149.028593 
z
" style="fill:#f0e442;stroke:#ffffff;stroke-width:0.48;"/>
    <path clip-path="url(#p0dc338e39c)" d="M 431.675504 380.907315 
L 433.175504 379.407315 
L 434.675504 380.907315 
L 436.175504 379.407315 
L 434.675504 377.907315 
L 436.175504 376.407315 
L 434.675504 374.907315 
L 433.175504 376.407315 
L 431.675504 374.907315 
L 430.175504 376.407315 
L 431.675504 377.907315 
L 430.175504 379.407315 
z
" style="fill:#d55e00;stroke:#ffffff;stroke-width:0.48;"/>
    <path clip-path="url(#p0dc338e39c)" d="M 391.938592 109.883635 
C 392.734201 109.883635 393.497332 109.567536 394.059912 109.004955 
C 394.622493 108.442375 394.938592 107.679244 394.938592 106.883635 
C 394.938592 106.088026 394.622493 105.324895 394.059912 104.762315 
C 393.497332 104.199734 392.734201 103.883635 391.938592 103.883635 
C 391.142983 103.883635 390.379853 104.199734 389.817272 104.762315 
C 389.254691 105.324895 388.938592 106.088026 388.938592 106.883635 
C 388.938592 107.679244 389.254691 108.442375 389.817272 109.004955 
C 390.379853 109.567536 391.142983 109.883635 391.938592 109.883635 
z
" style="fill:#d55e00;stroke:#ffffff;stroke-width:0.48;"/>
    <path clip-path="url(#p0dc338e39c)" d="M 123.958122 125.305982 
C 124.753731 125.305982 125.516862 124.989883 126.079443 124.427302 
C 126.642023 123.864722 126.958122 123.101591 126.958122 122.305982 
C 126.958122 121.510373 126.642023 120.747242 126.079443 120.184662 
C 125.516862 119.622081 124.753731 119.305982 123.958122 119.305982 
C 123.162513 119.305982 122.399383 119.622081 121.836802 120.184662 
C 121.274221 120.747242 120.958122 121.510373 120.958122 122.305982 
C 120.958122 123.101591 121.274221 123.864722 121.836802 124.427302 
C 122.399383 124.989883 123.162513 125.305982 123.958122 125.305982 
z
" style="fill:#009e73;stroke:#ffffff;stroke-width:0.48;"/>
    <path clip-path="url(#p0dc338e39c)" d="M 166.006048 142.032458 
C 166.801657 142.032458 167.564787 141.716359 168.127368 141.153778 
C 168.689949 140.591198 169.006048 139.828067 169.006048 139.032458 
C 169.006048 138.236849 168.689949 137.473718 168.127368 136.911138 
C 167.564787 136.348557 166.801657 136.032458 166.006048 136.032458 
C 165.210438 136.032458 164.447308 136.348557 163.884727 136.911138 
C 163.322147 137.473718 163.006048 138.236849 163.006048 139.032458 
C 163.006048 139.828067 163.322147 140.591198 163.884727 141.153778 
C 164.447308 141.716359 165.210438 142.032458 166.006048 142.032458 
z
" style="fill:#009e73;stroke:#ffffff;stroke-width:0.48;"/>
    <path clip-path="url(#p0dc338e39c)" d="M 379.449829 175.027408 
C 380.245438 175.027408 381.008568 174.711309 381.571149 174.148729 
C 382.13373 173.586148 382.449829 172.823018 382.449829 172.027408 
C 382.449829 171.231799 382.13373 170.468669 381.571149 169.906088 
C 381.008568 169.343507 380.245438 169.027408 379.449829 169.027408 
C 378.654219 169.027408 377.891089 169.343507 377.328508 169.906088 
C 376.765927 170.468669 376.449829 171.231799 376.449829 172.027408 
C 376.449829 172.823018 376.765927 173.586148 377.328508 174.148729 
C 377.891089 174.711309 378.654219 175.027408 379.449829 175.027408 
z
" style="fill:#d55e00;stroke:#ffffff;stroke-width:0.48;"/>
    <path clip-path="url(#p0dc338e39c)" d="M 155.0374 129.518193 
C 155.833009 129.518193 156.596139 129.202094 157.15872 128.639514 
C 157.721301 128.076933 158.0374 127.313803 158.0374 126.518193 
C 158.0374 125.722584 157.721301 124.959454 157.15872 124.396873 
C 156.596139 123.834292 155.833009 123.518193 155.0374 123.518193 
C 154.24179 123.518193 153.47866 123.834292 152.916079 124.396873 
C 152.353499 124.959454 152.0374 125.722584 152.0374 126.518193 
C 152.0374 127.313803 152.353499 128.076933 152.916079 128.639514 
C 153.47866 129.202094 154.24179 129.518193 155.0374 129.518193 
z
" style="fill:#009e73;stroke:#ffffff;stroke-width:0.48;"/>
    <path clip-path="url(#p0dc338e39c)" d="M 431.232059 351.677426 
L 432.732059 350.177426 
L 434.232059 351.677426 
L 435.732059 350.177426 
L 434.232059 348.677426 
L 435.732059 347.177426 
L 434.232059 345.677426 
L 432.732059 347.177426 
L 431.232059 345.677426 
L 429.732059 347.177426 
L 431.232059 348.677426 
L 429.732059 350.177426 
z
" style="fill:#d55e00;stroke:#ffffff;stroke-width:0.48;"/>
    <path clip-path="url(#p0dc338e39c)" d="M 299.957926 108.65184 
C 300.753535 108.65184 301.516666 108.335741 302.079246 107.77316 
C 302.641827 107.210579 302.957926 106.447449 302.957926 105.65184 
C 302.957926 104.85623 302.641827 104.0931 302.079246 103.530519 
C 301.516666 102.967938 300.753535 102.65184 299.957926 102.65184 
C 299.162317 102.65184 298.399186 102.967938 297.836606 103.530519 
C 297.274025 104.0931 296.957926 104.85623 296.957926 105.65184 
C 296.957926 106.447449 297.274025 107.210579 297.836606 107.77316 
C 298.399186 108.335741 299.162317 108.65184 299.957926 108.65184 
z
" style="fill:#0072b2;stroke:#ffffff;stroke-width:0.48;"/>
    <path clip-path="url(#p0dc338e39c)" d="M 308.777437 350.919805 
L 310.277437 349.419805 
L 311.777437 350.919805 
L 313.277437 349.419805 
L 311.777437 347.919805 
L 313.277437 346.419805 
L 311.777437 344.919805 
L 310.277437 346.419805 
L 308.777437 344.919805 
L 307.277437 346.419805 
L 308.777437 347.919805 
L 307.277437 349.419805 
z
" style="fill:#0072b2;stroke:#ffffff;stroke-width:0.48;"/>
    <path clip-path="url(#p0dc338e39c)" d="M 153.360103 401.398053 
L 154.860103 399.898053 
L 156.360103 401.398053 
L 157.860103 399.898053 
L 156.360103 398.398053 
L 157.860103 396.898053 
L 156.360103 395.398053 
L 154.860103 396.898053 
L 153.360103 395.398053 
L 151.860103 396.898053 
L 153.360103 398.398053 
L 151.860103 399.898053 
z
" style="fill:#009e73;stroke:#ffffff;stroke-width:0.48;"/>
    <path clip-path="url(#p0dc338e39c)" d="M 150.208357 361.181191 
L 151.708357 359.681191 
L 153.208357 361.181191 
L 154.708357 359.681191 
L 153.208357 358.181191 
L 154.708357 356.681191 
L 153.208357 355.181191 
L 151.708357 356.681191 
L 150.208357 355.181191 
L 148.708357 356.681191 
L 150.208357 358.181191 
L 148.708357 359.681191 
z
" style="fill:#009e73;stroke:#ffffff;stroke-width:0.48;"/>
    <path clip-path="url(#p0dc338e39c)" d="M 403.674708 130.680113 
C 404.470317 130.680113 405.233447 130.364014 405.796028 129.801433 
C 406.358609 129.238852 406.674708 128.475722 406.674708 127.680113 
C 406.674708 126.884503 406.358609 126.121373 405.796028 125.558792 
C 405.233447 124.996212 404.470317 124.680113 403.674708 124.680113 
C 402.879098 124.680113 402.115968 124.996212 401.553387 125.558792 
C 400.990807 126.121373 400.674708 126.884503 400.674708 127.680113 
C 400.674708 128.475722 400.990807 129.238852 401.553387 129.801433 
C 402.115968 130.364014 402.879098 130.680113 403.674708 130.680113 
z
" style="fill:#d55e00;stroke:#ffffff;stroke-width:0.48;"/>
    <path clip-path="url(#p0dc338e39c)" d="M 325.259629 379.288384 
L 326.759629 377.788384 
L 328.259629 379.288384 
L 329.759629 377.788384 
L 328.259629 376.288384 
L 329.759629 374.788384 
L 328.259629 373.288384 
L 326.759629 374.788384 
L 325.259629 373.288384 
L 323.759629 374.788384 
L 325.259629 376.288384 
L 323.759629 377.788384 
z
" style="fill:#0072b2;stroke:#ffffff;stroke-width:0.48;"/>
    <path clip-path="url(#p0dc338e39c)" d="M 81.742364 168.826625 
C 82.537973 168.826625 83.301103 168.510526 83.863684 167.947945 
C 84.426265 167.385365 84.742364 166.622234 84.742364 165.826625 
C 84.742364 165.031016 84.426265 164.267885 83.863684 163.705305 
C 83.301103 163.142724 82.537973 162.826625 81.742364 162.826625 
C 80.946754 162.826625 80.183624 163.142724 79.621043 163.705305 
C 79.058463 164.267885 78.742364 165.031016 78.742364 165.826625 
C 78.742364 166.622234 79.058463 167.385365 79.621043 167.947945 
C 80.183624 168.510526 80.946754 168.826625 81.742364 168.826625 
z
" style="fill:#f0e442;stroke:#ffffff;stroke-width:0.48;"/>
    <path clip-path="url(#p0dc338e39c)" d="M 160.78711 127.457897 
C 161.582719 127.457897 162.345849 127.141798 162.90843 126.579217 
C 163.471011 126.016637 163.78711 125.253506 163.78711 124.457897 
C 163.78711 123.662288 163.471011 122.899157 162.90843 122.336577 
C 162.345849 121.773996 161.582719 121.457897 160.78711 121.457897 
C 159.9915 121.457897 159.22837 121.773996 158.665789 122.336577 
C 158.103209 122.899157 157.78711 123.662288 157.78711 124.457897 
C 157.78711 125.253506 158.103209 126.016637 158.665789 126.579217 
C 159.22837 127.141798 159.9915 127.457897 160.78711 127.457897 
z
" style="fill:#009e73;stroke:#ffffff;stroke-width:0.48;"/>
    <path clip-path="url(#p0dc338e39c)" d="M 79.296744 365.067895 
L 80.796744 363.567895 
L 82.296744 365.067895 
L 83.796744 363.567895 
L 82.296744 362.067895 
L 83.796744 360.567895 
L 82.296744 359.067895 
L 80.796744 360.567895 
L 79.296744 359.067895 
L 77.796744 360.567895 
L 79.296744 362.067895 
L 77.796744 363.567895 
z
" style="fill:#f0e442;stroke:#ffffff;stroke-width:0.48;"/>
    <path clip-path="url(#p0dc338e39c)" d="M 100.111144 156.11008 
C 100.906753 156.11008 101.669884 155.793981 102.232464 155.2314 
C 102.795045 154.66882 103.111144 153.905689 103.111144 153.11008 
C 103.111144 152.314471 102.795045 151.55134 102.232464 150.98876 
C 101.669884 150.426179 100.906753 150.11008 100.111144 150.11008 
C 99.315535 150.11008 98.552405 150.426179 97.989824 150.98876 
C 97.427243 151.55134 97.111144 152.314471 97.111144 153.11008 
C 97.111144 153.905689 97.427243 154.66882 97.989824 155.2314 
C 98.552405 155.793981 99.315535 156.11008 100.111144 156.11008 
z
" style="fill:#f0e442;stroke:#ffffff;stroke-width:0.48;"/>
    <path clip-path="url(#p0dc338e39c)" d="M 427.707093 367.87835 
L 429.207093 366.37835 
L 430.707093 367.87835 
L 432.207093 366.37835 
L 430.707093 364.87835 
L 432.207093 363.37835 
L 430.707093 361.87835 
L 429.207093 363.37835 
L 427.707093 361.87835 
L 426.207093 363.37835 
L 427.707093 364.87835 
L 426.207093 366.37835 
z
" style="fill:#d55e00;stroke:#ffffff;stroke-width:0.48;"/>
    <path clip-path="url(#p0dc338e39c)" d="M 157.967222 374.52467 
L 159.467222 373.02467 
L 160.967222 374.52467 
L 162.467222 373.02467 
L 160.967222 371.52467 
L 162.467222 370.02467 
L 160.967222 368.52467 
L 159.467222 370.02467 
L 157.967222 368.52467 
L 156.467222 370.02467 
L 157.967222 371.52467 
L 156.467222 373.02467 
z
" style="fill:#009e73;stroke:#ffffff;stroke-width:0.48;"/>
    <path clip-path="url(#p0dc338e39c)" d="M 97.421988 115.848317 
C 98.217598 115.848317 98.980728 115.532218 99.543309 114.969637 
C 100.105889 114.407057 100.421988 113.643926 100.421988 112.848317 
C 100.421988 112.052708 100.105889 111.289577 99.543309 110.726997 
C 98.980728 110.164416 98.217598 109.848317 97.421988 109.848317 
C 96.626379 109.848317 95.863249 110.164416 95.300668 110.726997 
C 94.738087 111.289577 94.421988 112.052708 94.421988 112.848317 
C 94.421988 113.643926 94.738087 114.407057 95.300668 114.969637 
C 95.863249 115.532218 96.626379 115.848317 97.421988 115.848317 
z
" style="fill:#f0e442;stroke:#ffffff;stroke-width:0.48;"/>
    <path clip-path="url(#p0dc338e39c)" d="M 317.213254 345.162571 
L 318.713254 343.662571 
L 320.213254 345.162571 
L 321.713254 343.662571 
L 320.213254 342.162571 
L 321.713254 340.662571 
L 320.213254 339.162571 
L 318.713254 340.662571 
L 317.213254 339.162571 
L 315.713254 340.662571 
L 317.213254 342.162571 
L 315.713254 343.662571 
z
" style="fill:#0072b2;stroke:#ffffff;stroke-width:0.48;"/>
    <path clip-path="url(#p0dc338e39c)" d="M 308.32232 143.14021 
C 309.117929 143.14021 309.88106 142.824111 310.44364 142.261531 
C 311.006221 141.69895 311.32232 140.93582 311.32232 140.14021 
C 311.32232 139.344601 311.006221 138.581471 310.44364 138.01889 
C 309.88106 137.456309 309.117929 137.14021 308.32232 137.14021 
C 307.526711 137.14021 306.76358 137.456309 306.201 138.01889 
C 305.638419 138.581471 305.32232 139.344601 305.32232 140.14021 
C 305.32232 140.93582 305.638419 141.69895 306.201 142.261531 
C 306.76358 142.824111 307.526711 143.14021 308.32232 143.14021 
z
" style="fill:#0072b2;stroke:#ffffff;stroke-width:0.48;"/>
    <path clip-path="url(#p0dc338e39c)" d="M 166.137692 405.502442 
L 167.637692 404.002442 
L 169.137692 405.502442 
L 170.637692 404.002442 
L 169.137692 402.502442 
L 170.637692 401.002442 
L 169.137692 399.502442 
L 167.637692 401.002442 
L 166.137692 399.502442 
L 164.637692 401.002442 
L 166.137692 402.502442 
L 164.637692 404.002442 
z
" style="fill:#009e73;stroke:#ffffff;stroke-width:0.48;"/>
    <path clip-path="url(#p0dc338e39c)" d="M 116.048768 98.410175 
C 116.844378 98.410175 117.607508 98.094076 118.170089 97.531495 
C 118.732669 96.968915 119.048768 96.205784 119.048768 95.410175 
C 119.048768 94.614566 118.732669 93.851435 118.170089 93.288855 
C 117.607508 92.726274 116.844378 92.410175 116.048768 92.410175 
C 115.253159 92.410175 114.490029 92.726274 113.927448 93.288855 
C 113.364867 93.851435 113.048768 94.614566 113.048768 95.410175 
C 113.048768 96.205784 113.364867 96.968915 113.927448 97.531495 
C 114.490029 98.094076 115.253159 98.410175 116.048768 98.410175 
z
" style="fill:#f0e442;stroke:#ffffff;stroke-width:0.48;"/>
    <path clip-path="url(#p0dc338e39c)" d="M 99.572608 383.507202 
L 101.072608 382.007202 
L 102.572608 383.507202 
L 104.072608 382.007202 
L 102.572608 380.507202 
L 104.072608 379.007202 
L 102.572608 377.507202 
L 101.072608 379.007202 
L 99.572608 377.507202 
L 98.072608 379.007202 
L 99.572608 380.507202 
L 98.072608 382.007202 
z
" style="fill:#f0e442;stroke:#ffffff;stroke-width:0.48;"/>
    <path clip-path="url(#p0dc338e39c)" d="M 141.625793 150.727283 
C 142.421403 150.727283 143.184533 150.411184 143.747114 149.848604 
C 144.309694 149.286023 144.625793 148.522893 144.625793 147.727283 
C 144.625793 146.931674 144.309694 146.168544 143.747114 145.605963 
C 143.184533 145.043382 142.421403 144.727283 141.625793 144.727283 
C 140.830184 144.727283 140.067054 145.043382 139.504473 145.605963 
C 138.941892 146.168544 138.625793 146.931674 138.625793 147.727283 
C 138.625793 148.522893 138.941892 149.286023 139.504473 149.848604 
C 140.067054 150.411184 140.830184 150.727283 141.625793 150.727283 
z
" style="fill:#009e73;stroke:#ffffff;stroke-width:0.48;"/>
    <path clip-path="url(#p0dc338e39c)" d="M 105.317762 400.396839 
L 106.817762 398.896839 
L 108.317762 400.396839 
L 109.817762 398.896839 
L 108.317762 397.396839 
L 109.817762 395.896839 
L 108.317762 394.396839 
L 106.817762 395.896839 
L 105.317762 394.396839 
L 103.817762 395.896839 
L 105.317762 397.396839 
L 103.817762 398.896839 
z
" style="fill:#f0e442;stroke:#ffffff;stroke-width:0.48;"/>
    <path clip-path="url(#p0dc338e39c)" d="M 298.417889 96.840509 
C 299.213498 96.840509 299.976628 96.52441 300.539209 95.961829 
C 301.10179 95.399248 301.417889 94.636118 301.417889 93.840509 
C 301.417889 93.044899 301.10179 92.281769 300.539209 91.719188 
C 299.976628 91.156608 299.213498 90.840509 298.417889 90.840509 
C 297.62228 90.840509 296.859149 91.156608 296.296568 91.719188 
C 295.733988 92.281769 295.417889 93.044899 295.417889 93.840509 
C 295.417889 94.636118 295.733988 95.399248 296.296568 95.961829 
C 296.859149 96.52441 297.62228 96.840509 298.417889 96.840509 
z
" style="fill:#0072b2;stroke:#ffffff;stroke-width:0.48;"/>
    <path clip-path="url(#p0dc338e39c)" d="M 99.580738 426.673681 
L 101.080738 425.173681 
L 102.580738 426.673681 
L 104.080738 425.173681 
L 102.580738 423.673681 
L 104.080738 422.173681 
L 102.580738 420.673681 
L 101.080738 422.173681 
L 99.580738 420.673681 
L 98.080738 422.173681 
L 99.580738 423.673681 
L 98.080738 425.173681 
z
" style="fill:#f0e442;stroke:#ffffff;stroke-width:0.48;"/>
    <path clip-path="url(#p0dc338e39c)" d="M 420.403827 80.806319 
C 421.199436 80.806319 421.962566 80.49022 422.525147 79.92764 
C 423.087728 79.365059 423.403827 78.601929 423.403827 77.806319 
C 423.403827 77.01071 423.087728 76.24758 422.525147 75.684999 
C 421.962566 75.122418 421.199436 74.806319 420.403827 74.806319 
C 419.608217 74.806319 418.845087 75.122418 418.282506 75.684999 
C 417.719926 76.24758 417.403827 77.01071 417.403827 77.806319 
C 417.403827 78.601929 417.719926 79.365059 418.282506 79.92764 
C 418.845087 80.49022 419.608217 80.806319 420.403827 80.806319 
z
" style="fill:#d55e00;stroke:#ffffff;stroke-width:0.48;"/>
    <path clip-path="url(#p0dc338e39c)" d="M 80.772801 148.140296 
C 81.56841 148.140296 82.33154 147.824197 82.894121 147.261617 
C 83.456702 146.699036 83.772801 145.935906 83.772801 145.140296 
C 83.772801 144.344687 83.456702 143.581557 82.894121 143.018976 
C 82.33154 142.456395 81.56841 142.140296 80.772801 142.140296 
C 79.977191 142.140296 79.214061 142.456395 78.65148 143.018976 
C 78.088899 143.581557 77.772801 144.344687 77.772801 145.140296 
C 77.772801 145.935906 78.088899 146.699036 78.65148 147.261617 
C 79.214061 147.824197 79.977191 148.140296 80.772801 148.140296 
z
" style="fill:#f0e442;stroke:#ffffff;stroke-width:0.48;"/>
    <path clip-path="url(#p0dc338e39c)" d="M 323.619172 379.737808 
L 325.119172 378.237808 
L 326.619172 379.737808 
L 328.119172 378.237808 
L 326.619172 376.737808 
L 328.119172 375.237808 
L 326.619172 373.737808 
L 325.119172 375.237808 
L 323.619172 373.737808 
L 322.119172 375.237808 
L 323.619172 376.737808 
L 322.119172 378.237808 
z
" style="fill:#0072b2;stroke:#ffffff;stroke-width:0.48;"/>
    <path clip-path="url(#p0dc338e39c)" d="M 90.057756 341.268791 
L 91.557756 339.768791 
L 93.057756 341.268791 
L 94.557756 339.768791 
L 93.057756 338.268791 
L 94.557756 336.768791 
L 93.057756 335.268791 
L 91.557756 336.768791 
L 90.057756 335.268791 
L 88.557756 336.768791 
L 90.057756 338.268791 
L 88.557756 339.768791 
z
" style="fill:#f0e442;stroke:#ffffff;stroke-width:0.48;"/>
    <path clip-path="url(#p0dc338e39c)" d="M 166.38775 395.272399 
L 167.88775 393.772399 
L 169.38775 395.272399 
L 170.88775 393.772399 
L 169.38775 392.272399 
L 170.88775 390.772399 
L 169.38775 389.272399 
L 167.88775 390.772399 
L 166.38775 389.272399 
L 164.88775 390.772399 
L 166.38775 392.272399 
L 164.88775 393.772399 
z
" style="fill:#009e73;stroke:#ffffff;stroke-width:0.48;"/>
    <path clip-path="url(#p0dc338e39c)" d="M 423.568587 370.495014 
L 425.068587 368.995014 
L 426.568587 370.495014 
L 428.068587 368.995014 
L 426.568587 367.495014 
L 428.068587 365.995014 
L 426.568587 364.495014 
L 425.068587 365.995014 
L 423.568587 364.495014 
L 422.068587 365.995014 
L 423.568587 367.495014 
L 422.068587 368.995014 
z
" style="fill:#d55e00;stroke:#ffffff;stroke-width:0.48;"/>
    <path clip-path="url(#p0dc338e39c)" d="M 294.844103 166.92353 
C 295.639712 166.92353 296.402842 166.607431 296.965423 166.044851 
C 297.528004 165.48227 297.844103 164.719139 297.844103 163.92353 
C 297.844103 163.127921 297.528004 162.364791 296.965423 161.80221 
C 296.402842 161.239629 295.639712 160.92353 294.844103 160.92353 
C 294.048493 160.92353 293.285363 161.239629 292.722782 161.80221 
C 292.160202 162.364791 291.844103 163.127921 291.844103 163.92353 
C 291.844103 164.719139 292.160202 165.48227 292.722782 166.044851 
C 293.285363 166.607431 294.048493 166.92353 294.844103 166.92353 
z
" style="fill:#0072b2;stroke:#ffffff;stroke-width:0.48;"/>
    <path clip-path="url(#p0dc338e39c)" d="M 101.953704 340.615618 
L 103.453704 339.115618 
L 104.953704 340.615618 
L 106.453704 339.115618 
L 104.953704 337.615618 
L 106.453704 336.115618 
L 104.953704 334.615618 
L 103.453704 336.115618 
L 101.953704 334.615618 
L 100.453704 336.115618 
L 101.953704 337.615618 
L 100.453704 339.115618 
z
" style="fill:#f0e442;stroke:#ffffff;stroke-width:0.48;"/>
    <path clip-path="url(#p0dc338e39c)" d="M 304.724361 410.624622 
L 306.224361 409.124622 
L 307.724361 410.624622 
L 309.224361 409.124622 
L 307.724361 407.624622 
L 309.224361 406.124622 
L 307.724361 404.624622 
L 306.224361 406.124622 
L 304.724361 404.624622 
L 303.224361 406.124622 
L 304.724361 407.624622 
L 303.224361 409.124622 
z
" style="fill:#0072b2;stroke:#ffffff;stroke-width:0.48;"/>
    <path clip-path="url(#p0dc338e39c)" d="M 155.395013 169.203798 
C 156.190623 169.203798 156.953753 168.887699 157.516334 168.325118 
C 158.078914 167.762537 158.395013 166.999407 158.395013 166.203798 
C 158.395013 165.408188 158.078914 164.645058 157.516334 164.082477 
C 156.953753 163.519897 156.190623 163.203798 155.395013 163.203798 
C 154.599404 163.203798 153.836274 163.519897 153.273693 164.082477 
C 152.711112 164.645058 152.395013 165.408188 152.395013 166.203798 
C 152.395013 166.999407 152.711112 167.762537 153.273693 168.325118 
C 153.836274 168.887699 154.599404 169.203798 155.395013 169.203798 
z
" style="fill:#009e73;stroke:#ffffff;stroke-width:0.48;"/>
   </g>
   <g id="PathCollection_2"/>
   <g id="PathCollection_3"/>
   <g id="PathCollection_4"/>
   <g id="PathCollection_5"/>
   <g id="PathCollection_6"/>
   <g id="PathCollection_7"/>
   <g id="patch_3">
    <path d="M 63 441 
L 63 60.48 
" style="fill:none;stroke:#262626;stroke-linecap:square;stroke-linejoin:miter;stroke-width:1.25;"/>
   </g>
   <g id="patch_4">
    <path d="M 453.6 441 
L 453.6 60.48 
" style="fill:none;stroke:#262626;stroke-linecap:square;stroke-linejoin:miter;stroke-width:1.25;"/>
   </g>
   <g id="patch_5">
    <path d="M 63 441 
L 453.6 441 
" style="fill:none;stroke:#262626;stroke-linecap:square;stroke-linejoin:miter;stroke-width:1.25;"/>
   </g>
   <g id="patch_6">
    <path d="M 63 60.48 
L 453.6 60.48 
" style="fill:none;stroke:#262626;stroke-linecap:square;stroke-linejoin:miter;stroke-width:1.25;"/>
   </g>
   <g id="legend_1">
    <g id="patch_7">
     <path d="M 87.058687 281.782688 
L 444.36 281.782688 
Q 447 281.782688 447 279.142688 
L 447 222.337313 
Q 447 219.697313 444.36 219.697313 
L 87.058687 219.697313 
Q 84.418687 219.697313 84.418687 222.337313 
L 84.418687 279.142688 
Q 84.418687 281.782688 87.058687 281.782688 
z
" style="fill:#ffffff;opacity:0.8;stroke:#cccccc;stroke-linejoin:miter;"/>
    </g>
    <g id="text_15">
     <text style="fill:#262626;font-family:DejaVu Sans;font-size:13.2px;font-style:normal;font-weight:normal;text-anchor:start;" transform="rotate(-0, 126.658687, 235.00725)" x="126.658687" y="235.00725">Temperature</text>
    </g>
    <g id="PathCollection_8">
     <defs>
      <path d="M 0 3 
C 0.795609 3 1.55874 2.683901 2.12132 2.12132 
C 2.683901 1.55874 3 0.795609 3 0 
C 3 -0.795609 2.683901 -1.55874 2.12132 -2.12132 
C 1.55874 -2.683901 0.795609 -3 0 -3 
C -0.795609 -3 -1.55874 -2.683901 -2.12132 -2.12132 
C -2.683901 -1.55874 -3 -0.795609 -3 0 
C -3 0.795609 -2.683901 1.55874 -2.12132 2.12132 
C -1.55874 2.683901 -0.795609 3 0 3 
z
" id="m512487efe8" style="stroke:#0072b2;"/>
     </defs>
     <g>
      <use style="fill:#0072b2;stroke:#0072b2;" x="102.898687" xlink:href="#m512487efe8" y="250.917375"/>
     </g>
    </g>
    <g id="text_16">
     <text style="fill:#262626;font-family:DejaVu Sans;font-size:13.2px;font-style:normal;font-weight:normal;text-anchor:start;" transform="rotate(-0, 126.658687, 254.382375)" x="126.658687" y="254.382375">20</text>
    </g>
    <g id="PathCollection_9">
     <defs>
      <path d="M 0 3 
C 0.795609 3 1.55874 2.683901 2.12132 2.12132 
C 2.683901 1.55874 3 0.795609 3 0 
C 3 -0.795609 2.683901 -1.55874 2.12132 -2.12132 
C 1.55874 -2.683901 0.795609 -3 0 -3 
C -0.795609 -3 -1.55874 -2.683901 -2.12132 -2.12132 
C -2.683901 -1.55874 -3 -0.795609 -3 0 
C -3 0.795609 -2.683901 1.55874 -2.12132 2.12132 
C -1.55874 2.683901 -0.795609 3 0 3 
z
" id="m37f2487f5a" style="stroke:#d55e00;"/>
     </defs>
     <g>
      <use style="fill:#d55e00;stroke:#d55e00;" x="102.898687" xlink:href="#m37f2487f5a" y="270.2925"/>
     </g>
    </g>
    <g id="text_17">
     <text style="fill:#262626;font-family:DejaVu Sans;font-size:13.2px;font-style:normal;font-weight:normal;text-anchor:start;" transform="rotate(-0, 126.658687, 273.7575)" x="126.658687" y="273.7575">28</text>
    </g>
    <g id="PathCollection_10">
     <defs>
      <path d="M 0 3 
C 0.795609 3 1.55874 2.683901 2.12132 2.12132 
C 2.683901 1.55874 3 0.795609 3 0 
C 3 -0.795609 2.683901 -1.55874 2.12132 -2.12132 
C 1.55874 -2.683901 0.795609 -3 0 -3 
C -0.795609 -3 -1.55874 -2.683901 -2.12132 -2.12132 
C -2.683901 -1.55874 -3 -0.795609 -3 0 
C -3 0.795609 -2.683901 1.55874 -2.12132 2.12132 
C -1.55874 2.683901 -0.795609 3 0 3 
z
" id="m5423f955b5" style="stroke:#009e73;"/>
     </defs>
     <g>
      <use style="fill:#009e73;stroke:#009e73;" x="252.368062" xlink:href="#m5423f955b5" y="231.54225"/>
     </g>
    </g>
    <g id="text_18">
     <text style="fill:#262626;font-family:DejaVu Sans;font-size:13.2px;font-style:normal;font-weight:normal;text-anchor:start;" transform="rotate(-0, 276.128062, 235.00725)" x="276.128062" y="235.00725">12</text>
    </g>
    <g id="PathCollection_11">
     <defs>
      <path d="M 0 3 
C 0.795609 3 1.55874 2.683901 2.12132 2.12132 
C 2.683901 1.55874 3 0.795609 3 0 
C 3 -0.795609 2.683901 -1.55874 2.12132 -2.12132 
C 1.55874 -2.683901 0.795609 -3 0 -3 
C -0.795609 -3 -1.55874 -2.683901 -2.12132 -2.12132 
C -2.683901 -1.55874 -3 -0.795609 -3 0 
C -3 0.795609 -2.683901 1.55874 -2.12132 2.12132 
C -1.55874 2.683901 -0.795609 3 0 3 
z
" id="mf78289db0d" style="stroke:#f0e442;"/>
     </defs>
     <g>
      <use style="fill:#f0e442;stroke:#f0e442;" x="252.368062" xlink:href="#mf78289db0d" y="250.917375"/>
     </g>
    </g>
    <g id="text_19">
     <text style="fill:#262626;font-family:DejaVu Sans;font-size:13.2px;font-style:normal;font-weight:normal;text-anchor:start;" transform="rotate(-0, 276.128062, 254.382375)" x="276.128062" y="254.382375">4</text>
    </g>
    <g id="text_20">
     <text style="fill:#262626;font-family:DejaVu Sans;font-size:13.2px;font-style:normal;font-weight:normal;text-anchor:start;" transform="rotate(-0, 276.128062, 273.7575)" x="276.128062" y="273.7575">Genotype</text>
    </g>
    <g id="PathCollection_12">
     <defs>
      <path d="M 0 3 
C 0.795609 3 1.55874 2.683901 2.12132 2.12132 
C 2.683901 1.55874 3 0.795609 3 0 
C 3 -0.795609 2.683901 -1.55874 2.12132 -2.12132 
C 1.55874 -2.683901 0.795609 -3 0 -3 
C -0.795609 -3 -1.55874 -2.683901 -2.12132 -2.12132 
C -2.683901 -1.55874 -3 -0.795609 -3 0 
C -3 0.795609 -2.683901 1.55874 -2.12132 2.12132 
C -1.55874 2.683901 -0.795609 3 0 3 
z
" id="md5df79f1de" style="stroke:#333333;"/>
     </defs>
     <g>
      <use style="fill:#333333;stroke:#333333;" x="380.01" xlink:href="#md5df79f1de" y="231.54225"/>
     </g>
    </g>
    <g id="text_21">
     <text style="fill:#262626;font-family:DejaVu Sans;font-size:13.2px;font-style:normal;font-weight:normal;text-anchor:start;" transform="rotate(-0, 403.77, 235.00725)" x="403.77" y="235.00725">fio1-3</text>
    </g>
    <g id="PathCollection_13">
     <defs>
      <path d="M -1.5 3 
L 0 1.5 
L 1.5 3 
L 3 1.5 
L 1.5 0 
L 3 -1.5 
L 1.5 -3 
L 0 -1.5 
L -1.5 -3 
L -3 -1.5 
L -1.5 0 
L -3 1.5 
z
" id="m03cef865a1" style="stroke:#333333;"/>
     </defs>
     <g>
      <use style="fill:#333333;stroke:#333333;" x="380.01" xlink:href="#m03cef865a1" y="250.917375"/>
     </g>
    </g>
    <g id="text_22">
     <text style="fill:#262626;font-family:DejaVu Sans;font-size:13.2px;font-style:normal;font-weight:normal;text-anchor:start;" transform="rotate(-0, 403.77, 254.382375)" x="403.77" y="254.382375">Col-0</text>
    </g>
   </g>
  </g>
 </g>
 <defs>
  <clipPath id="p0dc338e39c">
   <rect height="380.52" width="390.6" x="63" y="60.48"/>
  </clipPath>
 </defs>
</svg>
