<?xml version="1.0" encoding="utf-8" standalone="no"?>
<!DOCTYPE svg PUBLIC "-//W3C//DTD SVG 1.1//EN"
  "http://www.w3.org/Graphics/SVG/1.1/DTD/svg11.dtd">
<!-- Created with matplotlib (https://matplotlib.org/) -->
<svg height="360pt" version="1.1" viewBox="0 0 864 360" width="864pt" xmlns="http://www.w3.org/2000/svg" xmlns:xlink="http://www.w3.org/1999/xlink">
 <defs>
  <style type="text/css">
*{stroke-linecap:butt;stroke-linejoin:round;}
  </style>
 </defs>
 <g id="figure_1">
  <g id="patch_1">
   <path d="M 0 360 
L 864 360 
L 864 0 
L 0 0 
z
" style="fill:#ffffff;"/>
  </g>
  <g id="axes_1">
   <g id="patch_2">
    <path d="M 108 315 
L 412.363636 315 
L 412.363636 43.2 
L 108 43.2 
z
" style="fill:#ffffff;"/>
   </g>
   <g id="matplotlib.axis_1">
    <g id="xtick_1">
     <g id="line2d_1">
      <defs>
       <path d="M 0 0 
L 0 6 
" id="m7c5b601ea2" style="stroke:#262626;stroke-width:1.25;"/>
      </defs>
      <g>
       <use style="fill:#262626;stroke:#262626;stroke-width:1.25;" x="146.045455" xlink:href="#m7c5b601ea2" y="315"/>
      </g>
     </g>
     <g id="text_1">
      <text style="fill:#262626;font-family:DejaVu Sans;font-size:13.2px;font-style:normal;font-weight:normal;text-anchor:middle;" transform="rotate(-0, 146.045455, 334.529938)" x="146.045455" y="334.529938">Col-0</text>
     </g>
    </g>
    <g id="xtick_2">
     <g id="line2d_2">
      <g>
       <use style="fill:#262626;stroke:#262626;stroke-width:1.25;" x="222.136364" xlink:href="#m7c5b601ea2" y="315"/>
      </g>
     </g>
     <g id="text_2">
      <text style="fill:#262626;font-family:DejaVu Sans;font-size:13.2px;font-style:normal;font-weight:normal;text-anchor:middle;" transform="rotate(-0, 222.136364, 334.529938)" x="222.136364" y="334.529938">fio1-1</text>
     </g>
    </g>
    <g id="xtick_3">
     <g id="line2d_3">
      <g>
       <use style="fill:#262626;stroke:#262626;stroke-width:1.25;" x="298.227273" xlink:href="#m7c5b601ea2" y="315"/>
      </g>
     </g>
     <g id="text_3">
      <text style="fill:#262626;font-family:DejaVu Sans;font-size:13.2px;font-style:normal;font-weight:normal;text-anchor:middle;" transform="rotate(-0, 298.227273, 334.529938)" x="298.227273" y="334.529938">fio1-2</text>
     </g>
    </g>
    <g id="xtick_4">
     <g id="line2d_4">
      <g>
       <use style="fill:#262626;stroke:#262626;stroke-width:1.25;" x="374.318182" xlink:href="#m7c5b601ea2" y="315"/>
      </g>
     </g>
     <g id="text_4">
      <text style="fill:#262626;font-family:DejaVu Sans;font-size:13.2px;font-style:normal;font-weight:normal;text-anchor:middle;" transform="rotate(-0, 374.318182, 334.529938)" x="374.318182" y="334.529938">fio1-3</text>
     </g>
    </g>
    <g id="text_5">
     <text style="fill:#262626;font-family:DejaVu Sans;font-size:14.4px;font-style:normal;font-weight:normal;text-anchor:middle;" transform="rotate(-0, 260.181818, 352.216875)" x="260.181818" y="352.216875">Genotype</text>
    </g>
   </g>
   <g id="matplotlib.axis_2">
    <g id="ytick_1">
     <g id="line2d_5">
      <defs>
       <path d="M 0 0 
L -6 0 
" id="md5e93c59ff" style="stroke:#262626;stroke-width:1.25;"/>
      </defs>
      <g>
       <use style="fill:#262626;stroke:#262626;stroke-width:1.25;" x="108" xlink:href="#md5e93c59ff" y="307.600607"/>
      </g>
     </g>
     <g id="text_6">
      <text style="fill:#262626;font-family:DejaVu Sans;font-size:13.2px;font-style:normal;font-weight:normal;text-anchor:end;" transform="rotate(-0, 98.5, 312.615576)" x="98.5" y="312.615576">10</text>
     </g>
    </g>
    <g id="ytick_2">
     <g id="line2d_6">
      <g>
       <use style="fill:#262626;stroke:#262626;stroke-width:1.25;" x="108" xlink:href="#md5e93c59ff" y="247.233263"/>
      </g>
     </g>
     <g id="text_7">
      <text style="fill:#262626;font-family:DejaVu Sans;font-size:13.2px;font-style:normal;font-weight:normal;text-anchor:end;" transform="rotate(-0, 98.5, 252.248232)" x="98.5" y="252.248232">12</text>
     </g>
    </g>
    <g id="ytick_3">
     <g id="line2d_7">
      <g>
       <use style="fill:#262626;stroke:#262626;stroke-width:1.25;" x="108" xlink:href="#md5e93c59ff" y="186.865919"/>
      </g>
     </g>
     <g id="text_8">
      <text style="fill:#262626;font-family:DejaVu Sans;font-size:13.2px;font-style:normal;font-weight:normal;text-anchor:end;" transform="rotate(-0, 98.5, 191.880888)" x="98.5" y="191.880888">14</text>
     </g>
    </g>
    <g id="ytick_4">
     <g id="line2d_8">
      <g>
       <use style="fill:#262626;stroke:#262626;stroke-width:1.25;" x="108" xlink:href="#md5e93c59ff" y="126.498575"/>
      </g>
     </g>
     <g id="text_9">
      <text style="fill:#262626;font-family:DejaVu Sans;font-size:13.2px;font-style:normal;font-weight:normal;text-anchor:end;" transform="rotate(-0, 98.5, 131.513544)" x="98.5" y="131.513544">16</text>
     </g>
    </g>
    <g id="ytick_5">
     <g id="line2d_9">
      <g>
       <use style="fill:#262626;stroke:#262626;stroke-width:1.25;" x="108" xlink:href="#md5e93c59ff" y="66.131231"/>
      </g>
     </g>
     <g id="text_10">
      <text style="fill:#262626;font-family:DejaVu Sans;font-size:13.2px;font-style:normal;font-weight:normal;text-anchor:end;" transform="rotate(-0, 98.5, 71.1462)" x="98.5" y="71.1462">18</text>
     </g>
    </g>
    <g id="text_11">
     <text style="fill:#262626;font-family:DejaVu Sans;font-size:14.4px;font-style:normal;font-weight:normal;text-anchor:middle;" transform="rotate(-90, 74.70825, 179.1)" x="74.70825" y="179.1">Expression relative to U2 (-ΔCt)</text>
    </g>
   </g>
   <g id="PathCollection_1">
    <defs>
     <path d="M 0 3.383948 
C 0.897434 3.383948 1.758231 3.027394 2.392813 2.392813 
C 3.027394 1.758231 3.383948 0.897434 3.383948 0 
C 3.383948 -0.897434 3.027394 -1.758231 2.392813 -2.392813 
C 1.758231 -3.027394 0.897434 -3.383948 0 -3.383948 
C -0.897434 -3.383948 -1.758231 -3.027394 -2.392813 -2.392813 
C -3.027394 -1.758231 -3.383948 -0.897434 -3.383948 0 
C -3.383948 0.897434 -3.027394 1.758231 -2.392813 2.392813 
C -1.758231 3.027394 -0.897434 3.383948 0 3.383948 
z
" id="C0_0_43c308e6df"/>
    </defs>
    <g clip-path="url(#pb792bab8c3)">
     <use style="fill:#777777;stroke:#777777;stroke-width:2.025;" x="146.045455" xlink:href="#C0_0_43c308e6df" y="251.458977"/>
    </g>
    <g clip-path="url(#pb792bab8c3)">
     <use style="fill:#777777;stroke:#777777;stroke-width:2.025;" x="222.136364" xlink:href="#C0_0_43c308e6df" y="118.877198"/>
    </g>
    <g clip-path="url(#pb792bab8c3)">
     <use style="fill:#777777;stroke:#777777;stroke-width:2.025;" x="298.227273" xlink:href="#C0_0_43c308e6df" y="229.009871"/>
    </g>
    <g clip-path="url(#pb792bab8c3)">
     <use style="fill:#777777;stroke:#777777;stroke-width:2.025;" x="374.318182" xlink:href="#C0_0_43c308e6df" y="201.693648"/>
    </g>
   </g>
   <g id="line2d_10">
    <path clip-path="url(#pb792bab8c3)" d="M 146.045455 298.771883 
L 146.045455 204.146072 
" style="fill:none;stroke:#777777;stroke-linecap:round;stroke-width:2;"/>
   </g>
   <g id="line2d_11">
    <path clip-path="url(#pb792bab8c3)" d="M 142.240909 298.771883 
L 149.85 298.771883 
" style="fill:none;stroke:#777777;stroke-linecap:round;stroke-width:2;"/>
   </g>
   <g id="line2d_12">
    <path clip-path="url(#pb792bab8c3)" d="M 142.240909 204.146072 
L 149.85 204.146072 
" style="fill:none;stroke:#777777;stroke-linecap:round;stroke-width:2;"/>
   </g>
   <g id="line2d_13">
    <path clip-path="url(#pb792bab8c3)" d="M 222.136364 178.263573 
L 222.136364 59.490824 
" style="fill:none;stroke:#777777;stroke-linecap:round;stroke-width:2;"/>
   </g>
   <g id="line2d_14">
    <path clip-path="url(#pb792bab8c3)" d="M 218.331818 178.263573 
L 225.940909 178.263573 
" style="fill:none;stroke:#777777;stroke-linecap:round;stroke-width:2;"/>
   </g>
   <g id="line2d_15">
    <path clip-path="url(#pb792bab8c3)" d="M 218.331818 59.490824 
L 225.940909 59.490824 
" style="fill:none;stroke:#777777;stroke-linecap:round;stroke-width:2;"/>
   </g>
   <g id="line2d_16">
    <path clip-path="url(#pb792bab8c3)" d="M 298.227273 263.758824 
L 298.227273 194.260919 
" style="fill:none;stroke:#777777;stroke-linecap:round;stroke-width:2;"/>
   </g>
   <g id="line2d_17">
    <path clip-path="url(#pb792bab8c3)" d="M 294.422727 263.758824 
L 302.031818 263.758824 
" style="fill:none;stroke:#777777;stroke-linecap:round;stroke-width:2;"/>
   </g>
   <g id="line2d_18">
    <path clip-path="url(#pb792bab8c3)" d="M 294.422727 194.260919 
L 302.031818 194.260919 
" style="fill:none;stroke:#777777;stroke-linecap:round;stroke-width:2;"/>
   </g>
   <g id="line2d_19">
    <path clip-path="url(#pb792bab8c3)" d="M 374.318182 208.145408 
L 374.318182 195.241888 
" style="fill:none;stroke:#777777;stroke-linecap:round;stroke-width:2;"/>
   </g>
   <g id="line2d_20">
    <path clip-path="url(#pb792bab8c3)" d="M 370.513636 208.145408 
L 378.122727 208.145408 
" style="fill:none;stroke:#777777;stroke-linecap:round;stroke-width:2;"/>
   </g>
   <g id="line2d_21">
    <path clip-path="url(#pb792bab8c3)" d="M 370.513636 195.241888 
L 378.122727 195.241888 
" style="fill:none;stroke:#777777;stroke-linecap:round;stroke-width:2;"/>
   </g>
   <g id="patch_3">
    <path d="M 108 315 
L 108 43.2 
" style="fill:none;stroke:#262626;stroke-linecap:square;stroke-linejoin:miter;stroke-width:1.25;"/>
   </g>
   <g id="patch_4">
    <path d="M 412.363636 315 
L 412.363636 43.2 
" style="fill:none;stroke:#262626;stroke-linecap:square;stroke-linejoin:miter;stroke-width:1.25;"/>
   </g>
   <g id="patch_5">
    <path d="M 108 315 
L 412.363636 315 
" style="fill:none;stroke:#262626;stroke-linecap:square;stroke-linejoin:miter;stroke-width:1.25;"/>
   </g>
   <g id="patch_6">
    <path d="M 108 43.2 
L 412.363636 43.2 
" style="fill:none;stroke:#262626;stroke-linecap:square;stroke-linejoin:miter;stroke-width:1.25;"/>
   </g>
   <g id="PathCollection_2">
    <defs>
     <path d="M 0 4 
C 1.060812 4 2.078319 3.578535 2.828427 2.828427 
C 3.578535 2.078319 4 1.060812 4 0 
C 4 -1.060812 3.578535 -2.078319 2.828427 -2.828427 
C 2.078319 -3.578535 1.060812 -4 0 -4 
C -1.060812 -4 -2.078319 -3.578535 -2.828427 -2.828427 
C -3.578535 -2.078319 -4 -1.060812 -4 0 
C -4 1.060812 -3.578535 2.078319 -2.828427 2.828427 
C -2.078319 3.578535 -1.060812 4 0 4 
z
" id="C1_0_72f6a9803d"/>
    </defs>
    <g clip-path="url(#pb792bab8c3)">
     <use style="fill:#0072b2;" x="159.164224" xlink:href="#C1_0_72f6a9803d" y="298.771883"/>
    </g>
    <g clip-path="url(#pb792bab8c3)">
     <use style="fill:#0072b2;" x="144.464661" xlink:href="#C1_0_72f6a9803d" y="204.146072"/>
    </g>
   </g>
   <g id="PathCollection_3">
    <defs>
     <path d="M 0 4 
C 1.060812 4 2.078319 3.578535 2.828427 2.828427 
C 3.578535 2.078319 4 1.060812 4 0 
C 4 -1.060812 3.578535 -2.078319 2.828427 -2.828427 
C 2.078319 -3.578535 1.060812 -4 0 -4 
C -1.060812 -4 -2.078319 -3.578535 -2.828427 -2.828427 
C -3.578535 -2.078319 -4 -1.060812 -4 0 
C -4 1.060812 -3.578535 2.078319 -2.828427 2.828427 
C -2.078319 3.578535 -1.060812 4 0 4 
z
" id="C2_0_487bfd14b3"/>
    </defs>
    <g clip-path="url(#pb792bab8c3)">
     <use style="fill:#d55e00;" x="218.44399" xlink:href="#C2_0_487bfd14b3" y="178.263573"/>
    </g>
    <g clip-path="url(#pb792bab8c3)">
     <use style="fill:#d55e00;" x="208.863216" xlink:href="#C2_0_487bfd14b3" y="59.490824"/>
    </g>
   </g>
   <g id="PathCollection_4">
    <defs>
     <path d="M 0 4 
C 1.060812 4 2.078319 3.578535 2.828427 2.828427 
C 3.578535 2.078319 4 1.060812 4 0 
C 4 -1.060812 3.578535 -2.078319 2.828427 -2.828427 
C 2.078319 -3.578535 1.060812 -4 0 -4 
C -1.060812 -4 -2.078319 -3.578535 -2.828427 -2.828427 
C -3.578535 -2.078319 -4 -1.060812 -4 0 
C -4 1.060812 -3.578535 2.078319 -2.828427 2.828427 
C -2.078319 3.578535 -1.060812 4 0 4 
z
" id="C3_0_52a9fef641"/>
    </defs>
    <g clip-path="url(#pb792bab8c3)">
     <use style="fill:#009e73;" x="287.142071" xlink:href="#C3_0_52a9fef641" y="194.260919"/>
    </g>
    <g clip-path="url(#pb792bab8c3)">
     <use style="fill:#009e73;" x="294.451925" xlink:href="#C3_0_52a9fef641" y="263.758824"/>
    </g>
   </g>
   <g id="PathCollection_5">
    <defs>
     <path d="M 0 4 
C 1.060812 4 2.078319 3.578535 2.828427 2.828427 
C 3.578535 2.078319 4 1.060812 4 0 
C 4 -1.060812 3.578535 -2.078319 2.828427 -2.828427 
C 2.078319 -3.578535 1.060812 -4 0 -4 
C -1.060812 -4 -2.078319 -3.578535 -2.828427 -2.828427 
C -3.578535 -2.078319 -4 -1.060812 -4 0 
C -4 1.060812 -3.578535 2.078319 -2.828427 2.828427 
C -2.078319 3.578535 -1.060812 4 0 4 
z
" id="C4_0_7ccbc24afb"/>
    </defs>
    <g clip-path="url(#pb792bab8c3)">
     <use style="fill:#f0e442;" x="383.809671" xlink:href="#C4_0_7ccbc24afb" y="195.241888"/>
    </g>
    <g clip-path="url(#pb792bab8c3)">
     <use style="fill:#f0e442;" x="372.76543" xlink:href="#C4_0_7ccbc24afb" y="208.145408"/>
    </g>
   </g>
   <g id="text_12">
    <text style="fill:#262626;font-family:DejaVu Sans;font-size:14.4px;font-style:normal;font-weight:normal;text-anchor:middle;" transform="rotate(-0, 260.181818, 37.2)" x="260.181818" y="37.2">U6 expression</text>
   </g>
  </g>
  <g id="axes_2">
   <g id="patch_7">
    <path d="M 473.236364 315 
L 777.6 315 
L 777.6 43.2 
L 473.236364 43.2 
z
" style="fill:#ffffff;"/>
   </g>
   <g id="matplotlib.axis_3">
    <g id="xtick_5">
     <g id="line2d_22">
      <g>
       <use style="fill:#262626;stroke:#262626;stroke-width:1.25;" x="545.118661" xlink:href="#m7c5b601ea2" y="315"/>
      </g>
     </g>
     <g id="text_13">
      <text style="fill:#262626;font-family:DejaVu Sans;font-size:13.2px;font-style:normal;font-weight:normal;text-anchor:middle;" transform="rotate(-0, 545.118661, 334.529938)" x="545.118661" y="334.529938">U6</text>
     </g>
    </g>
    <g id="xtick_6">
     <g id="line2d_23">
      <g>
       <use style="fill:#262626;stroke:#262626;stroke-width:1.25;" x="708.536268" xlink:href="#m7c5b601ea2" y="315"/>
      </g>
     </g>
     <g id="text_14">
      <text style="fill:#262626;font-family:DejaVu Sans;font-size:13.2px;font-style:normal;font-weight:normal;text-anchor:middle;" transform="rotate(-0, 708.536268, 334.529938)" x="708.536268" y="334.529938">U2</text>
     </g>
    </g>
    <g id="text_15">
     <text style="fill:#262626;font-family:DejaVu Sans;font-size:14.4px;font-style:normal;font-weight:normal;text-anchor:middle;" transform="rotate(-0, 625.418182, 352.216875)" x="625.418182" y="352.216875">Template</text>
    </g>
   </g>
   <g id="matplotlib.axis_4">
    <g id="ytick_6">
     <g id="line2d_24">
      <g>
       <use style="fill:#262626;stroke:#262626;stroke-width:1.25;" x="473.236364" xlink:href="#md5e93c59ff" y="291.560808"/>
      </g>
     </g>
     <g id="text_16">
      <text style="fill:#262626;font-family:DejaVu Sans;font-size:13.2px;font-style:normal;font-weight:normal;text-anchor:end;" transform="rotate(-0, 463.736364, 296.575777)" x="463.736364" y="296.575777">−12</text>
     </g>
    </g>
    <g id="ytick_7">
     <g id="line2d_25">
      <g>
       <use style="fill:#262626;stroke:#262626;stroke-width:1.25;" x="473.236364" xlink:href="#md5e93c59ff" y="256.642011"/>
      </g>
     </g>
     <g id="text_17">
      <text style="fill:#262626;font-family:DejaVu Sans;font-size:13.2px;font-style:normal;font-weight:normal;text-anchor:end;" transform="rotate(-0, 463.736364, 261.656979)" x="463.736364" y="261.656979">−10</text>
     </g>
    </g>
    <g id="ytick_8">
     <g id="line2d_26">
      <g>
       <use style="fill:#262626;stroke:#262626;stroke-width:1.25;" x="473.236364" xlink:href="#md5e93c59ff" y="221.723213"/>
      </g>
     </g>
     <g id="text_18">
      <text style="fill:#262626;font-family:DejaVu Sans;font-size:13.2px;font-style:normal;font-weight:normal;text-anchor:end;" transform="rotate(-0, 463.736364, 226.738182)" x="463.736364" y="226.738182">−8</text>
     </g>
    </g>
    <g id="ytick_9">
     <g id="line2d_27">
      <g>
       <use style="fill:#262626;stroke:#262626;stroke-width:1.25;" x="473.236364" xlink:href="#md5e93c59ff" y="186.804416"/>
      </g>
     </g>
     <g id="text_19">
      <text style="fill:#262626;font-family:DejaVu Sans;font-size:13.2px;font-style:normal;font-weight:normal;text-anchor:end;" transform="rotate(-0, 463.736364, 191.819384)" x="463.736364" y="191.819384">−6</text>
     </g>
    </g>
    <g id="ytick_10">
     <g id="line2d_28">
      <g>
       <use style="fill:#262626;stroke:#262626;stroke-width:1.25;" x="473.236364" xlink:href="#md5e93c59ff" y="151.885618"/>
      </g>
     </g>
     <g id="text_20">
      <text style="fill:#262626;font-family:DejaVu Sans;font-size:13.2px;font-style:normal;font-weight:normal;text-anchor:end;" transform="rotate(-0, 463.736364, 156.900587)" x="463.736364" y="156.900587">−4</text>
     </g>
    </g>
    <g id="ytick_11">
     <g id="line2d_29">
      <g>
       <use style="fill:#262626;stroke:#262626;stroke-width:1.25;" x="473.236364" xlink:href="#md5e93c59ff" y="116.966821"/>
      </g>
     </g>
     <g id="text_21">
      <text style="fill:#262626;font-family:DejaVu Sans;font-size:13.2px;font-style:normal;font-weight:normal;text-anchor:end;" transform="rotate(-0, 463.736364, 121.981789)" x="463.736364" y="121.981789">−2</text>
     </g>
    </g>
    <g id="ytick_12">
     <g id="line2d_30">
      <g>
       <use style="fill:#262626;stroke:#262626;stroke-width:1.25;" x="473.236364" xlink:href="#md5e93c59ff" y="82.048023"/>
      </g>
     </g>
     <g id="text_22">
      <text style="fill:#262626;font-family:DejaVu Sans;font-size:13.2px;font-style:normal;font-weight:normal;text-anchor:end;" transform="rotate(-0, 463.736364, 87.062992)" x="463.736364" y="87.062992">0</text>
     </g>
    </g>
    <g id="ytick_13">
     <g id="line2d_31">
      <g>
       <use style="fill:#262626;stroke:#262626;stroke-width:1.25;" x="473.236364" xlink:href="#md5e93c59ff" y="47.129226"/>
      </g>
     </g>
     <g id="text_23">
      <text style="fill:#262626;font-family:DejaVu Sans;font-size:13.2px;font-style:normal;font-weight:normal;text-anchor:end;" transform="rotate(-0, 463.736364, 52.144194)" x="463.736364" y="52.144194">2</text>
     </g>
    </g>
    <g id="text_24">
     <text style="fill:#262626;font-family:DejaVu Sans;font-size:14.4px;font-style:normal;font-weight:normal;text-anchor:middle;" transform="rotate(-90, 428.883426, 179.1)" x="428.883426" y="179.1">Enrichment over input (-ΔCt)</text>
    </g>
   </g>
   <g id="PathCollection_6">
    <defs>
     <path d="M 0 3.383948 
C 0.897434 3.383948 1.758231 3.027394 2.392813 2.392813 
C 3.027394 1.758231 3.383948 0.897434 3.383948 0 
C 3.383948 -0.897434 3.027394 -1.758231 2.392813 -2.392813 
C 1.758231 -3.027394 0.897434 -3.383948 0 -3.383948 
C -0.897434 -3.383948 -1.758231 -3.027394 -2.392813 -2.392813 
C -3.027394 -1.758231 -3.383948 -0.897434 -3.383948 0 
C -3.383948 0.897434 -3.027394 1.758231 -2.392813 2.392813 
C -1.758231 3.027394 -0.897434 3.383948 0 3.383948 
z
" id="m794fe5ae36" style="stroke:#777777;stroke-width:2.025;"/>
    </defs>
    <g clip-path="url(#pb1a59340c7)">
     <use style="fill:#777777;stroke:#777777;stroke-width:2.025;" x="504.264259" xlink:href="#m794fe5ae36" y="64.665936"/>
     <use style="fill:#777777;stroke:#777777;stroke-width:2.025;" x="667.681866" xlink:href="#m794fe5ae36" y="146.354098"/>
    </g>
   </g>
   <g id="PathCollection_7"/>
   <g id="PathCollection_8"/>
   <g id="PathCollection_9"/>
   <g id="PathCollection_10"/>
   <g id="PathCollection_11"/>
   <g id="PathCollection_12"/>
   <g id="PathCollection_13"/>
   <g id="PathCollection_14"/>
   <g id="line2d_32">
    <path clip-path="url(#pb1a59340c7)" d="M 504.264259 69.903756 
L 504.264259 59.428117 
" style="fill:none;stroke:#777777;stroke-linecap:round;stroke-width:2;"/>
   </g>
   <g id="line2d_33">
    <path clip-path="url(#pb1a59340c7)" d="M 496.093379 69.903756 
L 512.43514 69.903756 
" style="fill:none;stroke:#777777;stroke-linecap:round;stroke-width:2;"/>
   </g>
   <g id="line2d_34">
    <path clip-path="url(#pb1a59340c7)" d="M 496.093379 59.428117 
L 512.43514 59.428117 
" style="fill:none;stroke:#777777;stroke-linecap:round;stroke-width:2;"/>
   </g>
   <g id="line2d_35">
    <path clip-path="url(#pb1a59340c7)" d="M 667.681866 182.385932 
L 667.681866 110.322264 
" style="fill:none;stroke:#777777;stroke-linecap:round;stroke-width:2;"/>
   </g>
   <g id="line2d_36">
    <path clip-path="url(#pb1a59340c7)" d="M 659.510986 182.385932 
L 675.852746 182.385932 
" style="fill:none;stroke:#777777;stroke-linecap:round;stroke-width:2;"/>
   </g>
   <g id="line2d_37">
    <path clip-path="url(#pb1a59340c7)" d="M 659.510986 110.322264 
L 675.852746 110.322264 
" style="fill:none;stroke:#777777;stroke-linecap:round;stroke-width:2;"/>
   </g>
   <g id="PathCollection_15">
    <g clip-path="url(#pb1a59340c7)">
     <use style="fill:#777777;stroke:#777777;stroke-width:2.025;" x="531.500527" xlink:href="#m794fe5ae36" y="254.013116"/>
     <use style="fill:#777777;stroke:#777777;stroke-width:2.025;" x="694.918134" xlink:href="#m794fe5ae36" y="158.575677"/>
    </g>
   </g>
   <g id="line2d_38">
    <path clip-path="url(#pb1a59340c7)" d="M 531.500527 298.709176 
L 531.500527 209.317055 
" style="fill:none;stroke:#777777;stroke-linecap:round;stroke-width:2;"/>
   </g>
   <g id="line2d_39">
    <path clip-path="url(#pb1a59340c7)" d="M 523.329647 298.709176 
L 539.671407 298.709176 
" style="fill:none;stroke:#777777;stroke-linecap:round;stroke-width:2;"/>
   </g>
   <g id="line2d_40">
    <path clip-path="url(#pb1a59340c7)" d="M 523.329647 209.317055 
L 539.671407 209.317055 
" style="fill:none;stroke:#777777;stroke-linecap:round;stroke-width:2;"/>
   </g>
   <g id="line2d_41">
    <path clip-path="url(#pb1a59340c7)" d="M 694.918134 177.017167 
L 694.918134 140.134187 
" style="fill:none;stroke:#777777;stroke-linecap:round;stroke-width:2;"/>
   </g>
   <g id="line2d_42">
    <path clip-path="url(#pb1a59340c7)" d="M 686.747253 177.017167 
L 703.089014 177.017167 
" style="fill:none;stroke:#777777;stroke-linecap:round;stroke-width:2;"/>
   </g>
   <g id="line2d_43">
    <path clip-path="url(#pb1a59340c7)" d="M 686.747253 140.134187 
L 703.089014 140.134187 
" style="fill:none;stroke:#777777;stroke-linecap:round;stroke-width:2;"/>
   </g>
   <g id="line2d_44">
    <path clip-path="url(#pb1a59340c7)" d="M 626.827464 315 
L 626.827464 43.2 
" style="fill:none;stroke:#252525;stroke-dasharray:5.55,2.4;stroke-dashoffset:0;stroke-width:1.5;"/>
   </g>
   <g id="patch_8">
    <path d="M 473.236364 315 
L 473.236364 43.2 
" style="fill:none;stroke:#262626;stroke-linecap:square;stroke-linejoin:miter;stroke-width:1.25;"/>
   </g>
   <g id="patch_9">
    <path d="M 777.6 315 
L 777.6 43.2 
" style="fill:none;stroke:#262626;stroke-linecap:square;stroke-linejoin:miter;stroke-width:1.25;"/>
   </g>
   <g id="patch_10">
    <path d="M 473.236364 315 
L 777.6 315 
" style="fill:none;stroke:#262626;stroke-linecap:square;stroke-linejoin:miter;stroke-width:1.25;"/>
   </g>
   <g id="patch_11">
    <path d="M 473.236364 43.2 
L 777.6 43.2 
" style="fill:none;stroke:#262626;stroke-linecap:square;stroke-linejoin:miter;stroke-width:1.25;"/>
   </g>
   <g id="PathCollection_16">
    <g clip-path="url(#pb1a59340c7)">
     <use style="fill:#777777;stroke:#777777;stroke-width:2.025;" x="558.736795" xlink:href="#m794fe5ae36" y="198.273985"/>
     <use style="fill:#777777;stroke:#777777;stroke-width:2.025;" x="722.154402" xlink:href="#m794fe5ae36" y="127.607069"/>
    </g>
   </g>
   <g id="PathCollection_17">
    <defs>
     <path d="M 0 4 
C 1.060812 4 2.078319 3.578535 2.828427 2.828427 
C 3.578535 2.078319 4 1.060812 4 0 
C 4 -1.060812 3.578535 -2.078319 2.828427 -2.828427 
C 2.078319 -3.578535 1.060812 -4 0 -4 
C -1.060812 -4 -2.078319 -3.578535 -2.828427 -2.828427 
C -3.578535 -2.078319 -4 -1.060812 -4 0 
C -4 1.060812 -3.578535 2.078319 -2.828427 2.828427 
C -2.078319 3.578535 -1.060812 4 0 4 
z
" id="C5_0_ce1dfd13b7"/>
    </defs>
    <g clip-path="url(#pb1a59340c7)">
     <use style="fill:#0072b2;" x="491.3664" xlink:href="#C5_0_ce1dfd13b7" y="59.428117"/>
    </g>
    <g clip-path="url(#pb1a59340c7)">
     <use style="fill:#0072b2;" x="496.339213" xlink:href="#C5_0_ce1dfd13b7" y="69.903756"/>
    </g>
   </g>
   <g id="PathCollection_18">
    <defs>
     <path d="M 0 4 
C 1.060812 4 2.078319 3.578535 2.828427 2.828427 
C 3.578535 2.078319 4 1.060812 4 0 
C 4 -1.060812 3.578535 -2.078319 2.828427 -2.828427 
C 2.078319 -3.578535 1.060812 -4 0 -4 
C -1.060812 -4 -2.078319 -3.578535 -2.828427 -2.828427 
C -3.578535 -2.078319 -4 -1.060812 -4 0 
C -4 1.060812 -3.578535 2.078319 -2.828427 2.828427 
C -2.078319 3.578535 -1.060812 4 0 4 
z
" id="C6_0_81e42dff0a"/>
    </defs>
    <g clip-path="url(#pb1a59340c7)">
     <use style="fill:#d55e00;" x="534.262292" xlink:href="#C6_0_81e42dff0a" y="209.317055"/>
    </g>
    <g clip-path="url(#pb1a59340c7)">
     <use style="fill:#d55e00;" x="531.116834" xlink:href="#C6_0_81e42dff0a" y="298.709176"/>
    </g>
   </g>
   <g id="PathCollection_19">
    <defs>
     <path d="M 0 4 
C 1.060812 4 2.078319 3.578535 2.828427 2.828427 
C 3.578535 2.078319 4 1.060812 4 0 
C 4 -1.060812 3.578535 -2.078319 2.828427 -2.828427 
C 2.078319 -3.578535 1.060812 -4 0 -4 
C -1.060812 -4 -2.078319 -3.578535 -2.828427 -2.828427 
C -3.578535 -2.078319 -4 -1.060812 -4 0 
C -4 1.060812 -3.578535 2.078319 -2.828427 2.828427 
C -2.078319 3.578535 -1.060812 4 0 4 
z
" id="C7_0_ffb03936ab"/>
    </defs>
    <g clip-path="url(#pb1a59340c7)">
     <use style="fill:#009e73;" x="563.750364" xlink:href="#C7_0_ffb03936ab" y="162.351272"/>
    </g>
    <g clip-path="url(#pb1a59340c7)">
     <use style="fill:#009e73;" x="555.573936" xlink:href="#C7_0_ffb03936ab" y="234.196698"/>
    </g>
   </g>
   <g id="PathCollection_20">
    <defs>
     <path d="M 0 4 
C 1.060812 4 2.078319 3.578535 2.828427 2.828427 
C 3.578535 2.078319 4 1.060812 4 0 
C 4 -1.060812 3.578535 -2.078319 2.828427 -2.828427 
C 2.078319 -3.578535 1.060812 -4 0 -4 
C -1.060812 -4 -2.078319 -3.578535 -2.828427 -2.828427 
C -3.578535 -2.078319 -4 -1.060812 -4 0 
C -4 1.060812 -3.578535 2.078319 -2.828427 2.828427 
C -2.078319 3.578535 -1.060812 4 0 4 
z
" id="C8_0_00355d046d"/>
    </defs>
    <g clip-path="url(#pb1a59340c7)">
     <use style="fill:#f0e442;" x="601.087841" xlink:href="#C8_0_00355d046d" y="206.218012"/>
    </g>
    <g clip-path="url(#pb1a59340c7)">
     <use style="fill:#f0e442;" x="587.115418" xlink:href="#C8_0_00355d046d" y="183.477145"/>
    </g>
   </g>
   <g id="PathCollection_21">
    <defs>
     <path d="M 0 4 
C 1.060812 4 2.078319 3.578535 2.828427 2.828427 
C 3.578535 2.078319 4 1.060812 4 0 
C 4 -1.060812 3.578535 -2.078319 2.828427 -2.828427 
C 2.078319 -3.578535 1.060812 -4 0 -4 
C -1.060812 -4 -2.078319 -3.578535 -2.828427 -2.828427 
C -3.578535 -2.078319 -4 -1.060812 -4 0 
C -4 1.060812 -3.578535 2.078319 -2.828427 2.828427 
C -2.078319 3.578535 -1.060812 4 0 4 
z
" id="C9_0_369fc96037"/>
    </defs>
    <g clip-path="url(#pb1a59340c7)">
     <use style="fill:#0072b2;" x="651.661551" xlink:href="#C9_0_369fc96037" y="110.322264"/>
    </g>
    <g clip-path="url(#pb1a59340c7)">
     <use style="fill:#0072b2;" x="663.854685" xlink:href="#C9_0_369fc96037" y="182.385932"/>
    </g>
   </g>
   <g id="PathCollection_22">
    <defs>
     <path d="M 0 4 
C 1.060812 4 2.078319 3.578535 2.828427 2.828427 
C 3.578535 2.078319 4 1.060812 4 0 
C 4 -1.060812 3.578535 -2.078319 2.828427 -2.828427 
C 2.078319 -3.578535 1.060812 -4 0 -4 
C -1.060812 -4 -2.078319 -3.578535 -2.828427 -2.828427 
C -3.578535 -2.078319 -4 -1.060812 -4 0 
C -4 1.060812 -3.578535 2.078319 -2.828427 2.828427 
C -2.078319 3.578535 -1.060812 4 0 4 
z
" id="Ca_0_a1f920c904"/>
    </defs>
    <g clip-path="url(#pb1a59340c7)">
     <use style="fill:#d55e00;" x="694.113134" xlink:href="#Ca_0_a1f920c904" y="140.134187"/>
    </g>
    <g clip-path="url(#pb1a59340c7)">
     <use style="fill:#d55e00;" x="687.210761" xlink:href="#Ca_0_a1f920c904" y="177.017167"/>
    </g>
   </g>
   <g id="PathCollection_23">
    <defs>
     <path d="M 0 4 
C 1.060812 4 2.078319 3.578535 2.828427 2.828427 
C 3.578535 2.078319 4 1.060812 4 0 
C 4 -1.060812 3.578535 -2.078319 2.828427 -2.828427 
C 2.078319 -3.578535 1.060812 -4 0 -4 
C -1.060812 -4 -2.078319 -3.578535 -2.828427 -2.828427 
C -3.578535 -2.078319 -4 -1.060812 -4 0 
C -4 1.060812 -3.578535 2.078319 -2.828427 2.828427 
C -2.078319 3.578535 -1.060812 4 0 4 
z
" id="Cb_0_c72bc695dc"/>
    </defs>
    <g clip-path="url(#pb1a59340c7)">
     <use style="fill:#009e73;" x="723.932541" xlink:href="#Cb_0_c72bc695dc" y="102.858371"/>
    </g>
    <g clip-path="url(#pb1a59340c7)">
     <use style="fill:#009e73;" x="728.247691" xlink:href="#Cb_0_c72bc695dc" y="152.355767"/>
    </g>
   </g>
   <g id="PathCollection_24">
    <defs>
     <path d="M 0 4 
C 1.060812 4 2.078319 3.578535 2.828427 2.828427 
C 3.578535 2.078319 4 1.060812 4 0 
C 4 -1.060812 3.578535 -2.078319 2.828427 -2.828427 
C 2.078319 -3.578535 1.060812 -4 0 -4 
C -1.060812 -4 -2.078319 -3.578535 -2.828427 -2.828427 
C -3.578535 -2.078319 -4 -1.060812 -4 0 
C -4 1.060812 -3.578535 2.078319 -2.828427 2.828427 
C -2.078319 3.578535 -1.060812 4 0 4 
z
" id="Cc_0_31147f85e3"/>
    </defs>
    <g clip-path="url(#pb1a59340c7)">
     <use style="fill:#f0e442;" x="759.854973" xlink:href="#Cc_0_31147f85e3" y="153.054142"/>
    </g>
    <g clip-path="url(#pb1a59340c7)">
     <use style="fill:#f0e442;" x="755.627728" xlink:href="#Cc_0_31147f85e3" y="95.001642"/>
    </g>
   </g>
   <g id="line2d_45">
    <path clip-path="url(#pb1a59340c7)" d="M 558.736795 234.196698 
L 558.736795 162.351272 
" style="fill:none;stroke:#777777;stroke-linecap:round;stroke-width:2;"/>
   </g>
   <g id="line2d_46">
    <path clip-path="url(#pb1a59340c7)" d="M 550.565914 234.196698 
L 566.907675 234.196698 
" style="fill:none;stroke:#777777;stroke-linecap:round;stroke-width:2;"/>
   </g>
   <g id="line2d_47">
    <path clip-path="url(#pb1a59340c7)" d="M 550.565914 162.351272 
L 566.907675 162.351272 
" style="fill:none;stroke:#777777;stroke-linecap:round;stroke-width:2;"/>
   </g>
   <g id="line2d_48">
    <path clip-path="url(#pb1a59340c7)" d="M 722.154402 152.355767 
L 722.154402 102.858371 
" style="fill:none;stroke:#777777;stroke-linecap:round;stroke-width:2;"/>
   </g>
   <g id="line2d_49">
    <path clip-path="url(#pb1a59340c7)" d="M 713.983521 152.355767 
L 730.325282 152.355767 
" style="fill:none;stroke:#777777;stroke-linecap:round;stroke-width:2;"/>
   </g>
   <g id="line2d_50">
    <path clip-path="url(#pb1a59340c7)" d="M 713.983521 102.858371 
L 730.325282 102.858371 
" style="fill:none;stroke:#777777;stroke-linecap:round;stroke-width:2;"/>
   </g>
   <g id="text_25">
    <text style="fill:#262626;font-family:DejaVu Sans;font-size:14.4px;font-style:normal;font-weight:normal;text-anchor:middle;" transform="rotate(-0, 625.418182, 37.2)" x="625.418182" y="37.2">m6A-IP (ABE572)</text>
   </g>
   <g id="PathCollection_25">
    <g clip-path="url(#pb1a59340c7)">
     <use style="fill:#777777;stroke:#777777;stroke-width:2.025;" x="585.973063" xlink:href="#m794fe5ae36" y="194.847578"/>
     <use style="fill:#777777;stroke:#777777;stroke-width:2.025;" x="749.390669" xlink:href="#m794fe5ae36" y="124.027892"/>
    </g>
   </g>
   <g id="line2d_51">
    <path clip-path="url(#pb1a59340c7)" d="M 585.973063 206.218012 
L 585.973063 183.477145 
" style="fill:none;stroke:#777777;stroke-linecap:round;stroke-width:2;"/>
   </g>
   <g id="line2d_52">
    <path clip-path="url(#pb1a59340c7)" d="M 577.802182 206.218012 
L 594.143943 206.218012 
" style="fill:none;stroke:#777777;stroke-linecap:round;stroke-width:2;"/>
   </g>
   <g id="line2d_53">
    <path clip-path="url(#pb1a59340c7)" d="M 577.802182 183.477145 
L 594.143943 183.477145 
" style="fill:none;stroke:#777777;stroke-linecap:round;stroke-width:2;"/>
   </g>
   <g id="line2d_54">
    <path clip-path="url(#pb1a59340c7)" d="M 749.390669 153.054142 
L 749.390669 95.001642 
" style="fill:none;stroke:#777777;stroke-linecap:round;stroke-width:2;"/>
   </g>
   <g id="line2d_55">
    <path clip-path="url(#pb1a59340c7)" d="M 741.219789 153.054142 
L 757.56155 153.054142 
" style="fill:none;stroke:#777777;stroke-linecap:round;stroke-width:2;"/>
   </g>
   <g id="line2d_56">
    <path clip-path="url(#pb1a59340c7)" d="M 741.219789 95.001642 
L 757.56155 95.001642 
" style="fill:none;stroke:#777777;stroke-linecap:round;stroke-width:2;"/>
   </g>
   <g id="legend_1">
    <g id="patch_12">
     <path d="M 688.17 308.4 
L 768.36 308.4 
Q 771 308.4 771 305.76 
L 771 229.5795 
Q 771 226.9395 768.36 226.9395 
L 688.17 226.9395 
Q 685.53 226.9395 685.53 229.5795 
L 685.53 305.76 
Q 685.53 308.4 688.17 308.4 
z
" style="fill:#ffffff;opacity:0.8;stroke:#cccccc;stroke-linejoin:miter;"/>
    </g>
    <g id="PathCollection_26">
     <defs>
      <path d="M 0 3 
C 0.795609 3 1.55874 2.683901 2.12132 2.12132 
C 2.683901 1.55874 3 0.795609 3 0 
C 3 -0.795609 2.683901 -1.55874 2.12132 -2.12132 
C 1.55874 -2.683901 0.795609 -3 0 -3 
C -0.795609 -3 -1.55874 -2.683901 -2.12132 -2.12132 
C -2.683901 -1.55874 -3 -0.795609 -3 0 
C -3 0.795609 -2.683901 1.55874 -2.12132 2.12132 
C -1.55874 2.683901 -0.795609 3 0 3 
z
" id="me3899901b3" style="stroke:#0072b2;"/>
     </defs>
     <g>
      <use style="fill:#0072b2;stroke:#0072b2;" x="704.01" xlink:href="#me3899901b3" y="238.784437"/>
     </g>
    </g>
    <g id="text_26">
     <text style="fill:#262626;font-family:DejaVu Sans;font-size:13.2px;font-style:normal;font-weight:normal;text-anchor:start;" transform="rotate(-0, 727.77, 242.249437)" x="727.77" y="242.249437">Col-0</text>
    </g>
    <g id="PathCollection_27">
     <defs>
      <path d="M 0 3 
C 0.795609 3 1.55874 2.683901 2.12132 2.12132 
C 2.683901 1.55874 3 0.795609 3 0 
C 3 -0.795609 2.683901 -1.55874 2.12132 -2.12132 
C 1.55874 -2.683901 0.795609 -3 0 -3 
C -0.795609 -3 -1.55874 -2.683901 -2.12132 -2.12132 
C -2.683901 -1.55874 -3 -0.795609 -3 0 
C -3 0.795609 -2.683901 1.55874 -2.12132 2.12132 
C -1.55874 2.683901 -0.795609 3 0 3 
z
" id="md7f7295eb9" style="stroke:#d55e00;"/>
     </defs>
     <g>
      <use style="fill:#d55e00;stroke:#d55e00;" x="704.01" xlink:href="#md7f7295eb9" y="258.159563"/>
     </g>
    </g>
    <g id="text_27">
     <text style="fill:#262626;font-family:DejaVu Sans;font-size:13.2px;font-style:normal;font-weight:normal;text-anchor:start;" transform="rotate(-0, 727.77, 261.624563)" x="727.77" y="261.624563">fio1-1</text>
    </g>
    <g id="PathCollection_28">
     <defs>
      <path d="M 0 3 
C 0.795609 3 1.55874 2.683901 2.12132 2.12132 
C 2.683901 1.55874 3 0.795609 3 0 
C 3 -0.795609 2.683901 -1.55874 2.12132 -2.12132 
C 1.55874 -2.683901 0.795609 -3 0 -3 
C -0.795609 -3 -1.55874 -2.683901 -2.12132 -2.12132 
C -2.683901 -1.55874 -3 -0.795609 -3 0 
C -3 0.795609 -2.683901 1.55874 -2.12132 2.12132 
C -1.55874 2.683901 -0.795609 3 0 3 
z
" id="m0d755eb546" style="stroke:#009e73;"/>
     </defs>
     <g>
      <use style="fill:#009e73;stroke:#009e73;" x="704.01" xlink:href="#m0d755eb546" y="277.534688"/>
     </g>
    </g>
    <g id="text_28">
     <text style="fill:#262626;font-family:DejaVu Sans;font-size:13.2px;font-style:normal;font-weight:normal;text-anchor:start;" transform="rotate(-0, 727.77, 280.999687)" x="727.77" y="280.999687">fio1-3</text>
    </g>
    <g id="PathCollection_29">
     <defs>
      <path d="M 0 3 
C 0.795609 3 1.55874 2.683901 2.12132 2.12132 
C 2.683901 1.55874 3 0.795609 3 0 
C 3 -0.795609 2.683901 -1.55874 2.12132 -2.12132 
C 1.55874 -2.683901 0.795609 -3 0 -3 
C -0.795609 -3 -1.55874 -2.683901 -2.12132 -2.12132 
C -2.683901 -1.55874 -3 -0.795609 -3 0 
C -3 0.795609 -2.683901 1.55874 -2.12132 2.12132 
C -1.55874 2.683901 -0.795609 3 0 3 
z
" id="m66ced66e48" style="stroke:#f0e442;"/>
     </defs>
     <g>
      <use style="fill:#f0e442;stroke:#f0e442;" x="704.01" xlink:href="#m66ced66e48" y="296.909813"/>
     </g>
    </g>
    <g id="text_29">
     <text style="fill:#262626;font-family:DejaVu Sans;font-size:13.2px;font-style:normal;font-weight:normal;text-anchor:start;" transform="rotate(-0, 727.77, 300.374813)" x="727.77" y="300.374813">fio1-4</text>
    </g>
   </g>
  </g>
 </g>
 <defs>
  <clipPath id="pb792bab8c3">
   <rect height="271.8" width="304.363636" x="108" y="43.2"/>
  </clipPath>
  <clipPath id="pb1a59340c7">
   <rect height="271.8" width="304.363636" x="473.236364" y="43.2"/>
  </clipPath>
 </defs>
</svg>
