<?xml version="1.0" encoding="utf-8" standalone="no"?>
<!DOCTYPE svg PUBLIC "-//W3C//DTD SVG 1.1//EN"
  "http://www.w3.org/Graphics/SVG/1.1/DTD/svg11.dtd">
<!-- Created with matplotlib (https://matplotlib.org/) -->
<svg height="360pt" version="1.1" viewBox="0 0 720 360" width="720pt" xmlns="http://www.w3.org/2000/svg" xmlns:xlink="http://www.w3.org/1999/xlink">
 <metadata>
  <rdf:RDF xmlns:cc="http://creativecommons.org/ns#" xmlns:dc="http://purl.org/dc/elements/1.1/" xmlns:rdf="http://www.w3.org/1999/02/22-rdf-syntax-ns#">
   <cc:Work>
    <dc:type rdf:resource="http://purl.org/dc/dcmitype/StillImage"/>
    <dc:date>2022-02-20T19:51:23.832486</dc:date>
    <dc:format>image/svg+xml</dc:format>
    <dc:creator>
     <cc:Agent>
      <dc:title>Matplotlib v3.3.4, https://matplotlib.org/</dc:title>
     </cc:Agent>
    </dc:creator>
   </cc:Work>
  </rdf:RDF>
 </metadata>
 <defs>
  <style type="text/css">*{stroke-linecap:butt;stroke-linejoin:round;}</style>
 </defs>
 <g id="figure_1">
  <g id="patch_1">
   <path d="M 0 360 
L 720 360 
L 720 0 
L 0 0 
z
" style="fill:#ffffff;"/>
  </g>
  <g id="axes_1">
   <g id="patch_2">
    <path d="M 72.302 302.948 
L 704.448 302.948 
L 704.448 15.552 
L 72.302 15.552 
z
" style="fill:#ffffff;"/>
   </g>
   <g id="matplotlib.axis_1">
    <g id="xtick_1">
     <g id="line2d_1">
      <defs>
       <path d="M 0 0 
L 0 6 
" id="m46212d94eb" style="stroke:#262626;stroke-width:1.25;"/>
      </defs>
      <g>
       <use style="fill:#262626;stroke:#262626;stroke-width:1.25;" x="102.831778" xlink:href="#m46212d94eb" y="302.948"/>
      </g>
     </g>
     <g id="text_1">
      <text style="fill:#262626;font-family:DejaVu Sans;font-size:13.2px;font-stretch:normal;font-style:normal;font-weight:normal;text-anchor:middle;" transform="rotate(-0, 102.831778, 322.477938)" x="102.831778" y="322.477938">−80</text>
     </g>
    </g>
    <g id="xtick_2">
     <g id="line2d_2">
      <g>
       <use style="fill:#262626;stroke:#262626;stroke-width:1.25;" x="174.666551" xlink:href="#m46212d94eb" y="302.948"/>
      </g>
     </g>
     <g id="text_2">
      <text style="fill:#262626;font-family:DejaVu Sans;font-size:13.2px;font-stretch:normal;font-style:normal;font-weight:normal;text-anchor:middle;" transform="rotate(-0, 174.666551, 322.477938)" x="174.666551" y="322.477938">−60</text>
     </g>
    </g>
    <g id="xtick_3">
     <g id="line2d_3">
      <g>
       <use style="fill:#262626;stroke:#262626;stroke-width:1.25;" x="246.501324" xlink:href="#m46212d94eb" y="302.948"/>
      </g>
     </g>
     <g id="text_3">
      <text style="fill:#262626;font-family:DejaVu Sans;font-size:13.2px;font-stretch:normal;font-style:normal;font-weight:normal;text-anchor:middle;" transform="rotate(-0, 246.501324, 322.477938)" x="246.501324" y="322.477938">−40</text>
     </g>
    </g>
    <g id="xtick_4">
     <g id="line2d_4">
      <g>
       <use style="fill:#262626;stroke:#262626;stroke-width:1.25;" x="318.336097" xlink:href="#m46212d94eb" y="302.948"/>
      </g>
     </g>
     <g id="text_4">
      <text style="fill:#262626;font-family:DejaVu Sans;font-size:13.2px;font-stretch:normal;font-style:normal;font-weight:normal;text-anchor:middle;" transform="rotate(-0, 318.336097, 322.477938)" x="318.336097" y="322.477938">−20</text>
     </g>
    </g>
    <g id="xtick_5">
     <g id="line2d_5">
      <g>
       <use style="fill:#262626;stroke:#262626;stroke-width:1.25;" x="390.170869" xlink:href="#m46212d94eb" y="302.948"/>
      </g>
     </g>
     <g id="text_5">
      <text style="fill:#262626;font-family:DejaVu Sans;font-size:13.2px;font-stretch:normal;font-style:normal;font-weight:normal;text-anchor:middle;" transform="rotate(-0, 390.170869, 322.477938)" x="390.170869" y="322.477938">0</text>
     </g>
    </g>
    <g id="xtick_6">
     <g id="line2d_6">
      <g>
       <use style="fill:#262626;stroke:#262626;stroke-width:1.25;" x="462.005642" xlink:href="#m46212d94eb" y="302.948"/>
      </g>
     </g>
     <g id="text_6">
      <text style="fill:#262626;font-family:DejaVu Sans;font-size:13.2px;font-stretch:normal;font-style:normal;font-weight:normal;text-anchor:middle;" transform="rotate(-0, 462.005642, 322.477938)" x="462.005642" y="322.477938">20</text>
     </g>
    </g>
    <g id="xtick_7">
     <g id="line2d_7">
      <g>
       <use style="fill:#262626;stroke:#262626;stroke-width:1.25;" x="533.840415" xlink:href="#m46212d94eb" y="302.948"/>
      </g>
     </g>
     <g id="text_7">
      <text style="fill:#262626;font-family:DejaVu Sans;font-size:13.2px;font-stretch:normal;font-style:normal;font-weight:normal;text-anchor:middle;" transform="rotate(-0, 533.840415, 322.477938)" x="533.840415" y="322.477938">40</text>
     </g>
    </g>
    <g id="xtick_8">
     <g id="line2d_8">
      <g>
       <use style="fill:#262626;stroke:#262626;stroke-width:1.25;" x="605.675187" xlink:href="#m46212d94eb" y="302.948"/>
      </g>
     </g>
     <g id="text_8">
      <text style="fill:#262626;font-family:DejaVu Sans;font-size:13.2px;font-stretch:normal;font-style:normal;font-weight:normal;text-anchor:middle;" transform="rotate(-0, 605.675187, 322.477938)" x="605.675187" y="322.477938">60</text>
     </g>
    </g>
    <g id="xtick_9">
     <g id="line2d_9">
      <g>
       <use style="fill:#262626;stroke:#262626;stroke-width:1.25;" x="677.50996" xlink:href="#m46212d94eb" y="302.948"/>
      </g>
     </g>
     <g id="text_9">
      <text style="fill:#262626;font-family:DejaVu Sans;font-size:13.2px;font-stretch:normal;font-style:normal;font-weight:normal;text-anchor:middle;" transform="rotate(-0, 677.50996, 322.477938)" x="677.50996" y="322.477938">80</text>
     </g>
    </g>
    <g id="text_10">
     <text style="fill:#262626;font-family:DejaVu Sans;font-size:14.4px;font-stretch:normal;font-style:normal;font-weight:normal;text-anchor:middle;" transform="rotate(-0, 388.375, 340.164875)" x="388.375" y="340.164875">Distance between alternative 5'SS pairs with reduced/increased usage in fio1-3</text>
    </g>
   </g>
   <g id="matplotlib.axis_2">
    <g id="ytick_1">
     <g id="line2d_10">
      <defs>
       <path d="M 0 0 
L -6 0 
" id="mbc3cbf05dd" style="stroke:#262626;stroke-width:1.25;"/>
      </defs>
      <g>
       <use style="fill:#262626;stroke:#262626;stroke-width:1.25;" x="72.302" xlink:href="#mbc3cbf05dd" y="302.948"/>
      </g>
     </g>
     <g id="text_11">
      <text style="fill:#262626;font-family:DejaVu Sans;font-size:13.2px;font-stretch:normal;font-style:normal;font-weight:normal;text-anchor:end;" transform="rotate(-0, 62.802, 307.962969)" x="62.802" y="307.962969">0.0</text>
     </g>
    </g>
    <g id="ytick_2">
     <g id="line2d_11">
      <g>
       <use style="fill:#262626;stroke:#262626;stroke-width:1.25;" x="72.302" xlink:href="#mbc3cbf05dd" y="266.933464"/>
      </g>
     </g>
     <g id="text_12">
      <text style="fill:#262626;font-family:DejaVu Sans;font-size:13.2px;font-stretch:normal;font-style:normal;font-weight:normal;text-anchor:end;" transform="rotate(-0, 62.802, 271.948432)" x="62.802" y="271.948432">2.5</text>
     </g>
    </g>
    <g id="ytick_3">
     <g id="line2d_12">
      <g>
       <use style="fill:#262626;stroke:#262626;stroke-width:1.25;" x="72.302" xlink:href="#mbc3cbf05dd" y="230.918927"/>
      </g>
     </g>
     <g id="text_13">
      <text style="fill:#262626;font-family:DejaVu Sans;font-size:13.2px;font-stretch:normal;font-style:normal;font-weight:normal;text-anchor:end;" transform="rotate(-0, 62.802, 235.933896)" x="62.802" y="235.933896">5.0</text>
     </g>
    </g>
    <g id="ytick_4">
     <g id="line2d_13">
      <g>
       <use style="fill:#262626;stroke:#262626;stroke-width:1.25;" x="72.302" xlink:href="#mbc3cbf05dd" y="194.904391"/>
      </g>
     </g>
     <g id="text_14">
      <text style="fill:#262626;font-family:DejaVu Sans;font-size:13.2px;font-stretch:normal;font-style:normal;font-weight:normal;text-anchor:end;" transform="rotate(-0, 62.802, 199.91936)" x="62.802" y="199.91936">7.5</text>
     </g>
    </g>
    <g id="ytick_5">
     <g id="line2d_14">
      <g>
       <use style="fill:#262626;stroke:#262626;stroke-width:1.25;" x="72.302" xlink:href="#mbc3cbf05dd" y="158.889855"/>
      </g>
     </g>
     <g id="text_15">
      <text style="fill:#262626;font-family:DejaVu Sans;font-size:13.2px;font-stretch:normal;font-style:normal;font-weight:normal;text-anchor:end;" transform="rotate(-0, 62.802, 163.904823)" x="62.802" y="163.904823">10.0</text>
     </g>
    </g>
    <g id="ytick_6">
     <g id="line2d_15">
      <g>
       <use style="fill:#262626;stroke:#262626;stroke-width:1.25;" x="72.302" xlink:href="#mbc3cbf05dd" y="122.875318"/>
      </g>
     </g>
     <g id="text_16">
      <text style="fill:#262626;font-family:DejaVu Sans;font-size:13.2px;font-stretch:normal;font-style:normal;font-weight:normal;text-anchor:end;" transform="rotate(-0, 62.802, 127.890287)" x="62.802" y="127.890287">12.5</text>
     </g>
    </g>
    <g id="ytick_7">
     <g id="line2d_16">
      <g>
       <use style="fill:#262626;stroke:#262626;stroke-width:1.25;" x="72.302" xlink:href="#mbc3cbf05dd" y="86.860782"/>
      </g>
     </g>
     <g id="text_17">
      <text style="fill:#262626;font-family:DejaVu Sans;font-size:13.2px;font-stretch:normal;font-style:normal;font-weight:normal;text-anchor:end;" transform="rotate(-0, 62.802, 91.875751)" x="62.802" y="91.875751">15.0</text>
     </g>
    </g>
    <g id="ytick_8">
     <g id="line2d_17">
      <g>
       <use style="fill:#262626;stroke:#262626;stroke-width:1.25;" x="72.302" xlink:href="#mbc3cbf05dd" y="50.846246"/>
      </g>
     </g>
     <g id="text_18">
      <text style="fill:#262626;font-family:DejaVu Sans;font-size:13.2px;font-stretch:normal;font-style:normal;font-weight:normal;text-anchor:end;" transform="rotate(-0, 62.802, 55.861214)" x="62.802" y="55.861214">17.5</text>
     </g>
    </g>
    <g id="text_19">
     <text style="fill:#262626;font-family:DejaVu Sans;font-size:14.4px;font-stretch:normal;font-style:normal;font-weight:normal;text-anchor:middle;" transform="rotate(-90, 26.416625, 159.25)" x="26.416625" y="159.25">Alt5'SS pairs</text>
    </g>
   </g>
   <g id="patch_3">
    <path clip-path="url(#paa21c7f378)" d="M 101.035909 302.948 
L 104.627648 302.948 
L 104.627648 302.948 
L 101.035909 302.948 
z
" style="fill:#0072b2;stroke:#ffffff;stroke-linejoin:miter;"/>
   </g>
   <g id="patch_4">
    <path clip-path="url(#paa21c7f378)" d="M 104.627648 302.948 
L 108.219386 302.948 
L 108.219386 302.948 
L 104.627648 302.948 
z
" style="fill:#0072b2;stroke:#ffffff;stroke-linejoin:miter;"/>
   </g>
   <g id="patch_5">
    <path clip-path="url(#paa21c7f378)" d="M 108.219386 302.948 
L 111.811125 302.948 
L 111.811125 302.948 
L 108.219386 302.948 
z
" style="fill:#0072b2;stroke:#ffffff;stroke-linejoin:miter;"/>
   </g>
   <g id="patch_6">
    <path clip-path="url(#paa21c7f378)" d="M 111.811125 302.948 
L 115.402864 302.948 
L 115.402864 302.948 
L 111.811125 302.948 
z
" style="fill:#0072b2;stroke:#ffffff;stroke-linejoin:miter;"/>
   </g>
   <g id="patch_7">
    <path clip-path="url(#paa21c7f378)" d="M 115.402864 302.948 
L 118.994602 302.948 
L 118.994602 288.542185 
L 115.402864 288.542185 
z
" style="fill:#0072b2;stroke:#ffffff;stroke-linejoin:miter;"/>
   </g>
   <g id="patch_8">
    <path clip-path="url(#paa21c7f378)" d="M 118.994602 302.948 
L 122.586341 302.948 
L 122.586341 288.542185 
L 118.994602 288.542185 
z
" style="fill:#0072b2;stroke:#ffffff;stroke-linejoin:miter;"/>
   </g>
   <g id="patch_9">
    <path clip-path="url(#paa21c7f378)" d="M 122.586341 302.948 
L 126.17808 302.948 
L 126.17808 302.948 
L 122.586341 302.948 
z
" style="fill:#0072b2;stroke:#ffffff;stroke-linejoin:miter;"/>
   </g>
   <g id="patch_10">
    <path clip-path="url(#paa21c7f378)" d="M 126.17808 302.948 
L 129.769818 302.948 
L 129.769818 288.542185 
L 126.17808 288.542185 
z
" style="fill:#0072b2;stroke:#ffffff;stroke-linejoin:miter;"/>
   </g>
   <g id="patch_11">
    <path clip-path="url(#paa21c7f378)" d="M 129.769818 302.948 
L 133.361557 302.948 
L 133.361557 288.542185 
L 129.769818 288.542185 
z
" style="fill:#0072b2;stroke:#ffffff;stroke-linejoin:miter;"/>
   </g>
   <g id="patch_12">
    <path clip-path="url(#paa21c7f378)" d="M 133.361557 302.948 
L 136.953295 302.948 
L 136.953295 288.542185 
L 133.361557 288.542185 
z
" style="fill:#0072b2;stroke:#ffffff;stroke-linejoin:miter;"/>
   </g>
   <g id="patch_13">
    <path clip-path="url(#paa21c7f378)" d="M 136.953295 302.948 
L 140.545034 302.948 
L 140.545034 302.948 
L 136.953295 302.948 
z
" style="fill:#0072b2;stroke:#ffffff;stroke-linejoin:miter;"/>
   </g>
   <g id="patch_14">
    <path clip-path="url(#paa21c7f378)" d="M 140.545034 302.948 
L 144.136773 302.948 
L 144.136773 274.136371 
L 140.545034 274.136371 
z
" style="fill:#0072b2;stroke:#ffffff;stroke-linejoin:miter;"/>
   </g>
   <g id="patch_15">
    <path clip-path="url(#paa21c7f378)" d="M 144.136773 302.948 
L 147.728511 302.948 
L 147.728511 302.948 
L 144.136773 302.948 
z
" style="fill:#0072b2;stroke:#ffffff;stroke-linejoin:miter;"/>
   </g>
   <g id="patch_16">
    <path clip-path="url(#paa21c7f378)" d="M 147.728511 302.948 
L 151.32025 302.948 
L 151.32025 288.542185 
L 147.728511 288.542185 
z
" style="fill:#0072b2;stroke:#ffffff;stroke-linejoin:miter;"/>
   </g>
   <g id="patch_17">
    <path clip-path="url(#paa21c7f378)" d="M 151.32025 302.948 
L 154.911989 302.948 
L 154.911989 302.948 
L 151.32025 302.948 
z
" style="fill:#0072b2;stroke:#ffffff;stroke-linejoin:miter;"/>
   </g>
   <g id="patch_18">
    <path clip-path="url(#paa21c7f378)" d="M 154.911989 302.948 
L 158.503727 302.948 
L 158.503727 288.542185 
L 154.911989 288.542185 
z
" style="fill:#0072b2;stroke:#ffffff;stroke-linejoin:miter;"/>
   </g>
   <g id="patch_19">
    <path clip-path="url(#paa21c7f378)" d="M 158.503727 302.948 
L 162.095466 302.948 
L 162.095466 288.542185 
L 158.503727 288.542185 
z
" style="fill:#0072b2;stroke:#ffffff;stroke-linejoin:miter;"/>
   </g>
   <g id="patch_20">
    <path clip-path="url(#paa21c7f378)" d="M 162.095466 302.948 
L 165.687205 302.948 
L 165.687205 288.542185 
L 162.095466 288.542185 
z
" style="fill:#0072b2;stroke:#ffffff;stroke-linejoin:miter;"/>
   </g>
   <g id="patch_21">
    <path clip-path="url(#paa21c7f378)" d="M 165.687205 302.948 
L 169.278943 302.948 
L 169.278943 288.542185 
L 165.687205 288.542185 
z
" style="fill:#0072b2;stroke:#ffffff;stroke-linejoin:miter;"/>
   </g>
   <g id="patch_22">
    <path clip-path="url(#paa21c7f378)" d="M 169.278943 302.948 
L 172.870682 302.948 
L 172.870682 288.542185 
L 169.278943 288.542185 
z
" style="fill:#0072b2;stroke:#ffffff;stroke-linejoin:miter;"/>
   </g>
   <g id="patch_23">
    <path clip-path="url(#paa21c7f378)" d="M 172.870682 302.948 
L 176.46242 302.948 
L 176.46242 302.948 
L 172.870682 302.948 
z
" style="fill:#0072b2;stroke:#ffffff;stroke-linejoin:miter;"/>
   </g>
   <g id="patch_24">
    <path clip-path="url(#paa21c7f378)" d="M 176.46242 302.948 
L 180.054159 302.948 
L 180.054159 302.948 
L 176.46242 302.948 
z
" style="fill:#0072b2;stroke:#ffffff;stroke-linejoin:miter;"/>
   </g>
   <g id="patch_25">
    <path clip-path="url(#paa21c7f378)" d="M 180.054159 302.948 
L 183.645898 302.948 
L 183.645898 302.948 
L 180.054159 302.948 
z
" style="fill:#0072b2;stroke:#ffffff;stroke-linejoin:miter;"/>
   </g>
   <g id="patch_26">
    <path clip-path="url(#paa21c7f378)" d="M 183.645898 302.948 
L 187.237636 302.948 
L 187.237636 274.136371 
L 183.645898 274.136371 
z
" style="fill:#0072b2;stroke:#ffffff;stroke-linejoin:miter;"/>
   </g>
   <g id="patch_27">
    <path clip-path="url(#paa21c7f378)" d="M 187.237636 302.948 
L 190.829375 302.948 
L 190.829375 288.542185 
L 187.237636 288.542185 
z
" style="fill:#0072b2;stroke:#ffffff;stroke-linejoin:miter;"/>
   </g>
   <g id="patch_28">
    <path clip-path="url(#paa21c7f378)" d="M 190.829375 302.948 
L 194.421114 302.948 
L 194.421114 288.542185 
L 190.829375 288.542185 
z
" style="fill:#0072b2;stroke:#ffffff;stroke-linejoin:miter;"/>
   </g>
   <g id="patch_29">
    <path clip-path="url(#paa21c7f378)" d="M 194.421114 302.948 
L 198.012852 302.948 
L 198.012852 288.542185 
L 194.421114 288.542185 
z
" style="fill:#0072b2;stroke:#ffffff;stroke-linejoin:miter;"/>
   </g>
   <g id="patch_30">
    <path clip-path="url(#paa21c7f378)" d="M 198.012852 302.948 
L 201.604591 302.948 
L 201.604591 288.542185 
L 198.012852 288.542185 
z
" style="fill:#0072b2;stroke:#ffffff;stroke-linejoin:miter;"/>
   </g>
   <g id="patch_31">
    <path clip-path="url(#paa21c7f378)" d="M 201.604591 302.948 
L 205.19633 302.948 
L 205.19633 302.948 
L 201.604591 302.948 
z
" style="fill:#0072b2;stroke:#ffffff;stroke-linejoin:miter;"/>
   </g>
   <g id="patch_32">
    <path clip-path="url(#paa21c7f378)" d="M 205.19633 302.948 
L 208.788068 302.948 
L 208.788068 302.948 
L 205.19633 302.948 
z
" style="fill:#0072b2;stroke:#ffffff;stroke-linejoin:miter;"/>
   </g>
   <g id="patch_33">
    <path clip-path="url(#paa21c7f378)" d="M 208.788068 302.948 
L 212.379807 302.948 
L 212.379807 302.948 
L 208.788068 302.948 
z
" style="fill:#0072b2;stroke:#ffffff;stroke-linejoin:miter;"/>
   </g>
   <g id="patch_34">
    <path clip-path="url(#paa21c7f378)" d="M 212.379807 302.948 
L 215.971545 302.948 
L 215.971545 288.542185 
L 212.379807 288.542185 
z
" style="fill:#0072b2;stroke:#ffffff;stroke-linejoin:miter;"/>
   </g>
   <g id="patch_35">
    <path clip-path="url(#paa21c7f378)" d="M 215.971545 302.948 
L 219.563284 302.948 
L 219.563284 302.948 
L 215.971545 302.948 
z
" style="fill:#0072b2;stroke:#ffffff;stroke-linejoin:miter;"/>
   </g>
   <g id="patch_36">
    <path clip-path="url(#paa21c7f378)" d="M 219.563284 302.948 
L 223.155023 302.948 
L 223.155023 259.730556 
L 219.563284 259.730556 
z
" style="fill:#0072b2;stroke:#ffffff;stroke-linejoin:miter;"/>
   </g>
   <g id="patch_37">
    <path clip-path="url(#paa21c7f378)" d="M 223.155023 302.948 
L 226.746761 302.948 
L 226.746761 302.948 
L 223.155023 302.948 
z
" style="fill:#0072b2;stroke:#ffffff;stroke-linejoin:miter;"/>
   </g>
   <g id="patch_38">
    <path clip-path="url(#paa21c7f378)" d="M 226.746761 302.948 
L 230.3385 302.948 
L 230.3385 230.918927 
L 226.746761 230.918927 
z
" style="fill:#0072b2;stroke:#ffffff;stroke-linejoin:miter;"/>
   </g>
   <g id="patch_39">
    <path clip-path="url(#paa21c7f378)" d="M 230.3385 302.948 
L 233.930239 302.948 
L 233.930239 288.542185 
L 230.3385 288.542185 
z
" style="fill:#0072b2;stroke:#ffffff;stroke-linejoin:miter;"/>
   </g>
   <g id="patch_40">
    <path clip-path="url(#paa21c7f378)" d="M 233.930239 302.948 
L 237.521977 302.948 
L 237.521977 259.730556 
L 233.930239 259.730556 
z
" style="fill:#0072b2;stroke:#ffffff;stroke-linejoin:miter;"/>
   </g>
   <g id="patch_41">
    <path clip-path="url(#paa21c7f378)" d="M 237.521977 302.948 
L 241.113716 302.948 
L 241.113716 288.542185 
L 237.521977 288.542185 
z
" style="fill:#0072b2;stroke:#ffffff;stroke-linejoin:miter;"/>
   </g>
   <g id="patch_42">
    <path clip-path="url(#paa21c7f378)" d="M 241.113716 302.948 
L 244.705455 302.948 
L 244.705455 288.542185 
L 241.113716 288.542185 
z
" style="fill:#0072b2;stroke:#ffffff;stroke-linejoin:miter;"/>
   </g>
   <g id="patch_43">
    <path clip-path="url(#paa21c7f378)" d="M 244.705455 302.948 
L 248.297193 302.948 
L 248.297193 302.948 
L 244.705455 302.948 
z
" style="fill:#0072b2;stroke:#ffffff;stroke-linejoin:miter;"/>
   </g>
   <g id="patch_44">
    <path clip-path="url(#paa21c7f378)" d="M 248.297193 302.948 
L 251.888932 302.948 
L 251.888932 302.948 
L 248.297193 302.948 
z
" style="fill:#0072b2;stroke:#ffffff;stroke-linejoin:miter;"/>
   </g>
   <g id="patch_45">
    <path clip-path="url(#paa21c7f378)" d="M 251.888932 302.948 
L 255.48067 302.948 
L 255.48067 302.948 
L 251.888932 302.948 
z
" style="fill:#0072b2;stroke:#ffffff;stroke-linejoin:miter;"/>
   </g>
   <g id="patch_46">
    <path clip-path="url(#paa21c7f378)" d="M 255.48067 302.948 
L 259.072409 302.948 
L 259.072409 302.948 
L 255.48067 302.948 
z
" style="fill:#0072b2;stroke:#ffffff;stroke-linejoin:miter;"/>
   </g>
   <g id="patch_47">
    <path clip-path="url(#paa21c7f378)" d="M 259.072409 302.948 
L 262.664148 302.948 
L 262.664148 274.136371 
L 259.072409 274.136371 
z
" style="fill:#0072b2;stroke:#ffffff;stroke-linejoin:miter;"/>
   </g>
   <g id="patch_48">
    <path clip-path="url(#paa21c7f378)" d="M 262.664148 302.948 
L 266.255886 302.948 
L 266.255886 274.136371 
L 262.664148 274.136371 
z
" style="fill:#0072b2;stroke:#ffffff;stroke-linejoin:miter;"/>
   </g>
   <g id="patch_49">
    <path clip-path="url(#paa21c7f378)" d="M 266.255886 302.948 
L 269.847625 302.948 
L 269.847625 302.948 
L 266.255886 302.948 
z
" style="fill:#0072b2;stroke:#ffffff;stroke-linejoin:miter;"/>
   </g>
   <g id="patch_50">
    <path clip-path="url(#paa21c7f378)" d="M 269.847625 302.948 
L 273.439364 302.948 
L 273.439364 274.136371 
L 269.847625 274.136371 
z
" style="fill:#0072b2;stroke:#ffffff;stroke-linejoin:miter;"/>
   </g>
   <g id="patch_51">
    <path clip-path="url(#paa21c7f378)" d="M 273.439364 302.948 
L 277.031102 302.948 
L 277.031102 302.948 
L 273.439364 302.948 
z
" style="fill:#0072b2;stroke:#ffffff;stroke-linejoin:miter;"/>
   </g>
   <g id="patch_52">
    <path clip-path="url(#paa21c7f378)" d="M 277.031102 302.948 
L 280.622841 302.948 
L 280.622841 274.136371 
L 277.031102 274.136371 
z
" style="fill:#0072b2;stroke:#ffffff;stroke-linejoin:miter;"/>
   </g>
   <g id="patch_53">
    <path clip-path="url(#paa21c7f378)" d="M 280.622841 302.948 
L 284.21458 302.948 
L 284.21458 274.136371 
L 280.622841 274.136371 
z
" style="fill:#0072b2;stroke:#ffffff;stroke-linejoin:miter;"/>
   </g>
   <g id="patch_54">
    <path clip-path="url(#paa21c7f378)" d="M 284.21458 302.948 
L 287.806318 302.948 
L 287.806318 302.948 
L 284.21458 302.948 
z
" style="fill:#0072b2;stroke:#ffffff;stroke-linejoin:miter;"/>
   </g>
   <g id="patch_55">
    <path clip-path="url(#paa21c7f378)" d="M 287.806318 302.948 
L 291.398057 302.948 
L 291.398057 259.730556 
L 287.806318 259.730556 
z
" style="fill:#0072b2;stroke:#ffffff;stroke-linejoin:miter;"/>
   </g>
   <g id="patch_56">
    <path clip-path="url(#paa21c7f378)" d="M 291.398057 302.948 
L 294.989795 302.948 
L 294.989795 230.918927 
L 291.398057 230.918927 
z
" style="fill:#0072b2;stroke:#ffffff;stroke-linejoin:miter;"/>
   </g>
   <g id="patch_57">
    <path clip-path="url(#paa21c7f378)" d="M 294.989795 302.948 
L 298.581534 302.948 
L 298.581534 288.542185 
L 294.989795 288.542185 
z
" style="fill:#0072b2;stroke:#ffffff;stroke-linejoin:miter;"/>
   </g>
   <g id="patch_58">
    <path clip-path="url(#paa21c7f378)" d="M 298.581534 302.948 
L 302.173273 302.948 
L 302.173273 302.948 
L 298.581534 302.948 
z
" style="fill:#0072b2;stroke:#ffffff;stroke-linejoin:miter;"/>
   </g>
   <g id="patch_59">
    <path clip-path="url(#paa21c7f378)" d="M 302.173273 302.948 
L 305.765011 302.948 
L 305.765011 259.730556 
L 302.173273 259.730556 
z
" style="fill:#0072b2;stroke:#ffffff;stroke-linejoin:miter;"/>
   </g>
   <g id="patch_60">
    <path clip-path="url(#paa21c7f378)" d="M 305.765011 302.948 
L 309.35675 302.948 
L 309.35675 245.324742 
L 305.765011 245.324742 
z
" style="fill:#0072b2;stroke:#ffffff;stroke-linejoin:miter;"/>
   </g>
   <g id="patch_61">
    <path clip-path="url(#paa21c7f378)" d="M 309.35675 302.948 
L 312.948489 302.948 
L 312.948489 259.730556 
L 309.35675 259.730556 
z
" style="fill:#0072b2;stroke:#ffffff;stroke-linejoin:miter;"/>
   </g>
   <g id="patch_62">
    <path clip-path="url(#paa21c7f378)" d="M 312.948489 302.948 
L 316.540227 302.948 
L 316.540227 202.107298 
L 312.948489 202.107298 
z
" style="fill:#0072b2;stroke:#ffffff;stroke-linejoin:miter;"/>
   </g>
   <g id="patch_63">
    <path clip-path="url(#paa21c7f378)" d="M 316.540227 302.948 
L 320.131966 302.948 
L 320.131966 230.918927 
L 316.540227 230.918927 
z
" style="fill:#0072b2;stroke:#ffffff;stroke-linejoin:miter;"/>
   </g>
   <g id="patch_64">
    <path clip-path="url(#paa21c7f378)" d="M 320.131966 302.948 
L 323.723705 302.948 
L 323.723705 288.542185 
L 320.131966 288.542185 
z
" style="fill:#0072b2;stroke:#ffffff;stroke-linejoin:miter;"/>
   </g>
   <g id="patch_65">
    <path clip-path="url(#paa21c7f378)" d="M 323.723705 302.948 
L 327.315443 302.948 
L 327.315443 173.295669 
L 323.723705 173.295669 
z
" style="fill:#0072b2;stroke:#ffffff;stroke-linejoin:miter;"/>
   </g>
   <g id="patch_66">
    <path clip-path="url(#paa21c7f378)" d="M 327.315443 302.948 
L 330.907182 302.948 
L 330.907182 259.730556 
L 327.315443 259.730556 
z
" style="fill:#0072b2;stroke:#ffffff;stroke-linejoin:miter;"/>
   </g>
   <g id="patch_67">
    <path clip-path="url(#paa21c7f378)" d="M 330.907182 302.948 
L 334.49892 302.948 
L 334.49892 230.918927 
L 330.907182 230.918927 
z
" style="fill:#0072b2;stroke:#ffffff;stroke-linejoin:miter;"/>
   </g>
   <g id="patch_68">
    <path clip-path="url(#paa21c7f378)" d="M 334.49892 302.948 
L 338.090659 302.948 
L 338.090659 230.918927 
L 334.49892 230.918927 
z
" style="fill:#0072b2;stroke:#ffffff;stroke-linejoin:miter;"/>
   </g>
   <g id="patch_69">
    <path clip-path="url(#paa21c7f378)" d="M 338.090659 302.948 
L 341.682398 302.948 
L 341.682398 288.542185 
L 338.090659 288.542185 
z
" style="fill:#0072b2;stroke:#ffffff;stroke-linejoin:miter;"/>
   </g>
   <g id="patch_70">
    <path clip-path="url(#paa21c7f378)" d="M 341.682398 302.948 
L 345.274136 302.948 
L 345.274136 288.542185 
L 341.682398 288.542185 
z
" style="fill:#0072b2;stroke:#ffffff;stroke-linejoin:miter;"/>
   </g>
   <g id="patch_71">
    <path clip-path="url(#paa21c7f378)" d="M 345.274136 302.948 
L 348.865875 302.948 
L 348.865875 245.324742 
L 345.274136 245.324742 
z
" style="fill:#0072b2;stroke:#ffffff;stroke-linejoin:miter;"/>
   </g>
   <g id="patch_72">
    <path clip-path="url(#paa21c7f378)" d="M 348.865875 302.948 
L 352.457614 302.948 
L 352.457614 245.324742 
L 348.865875 245.324742 
z
" style="fill:#0072b2;stroke:#ffffff;stroke-linejoin:miter;"/>
   </g>
   <g id="patch_73">
    <path clip-path="url(#paa21c7f378)" d="M 352.457614 302.948 
L 356.049352 302.948 
L 356.049352 259.730556 
L 352.457614 259.730556 
z
" style="fill:#0072b2;stroke:#ffffff;stroke-linejoin:miter;"/>
   </g>
   <g id="patch_74">
    <path clip-path="url(#paa21c7f378)" d="M 356.049352 302.948 
L 359.641091 302.948 
L 359.641091 187.701484 
L 356.049352 187.701484 
z
" style="fill:#0072b2;stroke:#ffffff;stroke-linejoin:miter;"/>
   </g>
   <g id="patch_75">
    <path clip-path="url(#paa21c7f378)" d="M 359.641091 302.948 
L 363.23283 302.948 
L 363.23283 302.948 
L 359.641091 302.948 
z
" style="fill:#0072b2;stroke:#ffffff;stroke-linejoin:miter;"/>
   </g>
   <g id="patch_76">
    <path clip-path="url(#paa21c7f378)" d="M 363.23283 302.948 
L 366.824568 302.948 
L 366.824568 259.730556 
L 363.23283 259.730556 
z
" style="fill:#0072b2;stroke:#ffffff;stroke-linejoin:miter;"/>
   </g>
   <g id="patch_77">
    <path clip-path="url(#paa21c7f378)" d="M 366.824568 302.948 
L 370.416307 302.948 
L 370.416307 158.889855 
L 366.824568 158.889855 
z
" style="fill:#0072b2;stroke:#ffffff;stroke-linejoin:miter;"/>
   </g>
   <g id="patch_78">
    <path clip-path="url(#paa21c7f378)" d="M 370.416307 302.948 
L 374.008045 302.948 
L 374.008045 216.513113 
L 370.416307 216.513113 
z
" style="fill:#0072b2;stroke:#ffffff;stroke-linejoin:miter;"/>
   </g>
   <g id="patch_79">
    <path clip-path="url(#paa21c7f378)" d="M 374.008045 302.948 
L 377.599784 302.948 
L 377.599784 101.266596 
L 374.008045 101.266596 
z
" style="fill:#0072b2;stroke:#ffffff;stroke-linejoin:miter;"/>
   </g>
   <g id="patch_80">
    <path clip-path="url(#paa21c7f378)" d="M 377.599784 302.948 
L 381.191523 302.948 
L 381.191523 115.672411 
L 377.599784 115.672411 
z
" style="fill:#0072b2;stroke:#ffffff;stroke-linejoin:miter;"/>
   </g>
   <g id="patch_81">
    <path clip-path="url(#paa21c7f378)" d="M 381.191523 302.948 
L 384.783261 302.948 
L 384.783261 274.136371 
L 381.191523 274.136371 
z
" style="fill:#0072b2;stroke:#ffffff;stroke-linejoin:miter;"/>
   </g>
   <g id="patch_82">
    <path clip-path="url(#paa21c7f378)" d="M 384.783261 302.948 
L 388.375 302.948 
L 388.375 302.948 
L 384.783261 302.948 
z
" style="fill:#0072b2;stroke:#ffffff;stroke-linejoin:miter;"/>
   </g>
   <g id="patch_83">
    <path clip-path="url(#paa21c7f378)" d="M 388.375 302.948 
L 391.966739 302.948 
L 391.966739 302.948 
L 388.375 302.948 
z
" style="fill:#0072b2;stroke:#ffffff;stroke-linejoin:miter;"/>
   </g>
   <g id="patch_84">
    <path clip-path="url(#paa21c7f378)" d="M 391.966739 302.948 
L 395.558477 302.948 
L 395.558477 302.948 
L 391.966739 302.948 
z
" style="fill:#0072b2;stroke:#ffffff;stroke-linejoin:miter;"/>
   </g>
   <g id="patch_85">
    <path clip-path="url(#paa21c7f378)" d="M 395.558477 302.948 
L 399.150216 302.948 
L 399.150216 288.542185 
L 395.558477 288.542185 
z
" style="fill:#0072b2;stroke:#ffffff;stroke-linejoin:miter;"/>
   </g>
   <g id="patch_86">
    <path clip-path="url(#paa21c7f378)" d="M 399.150216 302.948 
L 402.741955 302.948 
L 402.741955 288.542185 
L 399.150216 288.542185 
z
" style="fill:#0072b2;stroke:#ffffff;stroke-linejoin:miter;"/>
   </g>
   <g id="patch_87">
    <path clip-path="url(#paa21c7f378)" d="M 402.741955 302.948 
L 406.333693 302.948 
L 406.333693 29.237524 
L 402.741955 29.237524 
z
" style="fill:#0072b2;stroke:#ffffff;stroke-linejoin:miter;"/>
   </g>
   <g id="patch_88">
    <path clip-path="url(#paa21c7f378)" d="M 406.333693 302.948 
L 409.925432 302.948 
L 409.925432 86.860782 
L 406.333693 86.860782 
z
" style="fill:#0072b2;stroke:#ffffff;stroke-linejoin:miter;"/>
   </g>
   <g id="patch_89">
    <path clip-path="url(#paa21c7f378)" d="M 409.925432 302.948 
L 413.51717 302.948 
L 413.51717 187.701484 
L 409.925432 187.701484 
z
" style="fill:#0072b2;stroke:#ffffff;stroke-linejoin:miter;"/>
   </g>
   <g id="patch_90">
    <path clip-path="url(#paa21c7f378)" d="M 413.51717 302.948 
L 417.108909 302.948 
L 417.108909 274.136371 
L 413.51717 274.136371 
z
" style="fill:#0072b2;stroke:#ffffff;stroke-linejoin:miter;"/>
   </g>
   <g id="patch_91">
    <path clip-path="url(#paa21c7f378)" d="M 417.108909 302.948 
L 420.700648 302.948 
L 420.700648 202.107298 
L 417.108909 202.107298 
z
" style="fill:#0072b2;stroke:#ffffff;stroke-linejoin:miter;"/>
   </g>
   <g id="patch_92">
    <path clip-path="url(#paa21c7f378)" d="M 420.700648 302.948 
L 424.292386 302.948 
L 424.292386 259.730556 
L 420.700648 259.730556 
z
" style="fill:#0072b2;stroke:#ffffff;stroke-linejoin:miter;"/>
   </g>
   <g id="patch_93">
    <path clip-path="url(#paa21c7f378)" d="M 424.292386 302.948 
L 427.884125 302.948 
L 427.884125 288.542185 
L 424.292386 288.542185 
z
" style="fill:#0072b2;stroke:#ffffff;stroke-linejoin:miter;"/>
   </g>
   <g id="patch_94">
    <path clip-path="url(#paa21c7f378)" d="M 427.884125 302.948 
L 431.475864 302.948 
L 431.475864 216.513113 
L 427.884125 216.513113 
z
" style="fill:#0072b2;stroke:#ffffff;stroke-linejoin:miter;"/>
   </g>
   <g id="patch_95">
    <path clip-path="url(#paa21c7f378)" d="M 431.475864 302.948 
L 435.067602 302.948 
L 435.067602 58.049153 
L 431.475864 58.049153 
z
" style="fill:#0072b2;stroke:#ffffff;stroke-linejoin:miter;"/>
   </g>
   <g id="patch_96">
    <path clip-path="url(#paa21c7f378)" d="M 435.067602 302.948 
L 438.659341 302.948 
L 438.659341 302.948 
L 435.067602 302.948 
z
" style="fill:#0072b2;stroke:#ffffff;stroke-linejoin:miter;"/>
   </g>
   <g id="patch_97">
    <path clip-path="url(#paa21c7f378)" d="M 438.659341 302.948 
L 442.25108 302.948 
L 442.25108 202.107298 
L 438.659341 202.107298 
z
" style="fill:#0072b2;stroke:#ffffff;stroke-linejoin:miter;"/>
   </g>
   <g id="patch_98">
    <path clip-path="url(#paa21c7f378)" d="M 442.25108 302.948 
L 445.842818 302.948 
L 445.842818 230.918927 
L 442.25108 230.918927 
z
" style="fill:#0072b2;stroke:#ffffff;stroke-linejoin:miter;"/>
   </g>
   <g id="patch_99">
    <path clip-path="url(#paa21c7f378)" d="M 445.842818 302.948 
L 449.434557 302.948 
L 449.434557 245.324742 
L 445.842818 245.324742 
z
" style="fill:#0072b2;stroke:#ffffff;stroke-linejoin:miter;"/>
   </g>
   <g id="patch_100">
    <path clip-path="url(#paa21c7f378)" d="M 449.434557 302.948 
L 453.026295 302.948 
L 453.026295 173.295669 
L 449.434557 173.295669 
z
" style="fill:#0072b2;stroke:#ffffff;stroke-linejoin:miter;"/>
   </g>
   <g id="patch_101">
    <path clip-path="url(#paa21c7f378)" d="M 453.026295 302.948 
L 456.618034 302.948 
L 456.618034 173.295669 
L 453.026295 173.295669 
z
" style="fill:#0072b2;stroke:#ffffff;stroke-linejoin:miter;"/>
   </g>
   <g id="patch_102">
    <path clip-path="url(#paa21c7f378)" d="M 456.618034 302.948 
L 460.209773 302.948 
L 460.209773 274.136371 
L 456.618034 274.136371 
z
" style="fill:#0072b2;stroke:#ffffff;stroke-linejoin:miter;"/>
   </g>
   <g id="patch_103">
    <path clip-path="url(#paa21c7f378)" d="M 460.209773 302.948 
L 463.801511 302.948 
L 463.801511 302.948 
L 460.209773 302.948 
z
" style="fill:#0072b2;stroke:#ffffff;stroke-linejoin:miter;"/>
   </g>
   <g id="patch_104">
    <path clip-path="url(#paa21c7f378)" d="M 463.801511 302.948 
L 467.39325 302.948 
L 467.39325 259.730556 
L 463.801511 259.730556 
z
" style="fill:#0072b2;stroke:#ffffff;stroke-linejoin:miter;"/>
   </g>
   <g id="patch_105">
    <path clip-path="url(#paa21c7f378)" d="M 467.39325 302.948 
L 470.984989 302.948 
L 470.984989 274.136371 
L 467.39325 274.136371 
z
" style="fill:#0072b2;stroke:#ffffff;stroke-linejoin:miter;"/>
   </g>
   <g id="patch_106">
    <path clip-path="url(#paa21c7f378)" d="M 470.984989 302.948 
L 474.576727 302.948 
L 474.576727 259.730556 
L 470.984989 259.730556 
z
" style="fill:#0072b2;stroke:#ffffff;stroke-linejoin:miter;"/>
   </g>
   <g id="patch_107">
    <path clip-path="url(#paa21c7f378)" d="M 474.576727 302.948 
L 478.168466 302.948 
L 478.168466 202.107298 
L 474.576727 202.107298 
z
" style="fill:#0072b2;stroke:#ffffff;stroke-linejoin:miter;"/>
   </g>
   <g id="patch_108">
    <path clip-path="url(#paa21c7f378)" d="M 478.168466 302.948 
L 481.760205 302.948 
L 481.760205 259.730556 
L 478.168466 259.730556 
z
" style="fill:#0072b2;stroke:#ffffff;stroke-linejoin:miter;"/>
   </g>
   <g id="patch_109">
    <path clip-path="url(#paa21c7f378)" d="M 481.760205 302.948 
L 485.351943 302.948 
L 485.351943 288.542185 
L 481.760205 288.542185 
z
" style="fill:#0072b2;stroke:#ffffff;stroke-linejoin:miter;"/>
   </g>
   <g id="patch_110">
    <path clip-path="url(#paa21c7f378)" d="M 485.351943 302.948 
L 488.943682 302.948 
L 488.943682 216.513113 
L 485.351943 216.513113 
z
" style="fill:#0072b2;stroke:#ffffff;stroke-linejoin:miter;"/>
   </g>
   <g id="patch_111">
    <path clip-path="url(#paa21c7f378)" d="M 488.943682 302.948 
L 492.53542 302.948 
L 492.53542 274.136371 
L 488.943682 274.136371 
z
" style="fill:#0072b2;stroke:#ffffff;stroke-linejoin:miter;"/>
   </g>
   <g id="patch_112">
    <path clip-path="url(#paa21c7f378)" d="M 492.53542 302.948 
L 496.127159 302.948 
L 496.127159 288.542185 
L 492.53542 288.542185 
z
" style="fill:#0072b2;stroke:#ffffff;stroke-linejoin:miter;"/>
   </g>
   <g id="patch_113">
    <path clip-path="url(#paa21c7f378)" d="M 496.127159 302.948 
L 499.718898 302.948 
L 499.718898 274.136371 
L 496.127159 274.136371 
z
" style="fill:#0072b2;stroke:#ffffff;stroke-linejoin:miter;"/>
   </g>
   <g id="patch_114">
    <path clip-path="url(#paa21c7f378)" d="M 499.718898 302.948 
L 503.310636 302.948 
L 503.310636 245.324742 
L 499.718898 245.324742 
z
" style="fill:#0072b2;stroke:#ffffff;stroke-linejoin:miter;"/>
   </g>
   <g id="patch_115">
    <path clip-path="url(#paa21c7f378)" d="M 503.310636 302.948 
L 506.902375 302.948 
L 506.902375 259.730556 
L 503.310636 259.730556 
z
" style="fill:#0072b2;stroke:#ffffff;stroke-linejoin:miter;"/>
   </g>
   <g id="patch_116">
    <path clip-path="url(#paa21c7f378)" d="M 506.902375 302.948 
L 510.494114 302.948 
L 510.494114 259.730556 
L 506.902375 259.730556 
z
" style="fill:#0072b2;stroke:#ffffff;stroke-linejoin:miter;"/>
   </g>
   <g id="patch_117">
    <path clip-path="url(#paa21c7f378)" d="M 510.494114 302.948 
L 514.085852 302.948 
L 514.085852 274.136371 
L 510.494114 274.136371 
z
" style="fill:#0072b2;stroke:#ffffff;stroke-linejoin:miter;"/>
   </g>
   <g id="patch_118">
    <path clip-path="url(#paa21c7f378)" d="M 514.085852 302.948 
L 517.677591 302.948 
L 517.677591 274.136371 
L 514.085852 274.136371 
z
" style="fill:#0072b2;stroke:#ffffff;stroke-linejoin:miter;"/>
   </g>
   <g id="patch_119">
    <path clip-path="url(#paa21c7f378)" d="M 517.677591 302.948 
L 521.26933 302.948 
L 521.26933 259.730556 
L 517.677591 259.730556 
z
" style="fill:#0072b2;stroke:#ffffff;stroke-linejoin:miter;"/>
   </g>
   <g id="patch_120">
    <path clip-path="url(#paa21c7f378)" d="M 521.26933 302.948 
L 524.861068 302.948 
L 524.861068 288.542185 
L 521.26933 288.542185 
z
" style="fill:#0072b2;stroke:#ffffff;stroke-linejoin:miter;"/>
   </g>
   <g id="patch_121">
    <path clip-path="url(#paa21c7f378)" d="M 524.861068 302.948 
L 528.452807 302.948 
L 528.452807 274.136371 
L 524.861068 274.136371 
z
" style="fill:#0072b2;stroke:#ffffff;stroke-linejoin:miter;"/>
   </g>
   <g id="patch_122">
    <path clip-path="url(#paa21c7f378)" d="M 528.452807 302.948 
L 532.044545 302.948 
L 532.044545 216.513113 
L 528.452807 216.513113 
z
" style="fill:#0072b2;stroke:#ffffff;stroke-linejoin:miter;"/>
   </g>
   <g id="patch_123">
    <path clip-path="url(#paa21c7f378)" d="M 532.044545 302.948 
L 535.636284 302.948 
L 535.636284 288.542185 
L 532.044545 288.542185 
z
" style="fill:#0072b2;stroke:#ffffff;stroke-linejoin:miter;"/>
   </g>
   <g id="patch_124">
    <path clip-path="url(#paa21c7f378)" d="M 535.636284 302.948 
L 539.228023 302.948 
L 539.228023 288.542185 
L 535.636284 288.542185 
z
" style="fill:#0072b2;stroke:#ffffff;stroke-linejoin:miter;"/>
   </g>
   <g id="patch_125">
    <path clip-path="url(#paa21c7f378)" d="M 539.228023 302.948 
L 542.819761 302.948 
L 542.819761 259.730556 
L 539.228023 259.730556 
z
" style="fill:#0072b2;stroke:#ffffff;stroke-linejoin:miter;"/>
   </g>
   <g id="patch_126">
    <path clip-path="url(#paa21c7f378)" d="M 542.819761 302.948 
L 546.4115 302.948 
L 546.4115 274.136371 
L 542.819761 274.136371 
z
" style="fill:#0072b2;stroke:#ffffff;stroke-linejoin:miter;"/>
   </g>
   <g id="patch_127">
    <path clip-path="url(#paa21c7f378)" d="M 546.4115 302.948 
L 550.003239 302.948 
L 550.003239 274.136371 
L 546.4115 274.136371 
z
" style="fill:#0072b2;stroke:#ffffff;stroke-linejoin:miter;"/>
   </g>
   <g id="patch_128">
    <path clip-path="url(#paa21c7f378)" d="M 550.003239 302.948 
L 553.594977 302.948 
L 553.594977 274.136371 
L 550.003239 274.136371 
z
" style="fill:#0072b2;stroke:#ffffff;stroke-linejoin:miter;"/>
   </g>
   <g id="patch_129">
    <path clip-path="url(#paa21c7f378)" d="M 553.594977 302.948 
L 557.186716 302.948 
L 557.186716 288.542185 
L 553.594977 288.542185 
z
" style="fill:#0072b2;stroke:#ffffff;stroke-linejoin:miter;"/>
   </g>
   <g id="patch_130">
    <path clip-path="url(#paa21c7f378)" d="M 557.186716 302.948 
L 560.778455 302.948 
L 560.778455 274.136371 
L 557.186716 274.136371 
z
" style="fill:#0072b2;stroke:#ffffff;stroke-linejoin:miter;"/>
   </g>
   <g id="patch_131">
    <path clip-path="url(#paa21c7f378)" d="M 560.778455 302.948 
L 564.370193 302.948 
L 564.370193 302.948 
L 560.778455 302.948 
z
" style="fill:#0072b2;stroke:#ffffff;stroke-linejoin:miter;"/>
   </g>
   <g id="patch_132">
    <path clip-path="url(#paa21c7f378)" d="M 564.370193 302.948 
L 567.961932 302.948 
L 567.961932 288.542185 
L 564.370193 288.542185 
z
" style="fill:#0072b2;stroke:#ffffff;stroke-linejoin:miter;"/>
   </g>
   <g id="patch_133">
    <path clip-path="url(#paa21c7f378)" d="M 567.961932 302.948 
L 571.55367 302.948 
L 571.55367 302.948 
L 567.961932 302.948 
z
" style="fill:#0072b2;stroke:#ffffff;stroke-linejoin:miter;"/>
   </g>
   <g id="patch_134">
    <path clip-path="url(#paa21c7f378)" d="M 571.55367 302.948 
L 575.145409 302.948 
L 575.145409 302.948 
L 571.55367 302.948 
z
" style="fill:#0072b2;stroke:#ffffff;stroke-linejoin:miter;"/>
   </g>
   <g id="patch_135">
    <path clip-path="url(#paa21c7f378)" d="M 575.145409 302.948 
L 578.737148 302.948 
L 578.737148 302.948 
L 575.145409 302.948 
z
" style="fill:#0072b2;stroke:#ffffff;stroke-linejoin:miter;"/>
   </g>
   <g id="patch_136">
    <path clip-path="url(#paa21c7f378)" d="M 578.737148 302.948 
L 582.328886 302.948 
L 582.328886 302.948 
L 578.737148 302.948 
z
" style="fill:#0072b2;stroke:#ffffff;stroke-linejoin:miter;"/>
   </g>
   <g id="patch_137">
    <path clip-path="url(#paa21c7f378)" d="M 582.328886 302.948 
L 585.920625 302.948 
L 585.920625 288.542185 
L 582.328886 288.542185 
z
" style="fill:#0072b2;stroke:#ffffff;stroke-linejoin:miter;"/>
   </g>
   <g id="patch_138">
    <path clip-path="url(#paa21c7f378)" d="M 585.920625 302.948 
L 589.512364 302.948 
L 589.512364 302.948 
L 585.920625 302.948 
z
" style="fill:#0072b2;stroke:#ffffff;stroke-linejoin:miter;"/>
   </g>
   <g id="patch_139">
    <path clip-path="url(#paa21c7f378)" d="M 589.512364 302.948 
L 593.104102 302.948 
L 593.104102 302.948 
L 589.512364 302.948 
z
" style="fill:#0072b2;stroke:#ffffff;stroke-linejoin:miter;"/>
   </g>
   <g id="patch_140">
    <path clip-path="url(#paa21c7f378)" d="M 593.104102 302.948 
L 596.695841 302.948 
L 596.695841 288.542185 
L 593.104102 288.542185 
z
" style="fill:#0072b2;stroke:#ffffff;stroke-linejoin:miter;"/>
   </g>
   <g id="patch_141">
    <path clip-path="url(#paa21c7f378)" d="M 596.695841 302.948 
L 600.28758 302.948 
L 600.28758 302.948 
L 596.695841 302.948 
z
" style="fill:#0072b2;stroke:#ffffff;stroke-linejoin:miter;"/>
   </g>
   <g id="patch_142">
    <path clip-path="url(#paa21c7f378)" d="M 600.28758 302.948 
L 603.879318 302.948 
L 603.879318 302.948 
L 600.28758 302.948 
z
" style="fill:#0072b2;stroke:#ffffff;stroke-linejoin:miter;"/>
   </g>
   <g id="patch_143">
    <path clip-path="url(#paa21c7f378)" d="M 603.879318 302.948 
L 607.471057 302.948 
L 607.471057 274.136371 
L 603.879318 274.136371 
z
" style="fill:#0072b2;stroke:#ffffff;stroke-linejoin:miter;"/>
   </g>
   <g id="patch_144">
    <path clip-path="url(#paa21c7f378)" d="M 607.471057 302.948 
L 611.062795 302.948 
L 611.062795 302.948 
L 607.471057 302.948 
z
" style="fill:#0072b2;stroke:#ffffff;stroke-linejoin:miter;"/>
   </g>
   <g id="patch_145">
    <path clip-path="url(#paa21c7f378)" d="M 611.062795 302.948 
L 614.654534 302.948 
L 614.654534 302.948 
L 611.062795 302.948 
z
" style="fill:#0072b2;stroke:#ffffff;stroke-linejoin:miter;"/>
   </g>
   <g id="patch_146">
    <path clip-path="url(#paa21c7f378)" d="M 614.654534 302.948 
L 618.246273 302.948 
L 618.246273 302.948 
L 614.654534 302.948 
z
" style="fill:#0072b2;stroke:#ffffff;stroke-linejoin:miter;"/>
   </g>
   <g id="patch_147">
    <path clip-path="url(#paa21c7f378)" d="M 618.246273 302.948 
L 621.838011 302.948 
L 621.838011 302.948 
L 618.246273 302.948 
z
" style="fill:#0072b2;stroke:#ffffff;stroke-linejoin:miter;"/>
   </g>
   <g id="patch_148">
    <path clip-path="url(#paa21c7f378)" d="M 621.838011 302.948 
L 625.42975 302.948 
L 625.42975 302.948 
L 621.838011 302.948 
z
" style="fill:#0072b2;stroke:#ffffff;stroke-linejoin:miter;"/>
   </g>
   <g id="patch_149">
    <path clip-path="url(#paa21c7f378)" d="M 625.42975 302.948 
L 629.021489 302.948 
L 629.021489 302.948 
L 625.42975 302.948 
z
" style="fill:#0072b2;stroke:#ffffff;stroke-linejoin:miter;"/>
   </g>
   <g id="patch_150">
    <path clip-path="url(#paa21c7f378)" d="M 629.021489 302.948 
L 632.613227 302.948 
L 632.613227 302.948 
L 629.021489 302.948 
z
" style="fill:#0072b2;stroke:#ffffff;stroke-linejoin:miter;"/>
   </g>
   <g id="patch_151">
    <path clip-path="url(#paa21c7f378)" d="M 632.613227 302.948 
L 636.204966 302.948 
L 636.204966 302.948 
L 632.613227 302.948 
z
" style="fill:#0072b2;stroke:#ffffff;stroke-linejoin:miter;"/>
   </g>
   <g id="patch_152">
    <path clip-path="url(#paa21c7f378)" d="M 636.204966 302.948 
L 639.796705 302.948 
L 639.796705 288.542185 
L 636.204966 288.542185 
z
" style="fill:#0072b2;stroke:#ffffff;stroke-linejoin:miter;"/>
   </g>
   <g id="patch_153">
    <path clip-path="url(#paa21c7f378)" d="M 639.796705 302.948 
L 643.388443 302.948 
L 643.388443 302.948 
L 639.796705 302.948 
z
" style="fill:#0072b2;stroke:#ffffff;stroke-linejoin:miter;"/>
   </g>
   <g id="patch_154">
    <path clip-path="url(#paa21c7f378)" d="M 643.388443 302.948 
L 646.980182 302.948 
L 646.980182 288.542185 
L 643.388443 288.542185 
z
" style="fill:#0072b2;stroke:#ffffff;stroke-linejoin:miter;"/>
   </g>
   <g id="patch_155">
    <path clip-path="url(#paa21c7f378)" d="M 646.980182 302.948 
L 650.57192 302.948 
L 650.57192 302.948 
L 646.980182 302.948 
z
" style="fill:#0072b2;stroke:#ffffff;stroke-linejoin:miter;"/>
   </g>
   <g id="patch_156">
    <path clip-path="url(#paa21c7f378)" d="M 650.57192 302.948 
L 654.163659 302.948 
L 654.163659 302.948 
L 650.57192 302.948 
z
" style="fill:#0072b2;stroke:#ffffff;stroke-linejoin:miter;"/>
   </g>
   <g id="patch_157">
    <path clip-path="url(#paa21c7f378)" d="M 654.163659 302.948 
L 657.755398 302.948 
L 657.755398 302.948 
L 654.163659 302.948 
z
" style="fill:#0072b2;stroke:#ffffff;stroke-linejoin:miter;"/>
   </g>
   <g id="patch_158">
    <path clip-path="url(#paa21c7f378)" d="M 657.755398 302.948 
L 661.347136 302.948 
L 661.347136 302.948 
L 657.755398 302.948 
z
" style="fill:#0072b2;stroke:#ffffff;stroke-linejoin:miter;"/>
   </g>
   <g id="patch_159">
    <path clip-path="url(#paa21c7f378)" d="M 661.347136 302.948 
L 664.938875 302.948 
L 664.938875 259.730556 
L 661.347136 259.730556 
z
" style="fill:#0072b2;stroke:#ffffff;stroke-linejoin:miter;"/>
   </g>
   <g id="patch_160">
    <path clip-path="url(#paa21c7f378)" d="M 664.938875 302.948 
L 668.530614 302.948 
L 668.530614 288.542185 
L 664.938875 288.542185 
z
" style="fill:#0072b2;stroke:#ffffff;stroke-linejoin:miter;"/>
   </g>
   <g id="patch_161">
    <path clip-path="url(#paa21c7f378)" d="M 668.530614 302.948 
L 672.122352 302.948 
L 672.122352 274.136371 
L 668.530614 274.136371 
z
" style="fill:#0072b2;stroke:#ffffff;stroke-linejoin:miter;"/>
   </g>
   <g id="patch_162">
    <path clip-path="url(#paa21c7f378)" d="M 672.122352 302.948 
L 675.714091 302.948 
L 675.714091 274.136371 
L 672.122352 274.136371 
z
" style="fill:#0072b2;stroke:#ffffff;stroke-linejoin:miter;"/>
   </g>
   <g id="patch_163">
    <path d="M 72.302 302.948 
L 72.302 15.552 
" style="fill:none;stroke:#262626;stroke-linecap:square;stroke-linejoin:miter;stroke-width:1.25;"/>
   </g>
   <g id="patch_164">
    <path d="M 704.448 302.948 
L 704.448 15.552 
" style="fill:none;stroke:#262626;stroke-linecap:square;stroke-linejoin:miter;stroke-width:1.25;"/>
   </g>
   <g id="patch_165">
    <path d="M 72.302 302.948 
L 704.448 302.948 
" style="fill:none;stroke:#262626;stroke-linecap:square;stroke-linejoin:miter;stroke-width:1.25;"/>
   </g>
   <g id="patch_166">
    <path d="M 72.302 15.552 
L 704.448 15.552 
" style="fill:none;stroke:#262626;stroke-linecap:square;stroke-linejoin:miter;stroke-width:1.25;"/>
   </g>
  </g>
 </g>
 <defs>
  <clipPath id="paa21c7f378">
   <rect height="287.396" width="632.146" x="72.302" y="15.552"/>
  </clipPath>
 </defs>
</svg>
