<?xml version="1.0" encoding="utf-8" standalone="no"?>
<!DOCTYPE svg PUBLIC "-//W3C//DTD SVG 1.1//EN"
  "http://www.w3.org/Graphics/SVG/1.1/DTD/svg11.dtd">
<!-- Created with matplotlib (https://matplotlib.org/) -->
<svg height="360pt" version="1.1" viewBox="0 0 720 360" width="720pt" xmlns="http://www.w3.org/2000/svg" xmlns:xlink="http://www.w3.org/1999/xlink">
 <metadata>
  <rdf:RDF xmlns:cc="http://creativecommons.org/ns#" xmlns:dc="http://purl.org/dc/elements/1.1/" xmlns:rdf="http://www.w3.org/1999/02/22-rdf-syntax-ns#">
   <cc:Work>
    <dc:type rdf:resource="http://purl.org/dc/dcmitype/StillImage"/>
    <dc:date>2022-02-11T16:38:05.381728</dc:date>
    <dc:format>image/svg+xml</dc:format>
    <dc:creator>
     <cc:Agent>
      <dc:title>Matplotlib v3.3.4, https://matplotlib.org/</dc:title>
     </cc:Agent>
    </dc:creator>
   </cc:Work>
  </rdf:RDF>
 </metadata>
 <defs>
  <style type="text/css">*{stroke-linecap:butt;stroke-linejoin:round;}</style>
 </defs>
 <g id="figure_1">
  <g id="patch_1">
   <path d="M 0 360 
L 720 360 
L 720 0 
L 0 0 
z
" style="fill:#ffffff;"/>
  </g>
  <g id="axes_1">
   <g id="patch_2">
    <path d="M 57.052 311.376909 
L 352.224 311.376909 
L 352.224 16.204909 
L 57.052 16.204909 
z
" style="fill:#ffffff;"/>
   </g>
   <g id="matplotlib.axis_1">
    <g id="xtick_1">
     <g id="line2d_1">
      <defs>
       <path d="M 0 0 
L 0 6 
" id="m3c29953231" style="stroke:#262626;stroke-width:1.25;"/>
      </defs>
      <g>
       <use style="fill:#262626;stroke:#262626;stroke-width:1.25;" x="93.9485" xlink:href="#m3c29953231" y="311.376909"/>
      </g>
     </g>
     <g id="text_1">
      <text style="fill:#262626;font-family:DejaVu Sans;font-size:13.2px;font-stretch:normal;font-style:normal;font-weight:normal;text-anchor:middle;" transform="rotate(-0, 93.9485, 330.906847)" x="93.9485" y="330.906847">A</text>
     </g>
    </g>
    <g id="xtick_2">
     <g id="line2d_2">
      <g>
       <use style="fill:#262626;stroke:#262626;stroke-width:1.25;" x="167.7415" xlink:href="#m3c29953231" y="311.376909"/>
      </g>
     </g>
     <g id="text_2">
      <text style="fill:#262626;font-family:DejaVu Sans;font-size:13.2px;font-stretch:normal;font-style:normal;font-weight:normal;text-anchor:middle;" transform="rotate(-0, 167.7415, 330.906847)" x="167.7415" y="330.906847">C</text>
     </g>
    </g>
    <g id="xtick_3">
     <g id="line2d_3">
      <g>
       <use style="fill:#262626;stroke:#262626;stroke-width:1.25;" x="241.5345" xlink:href="#m3c29953231" y="311.376909"/>
      </g>
     </g>
     <g id="text_3">
      <text style="fill:#262626;font-family:DejaVu Sans;font-size:13.2px;font-stretch:normal;font-style:normal;font-weight:normal;text-anchor:middle;" transform="rotate(-0, 241.5345, 330.906847)" x="241.5345" y="330.906847">G</text>
     </g>
    </g>
    <g id="xtick_4">
     <g id="line2d_4">
      <g>
       <use style="fill:#262626;stroke:#262626;stroke-width:1.25;" x="315.3275" xlink:href="#m3c29953231" y="311.376909"/>
      </g>
     </g>
     <g id="text_4">
      <text style="fill:#262626;font-family:DejaVu Sans;font-size:13.2px;font-stretch:normal;font-style:normal;font-weight:normal;text-anchor:middle;" transform="rotate(-0, 315.3275, 330.906847)" x="315.3275" y="330.906847">U</text>
     </g>
    </g>
    <g id="text_5">
     <text style="fill:#262626;font-family:DejaVu Sans;font-size:14.4px;font-stretch:normal;font-style:normal;font-weight:normal;text-anchor:middle;" transform="rotate(-0, 204.638, 348.593784)" x="204.638" y="348.593784">Base at +4 position in reduced site</text>
    </g>
   </g>
   <g id="matplotlib.axis_2">
    <g id="ytick_1">
     <g id="line2d_5">
      <defs>
       <path d="M 0 0 
L -6 0 
" id="me8df5861a8" style="stroke:#262626;stroke-width:1.25;"/>
      </defs>
      <g>
       <use style="fill:#262626;stroke:#262626;stroke-width:1.25;" x="57.052" xlink:href="#me8df5861a8" y="53.101409"/>
      </g>
     </g>
     <g id="text_6">
      <text style="fill:#262626;font-family:DejaVu Sans;font-size:13.2px;font-stretch:normal;font-style:normal;font-weight:normal;" transform="translate(44.806812 57.616222)rotate(-90)">A</text>
     </g>
    </g>
    <g id="ytick_2">
     <g id="line2d_6">
      <g>
       <use style="fill:#262626;stroke:#262626;stroke-width:1.25;" x="57.052" xlink:href="#me8df5861a8" y="126.894409"/>
      </g>
     </g>
     <g id="text_7">
      <text style="fill:#262626;font-family:DejaVu Sans;font-size:13.2px;font-stretch:normal;font-style:normal;font-weight:normal;" transform="translate(44.806812 131.503065)rotate(-90)">C</text>
     </g>
    </g>
    <g id="ytick_3">
     <g id="line2d_7">
      <g>
       <use style="fill:#262626;stroke:#262626;stroke-width:1.25;" x="57.052" xlink:href="#me8df5861a8" y="200.687409"/>
      </g>
     </g>
     <g id="text_8">
      <text style="fill:#262626;font-family:DejaVu Sans;font-size:13.2px;font-stretch:normal;font-style:normal;font-weight:normal;" transform="translate(44.806812 205.801378)rotate(-90)">G</text>
     </g>
    </g>
    <g id="ytick_4">
     <g id="line2d_8">
      <g>
       <use style="fill:#262626;stroke:#262626;stroke-width:1.25;" x="57.052" xlink:href="#me8df5861a8" y="274.480409"/>
      </g>
     </g>
     <g id="text_9">
      <text style="fill:#262626;font-family:DejaVu Sans;font-size:13.2px;font-stretch:normal;font-style:normal;font-weight:normal;" transform="translate(44.806812 279.310784)rotate(-90)">U</text>
     </g>
    </g>
    <g id="text_10">
     <text style="fill:#262626;font-family:DejaVu Sans;font-size:14.4px;font-stretch:normal;font-style:normal;font-weight:normal;text-anchor:middle;" transform="rotate(-90, 27.782125, 163.790909)" x="27.782125" y="163.790909">Base at +4 position in increased site</text>
    </g>
   </g>
   <g id="QuadMesh_1">
    <path clip-path="url(#p53c726231b)" d="M 57.052 16.204909 
L 130.845 16.204909 
L 130.845 89.997909 
L 57.052 89.997909 
L 57.052 16.204909 
" style="fill:#1f6eb3;"/>
    <path clip-path="url(#p53c726231b)" d="M 130.845 16.204909 
L 204.638 16.204909 
L 204.638 89.997909 
L 130.845 89.997909 
L 130.845 16.204909 
" style="fill:#e5eff9;"/>
    <path clip-path="url(#p53c726231b)" d="M 204.638 16.204909 
L 278.431 16.204909 
L 278.431 89.997909 
L 204.638 89.997909 
L 204.638 16.204909 
" style="fill:#f5f9fe;"/>
    <path clip-path="url(#p53c726231b)" d="M 278.431 16.204909 
L 352.224 16.204909 
L 352.224 89.997909 
L 278.431 89.997909 
L 278.431 16.204909 
" style="fill:#f4f9fe;"/>
    <path clip-path="url(#p53c726231b)" d="M 57.052 89.997909 
L 130.845 89.997909 
L 130.845 163.790909 
L 57.052 163.790909 
L 57.052 89.997909 
" style="fill:#6aaed6;"/>
    <path clip-path="url(#p53c726231b)" d="M 130.845 89.997909 
L 204.638 89.997909 
L 204.638 163.790909 
L 130.845 163.790909 
L 130.845 89.997909 
" style="fill:#f5f9fe;"/>
    <path clip-path="url(#p53c726231b)" d="M 204.638 89.997909 
L 278.431 89.997909 
L 278.431 163.790909 
L 204.638 163.790909 
L 204.638 89.997909 
" style="fill:#f6faff;"/>
    <path clip-path="url(#p53c726231b)" d="M 278.431 89.997909 
L 352.224 89.997909 
L 352.224 163.790909 
L 278.431 163.790909 
L 278.431 89.997909 
" style="fill:#f6faff;"/>
    <path clip-path="url(#p53c726231b)" d="M 57.052 163.790909 
L 130.845 163.790909 
L 130.845 237.583909 
L 57.052 237.583909 
L 57.052 163.790909 
" style="fill:#c6dbef;"/>
    <path clip-path="url(#p53c726231b)" d="M 130.845 163.790909 
L 204.638 163.790909 
L 204.638 237.583909 
L 130.845 237.583909 
L 130.845 163.790909 
" style="fill:#eff6fc;"/>
    <path clip-path="url(#p53c726231b)" d="M 204.638 163.790909 
L 278.431 163.790909 
L 278.431 237.583909 
L 204.638 237.583909 
L 204.638 163.790909 
" style="fill:#f7fbff;"/>
    <path clip-path="url(#p53c726231b)" d="M 278.431 163.790909 
L 352.224 163.790909 
L 352.224 237.583909 
L 278.431 237.583909 
L 278.431 163.790909 
" style="fill:#ecf4fb;"/>
    <path clip-path="url(#p53c726231b)" d="M 57.052 237.583909 
L 130.845 237.583909 
L 130.845 311.376909 
L 57.052 311.376909 
L 57.052 237.583909 
" style="fill:#08306b;"/>
    <path clip-path="url(#p53c726231b)" d="M 130.845 237.583909 
L 204.638 237.583909 
L 204.638 311.376909 
L 130.845 311.376909 
L 130.845 237.583909 
" style="fill:#d6e6f4;"/>
    <path clip-path="url(#p53c726231b)" d="M 204.638 237.583909 
L 278.431 237.583909 
L 278.431 311.376909 
L 204.638 311.376909 
L 204.638 237.583909 
" style="fill:#e3eef8;"/>
    <path clip-path="url(#p53c726231b)" d="M 278.431 237.583909 
L 352.224 237.583909 
L 352.224 311.376909 
L 278.431 311.376909 
L 278.431 237.583909 
" style="fill:#dbe9f6;"/>
   </g>
   <g id="text_11">
    <text style="fill:#ffffff;font-family:DejaVu Sans;font-size:14.4px;font-stretch:normal;font-style:normal;font-weight:normal;text-anchor:middle;" transform="rotate(-0, 93.9485, 57.074909)" x="93.9485" y="57.074909">127</text>
   </g>
   <g id="text_12">
    <text style="fill:#262626;font-family:DejaVu Sans;font-size:14.4px;font-stretch:normal;font-style:normal;font-weight:normal;text-anchor:middle;" transform="rotate(-0, 167.7415, 57.074909)" x="167.7415" y="57.074909">18</text>
   </g>
   <g id="text_13">
    <text style="fill:#262626;font-family:DejaVu Sans;font-size:14.4px;font-stretch:normal;font-style:normal;font-weight:normal;text-anchor:middle;" transform="rotate(-0, 241.5345, 57.074909)" x="241.5345" y="57.074909">5</text>
   </g>
   <g id="text_14">
    <text style="fill:#262626;font-family:DejaVu Sans;font-size:14.4px;font-stretch:normal;font-style:normal;font-weight:normal;text-anchor:middle;" transform="rotate(-0, 315.3275, 57.074909)" x="315.3275" y="57.074909">6</text>
   </g>
   <g id="text_15">
    <text style="fill:#ffffff;font-family:DejaVu Sans;font-size:14.4px;font-stretch:normal;font-style:normal;font-weight:normal;text-anchor:middle;" transform="rotate(-0, 93.9485, 130.867909)" x="93.9485" y="130.867909">85</text>
   </g>
   <g id="text_16">
    <text style="fill:#262626;font-family:DejaVu Sans;font-size:14.4px;font-stretch:normal;font-style:normal;font-weight:normal;text-anchor:middle;" transform="rotate(-0, 167.7415, 130.867909)" x="167.7415" y="130.867909">5</text>
   </g>
   <g id="text_17">
    <text style="fill:#262626;font-family:DejaVu Sans;font-size:14.4px;font-stretch:normal;font-style:normal;font-weight:normal;text-anchor:middle;" transform="rotate(-0, 241.5345, 130.867909)" x="241.5345" y="130.867909">4</text>
   </g>
   <g id="text_18">
    <text style="fill:#262626;font-family:DejaVu Sans;font-size:14.4px;font-stretch:normal;font-style:normal;font-weight:normal;text-anchor:middle;" transform="rotate(-0, 315.3275, 130.867909)" x="315.3275" y="130.867909">4</text>
   </g>
   <g id="text_19">
    <text style="fill:#262626;font-family:DejaVu Sans;font-size:14.4px;font-stretch:normal;font-style:normal;font-weight:normal;text-anchor:middle;" transform="rotate(-0, 93.9485, 204.660909)" x="93.9485" y="204.660909">44</text>
   </g>
   <g id="text_20">
    <text style="fill:#262626;font-family:DejaVu Sans;font-size:14.4px;font-stretch:normal;font-style:normal;font-weight:normal;text-anchor:middle;" transform="rotate(-0, 167.7415, 204.660909)" x="167.7415" y="204.660909">10</text>
   </g>
   <g id="text_21">
    <text style="fill:#262626;font-family:DejaVu Sans;font-size:14.4px;font-stretch:normal;font-style:normal;font-weight:normal;text-anchor:middle;" transform="rotate(-0, 241.5345, 204.660909)" x="241.5345" y="204.660909">3</text>
   </g>
   <g id="text_22">
    <text style="fill:#262626;font-family:DejaVu Sans;font-size:14.4px;font-stretch:normal;font-style:normal;font-weight:normal;text-anchor:middle;" transform="rotate(-0, 315.3275, 204.660909)" x="315.3275" y="204.660909">12</text>
   </g>
   <g id="text_23">
    <text style="fill:#ffffff;font-family:DejaVu Sans;font-size:14.4px;font-stretch:normal;font-style:normal;font-weight:normal;text-anchor:middle;" transform="rotate(-0, 93.9485, 278.453909)" x="93.9485" y="278.453909">166</text>
   </g>
   <g id="text_24">
    <text style="fill:#262626;font-family:DejaVu Sans;font-size:14.4px;font-stretch:normal;font-style:normal;font-weight:normal;text-anchor:middle;" transform="rotate(-0, 167.7415, 278.453909)" x="167.7415" y="278.453909">30</text>
   </g>
   <g id="text_25">
    <text style="fill:#262626;font-family:DejaVu Sans;font-size:14.4px;font-stretch:normal;font-style:normal;font-weight:normal;text-anchor:middle;" transform="rotate(-0, 241.5345, 278.453909)" x="241.5345" y="278.453909">20</text>
   </g>
   <g id="text_26">
    <text style="fill:#262626;font-family:DejaVu Sans;font-size:14.4px;font-stretch:normal;font-style:normal;font-weight:normal;text-anchor:middle;" transform="rotate(-0, 315.3275, 278.453909)" x="315.3275" y="278.453909">26</text>
   </g>
  </g>
  <g id="axes_2">
   <g id="patch_3">
    <path d="M 409.276 311.376909 
L 704.448 311.376909 
L 704.448 16.204909 
L 409.276 16.204909 
z
" style="fill:#ffffff;"/>
   </g>
   <g id="matplotlib.axis_3">
    <g id="xtick_5">
     <g id="line2d_9">
      <g>
       <use style="fill:#262626;stroke:#262626;stroke-width:1.25;" x="446.1725" xlink:href="#m3c29953231" y="311.376909"/>
      </g>
     </g>
     <g id="text_27">
      <text style="fill:#262626;font-family:DejaVu Sans;font-size:13.2px;font-stretch:normal;font-style:normal;font-weight:normal;text-anchor:middle;" transform="rotate(-0, 446.1725, 330.906847)" x="446.1725" y="330.906847">H/G</text>
     </g>
    </g>
    <g id="xtick_6">
     <g id="line2d_10">
      <g>
       <use style="fill:#262626;stroke:#262626;stroke-width:1.25;" x="519.9655" xlink:href="#m3c29953231" y="311.376909"/>
      </g>
     </g>
     <g id="text_28">
      <text style="fill:#262626;font-family:DejaVu Sans;font-size:13.2px;font-stretch:normal;font-style:normal;font-weight:normal;text-anchor:middle;" transform="rotate(-0, 519.9655, 330.906847)" x="519.9655" y="330.906847">G/G</text>
     </g>
    </g>
    <g id="xtick_7">
     <g id="line2d_11">
      <g>
       <use style="fill:#262626;stroke:#262626;stroke-width:1.25;" x="593.7585" xlink:href="#m3c29953231" y="311.376909"/>
      </g>
     </g>
     <g id="text_29">
      <text style="fill:#262626;font-family:DejaVu Sans;font-size:13.2px;font-stretch:normal;font-style:normal;font-weight:normal;text-anchor:middle;" transform="rotate(-0, 593.7585, 330.906847)" x="593.7585" y="330.906847">H/H</text>
     </g>
    </g>
    <g id="xtick_8">
     <g id="line2d_12">
      <g>
       <use style="fill:#262626;stroke:#262626;stroke-width:1.25;" x="667.5515" xlink:href="#m3c29953231" y="311.376909"/>
      </g>
     </g>
     <g id="text_30">
      <text style="fill:#262626;font-family:DejaVu Sans;font-size:13.2px;font-stretch:normal;font-style:normal;font-weight:normal;text-anchor:middle;" transform="rotate(-0, 667.5515, 330.906847)" x="667.5515" y="330.906847">G/H</text>
     </g>
    </g>
    <g id="text_31">
     <text style="fill:#262626;font-family:DejaVu Sans;font-size:14.4px;font-stretch:normal;font-style:normal;font-weight:normal;text-anchor:middle;" transform="rotate(-0, 556.862, 348.593784)" x="556.862" y="348.593784">Reduced 5'SS -1/+5 base</text>
    </g>
   </g>
   <g id="matplotlib.axis_4">
    <g id="ytick_5">
     <g id="line2d_13">
      <g>
       <use style="fill:#262626;stroke:#262626;stroke-width:1.25;" x="409.276" xlink:href="#me8df5861a8" y="53.101409"/>
      </g>
     </g>
     <g id="text_32">
      <text style="fill:#262626;font-family:DejaVu Sans;font-size:13.2px;font-stretch:normal;font-style:normal;font-weight:normal;" transform="translate(397.030813 65.402159)rotate(-90)">H/G</text>
     </g>
    </g>
    <g id="ytick_6">
     <g id="line2d_14">
      <g>
       <use style="fill:#262626;stroke:#262626;stroke-width:1.25;" x="409.276" xlink:href="#me8df5861a8" y="126.894409"/>
      </g>
     </g>
     <g id="text_33">
      <text style="fill:#262626;font-family:DejaVu Sans;font-size:13.2px;font-stretch:normal;font-style:normal;font-weight:normal;" transform="translate(397.030813 139.044597)rotate(-90)">H/H</text>
     </g>
    </g>
    <g id="ytick_7">
     <g id="line2d_15">
      <g>
       <use style="fill:#262626;stroke:#262626;stroke-width:1.25;" x="409.276" xlink:href="#me8df5861a8" y="200.687409"/>
      </g>
     </g>
     <g id="text_34">
      <text style="fill:#262626;font-family:DejaVu Sans;font-size:13.2px;font-stretch:normal;font-style:normal;font-weight:normal;" transform="translate(397.030813 213.138722)rotate(-90)">G/G</text>
     </g>
    </g>
    <g id="ytick_8">
     <g id="line2d_16">
      <g>
       <use style="fill:#262626;stroke:#262626;stroke-width:1.25;" x="409.276" xlink:href="#me8df5861a8" y="274.480409"/>
      </g>
     </g>
     <g id="text_35">
      <text style="fill:#262626;font-family:DejaVu Sans;font-size:13.2px;font-stretch:normal;font-style:normal;font-weight:normal;" transform="translate(397.030813 286.781159)rotate(-90)">G/H</text>
     </g>
    </g>
    <g id="text_36">
     <text style="fill:#262626;font-family:DejaVu Sans;font-size:14.4px;font-stretch:normal;font-style:normal;font-weight:normal;text-anchor:middle;" transform="rotate(-90, 380.006125, 163.790909)" x="380.006125" y="163.790909">Increased 5'SS -1/+5 base</text>
    </g>
   </g>
   <g id="QuadMesh_2">
    <path clip-path="url(#p893af79c68)" d="M 409.276 16.204909 
L 483.069 16.204909 
L 483.069 89.997909 
L 409.276 89.997909 
L 409.276 16.204909 
" style="fill:#c4daee;"/>
    <path clip-path="url(#p893af79c68)" d="M 483.069 16.204909 
L 556.862 16.204909 
L 556.862 89.997909 
L 483.069 89.997909 
L 483.069 16.204909 
" style="fill:#f2f7fd;"/>
    <path clip-path="url(#p893af79c68)" d="M 556.862 16.204909 
L 630.655 16.204909 
L 630.655 89.997909 
L 556.862 89.997909 
L 556.862 16.204909 
" style="fill:#f7fbff;"/>
    <path clip-path="url(#p893af79c68)" d="M 630.655 16.204909 
L 704.448 16.204909 
L 704.448 89.997909 
L 630.655 89.997909 
L 630.655 16.204909 
" style="fill:#d0e1f2;"/>
    <path clip-path="url(#p893af79c68)" d="M 409.276 89.997909 
L 483.069 89.997909 
L 483.069 163.790909 
L 409.276 163.790909 
L 409.276 89.997909 
" style="fill:#bad6eb;"/>
    <path clip-path="url(#p893af79c68)" d="M 483.069 89.997909 
L 556.862 89.997909 
L 556.862 163.790909 
L 483.069 163.790909 
L 483.069 89.997909 
" style="fill:#e7f0fa;"/>
    <path clip-path="url(#p893af79c68)" d="M 556.862 89.997909 
L 630.655 89.997909 
L 630.655 163.790909 
L 556.862 163.790909 
L 556.862 89.997909 
" style="fill:#f7fbff;"/>
    <path clip-path="url(#p893af79c68)" d="M 630.655 89.997909 
L 704.448 89.997909 
L 704.448 163.790909 
L 630.655 163.790909 
L 630.655 89.997909 
" style="fill:#e0ecf8;"/>
    <path clip-path="url(#p893af79c68)" d="M 409.276 163.790909 
L 483.069 163.790909 
L 483.069 237.583909 
L 409.276 237.583909 
L 409.276 163.790909 
" style="fill:#4191c6;"/>
    <path clip-path="url(#p893af79c68)" d="M 483.069 163.790909 
L 556.862 163.790909 
L 556.862 237.583909 
L 483.069 237.583909 
L 483.069 163.790909 
" style="fill:#b2d2e8;"/>
    <path clip-path="url(#p893af79c68)" d="M 556.862 163.790909 
L 630.655 163.790909 
L 630.655 237.583909 
L 556.862 237.583909 
L 556.862 163.790909 
" style="fill:#e7f0fa;"/>
    <path clip-path="url(#p893af79c68)" d="M 630.655 163.790909 
L 704.448 163.790909 
L 704.448 237.583909 
L 630.655 237.583909 
L 630.655 163.790909 
" style="fill:#dbe9f6;"/>
    <path clip-path="url(#p893af79c68)" d="M 409.276 237.583909 
L 483.069 237.583909 
L 483.069 311.376909 
L 409.276 311.376909 
L 409.276 237.583909 
" style="fill:#08306b;"/>
    <path clip-path="url(#p893af79c68)" d="M 483.069 237.583909 
L 556.862 237.583909 
L 556.862 311.376909 
L 483.069 311.376909 
L 483.069 237.583909 
" style="fill:#bad6eb;"/>
    <path clip-path="url(#p893af79c68)" d="M 556.862 237.583909 
L 630.655 237.583909 
L 630.655 311.376909 
L 556.862 311.376909 
L 556.862 237.583909 
" style="fill:#c4daee;"/>
    <path clip-path="url(#p893af79c68)" d="M 630.655 237.583909 
L 704.448 237.583909 
L 704.448 311.376909 
L 630.655 311.376909 
L 630.655 237.583909 
" style="fill:#7cb7da;"/>
   </g>
   <g id="text_37">
    <text style="fill:#262626;font-family:DejaVu Sans;font-size:14.4px;font-stretch:normal;font-style:normal;font-weight:normal;text-anchor:middle;" transform="rotate(-0, 446.1725, 57.074909)" x="446.1725" y="57.074909">10</text>
   </g>
   <g id="text_38">
    <text style="fill:#262626;font-family:DejaVu Sans;font-size:14.4px;font-stretch:normal;font-style:normal;font-weight:normal;text-anchor:middle;" transform="rotate(-0, 519.9655, 57.074909)" x="519.9655" y="57.074909">2</text>
   </g>
   <g id="text_39">
    <text style="fill:#262626;font-family:DejaVu Sans;font-size:14.4px;font-stretch:normal;font-style:normal;font-weight:normal;text-anchor:middle;" transform="rotate(-0, 593.7585, 57.074909)" x="593.7585" y="57.074909">1</text>
   </g>
   <g id="text_40">
    <text style="fill:#262626;font-family:DejaVu Sans;font-size:14.4px;font-stretch:normal;font-style:normal;font-weight:normal;text-anchor:middle;" transform="rotate(-0, 667.5515, 57.074909)" x="667.5515" y="57.074909">8</text>
   </g>
   <g id="text_41">
    <text style="fill:#262626;font-family:DejaVu Sans;font-size:14.4px;font-stretch:normal;font-style:normal;font-weight:normal;text-anchor:middle;" transform="rotate(-0, 446.1725, 130.867909)" x="446.1725" y="130.867909">11</text>
   </g>
   <g id="text_42">
    <text style="fill:#262626;font-family:DejaVu Sans;font-size:14.4px;font-stretch:normal;font-style:normal;font-weight:normal;text-anchor:middle;" transform="rotate(-0, 519.9655, 130.867909)" x="519.9655" y="130.867909">4</text>
   </g>
   <g id="text_43">
    <text style="fill:#262626;font-family:DejaVu Sans;font-size:14.4px;font-stretch:normal;font-style:normal;font-weight:normal;text-anchor:middle;" transform="rotate(-0, 593.7585, 130.867909)" x="593.7585" y="130.867909">1</text>
   </g>
   <g id="text_44">
    <text style="fill:#262626;font-family:DejaVu Sans;font-size:14.4px;font-stretch:normal;font-style:normal;font-weight:normal;text-anchor:middle;" transform="rotate(-0, 667.5515, 130.867909)" x="667.5515" y="130.867909">5</text>
   </g>
   <g id="text_45">
    <text style="fill:#ffffff;font-family:DejaVu Sans;font-size:14.4px;font-stretch:normal;font-style:normal;font-weight:normal;text-anchor:middle;" transform="rotate(-0, 446.1725, 204.660909)" x="446.1725" y="204.660909">23</text>
   </g>
   <g id="text_46">
    <text style="fill:#262626;font-family:DejaVu Sans;font-size:14.4px;font-stretch:normal;font-style:normal;font-weight:normal;text-anchor:middle;" transform="rotate(-0, 519.9655, 204.660909)" x="519.9655" y="204.660909">12</text>
   </g>
   <g id="text_47">
    <text style="fill:#262626;font-family:DejaVu Sans;font-size:14.4px;font-stretch:normal;font-style:normal;font-weight:normal;text-anchor:middle;" transform="rotate(-0, 593.7585, 204.660909)" x="593.7585" y="204.660909">4</text>
   </g>
   <g id="text_48">
    <text style="fill:#262626;font-family:DejaVu Sans;font-size:14.4px;font-stretch:normal;font-style:normal;font-weight:normal;text-anchor:middle;" transform="rotate(-0, 667.5515, 204.660909)" x="667.5515" y="204.660909">6</text>
   </g>
   <g id="text_49">
    <text style="fill:#ffffff;font-family:DejaVu Sans;font-size:14.4px;font-stretch:normal;font-style:normal;font-weight:normal;text-anchor:middle;" transform="rotate(-0, 446.1725, 278.453909)" x="446.1725" y="278.453909">36</text>
   </g>
   <g id="text_50">
    <text style="fill:#262626;font-family:DejaVu Sans;font-size:14.4px;font-stretch:normal;font-style:normal;font-weight:normal;text-anchor:middle;" transform="rotate(-0, 519.9655, 278.453909)" x="519.9655" y="278.453909">11</text>
   </g>
   <g id="text_51">
    <text style="fill:#262626;font-family:DejaVu Sans;font-size:14.4px;font-stretch:normal;font-style:normal;font-weight:normal;text-anchor:middle;" transform="rotate(-0, 593.7585, 278.453909)" x="593.7585" y="278.453909">10</text>
   </g>
   <g id="text_52">
    <text style="fill:#262626;font-family:DejaVu Sans;font-size:14.4px;font-stretch:normal;font-style:normal;font-weight:normal;text-anchor:middle;" transform="rotate(-0, 667.5515, 278.453909)" x="667.5515" y="278.453909">17</text>
   </g>
  </g>
 </g>
 <defs>
  <clipPath id="p53c726231b">
   <rect height="295.172" width="295.172" x="57.052" y="16.204909"/>
  </clipPath>
  <clipPath id="p893af79c68">
   <rect height="295.172" width="295.172" x="409.276" y="16.204909"/>
  </clipPath>
 </defs>
</svg>
