<?xml version="1.0" encoding="utf-8" standalone="no"?>
<!DOCTYPE svg PUBLIC "-//W3C//DTD SVG 1.1//EN"
  "http://www.w3.org/Graphics/SVG/1.1/DTD/svg11.dtd">
<!-- Created with matplotlib (https://matplotlib.org/) -->
<svg height="288pt" version="1.1" viewBox="0 0 612 288" width="612pt" xmlns="http://www.w3.org/2000/svg" xmlns:xlink="http://www.w3.org/1999/xlink">
 <metadata>
  <rdf:RDF xmlns:cc="http://creativecommons.org/ns#" xmlns:dc="http://purl.org/dc/elements/1.1/" xmlns:rdf="http://www.w3.org/1999/02/22-rdf-syntax-ns#">
   <cc:Work>
    <dc:type rdf:resource="http://purl.org/dc/dcmitype/StillImage"/>
    <dc:date>2022-03-04T10:14:33.528116</dc:date>
    <dc:format>image/svg+xml</dc:format>
    <dc:creator>
     <cc:Agent>
      <dc:title>Matplotlib v3.3.4, https://matplotlib.org/</dc:title>
     </cc:Agent>
    </dc:creator>
   </cc:Work>
  </rdf:RDF>
 </metadata>
 <defs>
  <style type="text/css">*{stroke-linecap:butt;stroke-linejoin:round;}</style>
 </defs>
 <g id="figure_1">
  <g id="patch_1">
   <path d="M 0 288 
L 612 288 
L 612 0 
L 0 0 
z
" style="fill:#ffffff;"/>
  </g>
  <g id="axes_1">
   <g id="patch_2">
    <path d="M 76.5 252 
L 292.090909 252 
L 292.090909 34.56 
L 76.5 34.56 
z
" style="fill:#ffffff;"/>
   </g>
   <g id="matplotlib.axis_1">
    <g id="xtick_1">
     <g id="line2d_1">
      <defs>
       <path d="M 0 0 
L 0 6 
" id="m5382665fe3" style="stroke:#262626;stroke-width:1.25;"/>
      </defs>
      <g>
       <use style="fill:#262626;stroke:#262626;stroke-width:1.25;" x="151.076993" xlink:href="#m5382665fe3" y="252"/>
      </g>
     </g>
     <g id="text_1">
      <text style="fill:#262626;font-family:DejaVu Sans;font-size:13.2px;font-stretch:normal;font-style:normal;font-weight:normal;text-anchor:middle;" transform="rotate(-0, 151.076993, 271.529938)" x="151.076993" y="271.529938">−4</text>
     </g>
    </g>
    <g id="xtick_2">
     <g id="line2d_2">
      <g>
       <use style="fill:#262626;stroke:#262626;stroke-width:1.25;" x="231.855299" xlink:href="#m5382665fe3" y="252"/>
      </g>
     </g>
     <g id="text_2">
      <text style="fill:#262626;font-family:DejaVu Sans;font-size:13.2px;font-stretch:normal;font-style:normal;font-weight:normal;text-anchor:middle;" transform="rotate(-0, 231.855299, 271.529938)" x="231.855299" y="271.529938">−2</text>
     </g>
    </g>
    <g id="text_3">
     <text style="fill:#262626;font-family:DejaVu Sans;font-size:14.4px;font-stretch:normal;font-style:normal;font-weight:normal;text-anchor:middle;" transform="rotate(-0, 184.295455, 289.216875)" x="184.295455" y="289.216875">U5 PSSM log-likelihood</text>
    </g>
   </g>
   <g id="matplotlib.axis_2">
    <g id="ytick_1">
     <g id="line2d_3">
      <defs>
       <path d="M 0 0 
L -6 0 
" id="mee0c8fe81a" style="stroke:#262626;stroke-width:1.25;"/>
      </defs>
      <g>
       <use style="fill:#262626;stroke:#262626;stroke-width:1.25;" x="76.5" xlink:href="#mee0c8fe81a" y="242.170854"/>
      </g>
     </g>
     <g id="text_4">
      <text style="fill:#262626;font-family:DejaVu Sans;font-size:13.2px;font-stretch:normal;font-style:normal;font-weight:normal;text-anchor:end;" transform="rotate(-0, 67, 247.185823)" x="67" y="247.185823">0.0</text>
     </g>
    </g>
    <g id="ytick_2">
     <g id="line2d_4">
      <g>
       <use style="fill:#262626;stroke:#262626;stroke-width:1.25;" x="76.5" xlink:href="#mee0c8fe81a" y="202.625411"/>
      </g>
     </g>
     <g id="text_5">
      <text style="fill:#262626;font-family:DejaVu Sans;font-size:13.2px;font-stretch:normal;font-style:normal;font-weight:normal;text-anchor:end;" transform="rotate(-0, 67, 207.640379)" x="67" y="207.640379">0.2</text>
     </g>
    </g>
    <g id="ytick_3">
     <g id="line2d_5">
      <g>
       <use style="fill:#262626;stroke:#262626;stroke-width:1.25;" x="76.5" xlink:href="#mee0c8fe81a" y="163.079967"/>
      </g>
     </g>
     <g id="text_6">
      <text style="fill:#262626;font-family:DejaVu Sans;font-size:13.2px;font-stretch:normal;font-style:normal;font-weight:normal;text-anchor:end;" transform="rotate(-0, 67, 168.094936)" x="67" y="168.094936">0.4</text>
     </g>
    </g>
    <g id="ytick_4">
     <g id="line2d_6">
      <g>
       <use style="fill:#262626;stroke:#262626;stroke-width:1.25;" x="76.5" xlink:href="#mee0c8fe81a" y="123.534524"/>
      </g>
     </g>
     <g id="text_7">
      <text style="fill:#262626;font-family:DejaVu Sans;font-size:13.2px;font-stretch:normal;font-style:normal;font-weight:normal;text-anchor:end;" transform="rotate(-0, 67, 128.549492)" x="67" y="128.549492">0.6</text>
     </g>
    </g>
    <g id="ytick_5">
     <g id="line2d_7">
      <g>
       <use style="fill:#262626;stroke:#262626;stroke-width:1.25;" x="76.5" xlink:href="#mee0c8fe81a" y="83.98908"/>
      </g>
     </g>
     <g id="text_8">
      <text style="fill:#262626;font-family:DejaVu Sans;font-size:13.2px;font-stretch:normal;font-style:normal;font-weight:normal;text-anchor:end;" transform="rotate(-0, 67, 89.004049)" x="67" y="89.004049">0.8</text>
     </g>
    </g>
    <g id="ytick_6">
     <g id="line2d_8">
      <g>
       <use style="fill:#262626;stroke:#262626;stroke-width:1.25;" x="76.5" xlink:href="#mee0c8fe81a" y="44.443636"/>
      </g>
     </g>
     <g id="text_9">
      <text style="fill:#262626;font-family:DejaVu Sans;font-size:13.2px;font-stretch:normal;font-style:normal;font-weight:normal;text-anchor:end;" transform="rotate(-0, 67, 49.458605)" x="67" y="49.458605">1.0</text>
     </g>
    </g>
   </g>
   <g id="line2d_9">
    <path clip-path="url(#peeed94f87c)" d="M 86.299587 240.072962 
L 91.63574 240.072962 
L 91.63574 237.512138 
L 95.763161 237.512138 
L 95.763161 235.893712 
L 127.458572 235.893712 
L 127.458572 232.285779 
L 132.794725 232.285779 
L 132.794725 221.489536 
L 136.922146 221.489536 
L 136.922146 217.295589 
L 137.452324 217.295589 
L 137.452324 210.623485 
L 142.788476 210.623485 
L 142.788476 200.165256 
L 146.915898 200.165256 
L 146.915898 197.705469 
L 156.319492 197.705469 
L 156.319492 192.960412 
L 197.478477 192.960412 
L 197.478477 181.523044 
L 207.472229 181.523044 
L 207.472229 165.630871 
L 212.271417 165.630871 
L 212.271417 146.547772 
L 217.60757 146.547772 
L 217.60757 133.023534 
L 221.734991 133.023534 
L 221.734991 104.154559 
L 282.291322 104.154559 
L 282.291322 44.443636 
" style="fill:none;stroke:#0072b2;stroke-linecap:round;stroke-opacity:0.8;stroke-width:3;"/>
   </g>
   <g id="line2d_10">
    <path clip-path="url(#peeed94f87c)" d="M 86.299587 241.604747 
L 91.63574 241.604747 
L 91.63574 240.916563 
L 95.763161 240.916563 
L 95.763161 240.397408 
L 127.458572 240.397408 
L 127.458572 238.916405 
L 132.794725 238.916405 
L 132.794725 236.57551 
L 136.922146 236.57551 
L 136.922146 235.06097 
L 137.452324 235.06097 
L 137.452324 232.925322 
L 142.788476 232.925322 
L 142.788476 229.837218 
L 146.915898 229.837218 
L 146.915898 228.907567 
L 156.319492 228.907567 
L 156.319492 227.307172 
L 158.657232 227.307172 
L 158.657232 227.305831 
L 162.075383 227.305831 
L 162.075383 227.293757 
L 197.478477 227.293757 
L 197.478477 222.909776 
L 207.472229 222.909776 
L 207.472229 214.434257 
L 210.89038 214.434257 
L 210.89038 214.432916 
L 212.271417 214.432916 
L 212.271417 203.859311 
L 217.60757 203.859311 
L 217.60757 194.183161 
L 221.734991 194.183161 
L 221.734991 176.574795 
L 233.476325 176.574795 
L 233.476325 176.573454 
L 282.291322 176.573454 
L 282.291322 44.443636 
" style="fill:none;stroke:#d55e00;stroke-linecap:round;stroke-opacity:0.8;stroke-width:3;"/>
   </g>
   <g id="patch_3">
    <path d="M 76.5 252 
L 76.5 34.56 
" style="fill:none;stroke:#262626;stroke-linecap:square;stroke-linejoin:miter;stroke-width:1.25;"/>
   </g>
   <g id="patch_4">
    <path d="M 292.090909 252 
L 292.090909 34.56 
" style="fill:none;stroke:#262626;stroke-linecap:square;stroke-linejoin:miter;stroke-width:1.25;"/>
   </g>
   <g id="patch_5">
    <path d="M 76.5 252 
L 292.090909 252 
" style="fill:none;stroke:#262626;stroke-linecap:square;stroke-linejoin:miter;stroke-width:1.25;"/>
   </g>
   <g id="patch_6">
    <path d="M 76.5 34.56 
L 292.090909 34.56 
" style="fill:none;stroke:#262626;stroke-linecap:square;stroke-linejoin:miter;stroke-width:1.25;"/>
   </g>
   <g id="legend_1">
    <g id="patch_7">
     <path d="M 85.74 104.40675 
L 184.432688 104.40675 
Q 187.072688 104.40675 187.072688 101.76675 
L 187.072688 43.8 
Q 187.072688 41.16 184.432688 41.16 
L 85.74 41.16 
Q 83.1 41.16 83.1 43.8 
L 83.1 101.76675 
Q 83.1 104.40675 85.74 104.40675 
z
" style="fill:#ffffff;opacity:0.8;stroke:#cccccc;stroke-linejoin:miter;"/>
    </g>
    <g id="text_10">
     <text style="fill:#262626;font-family:DejaVu Sans;font-size:14.4px;font-stretch:normal;font-style:normal;font-weight:normal;text-anchor:start;" transform="rotate(-0, 105.074719, 57.38175)" x="105.074719" y="57.38175">U6 class</text>
    </g>
    <g id="line2d_11">
     <path d="M 88.38 72.386437 
L 114.78 72.386437 
" style="fill:none;stroke:#0072b2;stroke-linecap:round;stroke-opacity:0.8;stroke-width:3;"/>
    </g>
    <g id="line2d_12"/>
    <g id="text_11">
     <text style="fill:#262626;font-family:DejaVu Sans;font-size:13.2px;font-stretch:normal;font-style:normal;font-weight:normal;text-anchor:start;" transform="rotate(-0, 125.34, 77.006437)" x="125.34" y="77.006437">//GURAG</text>
    </g>
    <g id="line2d_13">
     <path d="M 88.38 91.761562 
L 114.78 91.761562 
" style="fill:none;stroke:#d55e00;stroke-linecap:round;stroke-opacity:0.8;stroke-width:3;"/>
    </g>
    <g id="line2d_14"/>
    <g id="text_12">
     <text style="fill:#262626;font-family:DejaVu Sans;font-size:13.2px;font-stretch:normal;font-style:normal;font-weight:normal;text-anchor:start;" transform="rotate(-0, 125.34, 96.381562)" x="125.34" y="96.381562">Other</text>
    </g>
   </g>
  </g>
  <g id="axes_2">
   <g id="patch_8">
    <path d="M 335.209091 252 
L 550.8 252 
L 550.8 34.56 
L 335.209091 34.56 
z
" style="fill:#ffffff;"/>
   </g>
   <g id="matplotlib.axis_3">
    <g id="xtick_3">
     <g id="line2d_15">
      <g>
       <use style="fill:#262626;stroke:#262626;stroke-width:1.25;" x="350.491719" xlink:href="#m5382665fe3" y="252"/>
      </g>
     </g>
     <g id="text_13">
      <text style="fill:#262626;font-family:DejaVu Sans;font-size:13.2px;font-stretch:normal;font-style:normal;font-weight:normal;text-anchor:middle;" transform="rotate(-0, 350.491719, 271.529938)" x="350.491719" y="271.529938">−8</text>
     </g>
    </g>
    <g id="xtick_4">
     <g id="line2d_16">
      <g>
       <use style="fill:#262626;stroke:#262626;stroke-width:1.25;" x="408.054431" xlink:href="#m5382665fe3" y="252"/>
      </g>
     </g>
     <g id="text_14">
      <text style="fill:#262626;font-family:DejaVu Sans;font-size:13.2px;font-stretch:normal;font-style:normal;font-weight:normal;text-anchor:middle;" transform="rotate(-0, 408.054431, 271.529938)" x="408.054431" y="271.529938">−6</text>
     </g>
    </g>
    <g id="xtick_5">
     <g id="line2d_17">
      <g>
       <use style="fill:#262626;stroke:#262626;stroke-width:1.25;" x="465.617143" xlink:href="#m5382665fe3" y="252"/>
      </g>
     </g>
     <g id="text_15">
      <text style="fill:#262626;font-family:DejaVu Sans;font-size:13.2px;font-stretch:normal;font-style:normal;font-weight:normal;text-anchor:middle;" transform="rotate(-0, 465.617143, 271.529938)" x="465.617143" y="271.529938">−4</text>
     </g>
    </g>
    <g id="xtick_6">
     <g id="line2d_18">
      <g>
       <use style="fill:#262626;stroke:#262626;stroke-width:1.25;" x="523.179855" xlink:href="#m5382665fe3" y="252"/>
      </g>
     </g>
     <g id="text_16">
      <text style="fill:#262626;font-family:DejaVu Sans;font-size:13.2px;font-stretch:normal;font-style:normal;font-weight:normal;text-anchor:middle;" transform="rotate(-0, 523.179855, 271.529938)" x="523.179855" y="271.529938">−2</text>
     </g>
    </g>
    <g id="text_17">
     <text style="fill:#262626;font-family:DejaVu Sans;font-size:14.4px;font-stretch:normal;font-style:normal;font-weight:normal;text-anchor:middle;" transform="rotate(-0, 443.004545, 289.216875)" x="443.004545" y="289.216875">U6 PSSM log-likelihood</text>
    </g>
   </g>
   <g id="matplotlib.axis_4">
    <g id="ytick_7">
     <g id="line2d_19">
      <g>
       <use style="fill:#262626;stroke:#262626;stroke-width:1.25;" x="335.209091" xlink:href="#mee0c8fe81a" y="242.170854"/>
      </g>
     </g>
    </g>
    <g id="ytick_8">
     <g id="line2d_20">
      <g>
       <use style="fill:#262626;stroke:#262626;stroke-width:1.25;" x="335.209091" xlink:href="#mee0c8fe81a" y="202.625411"/>
      </g>
     </g>
    </g>
    <g id="ytick_9">
     <g id="line2d_21">
      <g>
       <use style="fill:#262626;stroke:#262626;stroke-width:1.25;" x="335.209091" xlink:href="#mee0c8fe81a" y="163.079967"/>
      </g>
     </g>
    </g>
    <g id="ytick_10">
     <g id="line2d_22">
      <g>
       <use style="fill:#262626;stroke:#262626;stroke-width:1.25;" x="335.209091" xlink:href="#mee0c8fe81a" y="123.534524"/>
      </g>
     </g>
    </g>
    <g id="ytick_11">
     <g id="line2d_23">
      <g>
       <use style="fill:#262626;stroke:#262626;stroke-width:1.25;" x="335.209091" xlink:href="#mee0c8fe81a" y="83.98908"/>
      </g>
     </g>
    </g>
    <g id="ytick_12">
     <g id="line2d_24">
      <g>
       <use style="fill:#262626;stroke:#262626;stroke-width:1.25;" x="335.209091" xlink:href="#mee0c8fe81a" y="44.443636"/>
      </g>
     </g>
    </g>
   </g>
   <g id="line2d_25">
    <path clip-path="url(#pc1da833604)" d="M 345.008678 242.062179 
L 357.029753 242.039538 
L 357.029753 241.9369 
L 359.622241 241.882563 
L 359.622241 241.659175 
L 368.439814 241.6471 
L 368.439814 241.346733 
L 369.774976 241.346733 
L 369.774976 240.966369 
L 371.643316 240.966369 
L 371.643316 240.774678 
L 375.799714 240.667512 
L 375.799714 240.247905 
L 383.053377 240.208661 
L 383.053377 239.707547 
L 384.388539 239.707547 
L 384.388539 239.40718 
L 387.820789 239.40718 
L 387.820789 238.952857 
L 388.282372 238.952857 
L 388.282372 238.832107 
L 389.155951 238.832107 
L 389.155951 238.646453 
L 399.23085 238.646453 
L 399.23085 238.28873 
L 400.303447 238.287221 
L 400.303447 237.737806 
L 400.566012 237.737806 
L 400.566012 237.574793 
L 402.895935 237.574793 
L 402.895935 237.410271 
L 406.848443 237.410271 
L 406.848443 236.619356 
L 409.005918 236.619356 
L 409.005918 236.288802 
L 410.34108 236.288802 
L 410.34108 235.671466 
L 411.713508 235.671466 
L 411.713508 235.448078 
L 414.91701 235.448078 
L 414.91701 234.240574 
L 415.163408 234.240574 
L 415.163408 231.790851 
L 416.49857 231.790851 
L 416.49857 231.493503 
L 418.869518 231.493503 
L 418.869518 229.621872 
L 419.073409 229.621872 
L 419.073409 229.14189 
L 421.462006 229.14189 
L 421.462006 228.141171 
L 423.619481 228.141171 
L 423.619481 227.668735 
L 424.954643 227.668735 
L 424.954643 227.17064 
L 426.327071 227.163093 
L 426.327071 226.776692 
L 427.184483 226.776692 
L 427.184483 226.409912 
L 428.519645 226.409912 
L 428.519645 226.242371 
L 430.279579 226.242371 
L 430.279579 224.37225 
L 431.094484 224.37225 
L 431.094484 222.893058 
L 433.483081 222.893058 
L 433.483081 217.764186 
L 437.639479 217.764186 
L 437.639479 214.854102 
L 438.594544 214.854102 
L 438.594544 208.659608 
L 439.796954 208.659608 
L 439.796954 207.906428 
L 439.929706 207.906428 
L 439.929706 204.566171 
L 441.132116 204.566171 
L 441.132116 203.852234 
L 442.504545 203.852234 
L 442.504545 203.705825 
L 444.893142 203.705825 
L 444.893142 197.930938 
L 449.660554 197.930938 
L 449.660554 186.3223 
L 452.279613 186.3223 
L 452.279613 183.931442 
L 458.437103 183.931442 
L 458.437103 180.767783 
L 461.070615 180.767783 
L 461.070615 177.214703 
L 466.893176 177.214703 
L 466.893176 174.472161 
L 470.458178 174.472161 
L 470.458178 172.659396 
L 470.845683 172.659396 
L 470.845683 166.398489 
L 477.003173 166.398489 
L 477.003173 161.714884 
L 479.160648 161.714884 
L 479.160648 157.349758 
L 480.49581 157.349758 
L 480.49581 145.754704 
L 481.868239 145.754704 
L 481.868239 140.477913 
L 483.070649 140.477913 
L 483.070649 135.512054 
L 485.459246 135.512054 
L 485.459246 127.205938 
L 489.024248 127.205938 
L 489.024248 123.969829 
L 500.434309 123.968319 
L 500.434309 113.348324 
L 501.636719 113.348324 
L 501.636719 93.504511 
L 522.434343 93.504511 
L 522.434343 66.601329 
L 541.000413 66.601329 
L 541.000413 44.443636 
L 541.000413 44.443636 
" style="fill:none;stroke:#0072b2;stroke-linecap:round;stroke-opacity:0.8;stroke-width:3;"/>
   </g>
   <g id="line2d_26">
    <path clip-path="url(#pc1da833604)" d="M 345.008678 242.116364 
L 358.364915 242.02982 
L 358.364915 241.978534 
L 360.957403 241.898401 
L 360.957403 241.863143 
L 369.774976 241.773393 
L 369.774976 241.718903 
L 372.978477 241.619537 
L 372.978477 241.584279 
L 377.134876 241.484914 
L 377.134876 241.456066 
L 383.053377 241.456066 
L 383.053377 241.334263 
L 387.820789 241.270156 
L 387.820789 241.167586 
L 399.23085 241.06181 
L 399.23085 240.984882 
L 400.566012 240.911159 
L 400.566012 240.859874 
L 406.848443 240.757304 
L 406.848443 240.47844 
L 410.34108 240.379075 
L 410.34108 240.244451 
L 414.91701 240.167523 
L 414.91701 240.010462 
L 415.163408 240.010462 
L 415.163408 239.16746 
L 416.49857 239.16746 
L 416.49857 239.010398 
L 418.869518 239.010398 
L 418.869518 238.29561 
L 419.073409 238.29561 
L 419.073409 238.135343 
L 421.462006 238.135343 
L 421.462006 237.769936 
L 424.954643 237.699418 
L 424.954643 237.558384 
L 427.184483 237.455813 
L 427.184483 237.064763 
L 428.519645 237.064763 
L 428.519645 236.952576 
L 430.279579 236.952576 
L 430.279579 236.314716 
L 431.094484 236.314716 
L 431.094484 236.093548 
L 433.483081 236.093548 
L 433.483081 234.202403 
L 437.639479 234.202403 
L 437.639479 233.503641 
L 438.594544 233.503641 
L 438.594544 231.756736 
L 439.796954 231.756736 
L 439.796954 231.622112 
L 439.929706 231.622112 
L 439.929706 230.734235 
L 441.132116 230.734235 
L 441.132116 230.589995 
L 444.893142 230.525889 
L 444.893142 228.605896 
L 449.660554 228.605896 
L 449.660554 223.970988 
L 452.279613 223.970988 
L 452.279613 223.5575 
L 458.437103 223.5575 
L 458.437103 220.897076 
L 461.070615 220.897076 
L 461.070615 219.204662 
L 466.893176 219.204662 
L 466.893176 218.611676 
L 470.458178 218.611676 
L 470.458178 216.71412 
L 470.845683 216.71412 
L 470.845683 212.867724 
L 477.003173 212.867724 
L 477.003173 206.296796 
L 479.160648 206.296796 
L 479.160648 202.591434 
L 480.49581 202.591434 
L 480.49581 194.863383 
L 481.868239 194.860177 
L 481.868239 192.334377 
L 483.070649 192.334377 
L 483.070649 190.914415 
L 485.459246 190.914415 
L 485.459246 184.237712 
L 489.024248 184.237712 
L 489.024248 179.17329 
L 500.434309 179.17329 
L 500.434309 165.890401 
L 501.636719 165.890401 
L 501.636719 151.710019 
L 522.434343 151.710019 
L 522.434343 94.966055 
L 541.000413 94.966055 
L 541.000413 44.443636 
L 541.000413 44.443636 
" style="fill:none;stroke:#d55e00;stroke-linecap:round;stroke-opacity:0.8;stroke-width:3;"/>
   </g>
   <g id="line2d_27">
    <path clip-path="url(#pc1da833604)" d="M 345.008678 242.023819 
L 357.029753 241.953802 
L 357.029753 241.722747 
L 359.622241 241.638727 
L 359.622241 241.330654 
L 368.439814 241.302647 
L 368.439814 241.015578 
L 369.774976 241.015578 
L 369.774976 240.840537 
L 371.643316 240.840537 
L 371.643316 240.567471 
L 372.978477 240.567471 
L 372.978477 240.266399 
L 375.799714 240.266399 
L 375.799714 239.930319 
L 383.053377 239.846299 
L 383.053377 239.321174 
L 384.388539 239.321174 
L 384.388539 239.09712 
L 387.820789 239.09712 
L 387.820789 238.733033 
L 388.282372 238.733033 
L 388.282372 238.621007 
L 389.155951 238.621007 
L 389.155951 238.431961 
L 399.23085 238.410956 
L 399.23085 238.088879 
L 400.303447 238.081878 
L 400.303447 237.955848 
L 400.566012 237.955848 
L 400.566012 237.829818 
L 402.895935 237.829818 
L 402.895935 237.563754 
L 406.848443 237.563754 
L 406.848443 237.353704 
L 409.005918 237.353704 
L 409.005918 237.164659 
L 410.34108 237.164659 
L 410.34108 236.954609 
L 411.713508 236.954609 
L 411.713508 236.75156 
L 414.91701 236.75156 
L 414.91701 236.45749 
L 415.163408 236.45749 
L 415.163408 235.981376 
L 416.49857 235.981376 
L 416.49857 235.813336 
L 418.869518 235.813336 
L 418.869518 235.596284 
L 419.073409 235.596284 
L 419.073409 235.316217 
L 421.462006 235.316217 
L 421.462006 235.008144 
L 423.619481 235.008144 
L 423.619481 234.588043 
L 424.954643 234.588043 
L 424.954643 234.188948 
L 426.327071 234.11193 
L 426.327071 233.691829 
L 427.184483 233.691829 
L 427.184483 233.523789 
L 430.279579 233.474778 
L 430.279579 232.067442 
L 431.094484 232.067442 
L 431.094484 231.689351 
L 433.483081 231.689351 
L 433.483081 230.485064 
L 437.639479 230.485064 
L 437.639479 229.833908 
L 438.594544 229.826906 
L 438.594544 229.000709 
L 439.796954 229.000709 
L 439.796954 228.398565 
L 439.929706 228.398565 
L 439.929706 227.7054 
L 441.132116 227.7054 
L 441.132116 227.131263 
L 442.504545 227.124261 
L 442.504545 226.816188 
L 444.893142 226.816188 
L 444.893142 225.6119 
L 449.660554 225.6119 
L 449.660554 223.448383 
L 452.279613 223.448383 
L 452.279613 223.05629 
L 458.437103 223.05629 
L 458.437103 221.80299 
L 461.070615 221.788987 
L 461.070615 220.318636 
L 466.893176 220.311634 
L 466.893176 219.688485 
L 470.458178 219.688485 
L 470.458178 218.519206 
L 470.845683 218.519206 
L 470.845683 216.915823 
L 477.003173 216.915823 
L 477.003173 209.739109 
L 479.160648 209.739109 
L 479.160648 207.155492 
L 480.49581 207.155492 
L 480.49581 203.101524 
L 481.868239 203.101524 
L 481.868239 200.902999 
L 483.070649 200.902999 
L 483.070649 199.964775 
L 485.459246 199.964775 
L 485.459246 195.882801 
L 489.024248 195.882801 
L 489.024248 190.673557 
L 500.434309 190.666555 
L 500.434309 174.044585 
L 501.636719 174.044585 
L 501.636719 166.69283 
L 522.434343 166.69283 
L 522.434343 116.896938 
L 541.000413 116.896938 
L 541.000413 44.443636 
L 541.000413 44.443636 
" style="fill:none;stroke:#009e73;stroke-linecap:round;stroke-opacity:0.8;stroke-width:3;"/>
   </g>
   <g id="line2d_28">
    <path clip-path="url(#pc1da833604)" d="M 345.008678 241.944728 
L 346.34384 241.944728 
L 346.34384 241.822968 
L 357.029753 241.822968 
L 357.029753 241.434494 
L 358.364915 241.434494 
L 358.364915 241.156185 
L 359.622241 241.156185 
L 359.622241 240.767711 
L 368.439814 240.680739 
L 368.439814 240.124121 
L 369.774976 240.124121 
L 369.774976 239.718253 
L 371.643316 239.718253 
L 371.643316 239.17323 
L 372.978477 239.17323 
L 372.978477 238.83694 
L 375.799714 238.83694 
L 375.799714 238.112176 
L 377.134876 238.112176 
L 377.134876 237.967223 
L 383.053377 237.967223 
L 383.053377 236.929361 
L 384.388539 236.929361 
L 384.388539 236.523493 
L 387.820789 236.517695 
L 387.820789 235.705959 
L 388.282372 235.705959 
L 388.282372 235.485631 
L 389.155951 235.485631 
L 389.155951 234.99859 
L 399.23085 234.986993 
L 399.23085 234.395586 
L 400.303447 234.389788 
L 400.303447 234.210046 
L 400.566012 234.210046 
L 400.566012 233.931737 
L 402.895935 233.931737 
L 402.895935 233.525869 
L 406.848443 233.525869 
L 406.848443 233.206973 
L 409.005918 233.206973 
L 409.005918 232.864884 
L 410.34108 232.864884 
L 410.34108 232.343054 
L 411.713508 232.343054 
L 411.713508 232.11113 
L 414.91701 232.11113 
L 414.91701 231.699464 
L 415.163408 231.699464 
L 415.163408 231.305192 
L 416.49857 231.305192 
L 416.49857 231.148643 
L 418.869518 231.148643 
L 418.869518 230.806555 
L 419.073409 230.806555 
L 419.073409 230.371696 
L 421.462006 230.371696 
L 421.462006 230.023809 
L 423.619481 230.023809 
L 423.619481 229.612144 
L 424.954643 229.612144 
L 424.954643 229.055525 
L 425.373028 229.055525 
L 425.373028 228.812004 
L 426.327071 228.812004 
L 426.327071 228.278578 
L 427.184483 228.278578 
L 427.184483 228.133625 
L 428.519645 228.133625 
L 428.519645 227.953883 
L 430.279579 227.953883 
L 430.279579 224.666354 
L 431.094484 224.666354 
L 431.094484 224.115533 
L 433.483081 224.115533 
L 433.483081 223.558915 
L 437.639479 223.558915 
L 437.639479 222.938517 
L 438.594544 222.932718 
L 438.594544 222.236945 
L 439.796954 222.231147 
L 439.796954 221.587556 
L 439.929706 221.587556 
L 439.929706 220.920774 
L 441.132116 220.920774 
L 441.132116 220.248193 
L 442.504545 220.225 
L 442.504545 219.900306 
L 444.893142 219.900306 
L 444.893142 219.239321 
L 449.660554 219.239321 
L 449.660554 218.201459 
L 452.279613 218.201459 
L 452.279613 217.841976 
L 458.437103 217.841976 
L 458.437103 216.90848 
L 461.070615 216.896884 
L 461.070615 216.270688 
L 466.893176 216.270688 
L 466.893176 215.795242 
L 470.458178 215.795242 
L 470.458178 214.751582 
L 470.845683 214.751582 
L 470.845683 213.957241 
L 477.003173 213.957241 
L 477.003173 210.878443 
L 479.160648 210.878443 
L 479.160648 209.428915 
L 480.49581 209.428915 
L 480.49581 207.167652 
L 481.868239 207.161854 
L 481.868239 204.796224 
L 483.070649 204.796224 
L 483.070649 204.158432 
L 485.459246 204.158432 
L 485.459246 202.390007 
L 489.024248 202.390007 
L 489.024248 197.635555 
L 500.434309 197.635555 
L 500.434309 188.25421 
L 501.636719 188.25421 
L 501.636719 184.786939 
L 522.434343 184.786939 
L 522.434343 124.196668 
L 541.000413 124.196668 
L 541.000413 44.443636 
L 541.000413 44.443636 
" style="fill:none;stroke:#f0e442;stroke-linecap:round;stroke-opacity:0.8;stroke-width:3;"/>
   </g>
   <g id="patch_9">
    <path d="M 335.209091 252 
L 335.209091 34.56 
" style="fill:none;stroke:#262626;stroke-linecap:square;stroke-linejoin:miter;stroke-width:1.25;"/>
   </g>
   <g id="patch_10">
    <path d="M 550.8 252 
L 550.8 34.56 
" style="fill:none;stroke:#262626;stroke-linecap:square;stroke-linejoin:miter;stroke-width:1.25;"/>
   </g>
   <g id="patch_11">
    <path d="M 335.209091 252 
L 550.8 252 
" style="fill:none;stroke:#262626;stroke-linecap:square;stroke-linejoin:miter;stroke-width:1.25;"/>
   </g>
   <g id="patch_12">
    <path d="M 335.209091 34.56 
L 550.8 34.56 
" style="fill:none;stroke:#262626;stroke-linecap:square;stroke-linejoin:miter;stroke-width:1.25;"/>
   </g>
   <g id="legend_2">
    <g id="patch_13">
     <path d="M 344.449091 143.157 
L 434.524653 143.157 
Q 437.164653 143.157 437.164653 140.517 
L 437.164653 43.8 
Q 437.164653 41.16 434.524653 41.16 
L 344.449091 41.16 
Q 341.809091 41.16 341.809091 43.8 
L 341.809091 140.517 
Q 341.809091 143.157 344.449091 143.157 
z
" style="fill:#ffffff;opacity:0.8;stroke:#cccccc;stroke-linejoin:miter;"/>
    </g>
    <g id="text_18">
     <text style="fill:#262626;font-family:DejaVu Sans;font-size:14.4px;font-stretch:normal;font-style:normal;font-weight:normal;text-anchor:start;" transform="rotate(-0, 359.475247, 57.38175)" x="359.475247" y="57.38175">U5 class</text>
    </g>
    <g id="line2d_29">
     <path d="M 347.089091 72.386437 
L 373.489091 72.386437 
" style="fill:none;stroke:#0072b2;stroke-linecap:round;stroke-opacity:0.8;stroke-width:3;"/>
    </g>
    <g id="line2d_30"/>
    <g id="text_19">
     <text style="fill:#262626;font-family:DejaVu Sans;font-size:13.2px;font-stretch:normal;font-style:normal;font-weight:normal;text-anchor:start;" transform="rotate(-0, 384.049091, 77.006438)" x="384.049091" y="77.006438">AG//GU</text>
    </g>
    <g id="line2d_31">
     <path d="M 347.089091 91.761562 
L 373.489091 91.761562 
" style="fill:none;stroke:#d55e00;stroke-linecap:round;stroke-opacity:0.8;stroke-width:3;"/>
    </g>
    <g id="line2d_32"/>
    <g id="text_20">
     <text style="fill:#262626;font-family:DejaVu Sans;font-size:13.2px;font-stretch:normal;font-style:normal;font-weight:normal;text-anchor:start;" transform="rotate(-0, 384.049091, 96.381563)" x="384.049091" y="96.381563">BG//GU</text>
    </g>
    <g id="line2d_33">
     <path d="M 347.089091 111.136687 
L 373.489091 111.136687 
" style="fill:none;stroke:#009e73;stroke-linecap:round;stroke-opacity:0.8;stroke-width:3;"/>
    </g>
    <g id="line2d_34"/>
    <g id="text_21">
     <text style="fill:#262626;font-family:DejaVu Sans;font-size:13.2px;font-stretch:normal;font-style:normal;font-weight:normal;text-anchor:start;" transform="rotate(-0, 384.049091, 115.756687)" x="384.049091" y="115.756687">AH//GU</text>
    </g>
    <g id="line2d_35">
     <path d="M 347.089091 130.511813 
L 373.489091 130.511813 
" style="fill:none;stroke:#f0e442;stroke-linecap:round;stroke-opacity:0.8;stroke-width:3;"/>
    </g>
    <g id="line2d_36"/>
    <g id="text_22">
     <text style="fill:#262626;font-family:DejaVu Sans;font-size:13.2px;font-stretch:normal;font-style:normal;font-weight:normal;text-anchor:start;" transform="rotate(-0, 384.049091, 135.131813)" x="384.049091" y="135.131813">BH//GU</text>
    </g>
   </g>
  </g>
 </g>
 <defs>
  <clipPath id="peeed94f87c">
   <rect height="217.44" width="215.590909" x="76.5" y="34.56"/>
  </clipPath>
  <clipPath id="pc1da833604">
   <rect height="217.44" width="215.590909" x="335.209091" y="34.56"/>
  </clipPath>
 </defs>
</svg>
